<?xml version="1.0" encoding="UTF-8" standalone="no"?>
<svg
   width="150"
   height="100"
   version="1.1"
   viewBox="0 0 150 100"
   xml:space="preserve"
   id="svg18"
   sodipodi:docname="steal++.svg"
   inkscape:version="1.2.2 (732a01da63, 2022-12-09)"
   xmlns:inkscape="http://www.inkscape.org/namespaces/inkscape"
   xmlns:sodipodi="http://sodipodi.sourceforge.net/DTD/sodipodi-0.dtd"
   xmlns="http://www.w3.org/2000/svg"
   xmlns:svg="http://www.w3.org/2000/svg"><defs
     id="defs22" /><sodipodi:namedview
     id="namedview20"
     pagecolor="#ffffff"
     bordercolor="#000000"
     borderopacity="0.25"
     inkscape:showpageshadow="2"
     inkscape:pageopacity="0.0"
     inkscape:pagecheckerboard="0"
     inkscape:deskcolor="#d1d1d1"
     showgrid="false"
     inkscape:zoom="4.72"
     inkscape:cx="58.15678"
     inkscape:cy="59.11017"
     inkscape:window-width="2560"
     inkscape:window-height="1476"
     inkscape:window-x="-12"
     inkscape:window-y="-12"
     inkscape:window-maximized="1"
     inkscape:current-layer="svg18" /><path
     d="m 94.174102,36.338185 c 0,0 5.201876,12.794319 4.37952,13.941791 -0.673184,0.944753 -1.969828,1.484065 -3.136425,1.520401 -1.642798,0.05413 -3.155549,-0.707608 -4.226524,-1.950703 -0.988738,-1.141735 -2.505315,-4.303022 -2.505315,-4.303022 l -6.48322,-4.953257"
     fill="#ccca00"
     id="path2"
     style="stroke:#000000;stroke-width:0.956227;stroke-linejoin:round" /><path
     d="m 111.57744,38.059394 c 0,0 7.26732,16.179363 6.71271,17.747575 -0.47429,1.369317 -1.45729,2.161073 -2.86868,2.447941 -1.55865,0.328943 -3.90141,-0.361453 -5.24013,-1.225883 -2.71568,-1.755633 -5.69911,-7.401198 -5.69911,-7.401198 L 88.474988,40.142056"
     fill="#d6d300"
     id="path4"
     style="stroke:#000000;stroke-width:0.956227;stroke-linejoin:round" /><path
     d="m 119.80099,36.720676 c 0,0 10.07863,10.193381 11.24523,12.163209 0.45516,0.776456 0.98874,1.63706 0.92945,2.543564 -0.0874,1.33298 -0.79749,2.734809 -1.8589,3.557165 -1.35211,1.032725 -3.30855,1.331068 -4.99151,1.099661 -2.31407,-0.317468 -4.36039,-1.820657 -6.17723,-3.289421 -1.78049,-1.457291 -4.39864,-5.316623 -4.39864,-5.316623 l -13.61667,-7.688066"
     fill="#e0dd00"
     id="path6"
     style="stroke:#000000;stroke-width:0.956227;stroke-linejoin:round" /><path
     d="m 20.927104,17.787378 c 0,0 26.009378,-0.409265 39.014067,0.08453 6.100729,0.231407 12.258832,0.178814 18.263938,1.352105 4.035279,0.791756 7.802813,2.639187 11.742469,3.805784 9.791766,2.90693 20.080772,4.360396 29.643042,7.936685 3.23205,1.214409 7.01871,1.969828 9.29453,4.570766 0.82044,0.939015 1.26604,2.314069 1.18381,3.557165 -0.10271,1.533788 -0.83001,3.174674 -2.02721,4.150025 -1.31194,1.05185 -3.21292,1.212496 -4.89588,1.18381 -2.52444,-0.04437 -7.26732,-2.027202 -7.26732,-2.027202 0,0 -4.4369,0.21802 -6.59797,-0.174224 -2.44794,-0.445602 -6.99958,-2.447942 -6.99958,-2.447942 0,0 -7.535074,0.778369 -11.321733,0.761157 -1.835957,-0.009 -3.652788,-0.550787 -5.488744,-0.422652 -3.538041,0.246706 -10.728869,2.371443 -10.728869,2.371443 0,0 0.0765,1.070974 0.254357,1.606461 1.545263,4.666389 6.502344,7.420323 9.39015,11.417352 1.350193,1.874205 3.040803,3.652788 3.691037,5.871235 0.415003,1.417128 0.566086,3.040802 0.04093,4.436894 -0.445601,1.166597 -1.413303,2.199322 -2.524439,2.773058 -1.386529,0.726733 -3.098176,0.759245 -4.647264,0.615811 C 79.127681,69.041916 77.293637,68.465694 75.744549,67.509467 73.887556,66.367732 72.550751,64.526038 71.11641,62.881328 68.668469,60.07002 67.100256,56.512855 64.346322,54.00754 62.749423,52.546425 60.846531,51.406602 58.857578,50.545998 56.50526,49.526659 53.904322,49.228317 51.418131,48.595294 49.448303,48.099969 47.382853,47.910636 45.508648,47.159041 43.462322,46.340511 41.454245,45.271449 39.75216,43.86962 38.751947,43.041527 37.208596,40.905316 37.208596,40.905316 l -15.892495,2.447941 c 0,0 -2.046326,-5.412245 -1.950703,-14.286033 0.07784,-6.655341 1.69061,-11.245231 1.69061,-11.245231 z"
     fill="#ede900"
     id="path8"
     style="stroke:#000000;stroke-width:0.956227;stroke-linejoin:round" /><path
     d="m 36.99172,40.736829 -1.778583,-3.53804"
     fill="none"
     id="path12"
     style="stroke:#000000;stroke-width:0.956227;stroke-linejoin:round" /><path
     d="M 74.667069,42.458038 74.4108,38.652254"
     fill="none"
     id="path14"
     style="stroke:#000000;stroke-width:0.956227;stroke-linejoin:round" /></svg>
