<?xml version="1.0" encoding="UTF-8" standalone="no"?>
<svg
   height="100"
   viewBox="0 0 100 100"
   width="100"
   version="1.1"
   id="svg49"
   sodipodi:docname="steal.svg"
   inkscape:version="1.2.2 (732a01da63, 2022-12-09)"
   xml:space="preserve"
   xmlns:inkscape="http://www.inkscape.org/namespaces/inkscape"
   xmlns:sodipodi="http://sodipodi.sourceforge.net/DTD/sodipodi-0.dtd"
   xmlns="http://www.w3.org/2000/svg"
   xmlns:svg="http://www.w3.org/2000/svg"
   xmlns:rdf="http://www.w3.org/1999/02/22-rdf-syntax-ns#"
   xmlns:cc="http://creativecommons.org/ns#"
   xmlns:dc="http://purl.org/dc/elements/1.1/"><metadata
     id="metadata55"><rdf:RDF><cc:Work
         rdf:about=""><dc:format>image/svg+xml</dc:format><dc:type
           rdf:resource="http://purl.org/dc/dcmitype/StillImage" /></cc:Work></rdf:RDF></metadata><defs
     id="defs53" /><sodipodi:namedview
     pagecolor="#ffffff"
     bordercolor="#666666"
     borderopacity="1"
     objecttolerance="10"
     gridtolerance="10"
     guidetolerance="10"
     inkscape:pageopacity="0"
     inkscape:pageshadow="2"
     inkscape:window-width="2560"
     inkscape:window-height="1476"
     id="namedview51"
     showgrid="false"
     inkscape:zoom="3.9999998"
     inkscape:cx="-0.87500004"
     inkscape:cy="33.750001"
     inkscape:window-x="-12"
     inkscape:window-y="-12"
     inkscape:window-maximized="1"
     inkscape:current-layer="OUTLINE"
     inkscape:document-rotation="0"
     inkscape:snap-bbox="false"
     inkscape:bbox-paths="false"
     inkscape:showpageshadow="2"
     inkscape:pagecheckerboard="0"
     inkscape:deskcolor="#d1d1d1"><inkscape:grid
       type="xygrid"
       id="grid2022"
       originx="0"
       originy="0" /></sodipodi:namedview><g
     id="OUTLINE"><path
       style="fill:none;fill-opacity:1;stroke:#000000;stroke-width:0.5;stroke-linejoin:round;stroke-opacity:1"
       d="m 26.693281,43.487067 c 0,0 13.587243,-0.21418 20.373514,0.04419 3.188388,0.12139 6.414801,0.0935 9.545942,0.707107 2.112122,0.413909 4.079178,1.377954 6.14299,1.988738 5.119221,1.515029 10.470292,2.276742 15.467961,4.154252 1.689868,0.634845 3.673632,1.02708 4.861359,2.386486 0.429109,0.491134 0.662284,1.205425 0.618718,1.856155 -0.05369,0.801977 -0.433701,1.662551 -1.06066,2.165514 -0.685607,0.550012 -1.68444,0.63423 -2.563262,0.618719 -1.315103,-0.02321 -3.800699,-1.06066 -3.800699,-1.06066 0,0 -2.324346,0.114461 -3.454958,-0.09108 -1.279158,-0.232541 -3.660304,-1.27895 -3.660304,-1.27895 0,0 -3.943589,0.407352 -5.922019,0.397748 -0.960358,-0.0047 -1.914581,-0.287813 -2.872622,-0.220971 -1.850604,0.129116 -5.61266,1.237437 -5.61266,1.237437 0,0 0.04005,0.559585 0.132587,0.839689 0.807693,2.444696 3.399434,3.87803 4.905553,5.966214 0.706498,0.979536 1.589342,1.907903 1.929379,3.066784 0.217403,0.740931 0.296331,1.59482 0.02145,2.316402 -0.232539,0.610424 -0.738716,1.147664 -1.317322,1.450826 -0.724883,0.379804 -1.618926,0.397496 -2.433821,0.322303 -0.950692,-0.08772 -1.909337,-0.389218 -2.722653,-0.889245 -0.971361,-0.597194 -1.66575,-1.563086 -2.415514,-2.422177 -1.278652,-1.4651 -2.10112,-3.327406 -3.535534,-4.640389 -0.835093,-0.764398 -1.83397,-1.36153 -2.872621,-1.811961 -1.22929,-0.533106 -2.589827,-0.688935 -3.889088,-1.016466 -1.02898,-0.259396 -2.107918,-0.358197 -3.093592,-0.751301 -1.072637,-0.427786 -2.11564,-0.987213 -3.005204,-1.723572 -0.523113,-0.43302 -1.325825,-1.546796 -1.325825,-1.546796 l -8.308504,1.281631 c 0,0 -1.070656,-2.83496 -1.016466,-7.468816 0.04074,-3.483643 0.883879,-5.877816 0.883879,-5.877816 z"
       id="path3329"
       sodipodi:nodetypes="csssssssscscsscsaaaaaaasssssccscc" /><path
       style="fill:none;fill-opacity:1;stroke:#000000;stroke-width:0.5;stroke-linejoin:round;stroke-opacity:1"
       d="M 35.117188,55.535156 34.1875,53.6875"
       id="path3979"
       sodipodi:nodetypes="cc" /><path
       style="fill:none;fill-opacity:1;stroke:#000000;stroke-width:0.5;stroke-linejoin:round;stroke-opacity:1"
       d="M 54.758923,56.360485 54.625,54.375"
       id="path3981"
       sodipodi:nodetypes="cc" /><path
       style="fill:none;fill-opacity:1;stroke:#000000;stroke-width:0.5;stroke-linejoin:round;stroke-opacity:1"
       d="m 81.935998,57.010484 c 0,0 1.735506,1.702925 2.342292,2.740039 0.237706,0.406285 0.516961,0.856122 0.486135,1.325825 -0.04574,0.696961 -0.41733,1.432025 -0.972271,1.856156 -0.707124,0.540441 -1.725783,0.695983 -2.607457,0.574524 -1.207832,-0.16639 -2.282523,-0.951519 -3.226174,-1.723573 -0.93138,-0.762014 -2.298097,-2.784233 -2.298097,-2.784233 l -7.115262,-4.02167"
       id="path3983"
       sodipodi:nodetypes="cssssscc" /><path
       style="fill:none;fill-opacity:1;stroke:#000000;stroke-width:0.5;stroke-linejoin:round;stroke-opacity:1"
       d="m 77.074639,60.899572 c 0,0 0.836283,1.698499 0.552428,2.519067 -0.247542,0.715593 -0.761668,1.125531 -1.502602,1.281632 -0.814668,0.171635 -2.040736,-0.189022 -2.740039,-0.640816 -1.420601,-0.917797 -2.983107,-3.86699 -2.983107,-3.86699 l -8.371005,-4.955109"
       id="path3985"
       sodipodi:nodetypes="cssscc" /><path
       style="fill:none;fill-opacity:1;stroke:#000000;stroke-width:0.5;stroke-linejoin:round;stroke-opacity:1"
       d="m 66.954173,58.247921 c 0,0 0.727607,1.60538 0.297335,2.209709 -0.351558,0.493773 -1.029374,0.775526 -1.635184,0.795495 -0.858514,0.0283 -1.651805,-0.370227 -2.21461,-1.019147 -0.517353,-0.596513 -1.3089,-2.251222 -1.3089,-2.251222 l -3.391902,-2.585359"
       id="path3987"
       sodipodi:nodetypes="cssscc" /></g></svg>
