<?xml version="1.0" encoding="UTF-8" standalone="no"?>
<svg
   xmlns:dc="http://purl.org/dc/elements/1.1/"
   xmlns:cc="http://creativecommons.org/ns#"
   xmlns:rdf="http://www.w3.org/1999/02/22-rdf-syntax-ns#"
   xmlns:svg="http://www.w3.org/2000/svg"
   xmlns="http://www.w3.org/2000/svg"
   xmlns:sodipodi="http://sodipodi.sourceforge.net/DTD/sodipodi-0.dtd"
   xmlns:inkscape="http://www.inkscape.org/namespaces/inkscape"
   width="10"
   height="10"
   viewBox="0 0 10 10"
   version="1.1"
   id="svg8"
   sodipodi:docname="ready.svg"
   inkscape:version="1.0.1 (3bc2e813f5, 2020-09-07)">
  <defs
     id="defs2" />
  <sodipodi:namedview
     id="base"
     pagecolor="#ffffff"
     bordercolor="#666666"
     borderopacity="1.0"
     inkscape:pageopacity="0.0"
     inkscape:pageshadow="2"
     inkscape:zoom="31.678384"
     inkscape:cx="4.1588047"
     inkscape:cy="5.2783243"
     inkscape:document-units="px"
     inkscape:current-layer="layer1"
     inkscape:document-rotation="0"
     showgrid="false"
     units="px"
     inkscape:window-width="1280"
     inkscape:window-height="650"
     inkscape:window-x="-6"
     inkscape:window-y="-6"
     inkscape:window-maximized="1" />
  <metadata
     id="metadata5">
    <rdf:RDF>
      <cc:Work
         rdf:about="">
        <dc:format>image/svg+xml</dc:format>
        <dc:type
           rdf:resource="http://purl.org/dc/dcmitype/StillImage" />
        <dc:title></dc:title>
      </cc:Work>
    </rdf:RDF>
  </metadata>
  <g
     inkscape:label="Layer 1"
     inkscape:groupmode="layer"
     id="layer1">
    <rect
       style="fill:none;stroke:#aa6628;stroke-width:0.4;stroke-linejoin:miter;stroke-miterlimit:4;stroke-dasharray:none;stroke-opacity:1"
       id="rect833"
       width="6.8214617"
       height="6.8214622"
       x="1.5892692"
       y="1.5892689"
       ry="0.80252498" />
    <path
       style="fill:none;stroke:#000000;stroke-width:0.6;stroke-linejoin:miter;stroke-miterlimit:4;stroke-dasharray:none"
       id="path835"
       d="m 2.709561,4.5122919 c 0.039307,0.065589 0.083098,0.1286898 0.1179206,0.1967666 0.1278926,0.2500193 0.304908,0.6740233 0.4036946,0.915844 0.3378087,0.826925 0.1202462,0.319428 0.4318623,1.1140807 0.055939,0.1426488 0.1160298,0.2836367 0.1740447,0.4254523 0,0 0.1038835,0.1746166 0.192985,0.193073 0.093101,0.019291 0.2820827,-0.029625 0.3584346,-0.086292 C 4.7815567,6.9368104 4.958876,6.5323059 5.2068157,6.0795892 5.3659958,5.7471896 5.5142636,5.4096258 5.6739382,5.0774608 5.855142,4.7005123 6.0442344,4.3274086 6.2293832,3.9523828 6.7582804,2.8626735 7.3010268,1.8491246 7.8933261,0.79319363 l -0.1106582,0.0496433 v 0 C 7.2330396,1.901656 6.7216458,2.911635 6.1801104,3.9746461 5.6671603,4.966705 5.552033,5.2191984 5.0003934,6.1718802 4.8675548,6.4012919 4.7438795,6.5824013 4.5856085,6.8504341 4.2080204,7.4898828 4.3659627,6.9230289 4.1212491,7.0039093 4.0523621,6.8688144 3.9774431,6.7366296 3.9145882,6.5986246 3.8358388,6.4257209 3.7658945,6.2488797 3.6967667,6.0719092 3.46828,5.4869726 3.2711307,4.8886172 3.1187998,4.2792776 Z"
       sodipodi:nodetypes="ccsscccssscccscsccssc" />
  </g>
</svg>
