<?xml version="1.0" encoding="UTF-8"?>
<svg width="10" height="10" version="1.1" viewBox="0 0 10 10" xmlns="http://www.w3.org/2000/svg">
 <g>
  <path d="m2.66 4.12a0.83 0.83 0 0 0-0.832 0.83 0.83 0.83 0 0 0 0.832 0.832 0.83 0.83 0 0 0 0.83-0.832 0.83 0.83 0 0 0-0.83-0.83zm-0.137 0.195a0.322 0.322 0 0 1 0.322 0.322 0.322 0.322 0 0 1-0.322 0.322 0.322 0.322 0 0 1-0.322-0.322 0.322 0.322 0 0 1 0.322-0.322z"/>
  <path d="m6.13 4.12a0.83 0.83 0 0 0-0.83 0.83 0.83 0.83 0 0 0 0.83 0.832 0.83 0.83 0 0 0 0.832-0.832 0.83 0.83 0 0 0-0.832-0.83zm-0.135 0.195a0.322 0.322 0 0 1 0.322 0.322 0.322 0.322 0 0 1-0.322 0.322 0.322 0.322 0 0 1-0.322-0.322 0.322 0.322 0 0 1 0.322-0.322z"/>
  <path d="m3.28 1.6c-0.617-8.72e-4 -1.16 0.405-1.54 1.02s-0.607 1.45-0.607 2.38c1.5e-4 0.922 0.228 1.76 0.607 2.38s0.924 1.02 1.54 1.02c0.705-4.41e-4 1.33-0.533 1.72-1.37 0.0571 0.122 0.12 0.238 0.188 0.348 0.379 0.617 0.922 1.02 1.54 1.02 0.617 0 1.16-0.407 1.54-1.02s0.605-1.45 0.605-2.38-0.226-1.76-0.605-2.38-0.924-1.02-1.54-1.02c-0.617 0-1.16 0.407-1.54 1.02-0.0671 0.109-0.13 0.225-0.188 0.348-0.392-0.838-1.02-1.37-1.72-1.37zm3.45 0.299c0.485 0 0.942 0.322 1.29 0.881 0.343 0.559 0.562 1.35 0.562 2.22s-0.219 1.66-0.562 2.22c-0.343 0.559-0.8 0.881-1.29 0.881s-0.94-0.322-1.28-0.881c-0.343-0.559-0.562-1.35-0.562-2.22s0.219-1.66 0.562-2.22c0.343-0.559 0.798-0.881 1.28-0.881zm-3.45 0.00195c0.614 3.87e-4 1.22 0.539 1.56 1.47-0.166 0.484-0.26 1.04-0.26 1.63s0.0941 1.14 0.26 1.63c-0.347 0.932-0.951 1.47-1.56 1.47-0.486 6.86e-4 -0.941-0.32-1.29-0.879-0.344-0.559-0.562-1.35-0.562-2.22 1.41e-4 -0.873 0.219-1.66 0.562-2.22 0.344-0.559 0.8-0.88 1.29-0.879z" color="#000000" stroke-linejoin="bevel" style="-inkscape-stroke:none"/>
 </g>
</svg>
