<?xml version="1.0" encoding="UTF-8" standalone="no"?>
<svg
   height="10"
   viewBox="0 0 10 10"
   width="10"
   version="1.1"
   id="svg49"
   sodipodi:docname="active++.svg"
   inkscape:version="1.2.2 (732a01da63, 2022-12-09)"
   xmlns:inkscape="http://www.inkscape.org/namespaces/inkscape"
   xmlns:sodipodi="http://sodipodi.sourceforge.net/DTD/sodipodi-0.dtd"
   xmlns="http://www.w3.org/2000/svg"
   xmlns:svg="http://www.w3.org/2000/svg"
   xmlns:rdf="http://www.w3.org/1999/02/22-rdf-syntax-ns#"
   xmlns:cc="http://creativecommons.org/ns#"
   xmlns:dc="http://purl.org/dc/elements/1.1/">
  <metadata
     id="metadata55">
    <rdf:RDF>
      <cc:Work
         rdf:about="">
        <dc:format>image/svg+xml</dc:format>
        <dc:type
           rdf:resource="http://purl.org/dc/dcmitype/StillImage" />
      </cc:Work>
    </rdf:RDF>
  </metadata>
  <defs
     id="defs53" />
  <sodipodi:namedview
     pagecolor="#ffffff"
     bordercolor="#666666"
     borderopacity="1"
     objecttolerance="10"
     gridtolerance="10"
     guidetolerance="10"
     inkscape:pageopacity="0"
     inkscape:pageshadow="2"
     inkscape:window-width="2560"
     inkscape:window-height="1476"
     id="namedview51"
     showgrid="false"
     inkscape:zoom="45.254834"
     inkscape:cx="3.4581941"
     inkscape:cy="6.7838057"
     inkscape:window-x="-12"
     inkscape:window-y="-12"
     inkscape:window-maximized="1"
     inkscape:current-layer="OUTLINE"
     inkscape:document-rotation="0"
     inkscape:snap-bbox="false"
     inkscape:bbox-paths="false"
     inkscape:showpageshadow="2"
     inkscape:pagecheckerboard="0"
     inkscape:deskcolor="#d1d1d1">
    <inkscape:grid
       type="xygrid"
       id="grid2022" />
  </sodipodi:namedview>
  <g
     id="OUTLINE">
    <path
       id="path"
       style="display:inline;fill:#000000;stroke-width:0.0758104"
       d="M 4.6999647,5.7120713 A 0.83053763,0.85293002 0 0 1 4.4329471,6.3395719 L 4.8560488,6.646292 V 7.208394 H 4.441799 c 0.019996,0.2605484 0.1827666,0.5212931 0.3934258,0.7487493 a 3.135563,3.2201019 0 0 0 0.6710786,0.540848 l 0.026239,0.01543 v 0.83259 H 2.2542027 v -0.832586 l 0.026238,-0.015434 A 3.135563,3.2201019 0 0 0 2.9515182,7.9571433 C 3.1621775,7.7296871 3.324948,7.4689424 3.3449441,7.208394 H 2.9310126 V 6.646292 L 3.3250754,6.3606304 A 0.83257553,0.85502286 0 1 1 4.7006017,5.7120713 Z" />
    <path
       id="path3329"
       style="opacity:1;fill:#000000;fill-opacity:1;stroke:none;stroke-width:0.0721495;stroke-linejoin:round;stroke-opacity:1"
       d="M 7.6896106,0.9598353 C 7.1015114,1.1312509 6.8203644,1.3812432 6.2336346,1.5570906 5.8055387,1.6853946 5.070613,1.612643 4.6466525,1.754014 4.2892353,1.8731957 3.928158,1.9886007 3.589008,2.1527017 3.2490292,2.3172043 2.9166383,2.5052758 2.6176535,2.7360447 2.3075215,2.9754166 2.0247224,3.376177 1.7767584,3.6794837 1.4816692,4.0404355 1.1260707,4.6173729 1.0176064,4.8542026 0.97842075,4.9397652 0.96524994,5.0629889 0.99803769,5.1512185 1.0383938,5.2599539 1.1167144,5.3529308 1.2323343,5.3621134 c 0.060874,0.00484 0.1261793,-0.017088 0.1912574,-0.046698 -0.060831,0.076971 -0.050892,0.1962091 -0.068988,0.2659549 0.034952,0.094533 0.089548,0.1752205 0.1837333,0.211098 0.168997,0.028388 0.2668837,-0.057923 0.3790954,-0.082276 -0.018144,0.1277611 -0.018415,0.2178848 -0.00283,0.2395932 0.063636,0.088825 0.2065482,0.1539281 0.3154536,0.1450906 C 2.3498011,6.0851583 2.5062872,5.9867114 2.5844665,5.8954936 2.743268,5.7101701 3.0718734,4.6211165 3.0718734,4.6211165 L 3.6091317,3.8696498 C 3.9134101,3.671834 4.1200333,3.643911 4.3043732,3.5624618 4.5656706,3.5043154 5.3150021,3.51771 5.4477623,3.5985161 5.5245762,3.8627448 5.2481964,4.2263287 5.1012969,4.6044525 5.0437995,4.7689697 4.840446,5.2951487 4.8704766,5.4663461 4.9036476,5.655451 4.9695045,5.8290005 5.1543922,5.8807439 5.3758425,5.94272 5.5417451,5.7500045 5.6863012,5.5711612 5.8244102,5.4002335 5.9276348,5.2200756 6.0727355,5.0033165 6.2178363,4.7865572 6.387692,4.5066228 6.555666,4.2698309 6.7493305,3.996822 6.9423854,3.7196466 7.177311,3.4812147 7.3849176,3.2705098 7.7007012,3.1052603 7.8453999,2.9640603 7.9900987,2.8228602 8.0775011,2.6739578 8.0775011,2.6739578 L 9.2793694,2.5087785 c 0,0 0.033497,-0.435571 -0.1643043,-1.0743471 C 8.9663183,0.95421536 8.7501436,0.65839948 8.7501436,0.65839948 c 0,0 -0.4724337,0.13001933 -1.060533,0.30143582 z"
       sodipodi:nodetypes="ssssssscsccccssscccccsssssszccccs" />
  </g>
</svg>
