<?xml version="1.0" encoding="UTF-8"?>
<svg width="10" height="10" version="1.1" viewBox="0 0 10 10" xmlns="http://www.w3.org/2000/svg">
 <g>
  <path d="m4.12 5.26a0.758 0.778 15.3 0 1-0.386 0.488l0.299 0.372-0.135 0.495-0.365-0.0997c-0.0451 0.234 0.0354 0.503 0.166 0.754a2.86 2.94 15.3 0 0 0.46 0.637l0.0194 0.0199-0.2 0.733-2.88-0.789 0.2-0.733 0.0268-0.00727a2.86 2.94 15.3 0 0 0.721-0.314c0.24-0.149 0.446-0.34 0.526-0.564l-0.364-0.0996 0.135-0.495 0.415-0.157a0.76 0.78 15.3 1 1 1.37-0.24z"/>
  <path d="m8.01 1.67c-0.576 0.00962-0.893 0.167-1.47 0.181-0.42 0.0102-1.07-0.238-1.49-0.215-0.354 0.0195-0.71 0.0346-1.06 0.0993-0.349 0.0649-0.697 0.153-1.03 0.288-0.341 0.14-0.696 0.433-0.996 0.647-0.357 0.254-0.822 0.689-0.979 0.877-0.0567 0.0679-0.0992 0.176-0.0914 0.264 0.00963 0.109 0.0576 0.212 0.16 0.249 0.054 0.0195 0.119 0.0158 0.185 0.00508-0.0742 0.0547-0.0948 0.165-0.128 0.224 0.00826 0.0944 0.0378 0.181 0.114 0.237 0.146 0.0676 0.256 0.0136 0.364 0.0194-0.0481 0.111-0.0707 0.193-0.062 0.217 0.0357 0.0963 0.149 0.191 0.25 0.21 0.111 0.0209 0.277-0.0296 0.371-0.0929 0.19-0.129 0.758-1.03 0.758-1.03l0.673-0.548c0.325-0.104 0.519-0.078 0.706-0.106 0.251 0.0121 0.927 0.21 1.03 0.316 0.00414 0.259-0.292 0.564-0.519 0.87-0.0929 0.135-0.408 0.562-0.423 0.724-0.0168 0.18-1.18e-4 0.353 0.155 0.446 0.185 0.111 0.384-0.0225 0.559-0.149 0.168-0.121 0.306-0.258 0.491-0.419 0.185-0.161 0.409-0.372 0.62-0.545 0.243-0.2 0.443-0.447 0.715-0.605 0.24-0.14 0.568-0.211 0.734-0.303 0.166-0.0921 0.282-0.205 0.282-0.205l1.13 0.148s0.138-0.387 0.117-1.01c-0.0158-0.472-0.138-0.794-0.138-0.794s-0.461 7.66e-4 -1.04 0.0104z"/>
 </g>
</svg>
