<?xml version="1.0" encoding="UTF-8" standalone="no"?>
<svg
   width="10"
   height="10"
   version="1.1"
   viewBox="0 0 10 10"
   id="svg10"
   sodipodi:docname="participation-eyes+.svg"
   inkscape:version="1.2.2 (732a01da63, 2022-12-09)"
   xmlns:inkscape="http://www.inkscape.org/namespaces/inkscape"
   xmlns:sodipodi="http://sodipodi.sourceforge.net/DTD/sodipodi-0.dtd"
   xmlns="http://www.w3.org/2000/svg"
   xmlns:svg="http://www.w3.org/2000/svg">
  <defs
     id="defs14" />
  <sodipodi:namedview
     id="namedview12"
     pagecolor="#ffffff"
     bordercolor="#000000"
     borderopacity="0.25"
     inkscape:showpageshadow="2"
     inkscape:pageopacity="0.0"
     inkscape:pagecheckerboard="0"
     inkscape:deskcolor="#d1d1d1"
     showgrid="false"
     inkscape:zoom="47.2"
     inkscape:cx="7.786017"
     inkscape:cy="8.5805085"
     inkscape:window-width="2560"
     inkscape:window-height="1476"
     inkscape:window-x="-12"
     inkscape:window-y="-12"
     inkscape:window-maximized="1"
     inkscape:current-layer="svg10" />
  <path
     d="M 3.3791671,4.536366 A 0.83,0.83 0 0 0 2.244366,4.2308329 0.83,0.83 0 0 0 1.9398329,5.367366 0.83,0.83 0 0 0 3.075366,5.6701671 0.83,0.83 0 0 0 3.3791671,4.536366 Z M 3.1417922,4.5152205 A 0.322,0.322 0 0 1 3.023932,4.9550807 0.322,0.322 0 0 1 2.5840718,4.8372205 0.322,0.322 0 0 1 2.701932,4.3973604 0.322,0.322 0 0 1 3.1417922,4.5152205 Z"
     id="path2" />
  <path
     d="M 6.8501671,4.534634 A 0.83,0.83 0 0 0 5.716366,4.2308329 0.83,0.83 0 0 0 5.4108329,5.365634 0.83,0.83 0 0 0 6.547366,5.6701671 0.83,0.83 0 0 0 6.8501671,4.534634 Z M 6.6137922,4.5152205 A 0.322,0.322 0 0 1 6.495932,4.9550807 0.322,0.322 0 0 1 6.0560718,4.8372205 0.322,0.322 0 0 1 6.173932,4.3973604 0.322,0.322 0 0 1 6.6137922,4.5152205 Z"
     id="path4" />
  <path
     d="M 3.28,1.6 C 2.663,1.599128 2.12,2.005 1.74,2.62 1.36,3.235 1.133,4.07 1.133,5 1.13315,5.922 1.361,6.76 1.74,7.38 2.119,8 2.664,8.4 3.28,8.4 3.985,8.399559 4.61,7.867 5,7.03 c 0.0571,0.122 0.12,0.238 0.188,0.348 0.379,0.617 0.922,1.02 1.54,1.02 0.617,0 1.16,-0.407 1.54,-1.02 0.38,-0.613 0.605,-1.45 0.605,-2.38 0,-0.93 -0.226,-1.76 -0.605,-2.38 -0.379,-0.62 -0.924,-1.02 -1.54,-1.02 -0.617,0 -1.16,0.407 -1.54,1.02 C 5.1209,2.727 5.058,2.843 5,2.966 4.608,2.128 3.98,1.596 3.28,1.596 Z m 3.45,0.299 c 0.485,0 0.942,0.322 1.29,0.881 C 8.363,3.339 8.582,4.13 8.582,5 8.582,5.87 8.363,6.66 8.02,7.22 7.677,7.779 7.22,8.101 6.73,8.101 6.24,8.101 5.79,7.779 5.45,7.22 5.107,6.661 4.888,5.87 4.888,5 4.888,4.13 5.107,3.34 5.45,2.78 5.793,2.221 6.248,1.899 6.73,1.899 Z M 3.28,1.90095 c 0.614,3.87e-4 1.22,0.539 1.56,1.47 -0.166,0.484 -0.26,1.04 -0.26,1.63 0,0.59 0.0941,1.14 0.26,1.63 -0.347,0.932 -0.951,1.47 -1.56,1.47 -0.486,6.86e-4 -0.941,-0.32 -1.29,-0.879 -0.344,-0.559 -0.562,-1.35 -0.562,-2.22 1.41e-4,-0.873 0.219,-1.66 0.562,-2.22 0.344,-0.559 0.8,-0.88 1.29,-0.879 z"
     color="#000000"
     stroke-linejoin="bevel"
     style="-inkscape-stroke:none"
     id="path6" />
</svg>
