<?xml version="1.0" encoding="UTF-8" standalone="no"?>
<svg
   height="10"
   viewBox="0 0 10 10"
   width="10"
   version="1.1"
   id="svg49"
   sodipodi:docname="active.svg"
   inkscape:version="1.2.2 (732a01da63, 2022-12-09)"
   xmlns:inkscape="http://www.inkscape.org/namespaces/inkscape"
   xmlns:sodipodi="http://sodipodi.sourceforge.net/DTD/sodipodi-0.dtd"
   xmlns="http://www.w3.org/2000/svg"
   xmlns:svg="http://www.w3.org/2000/svg"
   xmlns:rdf="http://www.w3.org/1999/02/22-rdf-syntax-ns#"
   xmlns:cc="http://creativecommons.org/ns#"
   xmlns:dc="http://purl.org/dc/elements/1.1/">
  <metadata
     id="metadata55">
    <rdf:RDF>
      <cc:Work
         rdf:about="">
        <dc:format>image/svg+xml</dc:format>
        <dc:type
           rdf:resource="http://purl.org/dc/dcmitype/StillImage" />
      </cc:Work>
    </rdf:RDF>
  </metadata>
  <defs
     id="defs53" />
  <sodipodi:namedview
     pagecolor="#ffffff"
     bordercolor="#666666"
     borderopacity="1"
     objecttolerance="10"
     gridtolerance="10"
     guidetolerance="10"
     inkscape:pageopacity="0"
     inkscape:pageshadow="2"
     inkscape:window-width="2560"
     inkscape:window-height="1476"
     id="namedview51"
     showgrid="false"
     inkscape:zoom="32"
     inkscape:cx="4.640625"
     inkscape:cy="4.4375"
     inkscape:window-x="-12"
     inkscape:window-y="-12"
     inkscape:window-maximized="1"
     inkscape:current-layer="OUTLINE"
     inkscape:document-rotation="0"
     inkscape:snap-bbox="false"
     inkscape:bbox-paths="false"
     inkscape:showpageshadow="2"
     inkscape:pagecheckerboard="0"
     inkscape:deskcolor="#d1d1d1">
    <inkscape:grid
       type="xygrid"
       id="grid2022" />
  </sodipodi:namedview>
  <g
     id="OUTLINE">
    <path
       id="path"
       style="display:inline;fill:#000000;stroke-width:0.0758104"
       d="M 4.7807705,5.26553 A 0.83053763,0.85293002 0 0 1 4.5137529,5.8930306 l 0.4231017,0.3067201 v 0.562102 H 4.5226048 c 0.019996,0.2605484 0.1827666,0.5212931 0.3934258,0.7487497 a 3.135563,3.2201019 0 0 0 0.6710786,0.5408474 l 0.026239,0.015435 V 8.899475 H 2.3350085 V 8.0668839 l 0.026238,-0.015434 A 3.135563,3.2201019 0 0 0 3.032324,7.5106024 C 3.2429833,7.2831458 3.4057538,7.0224011 3.4257499,6.7618527 H 3.0118184 V 6.1997507 L 3.4058812,5.9140891 A 0.83257553,0.85502286 0 1 1 4.7814075,5.26553 Z" />
    <path
       id="path3329"
       style="fill:#000000;fill-opacity:1;stroke:none;stroke-width:0.0721495;stroke-linejoin:round;stroke-opacity:1"
       d="M 7.2635209,0.99561636 C 6.6938828,1.2209084 6.1333324,1.4683092 5.5654702,1.6978867 5.1511397,1.8653938 4.7275175,2.0103652 4.3185183,2.1904987 3.9737142,2.342359 3.6249149,2.4907987 3.3024716,2.6856877 2.9792396,2.8810534 2.6657516,3.0991815 2.3894898,3.35672 2.1029288,3.6238596 1.8475223,3.9276177 1.6287991,4.2526422 1.3685065,4.6394392 1.068026,5.2469079 0.9820243,5.4927872 c -0.03107,0.088832 -0.0327365,0.2127464 0.008061,0.2975496 0.050283,0.1045176 0.1368978,0.189819 0.2528703,0.1882242 0.061059,-8.392e-4 0.124047,-0.028733 0.1860941,-0.064258 -0.053421,0.082288 -0.032454,0.2000875 -0.043991,0.2712124 0.043582,0.090878 0.1054341,0.1661468 0.2025441,0.1931222 0.1709031,0.01257 0.2603505,-0.082458 0.3698158,-0.1171276 -0.00617,0.128894 0.00192,0.2186533 0.01943,0.2388209 0.071606,0.082531 0.2199512,0.1340805 0.327565,0.1151671 C 2.422741,6.5947012 2.5694073,6.4821466 2.6387774,6.3840624 2.7796818,6.1847918 2.9725802,5.0367815 2.9725802,5.0367815 L 3.4377266,4.2386669 C 3.7223193,4.0134474 3.925456,3.9664559 4.1014346,3.8682389 4.3562034,3.7860766 5.2266581,3.831096 5.2266581,3.831096 c 0,0 0.025009,0.078405 0.027672,0.1208865 0.023228,0.370791 -0.1741173,0.8174565 -0.2635925,1.1780439 -0.04197,0.169146 -0.1095492,0.3396383 -0.092808,0.5131076 0.010699,0.1109076 0.046284,0.2304712 0.1218712,0.3123327 0.063946,0.06925 0.1607684,0.1141208 0.2545453,0.1236251 0.1174862,0.011902 0.2378114,-0.035116 0.3429003,-0.088978 C 5.7398504,5.9272754 5.8533637,5.8376443 5.9354092,5.7269725 6.0333984,5.594794 6.0734057,5.4265614 6.1276439,5.2712197 6.2201422,5.0062996 6.2209089,4.6053425 6.3424415,4.3524229 6.4131946,4.2051765 6.4503785,4.0630577 6.5652659,3.9469181 6.7012404,3.8094615 6.8753993,3.717082 7.0317919,3.6033949 7.1556509,3.5133574 7.2929503,3.4416162 7.4038237,3.3360005 7.52448,3.2210665 7.6357008,3.0899844 7.7152563,2.9435655 c 0.046782,-0.086102 0.09367,-0.2772584 0.09367,-0.2772584 L 8.9902611,2.3902232 c 0,0 -0.00708,-0.4367994 -0.2633704,-1.0544449 C 8.5341887,0.87145183 8.2914755,0.59699076 8.2914755,0.59699076 c 0,0 -0.458317,0.17333271 -1.0279546,0.3986256 z"
       sodipodi:nodetypes="ssssssscsccccssscccccsscsccssssssccccs" />
  </g>
</svg>
