<?xml version="1.0" encoding="UTF-8" standalone="no"?>
<svg
   xmlns:dc="http://purl.org/dc/elements/1.1/"
   xmlns:cc="http://creativecommons.org/ns#"
   xmlns:rdf="http://www.w3.org/1999/02/22-rdf-syntax-ns#"
   xmlns:svg="http://www.w3.org/2000/svg"
   xmlns="http://www.w3.org/2000/svg"
   xmlns:sodipodi="http://sodipodi.sourceforge.net/DTD/sodipodi-0.dtd"
   xmlns:inkscape="http://www.inkscape.org/namespaces/inkscape"
   height="10"
   width="10"
   version="1.1"
   id="svg4"
   sodipodi:docname="save-2+.svg"
   inkscape:version="1.0.1 (3bc2e813f5, 2020-09-07)">
  <metadata
     id="metadata10">
    <rdf:RDF>
      <cc:Work
         rdf:about="">
        <dc:format>image/svg+xml</dc:format>
        <dc:type
           rdf:resource="http://purl.org/dc/dcmitype/StillImage" />
        <dc:title></dc:title>
      </cc:Work>
    </rdf:RDF>
  </metadata>
  <defs
     id="defs8">
    <marker
       style="overflow:visible"
       id="TriangleOutM"
       refX="0.0"
       refY="0.0"
       orient="auto"
       inkscape:stockid="TriangleOutM"
       inkscape:isstock="true">
      <path
         transform="scale(0.4)"
         style="fill-rule:evenodd;stroke:#000000;stroke-width:1pt;stroke-opacity:1;fill:#000000;fill-opacity:1"
         d="M 5.77,0.0 L -2.88,5.0 L -2.88,-5.0 L 5.77,0.0 z "
         id="path3871" />
    </marker>
  </defs>
  <sodipodi:namedview
     pagecolor="#ffffff"
     bordercolor="#666666"
     borderopacity="1"
     objecttolerance="10"
     gridtolerance="10"
     guidetolerance="10"
     inkscape:pageopacity="0"
     inkscape:pageshadow="2"
     inkscape:window-width="1280"
     inkscape:window-height="650"
     id="namedview6"
     showgrid="false"
     inkscape:zoom="40.833334"
     inkscape:cx="4.542251"
     inkscape:cy="7.0713501"
     inkscape:window-x="-6"
     inkscape:window-y="-6"
     inkscape:window-maximized="1"
     inkscape:current-layer="g4094"
     inkscape:document-rotation="0"
     showguides="false"
     inkscape:snap-global="false" />
  <g
     id="g3713"
     style="opacity:1">
    <g
       id="g4094"
       style="opacity:1">
      <path
         id="rect4109"
         style="fill:#000000;fill-opacity:1;stroke:none;stroke-width:0.670485;stroke-linecap:round;stroke-linejoin:round;stroke-miterlimit:4;stroke-dasharray:none;stroke-dashoffset:0;stroke-opacity:1"
         d="M 4.5078125,1.2586665 V 3.7024996 H 3.6582031 L 5,5.398999 6.3417969,3.7024996 H 5.4921875 V 1.2586665 Z"
         sodipodi:nodetypes="cccccccc" />
      <g
         aria-label="BPGN"
         id="text4561"
         style="font-style:normal;font-weight:normal;font-size:3.73333px;line-height:1.25;font-family:sans-serif;fill:#000000;fill-opacity:1;stroke:none">
        <path
           d="m 2.6502625,8.0837432 q 0,0.1950519 -0.065625,0.3354163 -0.063802,0.1385416 -0.1749998,0.2278644 -0.1111978,0.0875 -0.2588539,0.129427 Q 2.0031276,8.816555 1.8372424,8.816555 H 0.78359748 V 6.2480677 H 1.7479195 q 0.1859374,0 0.3317706,0.040104 0.1458332,0.038281 0.2460935,0.1184894 0.1002603,0.080208 0.151302,0.2023436 0.051042,0.1203124 0.051042,0.2843748 0,0.2187498 -0.1002603,0.3700517 -0.098438,0.149479 -0.300781,0.2023436 0.2552081,0.036458 0.3882809,0.1968748 0.1348957,0.1585936 0.1348953,0.4210936 z M 2.0851588,6.9662963 q 0,-0.173177 -0.091146,-0.2460936 -0.089323,-0.072917 -0.2679685,-0.072917 H 1.2247429 v 0.6361974 h 0.5049475 q 0.1859373,0 0.2697914,-0.078385 0.085677,-0.080208 0.085677,-0.2388018 z m 0.1221353,1.0755198 q 0,-0.1020832 -0.032812,-0.171354 Q 2.1416692,7.8011913 2.0833359,7.7592643 2.0268255,7.7173373 1.9502631,7.6991081 1.8737007,7.680879 1.7825549,7.680879 h -0.557812 v 0.7364576 h 0.5760412 q 0.0875,0 0.1604165,-0.016406 0.074739,-0.018229 0.129427,-0.060156 0.054687,-0.04375 0.085677,-0.1166666 0.03099,-0.072917 0.03099,-0.1822919 z"
           style="font-style:normal;font-variant:normal;font-weight:bold;font-stretch:normal;font-size:3.73333px;font-family:'Liberation Sans Narrow';-inkscape-font-specification:'Liberation Sans Narrow Bold'"
           id="path4565" />
        <path
           d="m 4.7265627,7.0610878 q 0,0.1658853 -0.045573,0.3208331 Q 4.6354169,7.5350457 4.5406254,7.6535352 4.4458338,7.7720247 4.3000006,7.8431184 4.1559903,7.9123892 3.9572925,7.9123892 H 3.4341159 V 8.816555 H 2.9929705 V 6.2480677 h 0.9460929 q 0.2023436,0 0.3499997,0.060156 0.1476561,0.058333 0.2442706,0.1658853 0.098437,0.107552 0.1458332,0.257031 0.047396,0.149479 0.047396,0.3299478 z m -0.4447913,0.00911 q 0,-0.1986977 -0.098437,-0.300781 Q 4.0867195,6.6655153 3.8898447,6.6655153 H 3.4341159 v 0.8330721 h 0.4684892 q 0.098437,0 0.1695311,-0.030989 0.071094,-0.03099 0.1166665,-0.0875 0.047396,-0.05651 0.069271,-0.1348957 0.023698,-0.080208 0.023698,-0.1749999 z"
           style="font-style:normal;font-variant:normal;font-weight:bold;font-stretch:normal;font-size:3.73333px;font-family:'Liberation Sans Narrow';-inkscape-font-specification:'Liberation Sans Narrow Bold'"
           id="path4567" />
        <path
           d="m 6.0354154,8.4319199 q 0.096615,0 0.1841145,-0.018229 0.089323,-0.018229 0.1640623,-0.047396 0.074739,-0.030989 0.1348957,-0.069271 0.061979,-0.040104 0.1002604,-0.082031 V 7.8595246 H 6.1046862 V 7.4621291 h 0.9187492 v 0.94427 q -0.071094,0.089323 -0.1731769,0.1713541 -0.1020833,0.080208 -0.2296873,0.1421873 -0.1276041,0.060156 -0.278906,0.096614 -0.1494791,0.036458 -0.3171873,0.036458 -0.278906,0 -0.4812495,-0.098437 Q 5.3408848,8.6543156 5.2096349,8.4774928 5.080208,8.2988472 5.0182288,8.0545765 4.9562497,7.8103059 4.9562497,7.5204624 q 0,-0.300781 0.065625,-0.5432287 0.065625,-0.2424477 0.1986977,-0.4119788 0.1348957,-0.171354 0.3372393,-0.2624997 0.2023436,-0.092969 0.4757808,-0.092969 0.1986978,0 0.3536455,0.047396 0.1549478,0.047396 0.2716144,0.1348957 0.1166665,0.0875 0.1950519,0.2114582 0.078385,0.1221353 0.1239582,0.2752601 l -0.40651,0.1494791 Q 6.5440087,6.9480671 6.4984359,6.8769734 6.4546859,6.8040568 6.387238,6.7511923 6.3216131,6.6965048 6.2341132,6.6655153 q -0.0875,-0.032813 -0.2005207,-0.032813 -0.1640623,0 -0.2843747,0.063802 Q 5.6307283,6.7584833 5.552343,6.87515 5.475781,6.9918166 5.4374993,7.1558789 q -0.036458,0.1622395 -0.036458,0.364583 0,0.2005207 0.036458,0.3682289 0.038281,0.1677081 0.1166666,0.2880205 0.080208,0.1203124 0.1986977,0.1877603 0.1203124,0.067448 0.2825518,0.067448 z"
           style="font-style:normal;font-variant:normal;font-weight:bold;font-stretch:normal;font-size:3.73333px;font-family:'Liberation Sans Narrow';-inkscape-font-specification:'Liberation Sans Narrow Bold'"
           id="path4569" />
        <path
           d="M 8.6986946,8.816555 7.7817683,6.8386922 q 0.00729,0.080208 0.014583,0.1604165 0.00547,0.069271 0.00911,0.1494791 0.00365,0.080208 0.00365,0.1531248 V 8.816555 H 7.4171853 V 6.2480677 h 0.5031246 l 0.9315096,1.9942691 q -0.00729,-0.076562 -0.01276,-0.1604165 -0.00547,-0.071094 -0.010938,-0.1604166 -0.00365,-0.089323 -0.00365,-0.1804686 V 6.2480677 h 0.391931 V 8.816555 Z"
           style="font-style:normal;font-variant:normal;font-weight:bold;font-stretch:normal;font-size:3.73333px;font-family:'Liberation Sans Narrow';-inkscape-font-specification:'Liberation Sans Narrow Bold'"
           id="path4571" />
      </g>
    </g>
  </g>
</svg>
