<?xml version="1.0" encoding="UTF-8" standalone="no"?>
<svg
   height="100"
   width="100"
   version="1.1"
   id="svg4"
   sodipodi:docname="wayback.svg"
   inkscape:version="1.2.2 (732a01da63, 2022-12-09)"
   xmlns:inkscape="http://www.inkscape.org/namespaces/inkscape"
   xmlns:sodipodi="http://sodipodi.sourceforge.net/DTD/sodipodi-0.dtd"
   xmlns="http://www.w3.org/2000/svg"
   xmlns:svg="http://www.w3.org/2000/svg"
   xmlns:rdf="http://www.w3.org/1999/02/22-rdf-syntax-ns#"
   xmlns:cc="http://creativecommons.org/ns#"
   xmlns:dc="http://purl.org/dc/elements/1.1/">
  <metadata
     id="metadata10">
    <rdf:RDF>
      <cc:Work
         rdf:about="">
        <dc:format>image/svg+xml</dc:format>
        <dc:type
           rdf:resource="http://purl.org/dc/dcmitype/StillImage" />
      </cc:Work>
    </rdf:RDF>
  </metadata>
  <defs
     id="defs8" />
  <sodipodi:namedview
     pagecolor="#ffffff"
     bordercolor="#666666"
     borderopacity="1"
     objecttolerance="10"
     gridtolerance="10"
     guidetolerance="10"
     inkscape:pageopacity="0"
     inkscape:pageshadow="2"
     inkscape:window-width="2560"
     inkscape:window-height="1476"
     id="namedview6"
     showgrid="false"
     inkscape:zoom="2.8284271"
     inkscape:cx="136.47161"
     inkscape:cy="137.53227"
     inkscape:window-x="-12"
     inkscape:window-y="-12"
     inkscape:window-maximized="1"
     inkscape:current-layer="svg4"
     inkscape:document-rotation="0"
     showguides="false"
     inkscape:showpageshadow="2"
     inkscape:pagecheckerboard="0"
     inkscape:deskcolor="#d1d1d1" />
  <g
     id="g9179"
     transform="translate(-41.012193,7.7781746)">
    <circle
       style="fill:none;stroke:#000000;stroke-width:3;stroke-linejoin:round;stroke-dasharray:none;stroke-opacity:1"
       id="path3222"
       cx="193.71909"
       cy="27.414043"
       r="22.366165" />
    <path
       style="fill:#ffffff;stroke:#000000;stroke-width:5;stroke-linecap:round;stroke-linejoin:round;stroke-dasharray:none;stroke-opacity:1"
       d="m 193.71908,27.414044 5.50781,-14.830267"
       id="path4294"
       sodipodi:nodetypes="cc" />
    <path
       style="fill:#ffffff;stroke:#000000;stroke-width:5;stroke-linecap:round;stroke-linejoin:round;stroke-dasharray:none;stroke-opacity:1"
       d="m 193.71908,27.414044 6.99219,9.621487"
       id="path4428"
       sodipodi:nodetypes="cc" />
    <circle
       style="fill:none;stroke:#000000;stroke-width:3;stroke-linejoin:round;stroke-dasharray:none;stroke-opacity:1"
       id="path3222-6"
       cx="238.17599"
       cy="55.87664"
       r="22.366165" />
    <path
       style="fill:#ffffff;stroke:#000000;stroke-width:5;stroke-linecap:round;stroke-linejoin:round;stroke-dasharray:none;stroke-opacity:1"
       d="M 238.17598,55.876645 233.15409,40.939144"
       id="path4294-4"
       sodipodi:nodetypes="cc" />
    <path
       style="fill:#ffffff;stroke:#000000;stroke-width:5;stroke-linecap:round;stroke-linejoin:round;stroke-dasharray:none;stroke-opacity:1"
       d="m 238.17598,55.876645 8.84466,-8.724076"
       id="path4428-7"
       sodipodi:nodetypes="cc" />
  </g>
  <g
     id="g9171"
     transform="translate(-2.9999975)">
    <path
       id="path3222-7"
       style="color:#000000;fill:#000000;stroke-linejoin:round;-inkscape-stroke:none"
       d="m 37.490232,15.438476 c -13.163124,0 -23.867187,10.702109 -23.867187,23.865235 0,13.163126 10.704063,23.867187 23.867187,23.867187 1.973158,0 3.88981,-0.243995 5.72461,-0.697265 -0.04113,-0.58847 -0.07031,-1.180664 -0.07031,-1.779297 0,-0.440536 0.01462,-0.877507 0.03711,-1.3125 -1.809301,0.510379 -3.716635,0.789062 -5.691407,0.789062 -11.541808,0 -20.867187,-9.325379 -20.867187,-20.867187 0,-11.541809 9.325379,-20.865235 20.867187,-20.865235 11.54181,0 20.865235,9.323426 20.865235,20.865235 0,6.995819 -3.42877,13.172882 -8.697266,16.957031 -0.290346,1.240736 -0.459018,2.528785 -0.498047,3.851563 7.271404,-4.093931 12.195313,-11.883473 12.195313,-20.808594 0,-13.163126 -10.702109,-23.865235 -23.865235,-23.865235 z" />
    <path
       style="fill:#ffffff;stroke:#000000;stroke-width:5;stroke-linecap:round;stroke-linejoin:round;stroke-dasharray:none;stroke-opacity:1"
       d="M 37.489294,39.303768 V 23.251229"
       id="path4294-0"
       sodipodi:nodetypes="cc" />
    <path
       style="fill:#ffffff;stroke:#000000;stroke-width:5;stroke-linecap:round;stroke-linejoin:round;stroke-dasharray:none;stroke-opacity:1"
       d="m 37.489294,39.303768 7.699292,-10.35428"
       id="path4428-6"
       sodipodi:nodetypes="cc" />
    <path
       style="fill:#ffffff;stroke:#000000;stroke-width:5;stroke-linecap:round;stroke-linejoin:round;stroke-dasharray:none;stroke-opacity:1"
       d="M 68.51116,60.695301 V 44.642761"
       id="path4294-4-1"
       sodipodi:nodetypes="cc" />
    <path
       style="fill:#ffffff;stroke:#000000;stroke-width:5;stroke-linecap:round;stroke-linejoin:round;stroke-dasharray:none;stroke-opacity:1"
       d="m 68.51116,60.695301 7.69929,-10.35428"
       id="path4428-7-8"
       sodipodi:nodetypes="cc" />
    <path
       id="circle8965"
       style="color:#000000;fill:#000000;stroke-linejoin:round;-inkscape-stroke:none"
       d="m 68.51172,36.829101 c -1.97316,0 -3.88974,0.24407 -5.72461,0.697266 0.041,0.587777 0.0684,1.17942 0.0684,1.777344 0,0.441154 -0.0166,0.878759 -0.0391,1.314453 1.81054,-0.510987 3.71913,-0.789063 5.69531,-0.789063 11.54181,0 20.86523,9.323426 20.86523,20.865235 0,11.541804 -9.32342,20.867184 -20.86523,20.867184 -11.541808,0 -20.867187,-9.32538 -20.867187,-20.867184 0,-6.994269 3.428236,-13.169317 8.695313,-16.953125 0.289563,-1.240714 0.454803,-2.527801 0.49414,-3.84961 -7.268368,4.09435 -12.189453,11.880307 -12.189453,20.802735 0,13.163124 10.704062,23.867184 23.867187,23.867184 13.16313,0 23.86523,-10.70406 23.86523,-23.867184 0,-13.163126 -10.7021,-23.865235 -23.86523,-23.865235 z" />
  </g>
</svg>
