<?xml version="1.0" encoding="UTF-8" standalone="no"?>
<svg
   xmlns:dc="http://purl.org/dc/elements/1.1/"
   xmlns:cc="http://creativecommons.org/ns#"
   xmlns:rdf="http://www.w3.org/1999/02/22-rdf-syntax-ns#"
   xmlns:svg="http://www.w3.org/2000/svg"
   xmlns="http://www.w3.org/2000/svg"
   viewBox="0 0 100 100"
   x="0px"
   y="0px"
   version="1.1"
   id="svg8">
  <metadata
     id="metadata12">
    <rdf:RDF>
      <cc:Work
         rdf:about="">
        <dc:format>image/svg+xml</dc:format>
        <dc:type
           rdf:resource="http://purl.org/dc/dcmitype/StillImage" />
        <dc:title></dc:title>
      </cc:Work>
    </rdf:RDF>
  </metadata>
  <defs
     id="defs4">
    <style
       id="style2">.a{fill-rule:evenodd;}</style>
  </defs>
  <path
     id="path6"
     style="display:inline;fill:#000000;stroke-width:0.889409"
     d="M 60.449219 7.4355469 C 55.309657 6.9809981 52.646596 14.198651 57.574219 17.017578 L 50.734375 27.474609 L 41.853516 20.130859 C 47.547825 18.025049 45.469945 9.5412847 39.464844 10.271484 C 33.459743 11.001684 33.476742 19.736212 39.509766 20.416016 C 40.45667 25.098022 41.234565 29.808027 41.980469 34.523438 C 37.097416 36.594106 31.896496 41.505158 29.28125 51.283203 C 28.490262 54.241836 27.066425 55.659736 25.375 57.34375 C 23.204001 59.36302 21.440592 61.732997 20.173828 64.339844 C 16.530688 71.719229 26.3627 79.098996 33.53125 72.396484 C 36.550775 69.580337 40.11788 67.331226 44.041016 65.767578 C 48.29763 63.890049 51.38207 62.526963 53.125 55.826172 C 53.952778 58.9508 53.624404 66.324343 45.662109 70.824219 C 37.699813 75.324096 36.040555 84.809063 36.207031 87.617188 L 81.490234 87.617188 C 81.490234 71.915027 80.177484 57.475158 74.972656 47.511719 C 78.646589 44.916172 82.361179 42.379015 86.080078 39.845703 C 90.824482 43.675277 97.073294 37.516347 93.351562 32.714844 C 89.629812 27.913374 82.107325 32.429018 84.632812 37.978516 L 73.166016 36.832031 L 75.787109 24.615234 C 81.62184 26.234957 84.937957 18.196794 79.689453 15.216797 C 74.440918 12.236786 69.238335 19.204318 73.619141 23.384766 L 62.740234 30.259766 L 59.976562 17.693359 C 66.029498 17.865369 67.318161 9.2660414 61.507812 7.6328125 C 61.144666 7.5307357 60.791856 7.4658501 60.449219 7.4355469 z " />
</svg>
