<?xml version="1.0" encoding="UTF-8" standalone="no"?>
<svg
   xmlns:dc="http://purl.org/dc/elements/1.1/"
   xmlns:cc="http://creativecommons.org/ns#"
   xmlns:rdf="http://www.w3.org/1999/02/22-rdf-syntax-ns#"
   xmlns:svg="http://www.w3.org/2000/svg"
   xmlns="http://www.w3.org/2000/svg"
   viewBox="0 0 100 100"
   x="0px"
   y="0px"
   version="1.1"
   id="svg8">
  <metadata
     id="metadata12">
    <rdf:RDF>
      <cc:Work
         rdf:about="">
        <dc:format>image/svg+xml</dc:format>
        <dc:type
           rdf:resource="http://purl.org/dc/dcmitype/StillImage" />
        <dc:title></dc:title>
      </cc:Work>
    </rdf:RDF>
  </metadata>
  <defs
     id="defs4">
    <style
       id="style2">.a{fill-rule:evenodd;}</style>
  </defs>
  <path
     id="path6"
     style="display:inline;fill:#000000;stroke-width:0.889409"
     d="M 43.019531 4.359375 C 42.725049 4.379728 42.424439 4.4233388 42.121094 4.4902344 C 37.267558 5.5605655 35.891862 11.823036 39.849609 14.830078 C 36.622925 17.929484 30.133238 20.343489 31.400391 28.966797 C 32.116453 33.83979 34.649437 36.203195 37.386719 37.375 C 34.092278 40.158107 31.076901 44.569513 29.28125 51.283203 C 28.490262 54.241836 27.066425 55.659736 25.375 57.34375 C 23.204001 59.36302 21.440592 61.732997 20.173828 64.339844 C 16.530688 71.719229 26.3627 79.098996 33.53125 72.396484 C 36.550775 69.580337 40.11788 67.331226 44.041016 65.767578 C 48.29763 63.890049 51.38207 62.526963 53.125 55.826172 C 53.952778 58.9508 53.624404 66.324343 45.662109 70.824219 C 37.699813 75.324096 36.040555 84.809063 36.207031 87.617188 L 81.490234 87.617188 C 81.490234 60.916366 77.710237 37.849834 57.414062 34.275391 C 57.214803 34.248614 57.024322 34.234452 56.826172 34.208984 C 58.920639 32.295525 60.445308 29.395712 59.769531 24.796875 C 58.944971 19.185526 55.599867 19.141066 52.681641 16.855469 C 49.057531 19.390778 46.674011 21.426128 47.361328 26.103516 L 44.431641 26.638672 C 43.449902 19.957673 44.767234 18.452418 48.53125 12.914062 C 50.711775 8.7958601 47.436769 4.0540794 43.019531 4.359375 z " />
</svg>
