<?xml version="1.0" encoding="UTF-8" standalone="no"?>
<svg
   xmlns:dc="http://purl.org/dc/elements/1.1/"
   xmlns:cc="http://creativecommons.org/ns#"
   xmlns:rdf="http://www.w3.org/1999/02/22-rdf-syntax-ns#"
   xmlns:svg="http://www.w3.org/2000/svg"
   xmlns="http://www.w3.org/2000/svg"
   viewBox="0 0 100 100"
   x="0px"
   y="0px"
   version="1.1"
   id="svg8">
  <metadata
     id="metadata12">
    <rdf:RDF>
      <cc:Work
         rdf:about="">
        <dc:format>image/svg+xml</dc:format>
        <dc:type
           rdf:resource="http://purl.org/dc/dcmitype/StillImage" />
        <dc:title></dc:title>
      </cc:Work>
    </rdf:RDF>
  </metadata>
  <defs
     id="defs4">
    <style
       id="style2">.a{fill-rule:evenodd;}</style>
  </defs>
  <path
     id="path6"
     style="display:inline;fill:#000000;stroke-width:0.889409"
     d="M 28.876953 15.126953 L 28.052734 27.623047 L 38.212891 36.714844 C 34.601777 39.438958 31.226012 44.012006 29.28125 51.283203 C 28.490262 54.241836 27.066425 55.659736 25.375 57.34375 C 23.204001 59.36302 21.440592 61.732997 20.173828 64.339844 C 16.530688 71.719229 26.3627 79.098996 33.53125 72.396484 C 36.550775 69.580337 40.11788 67.331226 44.041016 65.767578 C 48.29763 63.890049 51.38207 62.526963 53.125 55.826172 C 53.952778 58.9508 53.624404 66.324343 45.662109 70.824219 C 37.699813 75.324096 36.040555 84.809063 36.207031 87.617188 L 81.490234 87.617188 C 81.490234 66.346997 79.081673 47.395184 67.845703 38.753906 L 79.054688 30.990234 L 79.878906 18.494141 L 67.492188 17.675781 L 66.892578 26.773438 L 60.279297 26.337891 L 60.878906 17.240234 L 47.876953 16.380859 L 47.275391 25.478516 L 40.664062 25.042969 L 41.263672 15.945312 L 28.876953 15.126953 z " />
</svg>
