<?xml version="1.0" encoding="UTF-8" standalone="no"?>
<svg
   xmlns:dc="http://purl.org/dc/elements/1.1/"
   xmlns:cc="http://creativecommons.org/ns#"
   xmlns:rdf="http://www.w3.org/1999/02/22-rdf-syntax-ns#"
   xmlns:svg="http://www.w3.org/2000/svg"
   xmlns="http://www.w3.org/2000/svg"
   viewBox="0 0 100 100"
   x="0px"
   y="0px"
   version="1.1"
   id="svg8">
  <metadata
     id="metadata12">
    <rdf:RDF>
      <cc:Work
         rdf:about="">
        <dc:format>image/svg+xml</dc:format>
        <dc:type
           rdf:resource="http://purl.org/dc/dcmitype/StillImage" />
        <dc:title></dc:title>
      </cc:Work>
    </rdf:RDF>
  </metadata>
  <path
     id="path"
     style="display:inline;fill:#000000;fill-rule:evenodd"
     d="m 46.04,11.721 h 7.92 l 0.206,6.6 h 7.714 v 7.92 h -7.466 l 0.362,8.966 q 0.217,-0.255 0.448,-0.5 c 7.211,-7.664 17.9,-11.742 25.8,-5.165 7.919,6.6 7.919,21.779 -2.985,30.558 -6.177,4.973 -11.71,9.767 -11.437,16.779 l 11.1,1.5 v 9.9 H 22.308 v -9.9 l 11.1,-1.5 C 33.681,69.867 28.148,65.073 21.971,60.1 c -10.9,-8.779 -10.9,-23.958 -2.985,-30.558 7.893,-6.577 18.584,-2.5 25.8,5.165 q 0.231,0.246 0.448,0.5 l 0.362,-8.966 H 38.12 v -7.92 h 7.714 z m -7.46,30.324 c 4.84,7.927 5.48,17.2 5.48,21.225 -2.426,0 -11.571,-4.019 -16.413,-10.624 -3.485,-4.755 -4.394,-11.81 -1.406,-14.549 2.988,-2.739 9.314,-1.007 12.339,3.948 z m 22.84,0 c -4.84,7.927 -5.48,17.2 -5.48,21.225 2.426,0 11.571,-4.019 16.413,-10.624 3.485,-4.755 4.394,-11.81 1.406,-14.549 -2.988,-2.739 -9.314,-1.007 -12.339,3.948 z" />
</svg>
