<?xml version="1.0" encoding="UTF-8"?>
<svg width="10" height="10" version="1.1" viewBox="0 0 10 10" xmlns="http://www.w3.org/2000/svg" xmlns:cc="http://creativecommons.org/ns#" xmlns:dc="http://purl.org/dc/elements/1.1/" xmlns:rdf="http://www.w3.org/1999/02/22-rdf-syntax-ns#">
 <defs>
  <filter id="filter2253" color-interpolation-filters="sRGB">
   <feGaussianBlur result="blur" stdDeviation="0.3 0.3"/>
  </filter>
 </defs>
 <metadata>
  <rdf:RDF>
   <cc:Work rdf:about="">
    <dc:format>image/svg+xml</dc:format>
    <dc:type rdf:resource="http://purl.org/dc/dcmitype/StillImage"/>
    <dc:title>btn_google_dark_normal_ios</dc:title>
   </cc:Work>
  </rdf:RDF>
 </metadata>
 <!-- Generator: Sketch 3.3.3 (12081) - http://www.bohemiancoding.com/sketch -->
 <title>btn_google_dark_normal_ios</title>
 <desc>Created with Sketch.</desc>
 <rect x=".86956" y=".86956" width="8.2609" height="8.2609" rx=".21739" fill="#fff" filter="url(#filter2253)"/>
 <path d="m6.8783 5.0446c0-0.13874-0.01245-0.27213-0.03557-0.4002h-1.8427v0.75683h1.053c-0.04536 0.24456-0.1832 0.45178-0.39041 0.59052v0.49091h0.6323c0.36996-0.34061 0.58339-0.8422 0.58339-1.438z" fill="#4285f4"/>
 <path d="m5 6.9565c0.52826 0 0.97115-0.1752 1.2949-0.47402l-0.6323-0.49091c-0.1752 0.11739-0.3993 0.18676-0.66254 0.18676-0.50959 0-0.94091-0.34417-1.0948-0.80663h-0.65365v0.50691c0.32193 0.63944 0.98359 1.0779 1.7484 1.0779z" fill="#34a853"/>
 <path d="m3.9052 5.3717c-0.03913-0.11739-0.061363-0.24278-0.061363-0.37174s0.02223-0.25435 0.06136-0.37174v-0.50691h-0.65365c-0.13251 0.26413-0.2081 0.56294-0.2081 0.87865s0.07559 0.61452 0.2081 0.87865z" fill="#fbbc05"/>
 <path d="m5 3.8217c0.28726 0 0.54515 0.09871 0.74794 0.29259l0.56117-0.56117c-0.33883-0.31572-0.78172-0.50959-1.3091-0.50959-0.76483 0-1.4265 0.43844-1.7484 1.0779l0.65365 0.50691c0.15385-0.46246 0.58517-0.80663 1.0948-0.80663z" fill="#ea4335"/>
</svg>
