<?xml version="1.0" encoding="UTF-8" standalone="no"?>
<svg
   viewBox="0 0 100 100"
   x="0px"
   y="0px"
   version="1.1"
   id="svg8"
   sodipodi:docname="shadow-knight-concept.svg"
   inkscape:export-filename="..\app-logo\shadow-alt.png"
   inkscape:export-xdpi="614.40002"
   inkscape:export-ydpi="614.40002"
   inkscape:version="1.2.2 (732a01da63, 2022-12-09)"
   xmlns:inkscape="http://www.inkscape.org/namespaces/inkscape"
   xmlns:sodipodi="http://sodipodi.sourceforge.net/DTD/sodipodi-0.dtd"
   xmlns="http://www.w3.org/2000/svg"
   xmlns:svg="http://www.w3.org/2000/svg"
   xmlns:rdf="http://www.w3.org/1999/02/22-rdf-syntax-ns#"
   xmlns:cc="http://creativecommons.org/ns#"
   xmlns:dc="http://purl.org/dc/elements/1.1/">
  <defs
     id="defs7" />
  <sodipodi:namedview
     id="namedview5"
     pagecolor="#ffffff"
     bordercolor="#000000"
     borderopacity="0.25"
     inkscape:showpageshadow="2"
     inkscape:pageopacity="0.0"
     inkscape:pagecheckerboard="0"
     inkscape:deskcolor="#d1d1d1"
     showgrid="false"
     inkscape:zoom="11.7"
     inkscape:cx="50"
     inkscape:cy="50"
     inkscape:window-width="2560"
     inkscape:window-height="1476"
     inkscape:window-x="-12"
     inkscape:window-y="-12"
     inkscape:window-maximized="1"
     inkscape:current-layer="svg8" />
  <metadata
     id="metadata12">
    <rdf:RDF>
      <cc:Work
         rdf:about="">
        <dc:format>image/svg+xml</dc:format>
        <dc:type
           rdf:resource="http://purl.org/dc/dcmitype/StillImage" />
      </cc:Work>
    </rdf:RDF>
  </metadata>
  <rect
     style="fill:#dfceb4;fill-opacity:1;stroke-width:1.843;stroke-linecap:round;stroke-linejoin:round"
     id="rect342"
     width="100"
     height="100"
     x="0"
     y="0" />
  <path
     id="path"
     style="display:inline;fill:#000000;fill-opacity:1;stroke:#000000;stroke-width:3;stroke-dasharray:none;stroke-opacity:1"
     d="M 51.057658,24.15887 40.089612,10.472808 C 38.5012,13.697282 36.962454,19.388574 39.175378,23.49764 a 10.61762,11.358968 0 0 0 -2.89446,0.637614 c -5.065996,2.174577 -10.624059,7.794038 -13.356642,19.482638 -0.790988,3.384861 -2.214764,5.005462 -3.906189,6.932079 a 25.337336,27.106449 0 0 0 -5.199359,8.004609 c -3.64314,8.442476 6.187173,16.885936 13.355723,9.217846 A 33.463347,35.799838 0 0 1 37.68446,60.186989 c 4.256614,-2.14801 7.342382,-3.707606 9.085312,-11.373728 0.827778,3.574769 0.498506,12.012325 -7.463789,17.160465 -7.962296,5.148139 -9.620609,15.999379 -9.454133,19.212048 h 45.282163 c 0,-30.547401 -3.780181,-56.937519 -24.076355,-61.026904 z" />
  <path
     id="path1054"
     style="display:inline;fill:#ffffff;fill-opacity:1;stroke:#000000;stroke-width:3;stroke-dasharray:none;stroke-opacity:1"
     d="M 62.748564,28.284761 51.780518,14.598699 c -1.588412,3.224474 -3.127158,8.915766 -0.914234,13.024832 a 10.61762,11.358968 0 0 0 -2.89446,0.637614 c -5.065996,2.174577 -10.624059,7.794038 -13.356642,19.482638 -0.790988,3.384861 -2.214764,5.005462 -3.906189,6.932079 a 25.337336,27.106449 0 0 0 -5.199359,8.004609 c -3.64314,8.442476 6.187173,16.885936 13.355723,9.217846 A 33.463347,35.799838 0 0 1 49.375366,64.31288 c 4.256614,-2.14801 7.342382,-3.707606 9.085312,-11.373728 0.827778,3.574769 0.498506,12.012325 -7.463789,17.160465 -7.962296,5.148139 -9.620609,15.999379 -9.454133,19.212048 h 45.282163 c 0,-30.547401 -3.780181,-56.937519 -24.076355,-61.026904 z" />
</svg>
