<?xml version="1.0" encoding="UTF-8"?>
<svg version="1.1" viewBox="0 0 100 100" xmlns="http://www.w3.org/2000/svg">
 <rect width="100" height="100" fill="#dfceb4"/>
 <path d="m26.1 11.9-0.892 13.5 11 9.84c-3.91 2.95-7.56 7.9-9.66 15.8-0.856 3.2-2.4 4.74-4.23 6.56-2.35 2.18-4.26 4.75-5.63 7.57-3.94 7.98 6.7 16 14.5 8.72 3.27-3.05 7.33-5.67 11.4-7.81 4.71-2.5 7.94-2.87 9.83-10.1 0.896 3.38 0.805 11.1-7.65 16.2-8.48 5.1-10.4 15.1-10.2 18.2h48.6c0-23-2.61-43.5-14.8-52.9l12.1-8.4 0.892-13.5-13.4-0.885-0.649 9.84-7.16-0.471 0.649-9.84-14.1-0.93-0.651 9.84-7.15-0.471 0.649-9.84z"/>
</svg>
