<?xml version="1.0" encoding="UTF-8"?>
<svg version="1.1" viewBox="0 0 100 100" xmlns="http://www.w3.org/2000/svg" xmlns:cc="http://creativecommons.org/ns#" xmlns:dc="http://purl.org/dc/elements/1.1/">
 <rect width="100" height="100" fill="#dfceb4"/>
 <path d="m57.081 24.592-11.829-14.761c-1.7132 3.4777-3.3728 9.616-0.98604 14.048a11.452 12.251 0 0 0-3.1218 0.68769c-5.4639 2.3454-11.458 8.4062-14.406 21.013-0.85311 3.6507-2.3887 5.3986-4.213 7.4765a27.327 29.235 0 0 0-5.6077 8.6333c-3.9293 9.1056 6.6731 18.212 14.405 9.9418a36.092 38.612 0 0 1 11.335-8.1812c4.5909-2.3167 7.9191-3.9988 9.7989-12.267 0.89279 3.8555 0.53766 12.956-8.05 18.508-8.5877 5.5525-10.376 17.256-10.197 20.721h48.839c0-32.947-4.0771-61.41-25.967-65.82z"/>
</svg>
