<svg xmlns="http://www.w3.org/2000/svg" viewBox="0 0 100 100" x="0px" y="0px"><defs><style>.a{fill-rule:evenodd;}</style></defs><path class="a" d="M46.04,11.721h7.92l.206,6.6H61.88v7.92H54.414l.362,8.966q.217-.255.448-.5c7.211-7.664,17.9-11.742,25.8-5.165,7.919,6.6,7.919,21.779-2.985,30.558-6.177,4.973-11.71,9.767-11.437,16.779l11.1,1.5v9.9H22.308v-9.9l11.1-1.5c.273-7.012-5.26-11.806-11.437-16.779-10.9-8.779-10.9-23.958-2.985-30.558,7.893-6.577,18.584-2.5,25.8,5.165q.231.246.448.5l.362-8.966H38.12v-7.92h7.714ZM38.58,42.045c4.84,7.927,5.48,17.2,5.48,21.225-2.426,0-11.571-4.019-16.413-10.624-3.485-4.755-4.394-11.81-1.406-14.549S35.555,37.09,38.58,42.045Zm22.84,0c-4.84,7.927-5.48,17.2-5.48,21.225,2.426,0,11.571-4.019,16.413-10.624,3.485-4.755,4.394-11.81,1.406-14.549S64.445,37.09,61.42,42.045Z"></path></svg>