<?xml version="1.0" encoding="UTF-8" standalone="no"?>
<svg
   xmlns:dc="http://purl.org/dc/elements/1.1/"
   xmlns:cc="http://creativecommons.org/ns#"
   xmlns:rdf="http://www.w3.org/1999/02/22-rdf-syntax-ns#"
   xmlns:svg="http://www.w3.org/2000/svg"
   xmlns="http://www.w3.org/2000/svg"
   xmlns:sodipodi="http://sodipodi.sourceforge.net/DTD/sodipodi-0.dtd"
   xmlns:inkscape="http://www.inkscape.org/namespaces/inkscape"
   height="10"
   width="10"
   version="1.1"
   id="svg4"
   sodipodi:docname="ready+.svg"
   inkscape:version="1.0.1 (3bc2e813f5, 2020-09-07)">
  <metadata
     id="metadata10">
    <rdf:RDF>
      <cc:Work
         rdf:about="">
        <dc:format>image/svg+xml</dc:format>
        <dc:type
           rdf:resource="http://purl.org/dc/dcmitype/StillImage" />
        <dc:title></dc:title>
      </cc:Work>
    </rdf:RDF>
  </metadata>
  <defs
     id="defs8" />
  <sodipodi:namedview
     pagecolor="#ffffff"
     bordercolor="#666666"
     borderopacity="1"
     objecttolerance="10"
     gridtolerance="10"
     guidetolerance="10"
     inkscape:pageopacity="0"
     inkscape:pageshadow="2"
     inkscape:window-width="1280"
     inkscape:window-height="650"
     id="namedview6"
     showgrid="false"
     inkscape:zoom="28.873527"
     inkscape:cx="7.2988252"
     inkscape:cy="5.6506018"
     inkscape:window-x="-6"
     inkscape:window-y="-6"
     inkscape:window-maximized="1"
     inkscape:current-layer="svg4"
     inkscape:document-rotation="0" />
  <path
     id="path2"
     d="m 4.1333545,8.2688671 c -0.777777,-0.777766 -1.555555,-1.555531 -2.333333,-2.333296 0.149305,-0.149303 0.298611,-0.298607 0.447917,-0.44791 0.628472,0.628462 1.256944,1.256925 1.885416,1.885387 1.333334,-1.333312 2.666667,-2.666624 4.0000004,-3.999936 0.149306,0.149303 0.298611,0.298606 0.447917,0.447909 -1.4826394,1.482615 -2.9652784,2.965231 -4.4479174,4.447846 z"
     style="stroke-width:0.208332" />
  <path
     id="path841"
     style="font-style:normal;font-variant:normal;font-weight:bold;font-stretch:condensed;font-size:18.6667px;font-family:'Liberation Sans Narrow';-inkscape-font-specification:'Liberation Sans Narrow Bold Condensed';stroke-width:0.208332"
     d="m 6.2293765,3.0909431 c 0.01842,0.546646 -0.227428,1.198609 -0.80717,1.349485 -0.481769,0.142269 -1.056768,-0.07703 -1.25311,-0.555769 -0.221426,-0.532536 -0.224115,-1.186889 0.06314,-1.695668 0.390817,-0.66193 1.526839,-0.608112 1.833838,0.105861 0.119761,0.246491 0.163597,0.523939 0.163304,0.796091 z m -0.469023,0 c 0.01085,-0.372452 -0.125814,-0.872315 -0.563491,-0.920584 -0.375873,-0.06616 -0.666996,0.280362 -0.697718,0.627924 -0.05242,0.404936 -0.03753,0.919979 0.340255,1.169926 0.358438,0.21343 0.81745,-0.06012 0.873275,-0.455011 0.0339,-0.137993 0.04777,-0.280333 0.047679,-0.422255 z" />
  <path
     id="path839"
     style="font-style:normal;font-variant:normal;font-weight:bold;font-stretch:condensed;font-size:18.6667px;font-family:'Liberation Sans Narrow';-inkscape-font-specification:'Liberation Sans Narrow Bold Condensed';stroke-width:0.208332"
     d="m 2.6556935,4.0403651 c 0.195224,-0.02057 0.423457,-0.03379 0.562828,-0.190366 0.06445,-0.115736 0.05711,-0.275945 0.02988,-0.399361 -0.0546,-0.02472 -0.119211,0.0022 -0.179256,-0.0065 -0.113764,0 -0.227528,0 -0.341293,0 0,-0.137983 0,-0.275966 0,-0.413948 0.319011,0 0.638022,0 0.957033,0 0,0.327867 0,0.655734 0,0.983601 -0.348255,0.413065 -0.967751,0.582201 -1.474109,0.387028 -0.213978,-0.08194 -0.394471,-0.242771 -0.495248,-0.4494 -0.240388,-0.457367 -0.217898,-1.004017 -0.09942,-1.493225 0.121489,-0.44463 0.578176,-0.766504 1.037687,-0.732511 0.434879,-0.03305 0.886635,0.262737 0.983617,0.696876 -0.141149,0.0519 -0.282299,0.103804 -0.423449,0.155705 -0.06942,-0.3036 -0.418961,-0.46357 -0.707703,-0.398904 -0.19231,0.03378 -0.351148,0.179298 -0.414298,0.362265 -0.147966,0.361259 -0.124601,0.77739 0.0089,1.139062 0.09426,0.213608 0.317109,0.372004 0.55482,0.359688 z" />
</svg>
