<?xml version="1.0" encoding="UTF-8" standalone="no"?>
<svg
   xmlns:dc="http://purl.org/dc/elements/1.1/"
   xmlns:cc="http://creativecommons.org/ns#"
   xmlns:rdf="http://www.w3.org/1999/02/22-rdf-syntax-ns#"
   xmlns:svg="http://www.w3.org/2000/svg"
   xmlns="http://www.w3.org/2000/svg"
   xmlns:sodipodi="http://sodipodi.sourceforge.net/DTD/sodipodi-0.dtd"
   xmlns:inkscape="http://www.inkscape.org/namespaces/inkscape"
   height="48"
   width="48"
   version="1.1"
   id="svg4"
   sodipodi:docname="ready+.svg"
   inkscape:version="1.0.1 (3bc2e813f5, 2020-09-07)">
  <metadata
     id="metadata10">
    <rdf:RDF>
      <cc:Work
         rdf:about="">
        <dc:format>image/svg+xml</dc:format>
        <dc:type
           rdf:resource="http://purl.org/dc/dcmitype/StillImage" />
        <dc:title></dc:title>
      </cc:Work>
    </rdf:RDF>
  </metadata>
  <defs
     id="defs8" />
  <sodipodi:namedview
     pagecolor="#ffffff"
     bordercolor="#666666"
     borderopacity="1"
     objecttolerance="10"
     gridtolerance="10"
     guidetolerance="10"
     inkscape:pageopacity="0"
     inkscape:pageshadow="2"
     inkscape:window-width="1280"
     inkscape:window-height="658"
     id="namedview6"
     showgrid="false"
     inkscape:zoom="5.1041667"
     inkscape:cx="27.39116"
     inkscape:cy="20.442999"
     inkscape:window-x="-6"
     inkscape:window-y="-6"
     inkscape:window-maximized="1"
     inkscape:current-layer="svg4" />
  <path
     id="path2"
     d="M 18.9,37.7 C 15.166667,33.966667 11.433333,30.233333 7.7,26.5 c 0.7166667,-0.716667 1.4333333,-1.433333 2.15,-2.15 3.016667,3.016667 6.033333,6.033333 9.05,9.05 6.4,-6.4 12.8,-12.8 19.2,-19.2 0.716667,0.716667 1.433333,1.433333 2.15,2.15 C 33.133333,23.466667 26.016667,30.583333 18.9,37.7 Z" />
  <path
     id="path841"
     style="font-style:normal;font-variant:normal;font-weight:bold;font-stretch:condensed;font-size:18.6667px;font-family:'Liberation Sans Narrow';-inkscape-font-specification:'Liberation Sans Narrow Bold Condensed'"
     d="m 28.960903,12.845566 c 0.0884,2.623943 -1.091651,5.753416 -3.874417,6.477632 -2.312487,0.682904 -5.072482,-0.36976 -6.014925,-2.66773 -1.062845,-2.556217 -1.075754,-5.697158 0.303061,-8.1393373 1.875924,-3.1773169 7.328829,-2.9189848 8.802425,0.5081389 0.574851,1.1831754 0.785262,2.5149474 0.783856,3.8212964 z m -2.251307,0 C 26.76167,11.05777 26.105686,8.65839 24.004839,8.4266936 22.200647,8.1090981 20.803258,9.7724533 20.655793,11.440778 c -0.251631,1.943725 -0.180132,4.415969 1.633222,5.615733 1.720502,1.02448 3.923759,-0.288562 4.191719,-2.184087 0.162729,-0.662375 0.229311,-1.345617 0.228862,-2.026858 z" />
  <path
     id="path839"
     style="font-style:normal;font-variant:normal;font-weight:bold;font-stretch:condensed;font-size:18.6667px;font-family:'Liberation Sans Narrow';-inkscape-font-specification:'Liberation Sans Narrow Bold Condensed'"
     d="m 11.807226,17.402865 c 0.937076,-0.09874 2.032593,-0.162176 2.701572,-0.913771 0.309369,-0.555541 0.274154,-1.324558 0.143415,-1.916962 -0.262089,-0.118668 -0.572211,0.01054 -0.860425,-0.03125 -0.546069,0 -1.092138,0 -1.638207,0 0,-0.662328 0,-1.324655 0,-1.986983 1.531253,0 3.062505,0 4.593758,0 0,1.573788 0,3.147575 0,4.721363 -1.671626,1.982742 -4.645205,2.79461 -7.0757265,1.857765 C 8.6445181,18.739731 7.7781539,17.967706 7.2944225,16.975871 6.1405618,14.780474 6.2485157,12.156514 6.817214,9.8082771 7.4003609,7.6740201 9.5924577,6.1289988 11.798111,6.2921683 13.885531,6.1335129 16.053961,7.553327 16.519474,9.6372264 15.841955,9.8863588 15.164437,10.135491 14.486918,10.384624 14.153687,8.9273187 12.475906,8.1594486 11.089941,8.4698533 10.166854,8.6319803 9.404432,9.3304955 9.1013147,10.208751 c -0.7102393,1.734074 -0.5980853,3.731532 0.042775,5.467587 0.4524614,1.025334 1.5221224,1.785646 2.6631364,1.726527 z" />
</svg>
