<?xml version="1.0" encoding="UTF-8" standalone="no"?>
<svg
   xmlns:dc="http://purl.org/dc/elements/1.1/"
   xmlns:cc="http://creativecommons.org/ns#"
   xmlns:rdf="http://www.w3.org/1999/02/22-rdf-syntax-ns#"
   xmlns:svg="http://www.w3.org/2000/svg"
   xmlns="http://www.w3.org/2000/svg"
   xmlns:sodipodi="http://sodipodi.sourceforge.net/DTD/sodipodi-0.dtd"
   xmlns:inkscape="http://www.inkscape.org/namespaces/inkscape"
   viewBox="0 0 100 100"
   x="0px"
   y="0px"
   version="1.1"
   id="svg8"
   sodipodi:docname="duck+.svg"
   inkscape:version="1.0.1 (3bc2e813f5, 2020-09-07)">
  <defs
     id="defs904">
    <filter
       style="color-interpolation-filters:sRGB;"
       inkscape:label="Diffuse Light"
       id="filter987">
      <feGaussianBlur
         in="SourceGraphic"
         stdDeviation="5"
         result="blur"
         id="feGaussianBlur977" />
      <feDiffuseLighting
         diffuseConstant="1"
         surfaceScale="10"
         lighting-color="rgb(255,255,255)"
         result="diffuse"
         id="feDiffuseLighting981">
        <feDistantLight
           elevation="150"
           azimuth="0"
           id="feDistantLight979" />
      </feDiffuseLighting>
      <feComposite
         in="diffuse"
         in2="diffuse"
         operator="arithmetic"
         k1="1"
         result="composite1"
         id="feComposite983" />
      <feComposite
         in="composite1"
         in2="SourceGraphic"
         k1="0.8"
         operator="arithmetic"
         k3="1"
         result="composite2"
         id="feComposite985" />
    </filter>
  </defs>
  <sodipodi:namedview
     pagecolor="#ffffff"
     bordercolor="#666666"
     borderopacity="1"
     objecttolerance="10"
     gridtolerance="10"
     guidetolerance="10"
     inkscape:pageopacity="0"
     inkscape:pageshadow="2"
     inkscape:window-width="1280"
     inkscape:window-height="650"
     id="namedview902"
     showgrid="false"
     inkscape:zoom="1.15"
     inkscape:cx="52.096975"
     inkscape:cy="78.179974"
     inkscape:window-x="-6"
     inkscape:window-y="-6"
     inkscape:window-maximized="1"
     inkscape:current-layer="svg8" />
  <metadata
     id="metadata12">
    <rdf:RDF>
      <cc:Work
         rdf:about="">
        <dc:format>image/svg+xml</dc:format>
        <dc:type
           rdf:resource="http://purl.org/dc/dcmitype/StillImage" />
        <dc:title></dc:title>
      </cc:Work>
    </rdf:RDF>
  </metadata>
  <path
     id="path906"
     style="fill:#2f6114;stroke-width:1.5;stroke-linecap:round;stroke-linejoin:round;filter:url(#filter987);fill-opacity:1;stroke:#000000;stroke-opacity:1;stroke-miterlimit:4;stroke-dasharray:none"
     d="m 61.957031,13.695312 c -9.845143,-4.7e-5 -17.826219,7.981029 -17.826172,17.826172 2.7e-5,3.47966 1.018451,6.883233 2.929688,9.791016 -0.251903,-0.0052 -0.503876,-0.0078 -0.755859,-0.0078 -5.220001,-7.6e-5 -12.85941,4.584588 -17.371094,2.411685 -4.583833,-1.842625 -7.178869,-3.966608 -11.662499,-7.466245 -0.432239,-0.708165 -2.755873,-0.329135 -3.44297,2.712751 -1.002124,7.013077 1.574784,24.586325 3.386719,32.173828 2.998814,11.269334 15.101794,19.298711 29.089844,19.298828 16.449275,2.71e-4 29.783999,-10.998755 29.783203,-24.566406 -5.56e-4,-6.511944 -1.505424,-11.996389 -6.542884,-17.363282 4.473397,-2.617185 6.553539,-5.019706 8.638587,-9.605468 l 7.617187,-3.333985 c 1.345239,-0.186937 1.769458,-1.922604 0.66211,-2.708984 l -6.9375,-4.345703 C 78.059377,19.953288 70.640115,13.696198 61.957031,13.695312 Z"
     sodipodi:nodetypes="cscccccccccccccc" />
</svg>
