<?xml version="1.0" encoding="UTF-8" standalone="no"?>
<svg
   xmlns:dc="http://purl.org/dc/elements/1.1/"
   xmlns:cc="http://creativecommons.org/ns#"
   xmlns:rdf="http://www.w3.org/1999/02/22-rdf-syntax-ns#"
   xmlns:svg="http://www.w3.org/2000/svg"
   xmlns="http://www.w3.org/2000/svg"
   xmlns:sodipodi="http://sodipodi.sourceforge.net/DTD/sodipodi-0.dtd"
   xmlns:inkscape="http://www.inkscape.org/namespaces/inkscape"
   viewBox="0 0 100 100"
   x="0px"
   y="0px"
   version="1.1"
   id="svg8"
   sodipodi:docname="knight-compounds.svg"
   inkscape:version="1.0.1 (3bc2e813f5, 2020-09-07)">
  <sodipodi:namedview
     pagecolor="#ffffff"
     bordercolor="#666666"
     borderopacity="1"
     objecttolerance="10"
     gridtolerance="10"
     guidetolerance="10"
     inkscape:pageopacity="0"
     inkscape:pageshadow="2"
     inkscape:window-width="1280"
     inkscape:window-height="650"
     id="namedview7"
     showgrid="false"
     inkscape:zoom="1.4142136"
     inkscape:cx="88.016219"
     inkscape:cy="75.835494"
     inkscape:window-x="-6"
     inkscape:window-y="-6"
     inkscape:window-maximized="1"
     inkscape:current-layer="svg8"
     inkscape:document-rotation="0"
     inkscape:snap-global="false" />
  <metadata
     id="metadata12">
    <rdf:RDF>
      <cc:Work
         rdf:about="">
        <dc:format>image/svg+xml</dc:format>
        <dc:type
           rdf:resource="http://purl.org/dc/dcmitype/StillImage" />
        <dc:title />
      </cc:Work>
    </rdf:RDF>
  </metadata>
  <defs
     id="defs4">
    <inkscape:path-effect
       effect="skeletal"
       id="path-effect964"
       is_visible="true"
       lpeversion="1"
       pattern="m 11.198187,9.3323916 c 5.652585,-2.171612 3.532624,-10.604231 -2.4586376,-9.87459801 -5.991262,0.729632 -6.025387,9.42458101 -0.01678,10.17606481 L 6.4361204,21.917881 -4.5884207,18.559005 c 4.44464805,-4.135783 -0.739069,-11.1662214 -6.0001583,-8.18036 -5.261089,2.985862 -1.883107,11.041122 3.9466053,9.345827 4.0939731,6.051997 7.8739171,12.299425 11.6826421,18.531702 l 27.0978846,-0.0047 c 3.7012,-6.297265 7.692736,-12.407521 11.679533,-18.524709 5.853069,1.7078 9.249449,-6.381528 3.966029,-9.380063 -5.283418,-2.9984974 -10.486941,4.06521 -6.019582,8.214634 L 30.739992,21.917881 28.455677,9.6338584 C 34.464242,8.8823746 34.430125,0.18742559 28.438897,-0.54220641 22.447635,-1.2718394 20.327674,7.1607796 25.980259,9.3323916 L 18.588087,19.866659 Z"
       copytype="single_stretched"
       prop_scale="1"
       scale_y_rel="false"
       spacing="0"
       normal_offset="0"
       tang_offset="0"
       prop_units="false"
       vertical_pattern="false"
       hide_knot="false"
       fuse_tolerance="0" />
    <inkscape:path-effect
       effect="bend_path"
       id="path-effect958"
       is_visible="true"
       lpeversion="1"
       bendpath="M 19.071345,-9.682375 60.441492,-19.951561"
       prop_scale="1"
       scale_y_rel="false"
       vertical="false"
       hide_knot="false" />
    <inkscape:path-effect
       effect="bend_path"
       id="path-effect948"
       is_visible="true"
       lpeversion="1"
       bendpath="M 16.724102,26.113072 C 39.903121,19.951561 50.172307,37.262474 50.172307,37.262474"
       prop_scale="1"
       scale_y_rel="false"
       vertical="false"
       hide_knot="false" />
    <inkscape:path-effect
       effect="bend_path"
       id="path-effect938"
       is_visible="true"
       lpeversion="1"
       bendpath="M 15.257076,36.675663 C 27.873504,20.831777 40.196527,34.621826 40.196527,34.621826"
       prop_scale="1"
       scale_y_rel="false"
       vertical="false"
       hide_knot="false" />
    <inkscape:path-effect
       effect="bend_path"
       id="path-effect928"
       is_visible="true"
       lpeversion="1"
       bendpath="m 28.75372,23.179019 26.113072,-4.40108"
       prop_scale="1"
       scale_y_rel="false"
       vertical="false"
       hide_knot="false" />
    <inkscape:path-effect
       effect="bend_path"
       id="path-effect918"
       is_visible="true"
       lpeversion="1"
       bendpath="M 9.0955644,24.35264 C 23.472424,20.244966 40.196527,22.885614 40.196527,22.885614"
       prop_scale="1"
       scale_y_rel="false"
       vertical="false"
       hide_knot="false" />
    <inkscape:path-effect
       effect="bend_path"
       id="path-effect908"
       is_visible="true"
       lpeversion="1"
       bendpath="M -7.3351326,13.203239 53.693171,9.3889697 117.06872,23.179019"
       prop_scale="1"
       scale_y_rel="false"
       vertical="false"
       hide_knot="false" />
    <inkscape:path-effect
       effect="bend_path"
       id="path-effect898"
       is_visible="true"
       lpeversion="1"
       bendpath="m 51.345928,28.75372 c 25.232856,2.347242 25.819667,26.699882 25.819667,26.699882"
       prop_scale="1"
       scale_y_rel="false"
       vertical="false"
       hide_knot="false" />
    <style
       id="style2">.a{fill-rule:evenodd;}</style>
  </defs>
  <path
     class="a"
     d="m 46.04,11.721 h 7.92 l 0.206,6.6 h 7.714 v 7.92 h -7.466 l 0.362,8.966 q 0.217,-0.255 0.448,-0.5 c 7.211,-7.664 17.9,-11.742 25.8,-5.165 7.919,6.6 7.919,21.779 -2.985,30.558 -6.177,4.973 -11.71,9.767 -11.437,16.779 l 11.1,1.5 v 9.9 H 22.308 v -9.9 l 11.1,-1.5 C 33.681,69.867 28.148,65.073 21.971,60.1 c -10.9,-8.779 -10.9,-23.958 -2.985,-30.558 7.893,-6.577 18.584,-2.5 25.8,5.165 q 0.231,0.246 0.448,0.5 l 0.362,-8.966 H 38.12 v -7.92 h 7.714 z m -7.46,30.324 c 4.84,7.927 5.48,17.2 5.48,21.225 -2.426,0 -11.571,-4.019 -16.413,-10.624 -3.485,-4.755 -4.394,-11.81 -1.406,-14.549 2.988,-2.739 9.314,-1.007 12.339,3.948 z m 22.84,0 c -4.84,7.927 -5.48,17.2 -5.48,21.225 2.426,0 11.571,-4.019 16.413,-10.624 3.485,-4.755 4.394,-11.81 1.406,-14.549 -2.988,-2.739 -9.314,-1.007 -12.339,3.948 z"
     id="path6-2"
     style="fill:#aaccff;fill-rule:evenodd"
     sodipodi:insensitive="true" />
  <path
     d="M 40.489,25.142 A 6.6,6.6 0 1 0 37.303,25.53 L 34.36,49.34 20.171,37.017 a 6.575,6.575 0 1 0 -2.643,1.5 L 24.92,63.86 32.564,76.368 24.92,77.72 v 9.9 h 50.262 v -9.9 l -7.742,-1.358 7.64,-12.5 7.392,-25.342 a 6.6,6.6 0 1 0 -2.643,-1.5 L 65.64,49.34 62.7,25.53 A 6.6,6.6 0 1 0 59.514,25.142 L 50,46.7 Z"
     id="path2-1"
     style="fill:#afe9dd"
     sodipodi:insensitive="true" />
  <path
     class="a"
     d="m 57.413673,34.275437 c -5.157924,-0.693115 -9.935829,-0.96323 -14.77674,-0.02065 -5.065996,1.900751 -10.624059,6.8126 -13.356642,17.029351 -0.790988,2.958633 -2.214764,4.375166 -3.906189,6.05918 -2.170999,2.01927 -3.932595,4.389809 -5.199359,6.996656 -3.64314,7.379385 6.187173,14.759631 13.355723,8.057119 3.019525,-2.816147 6.586873,-5.066618 10.510009,-6.630266 4.256614,-1.877529 7.342382,-3.240738 9.085312,-9.941529 0.827778,3.124628 0.498506,10.499714 -7.463789,14.99959 -7.962296,4.499877 -9.620609,13.984711 -9.454133,16.792835 h 45.282163 c 0,-26.700821 -3.780181,-49.767851 -24.076355,-53.342294 z"
     id="path6"
     style="display:inline;fill:#000000;stroke-width:0.889409"
     sodipodi:nodetypes="ccccccccsccc" />
  <path
     d="m 59.975628,17.693295 c 6.052935,0.17201 7.342922,-8.4267822 1.532573,-10.0600111 -5.810348,-1.6332288 -9.189375,6.3783551 -3.933244,9.3852111 l -6.839704,10.456789 -8.881586,-7.344385 c 5.694309,-2.10581 3.616865,-10.5900437 -2.388236,-9.859844 -6.005101,0.7302 -5.988754,9.465057 0.04427,10.144861 1.448399,7.161665 2.531733,14.382794 3.647463,21.601022 l 25.010928,10.428274 c 5.840333,-4.386905 11.876624,-8.489438 17.911209,-12.600193 4.744404,3.829574 10.993354,-2.328612 7.271622,-7.130115 -3.72175,-4.80147 -11.243683,-0.28559 -8.718195,5.263908 l -11.467004,-1.146604 2.62108,-12.216597 c 5.834731,1.619723 9.150775,-6.418134 3.902271,-9.398131 -5.248535,-2.980011 -10.45162,3.986424 -6.070814,8.166872 L 62.74023,30.260649 Z"
     id="path2"
     sodipodi:nodetypes="cscccsccccscccsccc"
     style="stroke-width:0.776978"
     inkscape:original-d="m 63.571192,0.6489002 c 5.652585,-2.171612 3.532624,-10.604231 -2.458638,-9.874598 -5.991262,0.729632 -6.025387,9.424581 -0.01678,10.176065 L 58.809125,13.23439 47.784584,9.8755142 c 4.444648,-4.135783 -0.739069,-11.166222 -6.000158,-8.18036 -5.261089,2.985862 -1.883107,11.0411218 3.946605,9.3458268 4.093973,6.051997 7.873917,12.299425 11.682642,18.531702 l 27.097885,-0.0047 c 3.7012,-6.297265 7.692736,-12.407521 11.679533,-18.524709 5.853069,1.7078 9.249449,-6.3815278 3.966029,-9.3800628 -5.283418,-2.998498 -10.486941,4.06521 -6.019582,8.214634 L 83.112997,13.23439 80.828682,0.9503672 c 6.008565,-0.751484 5.974448,-9.446433 -0.01678,-10.176065 -5.991262,-0.729633 -8.111223,7.702986 -2.458638,9.874598 L 70.961092,11.183168 Z" />
  <path
     d="m 47.361113,26.10437 -2.929564,0.534392 C 43.44981,19.957763 44.767786,18.453179 48.531802,12.914823 50.857695,8.5220738 46.974874,3.4198973 42.121356,4.4902266 37.26782,5.5605577 35.891113,11.822597 39.84886,14.829639 c -3.226684,3.099406 -9.716131,5.513961 -8.448978,14.137269 1.278792,8.702518 8.352049,9.403767 12.03575,9.601283 l 7.727375,-1.172789 c 3.503137,-1.328172 9.86607,-4.029132 8.60681,-12.598721 -0.82456,-5.611349 -4.170487,-5.655571 -7.088713,-7.941168 -3.62411,2.535309 -6.007308,4.571471 -5.319991,9.248859 z"
     id="path2-8"
     sodipodi:nodetypes="cccscsccsccc"
     style="stroke-width:0.69616" />
  <path
     id="polygon1001-6"
     style="opacity:1;fill:#000000;stroke-width:0.969121"
     d="m 28.877072,15.127527 -0.824825,12.496246 10.255685,9.177814 29.379119,2.062506 11.367495,-7.873873 0.824824,-12.496246 -12.387105,-0.817621 -0.600481,9.097392 -6.612571,-0.436468 0.600481,-9.097392 -13.002956,-0.85827 -0.60048,9.097392 -6.612561,-0.436467 0.60048,-9.097392 z"
     sodipodi:nodetypes="ccccccccccccccc" />
</svg>
