<?xml version="1.0" encoding="UTF-8" standalone="no"?>
<svg
   height="10"
   viewBox="0 0 10 10"
   width="10"
   version="1.1"
   id="svg49"
   sodipodi:docname="accolade-off-v2.svg"
   inkscape:version="1.2.2 (732a01da63, 2022-12-09)"
   xmlns:inkscape="http://www.inkscape.org/namespaces/inkscape"
   xmlns:sodipodi="http://sodipodi.sourceforge.net/DTD/sodipodi-0.dtd"
   xmlns="http://www.w3.org/2000/svg"
   xmlns:svg="http://www.w3.org/2000/svg"
   xmlns:rdf="http://www.w3.org/1999/02/22-rdf-syntax-ns#"
   xmlns:cc="http://creativecommons.org/ns#"
   xmlns:dc="http://purl.org/dc/elements/1.1/">
  <metadata
     id="metadata55">
    <rdf:RDF>
      <cc:Work
         rdf:about="">
        <dc:format>image/svg+xml</dc:format>
        <dc:type
           rdf:resource="http://purl.org/dc/dcmitype/StillImage" />
      </cc:Work>
    </rdf:RDF>
  </metadata>
  <defs
     id="defs53">
    <filter
       style="color-interpolation-filters:sRGB"
       inkscape:label="Diffuse Light"
       id="filter930"
       x="-0.17356606"
       y="-0.16614492"
       width="1.3470117"
       height="1.3322898">
      <feGaussianBlur
         in="SourceGraphic"
         stdDeviation="5"
         result="blur"
         id="feGaussianBlur920" />
      <feDiffuseLighting
         diffuseConstant="1"
         surfaceScale="10"
         lighting-color="#ffffff"
         result="diffuse"
         id="feDiffuseLighting924">
        <feDistantLight
           elevation="150"
           azimuth="0"
           id="feDistantLight922" />
      </feDiffuseLighting>
      <feComposite
         in="diffuse"
         in2="diffuse"
         operator="arithmetic"
         k1="1"
         result="composite1"
         id="feComposite926"
         k2="0"
         k3="0"
         k4="0" />
      <feComposite
         in="composite1"
         in2="SourceGraphic"
         k1="0.376471"
         operator="arithmetic"
         k3="1"
         result="composite2"
         id="feComposite928"
         k2="0"
         k4="0" />
    </filter>
  </defs>
  <sodipodi:namedview
     pagecolor="#ffffff"
     bordercolor="#666666"
     borderopacity="1"
     objecttolerance="10"
     gridtolerance="10"
     guidetolerance="10"
     inkscape:pageopacity="0"
     inkscape:pageshadow="2"
     inkscape:window-width="2560"
     inkscape:window-height="1476"
     id="namedview51"
     showgrid="false"
     inkscape:zoom="90.509668"
     inkscape:cx="6.281097"
     inkscape:cy="5.0160387"
     inkscape:window-x="-12"
     inkscape:window-y="-12"
     inkscape:window-maximized="1"
     inkscape:current-layer="OUTLINE"
     inkscape:document-rotation="0"
     inkscape:snap-bbox="false"
     inkscape:bbox-paths="false"
     inkscape:showpageshadow="2"
     inkscape:pagecheckerboard="0"
     inkscape:deskcolor="#d1d1d1">
    <inkscape:grid
       type="xygrid"
       id="grid2022" />
  </sodipodi:namedview>
  <g
     id="OUTLINE">
    <path
       id="path209"
       style="fill:none;stroke:#000000;stroke-width:0.1;stroke-dasharray:none;stroke-opacity:1"
       d="M 7.5390625 2.3105469 C 7.2757263 2.3236808 7.054637 2.6451656 7.265625 2.8535156 C 7.0386949 3.2125681 6.7943386 3.5635811 6.5507812 3.9140625 C 6.8939369 4.3217506 7.1357339 4.8574994 7.3027344 5.4824219 C 7.7454834 5.4868585 8.1866592 5.5067127 8.6269531 5.5273438 C 8.6817126 5.8900423 9.2622114 5.8196305 9.3007812 5.4472656 C 9.3393502 5.0749025 8.7707255 5.0161938 8.640625 5.3808594 L 8.140625 4.9023438 L 8.8222656 4.4023438 C 9.0297618 4.6973758 9.553098 4.4257299 9.4355469 4.0859375 C 9.3179778 3.7461093 8.752101 3.8953239 8.7734375 4.2617188 L 7.9375 4.1953125 L 8.3730469 3.4785156 C 8.6567155 3.7108649 9.1100064 3.3377588 8.9042969 3.0429688 C 8.6985875 2.7481782 8.1723445 3.0140474 8.2890625 3.3554688 L 7.4863281 3.6152344 L 7.390625 2.9277344 C 7.7603413 3.0354889 8.044944 2.5439066 7.7226562 2.3574219 C 7.6622273 2.322456 7.5998324 2.307516 7.5390625 2.3105469 z " />
    <path
       id="path211"
       style="fill:none;stroke:#000000;stroke-width:0.1;stroke-dasharray:none;stroke-opacity:1"
       d="M 6.1953125 1.2265625 C 5.944961 1.2315976 5.7476498 1.5413105 5.8574219 1.8066406 C 5.5989585 1.9076862 5.1894359 1.8768593 5.0078125 2.4394531 C 4.9116785 2.7372329 4.9614612 2.9440971 5.0585938 3.0898438 C 5.0903987 3.0941119 5.1222181 3.0969366 5.1542969 3.1015625 C 5.5121876 3.1692013 5.8186978 3.3018565 6.0839844 3.4863281 C 6.2817629 3.4493312 6.4973858 3.3279368 6.6152344 2.9628906 C 6.73342 2.5968003 6.5600021 2.5032659 6.4726562 2.2832031 C 6.2095716 2.3388048 6.0262492 2.3979674 5.9277344 2.703125 L 5.7578125 2.6542969 C 5.8985267 2.218423 6.0103609 2.1632904 6.3671875 1.9277344 C 6.615602 1.7227829 6.5588738 1.3022125 6.2734375 1.234375 C 6.2466777 1.2280152 6.2212109 1.2260416 6.1953125 1.2265625 z " />
    <path
       id="path213"
       style="fill:none;fill-opacity:1;stroke:#000000;stroke-width:0.1;stroke-dasharray:none;stroke-opacity:1"
       d="M 4.3808594 1.453125 L 3.7421875 1.734375 L 3.9882812 2.3007812 L 3.6484375 2.4492188 L 3.4003906 1.8828125 L 2.7304688 2.1777344 L 2.9785156 2.7441406 L 2.6367188 2.8925781 L 2.390625 2.3261719 L 1.7519531 2.6074219 L 2.0917969 3.3847656 L 2.8691406 3.6640625 C 3.1065319 3.3803186 3.3692116 3.2010262 3.6210938 3.0996094 C 3.8628879 3.0490864 4.1037556 3.0309023 4.3476562 3.0332031 L 4.3964844 3.0117188 L 4.7207031 2.2324219 L 4.3808594 1.453125 z " />
    <path
       class="a"
       d="M 5.1534651,3.1020924 C 4.6189201,3.025008 4.1237589,2.9949672 3.6220679,3.0997958 3.0970501,3.3111869 2.5210365,3.8574555 2.2378434,4.993706 2.1558688,5.3227488 2.0083149,5.4802878 1.8330229,5.6675745 1.6080301,5.8921466 1.4254658,6.1557847 1.2941838,6.445704 0.91662468,7.2663982 1.9353957,8.0871883 2.6783132,7.3417721 2.9912436,7.0285758 3.3609481,6.7782908 3.7675248,6.6043904 4.2086618,6.3955821 4.5284575,6.2439737 4.7090873,5.4987488 4.7948743,5.8462526 4.7607502,6.6664687 3.9355724,7.16692 3.1103947,7.6673716 2.9385343,8.7222223 2.9557872,9.0345264 H 7.648634 c 0,-2.9695176 -0.3917615,-5.5349051 -2.4951689,-5.932434 z"
       stroke-width="0.100913"
       id="path207"
       style="fill-rule:evenodd;stroke:#000000;stroke-width:0.1;stroke-dasharray:none;stroke-opacity:1;fill:none;fill-opacity:1" />
    <path
       class="a"
       d="M 5.1534651,3.1020924 C 4.6189201,3.025008 4.1237589,2.9949672 3.6220679,3.0997958 3.0970501,3.3111869 2.5210365,3.8574555 2.2378434,4.993706 2.1558688,5.3227488 2.0083149,5.4802878 1.8330229,5.6675745 1.6080301,5.8921466 1.4254658,6.1557847 1.2941838,6.445704 0.91662468,7.2663982 1.9353957,8.0871883 2.6783132,7.3417721 2.9912436,7.0285758 3.3609481,6.7782908 3.7675248,6.6043904 4.2086618,6.3955821 4.5284575,6.2439737 4.7090873,5.4987488 4.7948743,5.8462526 4.7607502,6.6664687 3.9355724,7.16692 3.1103947,7.6673716 2.9385343,8.7222223 2.9557872,9.0345264 H 7.648634 c 0,-2.9695176 -0.3917615,-5.5349051 -2.4951689,-5.932434 z"
       stroke-width="0.100913"
       id="path2441"
       style="fill-rule:evenodd;stroke:#000000;stroke-width:0.1;stroke-dasharray:none;stroke-opacity:1;fill:none;fill-opacity:1" />
  </g>
</svg>
