<?xml version="1.0" encoding="UTF-8" standalone="no"?>
<svg
   height="10"
   viewBox="0 0 10 10"
   width="10"
   version="1.1"
   id="svg49"
   sodipodi:docname="duplicate-off.svg"
   inkscape:version="1.4.2 (ebf0e940, 2025-05-08)"
   xmlns:inkscape="http://www.inkscape.org/namespaces/inkscape"
   xmlns:sodipodi="http://sodipodi.sourceforge.net/DTD/sodipodi-0.dtd"
   xmlns="http://www.w3.org/2000/svg"
   xmlns:svg="http://www.w3.org/2000/svg"
   xmlns:rdf="http://www.w3.org/1999/02/22-rdf-syntax-ns#"
   xmlns:cc="http://creativecommons.org/ns#"
   xmlns:dc="http://purl.org/dc/elements/1.1/">
  <metadata
     id="metadata55">
    <rdf:RDF>
      <cc:Work
         rdf:about="">
        <dc:format>image/svg+xml</dc:format>
        <dc:type
           rdf:resource="http://purl.org/dc/dcmitype/StillImage" />
      </cc:Work>
    </rdf:RDF>
  </metadata>
  <defs
     id="defs53">
    <filter
       style="color-interpolation-filters:sRGB"
       inkscape:label="Diffuse Light"
       id="filter930"
       x="-0.17356606"
       y="-0.16614492"
       width="1.3470117"
       height="1.3322898">
      <feGaussianBlur
         in="SourceGraphic"
         stdDeviation="5"
         result="blur"
         id="feGaussianBlur920" />
      <feDiffuseLighting
         diffuseConstant="1"
         surfaceScale="10"
         lighting-color="#ffffff"
         result="diffuse"
         id="feDiffuseLighting924">
        <feDistantLight
           elevation="150"
           azimuth="0"
           id="feDistantLight922" />
      </feDiffuseLighting>
      <feComposite
         in="diffuse"
         in2="diffuse"
         operator="arithmetic"
         k1="1"
         result="composite1"
         id="feComposite926"
         k2="0"
         k3="0"
         k4="0" />
      <feComposite
         in="composite1"
         in2="SourceGraphic"
         k1="0.376471"
         operator="arithmetic"
         k3="1"
         result="composite2"
         id="feComposite928"
         k2="0"
         k4="0" />
    </filter>
  </defs>
  <sodipodi:namedview
     pagecolor="#ffffff"
     bordercolor="#666666"
     borderopacity="1"
     objecttolerance="10"
     gridtolerance="10"
     guidetolerance="10"
     inkscape:pageopacity="0"
     inkscape:pageshadow="2"
     inkscape:window-width="1472"
     inkscape:window-height="792"
     id="namedview51"
     showgrid="false"
     inkscape:zoom="32"
     inkscape:cx="5.6875"
     inkscape:cy="5.484375"
     inkscape:window-x="0"
     inkscape:window-y="37"
     inkscape:window-maximized="0"
     inkscape:current-layer="OUTLINE"
     inkscape:document-rotation="0"
     inkscape:snap-bbox="false"
     inkscape:bbox-paths="false"
     inkscape:showpageshadow="2"
     inkscape:pagecheckerboard="0"
     inkscape:deskcolor="#d1d1d1">
    <inkscape:grid
       type="xygrid"
       id="grid2022"
       originx="0"
       originy="0"
       spacingy="1"
       spacingx="1"
       units="px" />
  </sodipodi:namedview>
  <g
     id="OUTLINE">
    <g
       id="g1"
       transform="translate(-0.3998634,0.40023639)">
      <path
         id="path"
         style="display:inline;fill:#262626;fill-opacity:1;stroke:#000000;stroke-width:0.2;stroke-dasharray:none;stroke-opacity:1"
         d="m 6.0738087,4.5690771 h -0.55859 c 0,-1.0261972 0.3111397,-2.0498553 0.9994279,-2.7994021 A 0.88633841,0.88633841 0 1 0 5.1668409,1.86573 C 4.6132223,2.260448 3.5841686,3.3183836 3.5841686,4.6429192 c 0,1.3367002 1.0479915,1.8778345 1.5974822,1.9889183 L 3.141,6.9926983 V 8.0400544 H 8.4587268 V 6.9926983 L 6.3693964,6.6262282 c 0.5560276,-0.1222946 1.572341,-0.6672394 1.572341,-1.9835218 0,-0.8619005 -0.4019969,-1.6302785 -0.89032,-2.1888682 C 6.5146466,2.8729922 6.0738087,3.850629 6.0738087,4.5690734 Z" />
      <path
         id="path-5"
         style="display:inline;fill:#e4e4e4;fill-opacity:1;stroke:#000000;stroke-width:0.200005;stroke-dasharray:none;stroke-opacity:1"
         d="M 5.2739591,5.3695496 H 4.7153409 c 0,-1.0261965 0.3111554,-2.0498539 0.9994784,-2.7994002 A 0.88638312,0.88633784 0 1 0 4.3669456,2.6662043 C 3.813299,3.060922 2.7841934,4.118857 2.7841934,5.4433917 c 0,1.3366993 1.0480444,1.8778333 1.5975628,1.988917 L 2.3410025,7.7931693 v 1.0473554 h 5.317995 V 7.7931693 L 5.5695617,7.4266994 C 6.1256174,7.3044049 7.141982,6.7594604 7.141982,5.4431789 7.141982,4.581279 6.7399649,3.8129015 6.2516171,3.2543121 5.7148193,3.6734658 5.2739591,4.651102 5.2739591,5.3695459 Z" />
    </g>
  </g>
</svg>
