<?xml version="1.0" encoding="UTF-8" standalone="no"?>
<svg
   width="10"
   height="10"
   version="1.1"
   viewBox="0 0 10 10"
   id="svg2460"
   sodipodi:docname="fischer-random-on.svg"
   inkscape:version="1.2.2 (732a01da63, 2022-12-09)"
   xmlns:inkscape="http://www.inkscape.org/namespaces/inkscape"
   xmlns:sodipodi="http://sodipodi.sourceforge.net/DTD/sodipodi-0.dtd"
   xmlns="http://www.w3.org/2000/svg"
   xmlns:svg="http://www.w3.org/2000/svg"
   xmlns:rdf="http://www.w3.org/1999/02/22-rdf-syntax-ns#"
   xmlns:cc="http://creativecommons.org/ns#"
   xmlns:dc="http://purl.org/dc/elements/1.1/">
  <defs
     id="defs2464" />
  <sodipodi:namedview
     id="namedview2462"
     pagecolor="#ffffff"
     bordercolor="#000000"
     borderopacity="0.25"
     inkscape:showpageshadow="2"
     inkscape:pageopacity="0.0"
     inkscape:pagecheckerboard="0"
     inkscape:deskcolor="#d1d1d1"
     showgrid="false"
     inkscape:zoom="33.37544"
     inkscape:cx="4.0748526"
     inkscape:cy="1.8576534"
     inkscape:window-width="2560"
     inkscape:window-height="1476"
     inkscape:window-x="-12"
     inkscape:window-y="-12"
     inkscape:window-maximized="1"
     inkscape:current-layer="OUTLINE" />
  <metadata
     id="metadata2442">
    <rdf:RDF>
      <cc:Work
         rdf:about="">
        <dc:format>image/svg+xml</dc:format>
        <dc:type
           rdf:resource="http://purl.org/dc/dcmitype/StillImage" />
      </cc:Work>
    </rdf:RDF>
  </metadata>
  <g
     id="OUTLINE">
    <rect
       transform="matrix(0.70610107,0.70811107,-0.2574504,0.96629151,0,0)"
       x="2.7098958"
       y="-0.011563982"
       width="4.3366933"
       height="4.3366933"
       fill="#dbdbdb"
       id="rect2444"
       style="stroke:#000000;stroke-width:0.2150907;stroke-linejoin:bevel;stroke-dasharray:none" />
    <rect
       transform="matrix(-0.96629151,0.2574504,-0.70811107,-0.70610107,0,0)"
       x="-4.3251934"
       y="-7.0466895"
       width="4.3366933"
       height="4.3366933"
       fill="#f4f4f4"
       id="rect2446"
       style="stroke:#000000;stroke-width:0.2150907;stroke-linejoin:bevel;stroke-dasharray:none" />
    <rect
       transform="matrix(-0.26018936,0.96555761,-0.96555761,0.26018936,0,0)"
       x="7.0582175"
       y="-11.395029"
       width="4.3367109"
       height="4.3367109"
       fill="#c3c3c3"
       id="rect2448"
       style="stroke:#000000;stroke-width:0.2150907;stroke-linejoin:bevel;stroke-dasharray:none" />
    <g
       id="g2457">
      <path
         id="path"
         d="m5.1053 2.0034-0.7511-0.31124c0.029307 0.12564 0.072716 0.29615 0.27368 0.41225-0.03626 0.012531-0.067848 0.029913-0.093846 0.051639-0.13449 0.12621-0.19115 0.37413 0.031909 0.79814 0.064607 0.12278 0.055185 0.19242 0.04403 0.2752-0.018891 0.10074-0.010678 0.21083 0.024244 0.32493 0.096646 0.32359 0.71359 0.5073 0.77485 0.17331 0.02603-0.14041 0.091405-0.2646 0.19261-0.36589 0.10399-0.11691 0.1793-0.20174 0.031103-0.47932 0.13245 0.1124 0.35693 0.40141 0.19418 0.65835-0.16274 0.25694 0.078258 0.64145 0.175 0.74846l1.7486-0.47022c-0.85871-1.034-1.7465-1.888-2.6452-1.8156z"
         stroke-width=".039987" />
      <path
         d="m2.5019 3.4935-0.17144 0.52763 0.18683 0.65971-0.38235 0.88946 0.084116 0.40443-0.17645-0.1761-0.33232 0.20079-0.14008 0.4311 1.3946 1.3918 0.14008-0.4311-0.071038-0.60332-0.17645-0.1761 0.24139-0.079587 0.24008-1.0246 0.42038-0.060601 0.17144-0.52763-0.34701-0.34631-0.12481 0.38412-0.18525-0.18487 0.12481-0.38412-0.36427-0.36353-0.12481 0.38412-0.18524-0.18487 0.12481-0.38412z"
         stroke-width=".039492"
         id="path2453" />
      <path
         d="m6.793 4.9024 0.30044-0.080641-0.050568 0.28197 0.29262-0.078544-0.070059 0.34089-0.28321 0.076018-0.065579 0.38222q0.010487-0.013185 0.021417-0.026082c0.34133-0.40329 0.78288-0.68765 1.0244-0.485 0.24202 0.20344 0.10775 0.85676-0.38354 1.3456-0.27831 0.27694-0.5306 0.53961-0.58227 0.83864l0.4078-0.048458-0.087573 0.42611-2.1013 0.56402 0.087573-0.42611 0.43433-0.17758c0.072382-0.30458-0.095098-0.45459-0.28543-0.60574-0.33582-0.26687-0.20155-0.92019 0.15708-1.2849 0.35759-0.36345 0.72708-0.29682 0.933-0.040387q0.00659 0.00824 0.012572 0.016959l0.093043-0.38959-0.28359 0.07612 0.070059-0.34089 0.29262-0.078544zm-0.55123 1.3811c0.11348 0.29191 0.05573 0.68451 0.020125 0.85775-0.092027 0.024701-0.40338-0.055167-0.52863-0.29015-0.090138-0.16918-0.062212-0.46358 0.075362-0.61189 0.13757-0.14831 0.36222-0.13818 0.43314 0.044291zm0.86641-0.23256c-0.25372 0.39047-0.36002 0.7961-0.39563 0.96934 0.092027-0.024701 0.47448-0.2908 0.71658-0.62438 0.17426-0.24014 0.27115-0.55305 0.18203-0.64052s-0.34441 0.051492-0.50299 0.29556z"
         fill-rule="evenodd"
         stroke-width=".039276"
         id="path2455" />
    </g>
  </g>
</svg>
