<?xml version="1.0" encoding="UTF-8" standalone="no"?>
<!-- Created with Inkscape (http://www.inkscape.org/) -->

<svg
   version="1.1"
   id="svg3139"
   width="10"
   height="10"
   viewBox="0 0 10 10"
   sodipodi:docname="fog-of-war-off.svg"
   inkscape:version="1.2.2 (732a01da63, 2022-12-09)"
   xmlns:inkscape="http://www.inkscape.org/namespaces/inkscape"
   xmlns:sodipodi="http://sodipodi.sourceforge.net/DTD/sodipodi-0.dtd"
   xmlns="http://www.w3.org/2000/svg"
   xmlns:svg="http://www.w3.org/2000/svg">
  <defs
     id="defs3143" />
  <sodipodi:namedview
     id="namedview3141"
     pagecolor="#ffffff"
     bordercolor="#000000"
     borderopacity="0.25"
     inkscape:showpageshadow="2"
     inkscape:pageopacity="0.0"
     inkscape:pagecheckerboard="0"
     inkscape:deskcolor="#d1d1d1"
     showgrid="false"
     inkscape:zoom="90.509668"
     inkscape:cx="4.2315921"
     inkscape:cy="5.3916892"
     inkscape:window-width="2560"
     inkscape:window-height="1476"
     inkscape:window-x="-12"
     inkscape:window-y="-12"
     inkscape:window-maximized="1"
     inkscape:current-layer="g3145" />
  <g
     inkscape:groupmode="layer"
     inkscape:label="Image"
     id="g3145">
    <path
       style="fill:#080808;stroke:#000000;stroke-width:0.02;stroke-opacity:1;stroke-dasharray:none"
       d="M 0.96875,3.6 C 0.8271875,3.661 0.6954625,3.7811375 0.5932825,3.89375 0.15168375,4.3804312 0.05448444,5.1620063 0.44023938,5.7125 0.49796063,5.7948687 0.5627525,5.8750813 0.6375,5.9426875 0.69216875,5.9921375 0.7596375,6.0306188 0.81135,6.0824 0.86099375,6.1321187 0.89604375,6.1979813 0.94430625,6.25 1.0084375,6.319125 1.1148687,6.379125 1.13075,6.475 1.1499875,6.5911875 1.0961937,6.6515625 1.0453625,6.75 0.990875,6.8555625 0.94220625,6.9660625 0.911775,7.08125 c -0.13718125,0.519375 -0.035,1.102875 0.3447187,1.5 0.2562625,0.268 0.5997,0.4325625 0.9685063,0.4676875 0.11835,0.01125 0.2404688,-0.020875 0.35625,-0.008 0.1315938,0.014687 0.2600063,0.05775 0.39375,0.0705 0.073844,0.007 0.1514937,7.5e-4 0.225,-0.00625 0.030825,-0.00294 0.069431,-0.01625 0.1,-0.00938 0.048306,0.010938 0.1037,0.07675 0.14375,0.1065 0.087506,0.065 0.1833312,0.1174375 0.28125,0.1648125 0.3255687,0.1575 0.7070375,0.1839375 1.05625,0.1038125 0.2006187,-0.046062 0.3947563,-0.136125 0.5625,-0.2548125 0.065787,-0.046563 0.1297625,-0.097375 0.1875,-0.1536875 0.035219,-0.034375 0.066338,-0.08075 0.106275,-0.10925 0.04405,-0.031375 0.1173063,-0.037 0.168725,-0.053375 0.066719,-0.021187 0.1322187,-0.063 0.2,-0.07775 0.050444,-0.010937 0.117625,0.01375 0.16875,0.019875 0.094313,0.011375 0.1925,0.012 0.2875,0.00781 0.1183125,-0.00519 0.243125,-0.027375 0.35625,-0.062437 0.055875,-0.01725 0.1299375,-0.061188 0.1875,-0.062875 C 7.064625,8.72275 7.1430625,8.7703125 7.2,8.786625 7.3223125,8.8216875 7.44825,8.84075 7.575,8.8494375 8.1355625,8.8878125 8.7060625,8.5808125 9.0065625,8.1125 9.10675,7.9563125 9.1829375,7.782375 9.22,7.6 9.264125,7.382875 9.267125,7.1535 9.213125,6.9375 9.173125,6.777375 9.0848125,6.6460625 9.0319375,6.49375 8.985875,6.361125 8.9701875,6.2240125 8.9105625,6.09375 8.8723125,6.0101563 8.8075625,5.9346187 8.775,5.85 8.9290625,5.8056188 9.0890625,5.6671438 9.2,5.55625 9.5948125,5.1615938 9.7430625,4.6075375 9.60075,4.06875 9.5648125,3.9328188 9.5054375,3.8002063 9.4309375,3.68125 9.402875,3.6364813 9.31825,3.5574688 9.3140625,3.50625 9.311,3.4694438 9.3668125,3.4069438 9.384875,3.375 9.437875,3.2810938 9.48025,3.178725 9.5098125,3.075 9.61375,2.710825 9.577875,2.3224313 9.413875,1.98125 9.2009375,1.5382812 8.749375,1.2155812 8.25625,1.1818062 8.1518125,1.1746562 8.0406875,1.1772 7.9375,1.19425 7.8913125,1.2018875 7.813625,1.2357375 7.76875,1.2256 7.7390625,1.2189 7.717125,1.1839063 7.6981875,1.1625 7.6646875,1.1245187 7.6250625,1.0912 7.5875,1.0573125 7.4681875,0.94971875 7.3270625,0.86244375 7.18125,0.79568125 6.7043125,0.5772875 6.1301437,0.62272125 5.68125,0.88663125 5.5820625,0.94495 5.491375,1.0177875 5.40625,1.0948125 5.3715313,1.126225 5.3441438,1.1664938 5.30625,1.19375 5.2547,1.0577437 5.120225,0.92926875 5.0125,0.8366875 4.5981937,0.48061438 3.9680437,0.39916813 3.48125,0.65555625 3.342475,0.72865 3.212925,0.820725 3.1073125,0.9375 3.066275,0.98286875 3.0286063,1.0308875 2.9939063,1.08125 2.9800438,1.101375 2.9660188,1.136075 2.9424375,1.1462312 2.9131125,1.1588563 2.8740813,1.145325 2.84375,1.1439937 2.7832875,1.14135 2.7226813,1.1464312 2.6625,1.1505562 2.4934625,1.16215 2.3251188,1.2079188 2.16875,1.271575 1.972675,1.3513938 1.8311,1.4806375 1.6625,1.6013188 1.5076187,1.7121813 1.3452063,1.78575 1.2135625,1.93125 0.817375,2.3691313 0.65778125,3.0671125 0.96875,3.6 M 3.00625,1.15625 C 3.068275,1.0251437 3.1920813,0.90846875 3.30625,0.82266875 3.715825,0.51484938 4.276575,0.47358313 4.73125,0.704725 4.90335,0.79221875 5.0543125,0.92294375 5.1723438,1.075 5.1996187,1.1101375 5.2749437,1.1906312 5.2700687,1.2375 5.2667437,1.269525 5.2269875,1.3056437 5.2089,1.33125 5.1645813,1.394 5.1251875,1.4617937 5.0923812,1.53125 5.0768063,1.564225 5.0697812,1.6049813 5.025,1.5957875 4.978175,1.5861688 4.9731187,1.5441875 4.9546312,1.50625 4.9222562,1.4398188 4.881625,1.375925 4.83485,1.31875 4.7039125,1.1587 4.5222062,1.03575 4.31875,0.99015625 4.0944812,0.9399 3.8487625,0.97209375 3.65,1.0903312 3.5967125,1.1220312 3.5459938,1.1595125 3.5,1.2010625 3.4794312,1.2196375 3.4564625,1.2556187 3.4294625,1.2643937 3.3964875,1.2751187 3.337475,1.2379563 3.30625,1.22715 3.208294,1.193262 3.1077063,1.175369 3.00625,1.15625 m 4.96875,0.525 -0.01875,0.025 C 8.075,1.69686 8.2014375,1.666981 8.31875,1.7069 c 0.090188,0.030687 0.1781875,0.1049562 0.25,0.1655375 0.188625,0.15915 0.3300625,0.3660563 0.4175625,0.5963125 0.030875,0.081313 0.069437,0.1806563 0.069437,0.26875 0,0.1803813 -0.096562,0.342575 -0.18075,0.49375 C 8.770375,3.1707813 8.684,3.0842 8.575,3.027 8.3523125,2.910175 8.0836875,2.8728813 7.8375,2.91875 L 7.7960625,2.6875 7.74375,2.5125 C 7.87575,2.5020688 8.0039375,2.4789125 8.1375,2.4880563 8.450625,2.5095063 8.7053125,2.6248688 8.975,2.775 8.99475,2.7199 8.9495625,2.70395 8.90625,2.6778125 8.848125,2.64275 8.7866875,2.6115 8.725,2.5831813 8.70025,2.5718125 8.6604375,2.5636375 8.643375,2.5411375 8.6223125,2.5134188 8.6183125,2.4638813 8.605875,2.43125 8.584125,2.3745813 8.55,2.3209625 8.510625,2.275 8.4495625,2.2037313 8.3701875,2.1505813 8.28125,2.1209688 8.24475,2.1088063 8.204,2.108425 8.16875,2.0933812 8.0715,2.0518938 7.9854375,1.9993875 7.88125,1.9726875 7.8083125,1.9540062 7.735625,1.9528188 7.6625,1.9400312 7.642375,1.9365062 7.60425,1.9084625 7.5870625,1.927425 7.57025,1.9459438 7.601375,2.00995 7.607,2.03125 7.632375,2.1279813 7.64375,2.22525 7.64375,2.325 H 7.6375 C 7.501875,2.124025 7.330375,1.9680812 7.1125,1.860975 6.9298125,1.771175 6.7145,1.7335875 6.5125,1.7552125 6.3165625,1.7761875 6.1323688,1.8439062 5.96875,1.9541937 5.6003937,2.2024875 5.4033125,2.66575 5.5118438,3.1 5.6668375,3.7201313 6.3794375,4.0773688 6.94375,3.7409188 7.33,3.5106437 7.5023125,2.9973875 7.2659375,2.6 7.1693125,2.4376313 7.040125,2.3539875 6.8821875,2.2622313 6.8196875,2.2259063 6.94675,2.1096063 6.84375,2.10625 L 6.8125,2.2375 C 6.7314375,2.2207063 6.7075,2.1176813 6.6375,2.0710188 6.5365,2.0037 6.3400625,2.0258813 6.3145625,2.16875 6.3074375,2.2087188 6.322625,2.2392688 6.3375,2.275 6.25175,2.3106938 6.1631813,2.3696437 6.10625,2.44375 H 6.1 C 6.0616813,2.3811438 6.0275938,2.3160937 5.9848312,2.25625 5.9535125,2.2124312 5.9141688,2.1763938 5.9198188,2.11875 5.9313063,2.0015062 6.048525,1.9550687 6.14375,1.9078 6.392,1.7845437 6.6861875,1.769625 6.95,1.8482563 7.06775,1.88335 7.1215625,2.0070687 7.1535625,2.11875 c 0.0095,0.03305 0.012313,0.1262125 0.042125,0.1453 0.043625,0.027994 0.027188,-0.067687 0.02375,-0.0828 C 7.197875,2.0861625 7.1558125,2.0073625 7.11875,1.91875 7.2375625,1.9619875 7.343375,2.0558938 7.43125,2.14375 7.786,2.4985 7.8886875,3.0552313 7.6793125,3.5125 7.413375,4.093275 6.7235625,4.422425 6.10625,4.2392437 5.91885,4.1836375 5.7443812,4.0945 5.59375,3.9692438 5.4608625,3.8587438 5.3495562,3.7239813 5.262575,3.575 5.1895687,3.4499625 5.1403875,3.314925 5.1054563,3.175 4.8935437,2.326025 5.553175,1.4658438 6.4,1.3517625 c 0.339125,-0.045681 0.671375,0.019731 0.975,0.1747688 0.09575,0.0489 0.1853125,0.1095812 0.26875,0.1772874 0.0175,0.014206 0.066688,0.07135 0.091625,0.058306 0.02525,-0.0132 -0.00594,-0.044787 -0.01675,-0.055319 C 7.677125,1.6663312 7.6283125,1.6318625 7.58125,1.5981875 7.4996875,1.5398062 7.4068125,1.5012062 7.325,1.4447563 7.2025625,1.3602813 7.1019375,1.2669063 6.9625,1.2071875 6.5730625,1.0404312 6.095725,1.1102625 5.775,1.3893062 5.6883625,1.4646875 5.6147688,1.5526812 5.554275,1.65 5.5332688,1.6838 5.513075,1.7541687 5.4687438,1.7636437 5.4367812,1.770475 5.3843125,1.7279812 5.35625,1.71405 5.277744,1.675075 5.1918375,1.63855 5.10625,1.61875 c 0.059563,-0.1451875 0.1440563,-0.2838375 0.25,-0.4 0.5786187,-0.63442625 1.5915625,-0.68303688 2.225,-0.1005375 0.12,0.1103437 0.2206875,0.235875 0.305,0.3755375 0.033312,0.055262 0.077312,0.1234875 0.08875,0.1875 M 4.91875,1.54375 C 4.6960375,1.4168813 4.4895063,1.3193375 4.225,1.37765 4.1336813,1.3977875 4.0308687,1.4233063 3.94375,1.4566562 3.9122188,1.468725 3.8639625,1.5122625 3.83125,1.5106125 3.80015,1.50905 3.7621875,1.4655875 3.7375,1.4482562 3.6691,1.4002312 3.5969375,1.3607375 3.525,1.31875 3.5664188,1.25275 3.6432125,1.2036438 3.70625,1.1599125 3.7807938,1.1082 3.8730625,1.0498875 3.9625,1.0292437 4.343775,0.94125625 4.7719187,1.191175 4.91875,1.54375 M 7.16875,1.375 V 1.38125 C 7.0341875,1.3504062 6.9074375,1.308075 6.76875,1.2948125 6.4814375,1.2673375 6.2000437,1.3259375 5.9375,1.4428812 5.8219687,1.4943438 5.7273063,1.57565 5.61875,1.6375 5.6689062,1.5367875 5.7678438,1.4488875 5.85625,1.3820625 6.2464125,1.0871313 6.773375,1.1082937 7.16875,1.375 M 3.95625,1.70625 C 3.8672688,1.7581875 3.77785,1.8037875 3.69375,1.8643375 3.6711687,1.8806 3.6295313,1.929075 3.6,1.9254938 3.5683625,1.9216625 3.5307688,1.87335 3.50625,1.8541375 3.4411187,1.8031125 3.3690063,1.7555 3.29375,1.7206813 2.9701813,1.5709875 2.6100563,1.5716313 2.2875,1.7243063 1.9393687,1.8890812 1.7060437,2.2319938 1.6698125,2.6125 c -0.00733,0.076913 8.937e-4,0.1551813 0.011437,0.23125 0.00397,0.028631 0.023081,0.071756 0.014413,0.099756 C 1.6840745,2.98095 1.6216625,3.012112 1.59375,3.038056 1.5189437,3.1075938 1.4485,3.1802063 1.3875,3.2625 H 1.375 C 1.1699938,2.731075 1.2397937,2.127575 1.6380625,1.7 2.118425,1.1842813 2.8860625,1.05395 3.5125,1.3672062 3.6693813,1.4456563 3.8537688,1.5607625 3.95625,1.70625 M 9.15,3.6125 C 9.083875,3.4868438 9.0066875,3.3700125 8.90625,3.26875 V 3.2625 C 9.2656875,2.7948688 9.122625,2.08265 8.625,1.7754063 8.513,1.7062312 8.381375,1.6581563 8.25,1.6448062 8.2005,1.639775 8.149875,1.6338188 8.1,1.6385625 8.0761875,1.6408313 8.0431875,1.651375 8.0211875,1.637325 7.990375,1.6176813 7.9741875,1.556425 7.957625,1.525 7.9124375,1.439325 7.8371875,1.3629312 7.8,1.275 7.93275,1.2249063 8.091875,1.2211375 8.23125,1.2306938 9.0819375,1.2890125 9.688625,2.15705 9.4835625,2.98125 9.442375,3.1469938 9.3788125,3.2993438 9.2871875,3.44375 9.25,3.50235 9.207125,3.571925 9.15,3.6125 M 4.8625,1.56875 4.55625,1.556275 4.44375,1.562325 4.35625,1.5021563 4.2,1.4375 C 4.239681,1.413575 4.292769,1.415738 4.3375,1.40985 4.4932625,1.389337 4.7574875,1.441994 4.8625,1.56875 m -0.4875,0 C 4.303169,1.612062 4.1873125,1.617762 4.10625,1.6459 4.079619,1.65514 4.035344,1.683056 4.006806,1.676169 3.9683688,1.6668875 3.8914187,1.5789312 3.875,1.54375 4.0489562,1.452219 4.2109187,1.458056 4.375,1.56875 M 5.43125,1.80625 5.19375,2.15 C 4.9732313,2.0581938 4.7788625,2.0024188 4.5375,2.0189063 4.3564125,2.0312688 4.1771313,2.0996125 4.025,2.196475 3.8847875,2.28575 3.7646313,2.4120625 3.6821875,2.55625 3.4579313,2.9484813 3.5115938,3.4523688 3.8255563,3.7811563 4.2313688,4.206125 4.9219125,4.1269937 5.24375,3.65 L 5.3416375,3.775 5.525,3.96875 C 5.4491313,4.1001563 5.3029875,4.2082125 5.175,4.285 4.711175,4.5632937 4.0970437,4.5298 3.66875,4.1973438 2.9364313,3.6288938 2.9738938,2.4718063 3.7,1.918025 3.9297188,1.742825 4.196925,1.6476688 4.48125,1.6107375 c 0.3399938,-0.044156 0.6466063,0.05385 0.95,0.1955125 m -2.65,-0.15 0.0125,0.375 C 2.7217438,2.0105125 2.6546813,1.9740375 2.58125,1.9555937 2.3956063,1.9089688 2.2231625,1.9202437 2.0375,1.95625 c 0.1717188,-0.1983625 0.4882563,-0.3 0.74375,-0.3 M 3.29375,2.1125 3.125,2.1481063 3.01875,2.1065875 2.85,2.06875 2.83125,1.65625 c 0.102575,2.813e-4 0.2091938,0.021837 0.30625,0.054169 0.025369,0.00845 0.078725,0.017162 0.093019,0.042194 0.016087,0.028188 0.00474,0.1008688 0.00804,0.1348875 0.00761,0.0783 0.037675,0.1493063 0.055188,0.225 M 1.55625,1.71875 C 1.5030375,1.8039188 1.4376,1.8796937 1.3894313,1.96875 1.2613687,2.2055063 1.1883,2.4859438 1.2068125,2.75625 1.2155937,2.8845688 1.2374875,3.0151813 1.2782187,3.1375 1.293925,3.18465 1.350625,3.2766813 1.3379875,3.325 1.2972,3.4809625 1.1441312,3.5202 1.0125,3.575 0.73323125,3.096525 0.8455875,2.4610375 1.1812563,2.04375 1.2803937,1.9205062 1.4111563,1.7873875 1.55625,1.71875 M 3.5625,1.975 C 3.47825,1.9914625 3.405675,1.900375 3.35,1.852675 3.3228375,1.8294062 3.2913438,1.810675 3.28125,1.775 3.365725,1.791288 3.5255187,1.8973437 3.5625,1.975 m 4.96875,-0.2 c 0.2464375,0.1439625 0.499125,0.3991938 0.5125,0.70625 H 9.0375 C 8.9725625,2.2072438 8.744875,1.9442375 8.525,1.78125 L 8.53125,1.775 M 3.29375,1.86875 C 3.3469063,1.90575 3.3921563,1.9540125 3.437475,2 3.4523375,2.0150813 3.481725,2.0378937 3.4698,2.0621312 3.4526438,2.0970188 3.3775,2.0957125 3.34375,2.1 3.3213875,2.0420188 3.2698188,1.9300625 3.29375,1.86875 M 2.575,2.00625 V 2.0125 C 2.4511688,2.0640688 2.3342188,2.1573938 2.2448125,2.25625 2.2032688,2.3021812 2.1717,2.3608125 2.1280125,2.4037875 2.0903,2.4408938 2.0251438,2.4532563 1.98125,2.484 1.8595312,2.56925 1.757775,2.7058063 1.7375,2.85625 1.7134812,2.8062688 1.71875,2.73565 1.71875,2.68125 c 0,-0.1709813 0.044931,-0.3388313 0.1294937,-0.4875 0.029869,-0.052506 0.067687,-0.1297438 0.12075,-0.1619625 0.044788,-0.0272 0.1112376,-0.036169 0.1622563,-0.044781 C 2.279,1.9620562 2.430075,1.9655062 2.575,2.00625 M 8.08125,2.1 v 0.00625 c -0.115125,0.0094 -0.2190625,0.075319 -0.2916875,0.1625 -0.029687,0.035613 -0.04975,0.1298375 -0.095813,0.1375 0,-0.1437125 -0.010812,-0.2797 -0.05,-0.41875 0.1470625,10e-5 0.31,0.038106 0.4375,0.1125 M 2.675,2.03125 v 0.05 C 2.5410125,2.09855 2.4176375,2.1694563 2.3189938,2.2589 2.2796125,2.2946125 2.2435563,2.3782125 2.19375,2.39375 2.2695563,2.2720188 2.3859375,2.1756563 2.50625,2.1003125 2.5578,2.0680313 2.6127125,2.0318063 2.675,2.03125 m 0.05625,0.025 0.0125,0.00625 V 2.06875 L 2.73125,2.05625 M 4.3,2.46875 V 2.4625 c 0.1503813,-0.071456 0.2548,-0.2415625 0.2875,-0.4 0.030156,0 0.08925,-0.0114 0.1147688,0.00643 0.022425,0.015662 0.031594,0.056444 0.039312,0.081075 0.02435,0.077719 0.036006,0.2537813 -0.033069,0.3149813 C 4.685125,2.4857 4.6291875,2.475 4.6,2.475 4.5000875,2.475 4.4002563,2.46875 4.3,2.46875 m 0.2375,-0.4 C 4.480375,2.27005 4.33845,2.4311313 4.13125,2.4851438 4.0951375,2.4945563 3.9722563,2.5336688 3.9433375,2.502475 3.93155,2.4897563 3.9282563,2.4660188 3.9229188,2.45 3.9152625,2.4270375 3.8948,2.3932875 3.899575,2.36875 3.9081813,2.3245375 3.97865,2.285875 4.0125,2.261625 4.1604687,2.1556063 4.353875,2.0766375 4.5375,2.06875 M 4.7625,2.4875 C 4.76865,2.426113 4.799112,2.3690125 4.805187,2.30625 4.813327,2.222094 4.788968,2.1469875 4.7625,2.06875 4.802981,2.0695875 4.9186375,2.07264 4.9434875,2.109456 4.9566745,2.129006 4.943025,2.170781 4.9439938,2.19375 4.9478338,2.284881 4.9401138,2.3429688 4.8946188,2.425 4.8828068,2.446294 4.8699128,2.480831 4.8479438,2.493488 4.8249187,2.50675 4.7874187,2.4895375 4.7625,2.4875 M 6.7,2.2125 6.425,2.2375 C 6.4381875,2.195875 6.4796875,2.1087375 6.519875,2.0879188 6.5874375,2.0529688 6.678375,2.1623438 6.7,2.2125 M 5.875,2.09375 v 0.0125 H 5.8625 L 5.875,2.09375 m 0.575,0 -0.08125,0.1375 C 6.3395625,2.170225 6.3876875,2.1058 6.45,2.09375 m -3.4,0.075 v 0.0125 C 2.8658813,2.2435438 2.6903563,2.3499438 2.54375,2.4768063 2.4794313,2.5324563 2.4199125,2.625075 2.3482188,2.667725 2.3032313,2.694475 2.2317375,2.6963563 2.18125,2.7125 c 0,-0.071844 0.005,-0.1378875 0.029325,-0.20625 C 2.3369438,2.151125 2.7263688,2.0634438 3.05,2.16875 m 2.11875,0.025 C 5.122725,2.312375 5.0665062,2.4284438 5.05,2.55625 H 5.04375 c -0.039969,-0.1421812 -0.05,-0.2906375 -0.05,-0.4375 l 0.175,0.075 M 5.83125,2.1375 c 0.06825,0.074106 0.1257688,0.1575313 0.1775,0.24375 0.016987,0.028312 0.048325,0.065794 0.049906,0.1 0.00231,0.049744 -0.064188,0.1254188 -0.0815,0.175 C 5.9336812,2.7807438 5.9350437,2.91255 5.975,3.0375 5.91195,3.0193375 5.8147812,2.9639688 5.7808375,2.906225 5.7381875,2.8336563 5.724325,2.7391813 5.6859562,2.6625 5.664,2.6186188 5.5991938,2.5481063 5.5980125,2.5 5.5972062,2.467025 5.6256125,2.4223 5.6405375,2.39375 5.6874313,2.304075 5.7471063,2.1968125 5.83125,2.1375 M 3.4,2.14375 C 3.3455,2.2394063 3.2725313,2.3229688 3.2276563,2.425 3.2025,2.4822 3.1819688,2.5960063 3.1393563,2.6393813 3.1176813,2.6614438 3.0769563,2.6716 3.05,2.6866375 2.9887688,2.7207938 2.929375,2.7595125 2.875,2.8038438 2.652075,2.9855875 2.45615,3.2834438 2.45,3.58125 L 2.05,3.44375 C 2.0832188,3.3089188 2.1122875,3.1771875 2.1706813,3.05 2.3391875,2.6829563 2.6433688,2.39345 3.01875,2.24375 3.1372875,2.196475 3.2713125,2.149275 3.4,2.14375 M 8.58125,2.525 C 8.311625,2.4626188 8.040375,2.395575 7.7625,2.4625 7.7660625,2.2896563 7.9426875,2.1574688 8.10625,2.1502438 8.3199375,2.1408063 8.5611875,2.2949188 8.58125,2.525 M 6.90625,2.9 C 6.893625,2.8453563 6.8748125,2.7926875 6.86375,2.7375 6.8596875,2.71715 6.8590625,2.68115 6.844125,2.6654125 6.803875,2.6229875 6.8165,2.7445875 6.81875,2.75625 6.7655625,2.7211 6.7215625,2.6819938 6.65625,2.6715 6.5358125,2.6521438 6.367,2.7470875 6.394625,2.8875 6.4111875,2.9718188 6.529375,3.0313375 6.56875,2.93125 6.541375,2.9280813 6.5055625,2.9423438 6.4813125,2.9301 6.406375,2.89225 6.449875,2.7918625 6.5000625,2.7549313 6.5790625,2.6968625 6.6895,2.7116375 6.7625,2.771675 6.9175,2.8991875 6.8853125,3.1321125 6.7489375,3.2577813 6.641125,3.3571062 6.4765625,3.3897875 6.3375,3.3453375 6.0301563,3.2470938 5.9142,2.8755625 6.0523125,2.6 6.1473125,2.4104625 6.343,2.2897188 6.55,2.2642875 6.721375,2.2432438 6.90275,2.3007625 7.0375,2.4063438 7.075625,2.4362375 7.134,2.4795 7.1536875,2.525 7.1675,2.5569438 7.1395625,2.6077125 7.1275,2.6375 7.086625,2.73835 7.007625,2.8527313 6.90625,2.9 M 4.9625,2.4 4.99375,2.5625 4.89375,2.51875 4.9625,2.4 M 3.85625,2.40625 3.9,2.54375 C 3.8466125,2.5685625 3.7999875,2.5504625 3.74375,2.55 3.7684438,2.4978063 3.8092125,2.4400813 3.85625,2.40625 M 2.18125,2.45 2.1323125,2.625 2.124825,2.7218813 2.01875,2.7705063 1.78125,2.89375 C 1.8073,2.6887 1.9672875,2.4816 2.18125,2.45 M 4.3875,2.51875 V 2.525 C 4.2490437,2.581875 4.1326562,2.68505 4.0641188,2.81875 4.040525,2.8647813 4.0351625,2.9601875 4.0016125,2.9948875 3.9648438,3.0329188 3.8787,3.0512063 3.83125,3.0769313 3.7486125,3.1217312 3.6822438,3.184175 3.60625,3.2375 3.5822,3.1079563 3.5906438,2.9718875 3.6188375,2.84375 3.62805,2.801875 3.6385625,2.7357438 3.6668875,2.7024375 3.7042688,2.6584875 3.796775,2.6333063 3.85,2.6146563 4.0238625,2.5537313 4.2031125,2.51875 4.3875,2.51875 m 0.65625,0.6125 C 5.002363,3.108294 4.963194,3.078225 4.91875,3.061088 4.900581,3.054078 4.880694,3.062418 4.86365,3.054928 4.824975,3.037928 4.795756,2.982591 4.75625,2.959216 4.6493,2.8959375 4.4655437,2.9331 4.4469063,3.075 4.436575,3.1536375 4.5265375,3.2342563 4.5875,3.1625 4.5663688,3.1551625 4.533575,3.1503813 4.5174313,3.1345688 4.4689312,3.0870438 4.5133187,3.0143313 4.5625,2.988525 4.61445,2.9612688 4.6966063,2.9761 4.74375,3.0069313 4.8873,3.1007938 4.8815375,3.3098625 4.7792125,3.431225 4.7113312,3.5117438 4.5921563,3.5580313 4.4875,3.5554438 4.1633562,3.5474438 3.9786688,3.194925 4.0793438,2.90625 4.1629625,2.6664875 4.39555,2.525 4.64375,2.525 4.7464625,2.525 4.8452,2.546094 4.9375,2.592244 4.964644,2.605819 5.009569,2.623819 5.024581,2.651882 5.042637,2.685632 5.018941,2.755957 5.018751,2.7937507 5.0182,2.9086625 5.03475,3.017425 5.04375,3.13125 M 5.575,2.56875 C 5.614069,2.613713 5.624231,2.649356 5.6125,2.70625 5.5733875,2.6727438 5.5493063,2.617075 5.575,2.56875 M 3.75,2.6 V 2.60625 L 3.7,2.625 C 3.7129625,2.6020938 3.7239625,2.5971 3.75,2.6 M 7.20625,2.59375 C 7.2915,2.7230375 7.32525,2.872 7.325,3.025 7.3249375,3.0754563 7.32375,3.1485313 7.299125,3.19375 7.2790625,3.230625 7.2379375,3.2584125 7.20625,3.2847813 7.1266875,3.35095 7.037875,3.410775 6.94375,3.4543188 6.599,3.6138313 6.1457188,3.6528625 5.8,3.46875 c 0.0305,-0.161875 0.020575,-0.3130625 0,-0.475 0.058206,0.028838 0.15095,0.070994 0.1976313,0.1151125 0.027781,0.026263 0.043756,0.067306 0.067681,0.097387 0.06005,0.075519 0.1374377,0.139763 0.2284377,0.1745943 0.2108125,0.080712 0.4555,0.00345 0.5721875,-0.1933438 0.037125,-0.062675 0.025375,-0.1456125 0.05925,-0.2035937 C 6.9469375,2.9466688 6.994,2.9205375 7.0223125,2.8875 7.09775,2.799525 7.1576875,2.7043 7.19375,2.59375 h 0.0125 m -4.0875,0.1145813 0.00208,0.00209 c -0.00308,0.00103 -0.00691,-0.00209 -0.00208,-0.00209 M 5.55,2.70625 C 5.581713,2.763206 5.609581,2.8286313 5.68125,2.8125 5.650037,2.778175 5.642231,2.756825 5.65625,2.7125 H 5.6625 C 5.7486,2.9654438 5.8004063,3.2012 5.75,3.46875 H 5.74375 C 5.6311562,3.28795 5.5323188,3.1078625 5.5312562,2.8875 5.5310063,2.836325 5.5178875,2.7486313 5.55,2.70625 M 2.3,2.73125 C 2.250875,2.8300063 2.18145,2.9183375 2.1328625,3.01875 2.0949938,3.0970188 2.0816813,3.2012063 2.0357625,3.2729688 2.0086688,3.3153125 1.9143062,3.3855375 1.86875,3.406325 1.8168375,3.4300063 1.7202063,3.404925 1.6625,3.4063438 1.5452437,3.4092125 1.4338562,3.44075 1.31875,3.45625 1.5133062,3.086875 1.8927312,2.8153063 2.3,2.73125 M 3.1125,2.7625 c -0.012969,0.1004125 -0.03125,0.1982875 -0.03125,0.3 0,0.033 0.0088,0.086894 -0.026906,0.1058063 C 3.0258875,3.1833813 2.9665563,3.1506938 2.9375,3.143025 2.85015,3.1199813 2.7590438,3.10625 2.66875,3.10625 2.722475,2.9926813 2.8310625,2.8915563 2.93125,2.8188188 2.9953125,2.7723063 3.033025,2.7401125 3.1125,2.7625 M 8.44375,3.01875 C 8.420125,3.0654313 8.3624375,3.0994125 8.31875,3.1261813 8.16775,3.2187188 7.995375,3.2330375 7.825,3.2 L 7.8375,2.96875 c 0.21475,-0.040006 0.3985,0.00194 0.60625,0.05 M 4,3.05625 v 0.0375 L 3.95625,3.075 4,3.05625 M 6.51875,4.3375 C 6.6144375,4.335525 6.7136875,4.318775 6.80625,4.294475 6.8318125,4.2877562 6.8975625,4.25475 6.9215,4.2695062 6.946125,4.2847 6.956625,4.3606187 6.96675,4.3875 7.000375,4.4766 7.0485625,4.5613 7.105625,4.6375 7.3381875,4.9480688 7.726875,5.1049375 8.10625,5.0236812 8.7479375,4.8862375 9.042875,4.0778625 8.5806875,3.5938438 8.4489375,3.455875 8.2908125,3.4054438 8.1125,3.3625 8.1265,3.32885 8.1438125,3.2724313 8.171375,3.2481375 8.2191875,3.2059688 8.3068125,3.1905375 8.3625,3.1541 8.3965,3.1318375 8.4393125,3.0791125 8.48125,3.0769875 8.603625,3.070775 8.7285625,3.166675 8.8125,3.2443063 9.0906875,3.5016563 9.2605,3.87235 9.2239375,4.25625 9.21025,4.4002 9.17725,4.5430625 9.1168125,4.675 8.812125,5.3403875 8.0231875,5.6327312 7.35625,5.3473312 6.9220625,5.1615375 6.6438125,4.7815875 6.51875,4.3375 M 4.8875,3.09375 4.90625,3.10625 V 3.1125 L 4.8875,3.11875 v -0.025 M 3.9125,3.10625 3.88125,3.2125 3.81875,3.1375 3.9125,3.10625 M 4.11875,3.425 C 4.09585,3.4250125 4.059294,3.43441 4.03865,3.4242688 4.005606,3.4080378 3.9267125,3.2924938 3.92465,3.25625 3.9224,3.21665 3.947419,3.169769 3.95625,3.13125 4.022919,3.150569 4.014981,3.212537 4.036338,3.26875 4.057694,3.324956 4.092394,3.3718 4.118751,3.425 m 0.75,0.1 C 4.852545,3.4543 4.846745,3.430194 4.875791,3.3625 4.89241,3.323788 4.90326,3.279644 4.905666,3.2375 4.907306,3.208769 4.895766,3.181588 4.919697,3.159275 4.951816,3.129319 4.981622,3.147838 5.012497,3.168935 5.066591,3.205885 5.104534,3.2959975 5.108335,3.3624787 5.1100687,3.3927688 5.0779,3.4084375 5.05625,3.4229188 5.001225,3.4597 4.9348875,3.5130625 4.86875,3.525 M 2.7625,3.1625 V 3.16875 L 2.61875,3.1875 C 2.642063,3.138488 2.71705,3.154063 2.7625,3.1625 M 3.775,3.16875 C 3.8656,3.2671125 3.9616438,3.3778312 4.01875,3.5 3.9904875,3.519225 3.9345875,3.5826125 3.9005563,3.5805438 3.8696125,3.5786563 3.827725,3.5238 3.8,3.5077 3.7634563,3.4864813 3.70395,3.4828625 3.6731188,3.4566375 3.6567188,3.4426938 3.6502,3.4134563 3.6439313,3.39375 3.6357375,3.368 3.616525,3.3270875 3.6236063,3.3 3.6373688,3.24735 3.7302,3.1937188 3.775,3.16875 m -0.84375,0.025 C 2.907262,3.286425 2.884744,3.3751375 2.83125,3.45625 2.7562188,3.4318313 2.6904563,3.400325 2.6318125,3.3463813 2.6120063,3.3281687 2.5773,3.2990188 2.58145,3.2688688 c 0.00565,-0.041037 0.058081,-0.03005 0.0873,-0.034025 0.086831,-0.011819 0.177725,-0.0729 0.2625,-0.041094 M 3.025,3.21875 2.85625,3.6 2.80625,3.5875 C 2.8575,3.4542688 2.9628688,3.3587188 2.975,3.20625 l 0.05,0.0125 m 0.0625,0 c 0.023788,0.1280375 0.042656,0.2517813 0.087831,0.375 0.025875,0.070569 0.087844,0.1524125 0.098306,0.225 C 3.285968,3.904288 3.258868,4.0052563 3.262743,4.09375 3.2688875,4.2340562 3.318025,4.3763562 3.3819313,4.5 3.61435,4.9496875 4.190725,5.1761125 4.65,4.9293187 4.80015,4.8486313 4.9283437,4.7347125 5.0159188,4.5875 5.0523438,4.526275 5.0649,4.4389437 5.1058375,4.3836875 5.1405313,4.3368687 5.2329,4.3068812 5.28125,4.2723312 5.3405437,4.2299562 5.39835,4.1827187 5.4499063,4.1311562 5.4787562,4.1023125 5.5017437,4.0642313 5.5375,4.04375 5.5375,4.2992875 5.5211,4.5326375 5.392875,4.7625 5.2918687,4.9435875 5.1539187,5.0968688 4.98125,5.2124937 4.49815,5.5359937 3.8508125,5.5134062 3.39375,5.1520938 2.9573063,4.807075 2.7659938,4.2256125 2.88485,3.6875 2.9191438,3.532225 2.9812938,3.3405563 3.0875,3.21875 m 5.01875,0.0375 C 8.097125,3.2880188 8.0791875,3.3387438 8.0488125,3.356075 8.02275,3.3709938 7.97375,3.3653438 7.94375,3.3695625 7.882625,3.3781563 7.8261875,3.3966063 7.76875,3.41875 L 7.8125,3.25 c 0.1021875,0.00813 0.1906875,0.025444 0.29375,0.00625 m -0.8375,0.0375 -0.0375,0.0875 C 7.177562,3.353812 7.23906,3.314031 7.26875,3.29375 M 2.8,3.49375 C 2.771425,3.603625 2.5864,3.573925 2.49375,3.58125 L 2.55,3.3375 C 2.640356,3.383181 2.693475,3.4685063 2.8,3.49375 M 2.0125,3.375 V 3.3875 L 2,3.375 h 0.0125 m 5.01875,0.24375 c 0.02325,-0.080731 0.076562,-0.1573875 0.125,-0.225 0.095562,0.045219 -0.077438,0.1915 -0.125,0.225 M 1.95625,3.4 1.98125,3.43125 1.93125,3.425 1.95625,3.4 m 6.5125,0.16875 C 8.428,3.5919375 8.3765625,3.5997688 8.338,3.6255375 c -0.0185,0.01235 -0.02125,0.038088 0.00588,0.040781 0.057562,0.00572 0.114,-0.068444 0.168625,-0.060106 0.024375,0.00372 0.046188,0.033075 0.061938,0.050038 0.053688,0.057894 0.096187,0.127775 0.1273125,0.2 C 8.712,3.8800313 8.7409375,3.9278375 8.721,3.9522688 8.67025,4.0142937 8.5184375,4.0504937 8.44375,4.07235 8.4225625,4.07855 8.375,4.1015188 8.3545625,4.0870812 8.331,4.0704687 8.3205,4.0071125 8.3049375,3.98125 8.261875,3.9094625 8.1889375,3.84665 8.10625,3.8264938 7.973125,3.7940375 7.7659375,3.90145 7.81525,4.0625 7.838875,4.1395688 7.984625,4.2083 7.99375,4.0875 7.964,4.0884437 7.9349375,4.1113062 7.90625,4.0999125 7.807625,4.0607937 7.8776875,3.9335813 7.9375,3.896675 8.05825,3.8221562 8.2139375,3.90215 8.272625,4.01875 8.3224375,4.1177438 8.3130625,4.2356062 8.2605625,4.33125 8.0635,4.6900375 7.568875,4.5325313 7.4425625,4.20625 7.4185625,4.1443 7.3958125,4.0538 7.4101875,3.9875 7.426625,3.911675 7.5328125,3.8380063 7.5785625,3.775 7.619125,3.7191813 7.6576875,3.6616 7.689,3.6 7.7065,3.565675 7.7205625,3.512525 7.7478125,3.4853063 7.7743125,3.4588125 7.82725,3.4461 7.8625,3.436775 7.9690625,3.4086188 8.07925,3.4033 8.1875,3.4263188 8.2703125,3.443925 8.4271875,3.4884438 8.46875,3.56875 M 5.1375,3.425 C 5.15775,3.474362 5.2092,3.5410313 5.212306,3.59375 5.213776,3.618719 5.192287,3.643094 5.1791,3.6625 5.144325,3.713669 5.098231,3.7856063 5.0375,3.80625 L 4.88125,3.575 5.1375,3.425 M 7.05625,3.45 C 7.040375,3.5000688 7.0079375,3.5455625 6.986625,3.59375 6.9745,3.6211875 6.9679375,3.6566625 6.947375,3.6791938 6.9175625,3.7118563 6.864875,3.7319375 6.825,3.7490625 6.723125,3.7928063 6.6116875,3.824075 6.5,3.825 6.5009375,3.77975 6.5063125,3.6624563 6.5420625,3.6308625 6.5754375,3.6013125 6.66875,3.6033938 6.7125,3.591075 6.8346875,3.5566375 6.9405,3.4984563 7.05625,3.45 m -3.775,1.7625 C 3.319869,5.21923 3.335306,5.2087 3.3375,5.16875 c 0.0696,0.045994 0.1334625,0.099419 0.20625,0.1410812 0.024456,0.013994 0.071725,0.026413 0.083731,0.054 C 3.645575,5.405425 3.63125,5.4799 3.63125,5.525 3.6312375,5.7073938 3.5847438,5.8927375 3.520725,6.0625 3.4967063,6.1261875 3.468175,6.2220875 3.40625,6.2585 3.380875,6.273375 3.34605,6.2599375 3.31875,6.2573125 3.2562188,6.2513125 3.1940938,6.25 3.13125,6.25 3.1218938,6.1866563 3.06425,6.1174188 3.0652375,6.05625 3.0657938,6.0214813 3.0993938,5.9813812 3.1133688,5.95 3.1454688,5.8779187 3.1720375,5.801975 3.1896813,5.725 3.231675,5.5418 3.2016,5.3823625 3.19375,5.2 l -0.05,-0.00625 C 3.14476,5.242625 3.178869,5.3148313 3.158731,5.3611688 3.146381,5.3895878 3.095069,5.4059188 3.06875,5.4178628 2.9811625,5.4576 2.8847438,5.5045562 2.7875,5.5125 2.8084188,5.3728625 2.8645438,5.244475 2.8744375,5.1 2.8970625,4.7696375 2.7568188,4.4217312 2.51875,4.1939937 2.0255813,3.7222438 1.1662875,3.7663313 0.806325,4.38125 0.740575,4.4935625 0.695675,4.6157 0.6725875,4.74375 0.6182925,5.0448937 0.71789375,5.3817937 0.94375625,5.5931937 1.3552,5.9782875 2.0614375,5.9349937 2.3289375,5.4 2.4097688,5.2383375 2.4076938,5.0869938 2.40625,4.9125 c 0.053875,0.030031 0.1015438,0.072319 0.1419438,0.11875 0.023856,0.027425 0.046444,0.0749 0.08315,0.085981 C 2.67395,5.1300938 2.72845,5.106775 2.76875,5.09375 2.783363,5.08903 2.811981,5.075794 2.820981,5.09583 2.831856,5.120036 2.817891,5.174011 2.814191,5.1999988 2.799835,5.30073 2.775491,5.3987301 2.738679,5.4937488 2.570275,5.92845 2.1587563,6.2177813 1.7,6.2614375 1.5228813,6.2783125 1.3370125,6.254 1.16875,6.1979188 1.0044687,6.1431563 0.85130625,6.0603625 0.71875,5.9482813 0.6039275,5.8511937 0.50730813,5.736125 0.4313225,5.60625 0.1293525,5.090125 0.21279563,4.4041625 0.60180875,3.95625 0.78975625,3.7398438 1.0377625,3.58875 1.3125,3.5106875 1.533575,3.447875 1.7747688,3.438775 2,3.48375 c 0.2478625,0.049487 0.4884063,0.1481813 0.6875,0.3065625 0.0334,0.026569 0.086469,0.058456 0.106075,0.097212 0.027456,0.054256 0.00504,0.1584437 0.00652,0.218725 0.00276,0.1126312 0.02925,0.2303062 0.062562,0.3375 0.057831,0.1860875 0.14785,0.3602437 0.2698437,0.5125 C 3.1968,5.0365 3.3080875,5.099775 3.28125,5.2125 M 4.80625,3.475 4.81875,3.5375 4.775,3.5125 4.80625,3.475 m 0.1,0.43125 L 4.9,3.6875 C 4.837619,3.726663 4.85625,3.7902563 4.85625,3.85625 c 0,0.027975 0.00787,0.067012 -0.019675,0.084175 C 4.799325,3.963631 4.6682563,4.016863 4.6270313,3.993488 4.6046625,3.9808 4.5908563,3.9505938 4.5731938,3.9323188 4.5353063,3.8931125 4.4852625,3.8626438 4.43125,3.8529063 4.3689,3.8416625 4.3014312,3.8534875 4.25,3.8913313 4.2282313,3.9073437 4.2068,3.9445625 4.1801875,3.9511688 4.152675,3.9579938 4.110875,3.9291938 4.0875,3.9171375 3.9973188,3.8706125 3.9213688,3.8088688 3.85,3.7375 3.90005,3.6476875 3.9806375,3.5765375 4.06875,3.525075 4.094575,3.509987 4.137644,3.481819 4.16875,3.484544 4.205425,3.487754 4.248331,3.534032 4.28125,3.551369 4.345044,3.584975 4.4156375,3.60125 4.4875,3.604944 4.541656,3.607724 4.606325,3.592332 4.65625,3.572169 4.6863,3.560031 4.717025,3.533844 4.75,3.550081 c 0.082425,0.040587 0.1593125,0.130375 0.2081375,0.2061687 0.013019,0.020212 0.04685,0.061494 0.039231,0.086919 -0.00931,0.031044 -0.063987,0.051725 -0.091119,0.063081 m -1.2,-0.3875 c 0.066338,0.022444 0.1132063,0.056987 0.1625,0.10625 v 0.00625 l -0.05,0.0625 H 3.8125 C 3.7789875,3.6572562 3.6985813,3.5713313 3.70625,3.51875 m 2.09375,0 C 5.947125,3.5971 6.1187688,3.6165438 6.28125,3.6357125 6.3215625,3.640475 6.4375,3.6147813 6.4631875,3.6457437 6.4941875,3.6832 6.4535625,3.7800063 6.45,3.825 6.264125,3.825 6.0894563,3.7586188 5.9375,3.6540813 5.8976062,3.6266313 5.806625,3.56935 5.8,3.51875 M 9.275,3.55 C 9.7768125,4.0951875 9.684625,5.0028625 9.18125,5.50625 9.06275,5.6247563 8.9025,5.764975 8.7375,5.8125 8.6520625,5.6875938 8.52875,5.6058563 8.425,5.5 8.57725,5.4321812 8.718,5.3687688 8.84375,5.2551875 9.038375,5.0793938 9.1156875,4.8739375 9.18775,4.63125 9.225,4.5058188 9.2614375,4.387525 9.2739375,4.25625 9.287,4.1188313 9.268,3.9771063 9.236,3.84375 9.2241875,3.794275 9.1755625,3.7184188 9.1820625,3.66875 9.1870625,3.6302313 9.246625,3.5748 9.275,3.55 M 2.84375,3.64375 2.8125,3.825 2.53125,3.63125 C 2.613319,3.582088 2.7572438,3.62591 2.84375,3.64375 M 3.325,3.8875 C 3.4058875,4.0327812 3.5463813,4.11645 3.64375,4.24375 3.5409063,4.28255 3.4421688,4.2640937 3.3375,4.25 3.318625,4.1526812 3.2758313,3.9799875 3.325,3.8875 m 1.06875,0.00625 c 0,0.028094 0.00698,0.07935 -0.012581,0.1024563 C 4.3579375,4.0236375 4.2591875,3.9855375 4.23125,3.975 4.2697687,3.9204813 4.3279437,3.8951188 4.39375,3.89375 M 4.45,3.90625 c 0.048913,0.023281 0.093012,0.050387 0.11875,0.1 L 4.43125,4.0125 4.45,3.90625 M 2.675,4.475 C 2.6082625,4.4507125 2.547825,4.4088937 2.48125,4.382525 2.3680063,4.3376625 2.2460875,4.3151 2.125,4.3068062 2.0265438,4.3000688 1.9340625,4.3321312 1.8375,4.3368437 1.6731125,4.3448687 1.5428562,4.3295687 1.39375,4.4216312 1.266125,4.500425 1.1668,4.6342875 1.1339063,4.78125 1.1198188,4.8442 1.1271062,4.9063875 1.1167125,4.96875 1.0983,5.0792375 1.0552562,5.1792812 1.0502437,5.29375 1.0445875,5.42295 1.083925,5.5389938 1.1125,5.6625 0.9082125,5.5654313 0.770175,5.3134 0.7275,5.1 0.7156375,5.0407063 0.6997375,4.9665125 0.70813125,4.90625 0.72655625,4.7739563 0.81765625,4.6334125 0.89074375,4.525 1.0485812,4.2908562 1.2818937,4.1047437 1.54375,4 1.6262812,3.9669875 1.722425,3.926875 1.8125,3.9250938 2.0012563,3.9213688 2.2042938,4.0174375 2.35625,4.1209 2.4830813,4.2072625 2.6093688,4.3345937 2.675,4.475 M 1.575,3.93125 V 3.9375 C 1.4092125,3.991538 1.2888938,4.1058375 1.1375,4.18125 1.1375187,4.153819 1.13391,4.114669 1.150081,4.090806 c 0.019956,-0.02945 0.074725,-0.051619 0.1061687,-0.0665 0.097456,-0.046125 0.2095,-0.0908 0.31875,-0.093056 m 7.13125,0.0875 C 8.68125,4.0723375 8.6255,4.1205562 8.58125,4.1589 8.49525,4.2334875 8.4040625,4.3138437 8.3,4.3625 8.330625,4.2888937 8.3561875,4.2250187 8.35625,4.14375 8.4791875,4.127181 8.593375,4.065744 8.70625,4.01875 M 5.5875,4.025 5.98125,4.25 5.78125,4.3269313 5.5625,4.44375 5.5875,4.175 V 4.025 M 8.75625,4.04375 C 8.7808125,4.147 8.7734375,4.2894125 8.73125,4.3875 H 8.725 L 8.6855625,4.24375 8.655125,4.1625 8.75625,4.04375 M 7.3625,4.10625 7.25625,4.09375 C 7.29075,4.052031 7.360125,4.033706 7.3625,4.10625 m -6.26875,0.025 c 0,0.027063 0.00571,0.0618 -0.00377,0.0875 C 1.0682688,4.277625 0.98561875,4.3333062 0.94456875,4.38125 0.863975,4.4753813 0.785375,4.5850375 0.7375,4.7 0.72390625,4.6552312 0.76084375,4.5853812 0.7775,4.54375 0.8346375,4.4009 0.94661875,4.196825 1.09375,4.13125 M 7.35,4.15625 C 7.34863,4.223469 7.333437,4.2883875 7.338063,4.35625 7.3540625,4.5900188 7.47175,4.8355 7.675,4.9625 7.563875,4.9962438 7.477625,4.7799437 7.422375,4.7125 7.3085625,4.5736188 7.1734375,4.48525 7.0315625,4.3806688 7.0043125,4.36055 6.9656875,4.2812937 6.9793125,4.2463625 6.99125,4.2158438 7.0723125,4.1974187 7.1,4.1821187 7.1284375,4.1663937 7.161375,4.14005 7.19375,4.134425 7.241,4.1262188 7.3018125,4.1524437 7.35,4.15625 M 8.6125,4.2 c 0.046812,0.080275 0.093062,0.20525 0.072563,0.3 -0.015625,0.072194 -0.079938,0.1451313 -0.12625,0.2 -0.162,0.191975 -0.4711875,0.3429938 -0.7275625,0.2926625 -0.164,-0.032194 -0.314375,-0.21585 -0.375,-0.3614125 0.094625,0 0.1875625,-0.00664 0.28125,-0.02045 0.055188,-0.00813 0.1126875,-0.02635 0.16875,-0.023025 0.036375,0.00216 0.066,0.026644 0.1,0.037913 0.059437,0.019694 0.1261875,0.013694 0.18125,-0.016425 C 8.2308125,4.5855625 8.268625,4.54855 8.2825625,4.5 8.289375,4.4763688 8.2804375,4.4430687 8.2975,4.4236813 8.32875,4.3881687 8.391625,4.3640437 8.43125,4.3374937 8.4939375,4.2955125 8.5475625,4.237525 8.6125,4.2 M 7.4,4.21875 c 0.042,0.1457062 0.1876875,0.3019125 0.3375,0.3375 V 4.5625 L 7.43125,4.58125 7.3875,4.31875 7.4,4.21875 M 3.35625,4.30625 C 3.4356,4.3125125 3.5077688,4.3246625 3.5875,4.309625 3.6316438,4.3013 3.6822875,4.2700875 3.7249688,4.2944375 3.8073437,4.3414312 3.7459,4.5379 3.7273313,4.6125 3.720625,4.6394688 3.71645,4.6877313 3.6911313,4.7042687 3.628325,4.7452875 3.5747625,4.6966812 3.537525,4.65 3.4618188,4.5550937 3.3746813,4.4293 3.35625,4.30625 m 3.2375,0.3875 C 6.4675625,4.6767625 6.3534375,4.6529875 6.225,4.671425 5.8261063,4.7287 5.4973,5.0474875 5.4693063,5.45625 5.4593625,5.6014562 5.511325,5.7209688 5.55,5.85625 5.3959125,5.8983938 5.2883375,5.952975 5.21875,6.1 5.18015,6.0538562 5.1580937,5.98715 5.1371875,5.93125 5.0759375,5.7675 5.0546563,5.5982 5.0622563,5.425 5.0654063,5.3530563 5.0654688,5.2605 5.097825,5.1943063 5.1173625,5.1543438 5.1688375,5.1247563 5.2,5.0937438 5.2669125,5.0271563 5.3300062,4.9548063 5.3809125,4.875 5.4255,4.8050938 5.4648625,4.7330687 5.4962313,4.65625 5.5236625,4.5890625 5.5321813,4.5274625 5.59375,4.4839 5.7173875,4.396431 5.9126438,4.2870875 6.06875,4.2829188 c 0.06355,-0.00169 0.1363438,0.031006 0.2,0.040381 0.043188,0.00636 0.087688,0.012044 0.13125,0.013956 0.018562,8.126e-4 0.048437,-0.00557 0.064188,0.00667 0.02225,0.017288 0.025312,0.073944 0.03375,0.099825 0.027563,0.084519 0.071438,0.165275 0.095813,0.25 M 3.81875,4.35 c 0.083681,0.060188 0.1340375,0.1459625 0.2375,0.18125 v 0.0125 c -0.09375,0.06715 -0.190525,0.114375 -0.3,0.15 l 0.042937,-0.2 L 3.81875,4.35 M 2.08125,4.43125 1.95,4.3625 c 0.075419,-5e-5 0.099244,-0.00812 0.13125,0.06875 m 0.0375,-0.075 0.06875,0.1375 H 2.18125 L 2.1,4.35625 H 2.11875 M 2.825,5.03125 C 2.5492813,4.902525 2.292475,4.6446687 2.175,4.3625 2.3190625,4.365475 2.4760063,4.42015 2.6,4.4911187 2.640775,4.5144562 2.6959938,4.5391125 2.7251938,4.5770312 2.80965,4.6867125 2.825,4.8982812 2.825,5.03125 M 2.2875,5.36875 C 2.2235187,5.2765813 2.08515,5.1417938 1.9774625,5.2693313 1.930725,5.3246812 1.9441437,5.414325 2.025,5.41875 l -0.00625,-0.05 H 2 c 5.5e-4,-0.1912125 0.2848938,-0.062256 0.2453625,0.075 -0.015975,0.055487 -0.078306,0.1173875 -0.1203687,0.1544625 -0.052913,0.046638 -0.1338188,0.1207438 -0.2062438,0.1317 -0.1732438,0.0262 -0.3298562,-0.1867 -0.35,-0.3361625 0.092056,0 0.1760688,-0.020075 0.25,-0.078238 C 1.9563437,5.207275 2.01355,4.992075 1.881,4.8563438 1.7994875,4.772875 1.5922625,4.7351687 1.5633312,4.89375 c -0.00598,0.032806 0.00165,0.068725 0.025506,0.092844 0.021875,0.022119 0.058094,0.029688 0.067413,-0.00534 0.069287,-8.187e-4 0.1178687,-0.1016625 0.181,-0.093612 0.032637,0.00416 0.052075,0.060769 0.06,0.087362 0.028206,0.094631 -0.00514,0.2046937 -0.072831,0.27475 C 1.656475,5.4235563 1.3580187,5.3432875 1.2380625,5.15625 1.11415,4.9630375 1.1619437,4.6796 1.3314937,4.527675 1.5784563,4.3063938 1.9730438,4.3435563 2.1926813,4.5875 2.312525,4.7206063 2.3625125,4.8864688 2.3625,5.0625 2.3624938,5.160194 2.343063,5.2860563 2.2875,5.36875 M 5.04375,4.40625 C 4.975075,4.7029313 4.6354625,4.9687188 4.33125,4.975 V 4.96875 C 4.4433437,4.8881687 4.5420187,4.7910063 4.625725,4.68125 4.6641187,4.6309063 4.6960188,4.5416688 4.7450812,4.5036813 4.7717125,4.4830562 4.81815,4.4820812 4.85,4.4731625 4.9161688,4.4546375 4.97885,4.4282063 5.04375,4.40625 M 3.975,4.425 4.3,4.5125 v 0.00625 c -0.1266375,0 -0.2239,-0.015137 -0.33125,-0.0875 L 3.975,4.425 M 7.05625,4.45 C 7.216375,4.5580312 7.4225,4.7119375 7.49375,4.9 7.3478125,4.8392313 7.2238125,4.7199125 7.1321875,4.59375 7.107625,4.559875 7.049125,4.4935 7.05625,4.45 m 1.1875,0 C 8.2369375,4.5332875 8.1696875,4.5865 8.0875,4.587475 8.0608125,4.5877938 8.0299375,4.5916437 8.0125,4.56875 8.1045,4.5551687 8.1628125,4.4855375 8.24375,4.45 M 4.68125,4.5125 C 4.606575,4.6528 4.4975062,4.778225 4.375,4.8786 4.334325,4.911925 4.2872687,4.9571312 4.2375,4.9759812 4.1936875,4.992575 4.1321437,4.9766313 4.0875,4.96925 3.9470188,4.946025 3.7445438,4.8821187 3.65625,4.7625 3.7690875,4.7532812 3.8841063,4.702925 3.98125,4.6473312 4.0236187,4.6230812 4.0665687,4.576975 4.1125,4.56215 4.16005,4.5468 4.2350437,4.5729312 4.2875,4.5676812 4.340375,4.5624 4.3862812,4.5359688 4.4375,4.5270562 4.5130625,4.5139 4.6043187,4.5131375 4.68125,4.5125 M 2.33125,4.69375 2.475,4.85 C 2.452137,4.85 2.417312,4.85649 2.396369,4.84623 2.3707,4.8336563 2.3309562,4.721325 2.33125,4.69375 M 7.15625,5.3 C 7.092,5.333863 7.0211875,5.355594 6.95625,5.389113 6.935937,5.399588 6.906063,5.425438 6.881812,5.419894 6.832625,5.4086562 6.7606875,5.28835 6.74375,5.24375 6.7165625,5.2595562 6.7046875,5.2697688 6.71875,5.3 6.6381875,5.2432688 6.5794375,5.1751875 6.48125,5.1450313 6.4108125,5.1233938 6.3285,5.1435437 6.2625,5.1187875 6.2005875,5.0955625 6.14295,5.0567 6.08125,5.0313188 5.9782313,4.9889375 5.8715562,4.9643 5.7625,4.94375 5.8929438,4.7623875 6.1814062,4.7121687 6.3875,4.7125 c 0.07,1.125e-4 0.1755625,0.00749 0.236875,0.044619 0.029,0.017588 0.046813,0.059081 0.065188,0.086631 0.038,0.056888 0.0795,0.1111563 0.12475,0.1625 C 6.916875,5.1228125 7.0414375,5.1998875 7.15625,5.3 M 1.7875,4.84375 1.65,4.96875 1.625,4.9625 C 1.565475,4.8432437 1.706225,4.8269812 1.7875,4.84375 m 7.275,0.0375 C 8.97075,5.1016937 8.7809375,5.2844375 8.56875,5.389025 8.5034375,5.421225 8.4011875,5.4828625 8.33125,5.44375 l 0.175,-0.077 0.25,-0.1598 L 8.9670625,5 9.0625,4.88125 M 2.75,5.04375 V 5.05 L 2.6502438,5.0694188 2.5926625,5.0125 2.475,4.89375 c 0.1014563,8.13e-5 0.1846938,0.1077875 0.275,0.15 M 6.2,5.1375 V 5.14375 C 6.0707375,5.2126625 5.9443688,5.3018875 5.93125,5.4625 5.79505,5.425325 5.6746,5.3875 5.53125,5.3875 5.5334563,5.2806375 5.5857687,5.1694187 5.6429062,5.08125 5.6607438,5.0537188 5.6877875,5.0036125 5.7198188,4.9913625 5.7537313,4.9783938 5.8157313,5.000725 5.85,5.0084313 5.9701313,5.0354687 6.0931562,5.0751375 6.2,5.1375 M 1.14375,5.0625 C 1.189875,5.1988313 1.2899563,5.3100313 1.425,5.3625 1.3639187,5.4851438 1.2579187,5.5827938 1.21875,5.71875 1.16345,5.7069812 1.147525,5.616425 1.1339188,5.56875 1.098725,5.4454125 1.09,5.314125 1.1099375,5.1875 c 0.00632,-0.040169 0.00984,-0.091362 0.033813,-0.125 m 4.375,0.375 c 0.1225875,0 0.2855625,0.00166 0.392825,0.071356 0.037244,0.0242 0.046319,0.1363312 0.0726,0.1786437 0.0825,0.13285 0.3496375,0.1839937 0.4046375,-0.00625 C 6.4120625,5.600825 6.3184375,5.476875 6.25,5.56875 6.2801875,5.5804187 6.31975,5.580875 6.336375,5.6126187 6.3531875,5.6447313 6.337,5.7316 6.28775,5.7254937 6.2156937,5.7165562 6.21685,5.6105812 6.125,5.63125 l 0.1125,0.125 C 6.0835688,5.7848312 5.9754813,5.6440937 5.9754937,5.5 5.9755,5.4054562 6.0267438,5.3108875 6.1,5.2532375 6.2776875,5.1134063 6.5479375,5.1653812 6.6833125,5.3375 6.78575,5.4676875 6.8159375,5.6549625 6.7665625,5.8125 6.6436875,6.2046687 6.1394562,6.3234375 5.81875,6.0972563 5.596625,5.9406188 5.51875,5.6973 5.51875,5.4375 m -0.4875,-0.2 C 5.02953,5.3207 5.008362,5.4037375 5.006344,5.4875 5.005475,5.523525 5.0226563,5.5730563 5.006075,5.60625 4.98015,5.6581375 4.9212313,5.7008812 4.8876812,5.75 4.8080188,5.8666188 4.7529375,6.0139313 4.75,6.15625 L 4.8,6.14375 C 4.80503,6.080025 4.818306,6.0171188 4.837681,5.95625 4.843411,5.938237 4.850237,5.905338 4.870469,5.898106 4.920625,5.880175 5.0447,5.957575 5.0871563,5.9827375 5.1247375,6.005 5.1386313,6.0564875 5.1578625,6.09375 5.1896563,6.1553312 5.2288437,6.2141562 5.2714,6.26875 5.4059,6.4413125 5.58355,6.5724375 5.7875,6.6511875 6.3465625,6.8670625 7.02825,6.582125 7.2371875,6.0125 7.3183125,5.79125 7.3028125,5.5817813 7.25625,5.35625 7.4055,5.3992375 7.5393125,5.4868313 7.7,5.49375 c 0.026937,0.1452125 0.012562,0.306 -0.01625,0.45 -0.172,0.8599375 -1.086375,1.363375 -1.915,1.1365625 C 5.6684875,7.052875 5.6278,6.9903125 5.55625,6.91875 5.4848375,6.8473125 5.4091437,6.7833125 5.325,6.7271875 5.2524625,6.678875 5.1738188,6.6394375 5.09375,6.6053125 5.05605,6.58925 5.0089437,6.58125 4.9750937,6.558125 4.9359938,6.531375 4.9072063,6.4825 4.8812562,6.44375 4.825475,6.3605 4.75925,6.2659375 4.73125,6.16875 4.6686,6.1875938 4.7071437,6.2321125 4.725,6.275 L 4.3375,6.24375 c 0,-0.222225 0.0421,-0.4425438 0.1536187,-0.6375 0.029325,-0.051275 0.059113,-0.1146312 0.1037188,-0.1545125 0.042481,-0.037981 0.1216813,-0.0481 0.1739125,-0.070494 0.093131,-0.039931 0.1745875,-0.0948 0.2625,-0.1437438 M 6.725,5.30625 6.73125,5.31875 6.725,5.30625 M 6.74375,5.33125 6.75,5.34375 6.74375,5.33125 M 7.2,5.34375 C 7.228437,5.4438875 7.25,5.545475 7.25,5.65 7.25,5.681537 7.25656,5.725087 7.24056,5.7538125 7.22281,5.7856315 7.161435,5.8007185 7.1312475,5.8191375 7.0511875,5.8679687 6.9881875,5.9341938 6.9125,5.9875 L 6.83475,5.75 6.825,5.525 C 6.9303125,5.4495688 7.0695,5.363025 7.2,5.34375 M 6.75625,5.35 6.8375,5.4625 6.80625,5.475 6.75625,5.35 M 1.65,5.65625 V 5.6625 C 1.608625,5.7006125 1.5529063,5.777925 1.5,5.7961375 1.43575,5.81825 1.3233938,5.7635625 1.2625,5.74375 1.27985,5.6429875 1.35665,5.5367625 1.4164375,5.45625 c 0.018206,-0.024519 0.048969,-0.085275 0.087919,-0.065419 0.025225,0.012862 0.027062,0.066175 0.035869,0.090419 0.024425,0.067231 0.063056,0.1214813 0.109775,0.175 M 3.725,5.39375 C 3.8817438,5.4635562 4.0784875,5.5010062 4.25,5.4935062 4.3422688,5.4894688 4.4332063,5.4664375 4.525,5.4625 L 4.4048812,5.675 4.3581313,5.7749188 4.2375,5.7964687 3.975,5.8625 C 3.9487625,5.751775 3.8845938,5.6383375 3.82285,5.54375 3.7956938,5.50215 3.731275,5.4422437 3.725,5.39375 M 3.16875,5.425 c 0,0.1293937 -0.014594,0.2502313 -0.05,0.375 L 2.7125,5.73125 C 2.71584,5.693056 2.730513,5.60535 2.759438,5.5786813 2.7903188,5.5502063 2.87195,5.5439312 2.9125,5.532125 3.0019313,5.5060875 3.0805812,5.4508875 3.16875,5.425 M 3.6875,5.43125 c 0.074906,0.1011438 0.1645938,0.2145938 0.2,0.3375 C 3.7817313,5.694244 3.625575,5.578825 3.6875,5.43125 M 6.75,8.075 6.875,7.675 C 7.151875,7.79025 7.40475,7.8626875 7.70625,7.79225 8.3396875,7.644375 8.7558125,6.955 8.51125,6.3375 8.4350625,6.1452812 8.300375,5.97895 8.13125,5.8607563 8.0595625,5.810675 7.9768125,5.769075 7.89375,5.7416938 7.8636875,5.7317875 7.788625,5.7264375 7.7689375,5.7016375 7.7425625,5.6684188 7.75625,5.5490125 7.75625,5.50625 c 0.1184375,0 0.2319375,0.00738 0.35,-0.012 C 8.157,5.4859312 8.2390625,5.450425 8.2875,5.4713563 8.42075,5.5289125 8.5454375,5.6545875 8.6383125,5.7625 9.008,6.192 9.1043125,6.8076875 8.8668125,7.325 8.57925,7.951375 7.8960625,8.31375 7.21875,8.2195625 7.0615,8.1976875 6.888125,8.155625 6.75,8.075 M 3.68125,5.65 C 3.747819,5.707975 3.8494063,5.7683125 3.8875,5.85 L 3.85625,5.84375 C 3.8438125,6.0000375 3.806825,6.1539625 3.82765,6.3125 3.835175,6.36975 3.8642813,6.4605625 3.8125,6.5 L 3.6767438,6.25 3.5681313,6.10625 l 0.0277,-0.1125 0.058856,-0.225 L 3.68125,5.65 M 5.025,5.66875 5.08125,5.925 4.8875,5.84375 C 4.913138,5.782488 4.96325,5.6975687 5.025,5.66875 M 1.825,5.7625 V 5.76875 C 1.745219,5.794263 1.6587125,5.806194 1.575,5.80625 1.589387,5.775419 1.656019,5.6964312 1.69375,5.7002812 c 0.04205,0.00428 0.087675,0.0503 0.13125,0.062219 M 7.9,5.79375 V 5.8 L 7.75625,5.79375 V 5.75625 L 7.9,5.79375 M 0.93125,6.15 C 1.1818562,6.2543125 1.422425,6.337875 1.7,6.3114375 1.8145688,6.3005 1.9196125,6.2646875 2.03125,6.2416625 2.3093313,6.1843 2.57595,6.0518437 2.6875,5.76875 2.7931563,5.7821 2.8963563,5.78975 3,5.8164375 c 0.022813,0.00587 0.087462,0.015069 0.094919,0.04155 0.011894,0.042269 -0.049538,0.125 -0.068544,0.1607625 C 2.9348625,6.1909188 2.79945,6.33975 2.6375,6.4479375 2.2286625,6.721 1.715175,6.715 1.29375,6.4740625 1.1937687,6.416875 1.106175,6.3436875 1.025,6.2625 0.990825,6.228325 0.95120625,6.1947812 0.93125,6.15 M 7.2375,5.81875 C 7.2316875,5.891575 7.2013125,5.9750062 7.1125,5.9764438 7.0851875,5.9768813 7.0571875,5.9574125 7.03125,5.95 7.0771875,5.8935813 7.167625,5.838875 7.2375,5.81875 M 4.34375,5.83125 C 4.2769375,6.0667 4.2822313,6.281125 4.33125,6.51875 L 4.11875,6.577125 3.9375,6.65 C 3.8833937,6.387875 3.8407938,6.1219312 3.90625,5.85625 L 4.05,5.8861688 4.34375,5.83125 m -1.75,0.0125 C 2.5289375,5.9600438 2.4099,6.0660063 2.2875,6.11875 V 6.1125 L 2.59375,5.84375 m 4.225,0 C 6.86425,5.9836188 6.9,6.1270625 6.9,6.275 c 0,0.039438 0.011312,0.099625 -0.00375,0.1364375 -0.014875,0.036188 -0.071063,0.064 -0.1025,0.08425 C 6.688625,6.563375 6.5629375,6.626875 6.4375,6.64375 6.4828125,6.5044375 6.50825,6.3455 6.48125,6.2 6.62625,6.115275 6.7504375,6.0077188 6.80625,5.84375 h 0.0125 M 8.525,6.5875 H 8.51875 C 8.4104375,6.445375 8.2301875,6.34825 8.0625,6.2959375 8.0138125,6.28075 7.9603125,6.2795625 7.9125,6.2634375 7.830375,6.2356563 7.772,6.1747313 7.68125,6.1625 L 7.75,5.84375 c 0.096687,0 0.2218125,-0.00736 0.3125,0.030969 0.056313,0.023788 0.1044375,0.070762 0.15,0.1101312 C 8.3751875,6.1253938 8.5155625,6.3683125 8.525,6.5875 M 5.88125,6.63125 C 5.7847625,6.603875 5.6914812,6.562875 5.60625,6.5098125 5.5725563,6.488875 5.5308812,6.4674375 5.5125,6.43125 5.5922375,6.385125 5.6291,6.2056625 5.49375,6.2375 5.5136313,6.264 5.5375937,6.2895 5.5357813,6.325 5.5338,6.3636875 5.4913125,6.4105 5.45,6.388875 5.3916813,6.3584375 5.2708937,6.2300625 5.26,6.1625 5.2390312,6.0324125 5.409675,5.9159687 5.51875,5.9018062 c 0.085525,-0.0111 0.1540125,0.1309313 0.2125,0.1851313 0.042112,0.039019 0.092713,0.072775 0.14375,0.098944 0.026225,0.013444 0.068956,0.021669 0.089112,0.043487 C 5.9855,6.2525 5.9812875,6.302125 5.98125,6.33125 c -1.313e-4,0.10875 -0.039894,0.2108125 -0.1,0.3 M 7.1625,6.05625 C 7.1439375,6.1604562 7.0345625,6.3029375 6.95,6.3625 6.95,6.267875 6.92025,6.1539875 6.93225,6.0625 6.9360625,6.0334625 6.9696875,5.994025 7,5.9908 7.048625,5.9856125 7.1184375,6.0379125 7.1625,6.05625 M 7.1875,6 V 6.0125 H 7.175 V 6 h 0.0125 m -4.15625,0.1125 0.05,0.14375 C 3.027575,6.256375 2.992738,6.25738 2.94375,6.23125 L 3.03125,6.1125 M 3.5625,6.175 C 3.650181,6.30325 3.7337125,6.42 3.78535,6.56875 3.797506,6.60375 3.833006,6.674625 3.820662,6.711375 3.8069875,6.7520625 3.714725,6.796625 3.68125,6.82375 3.5904313,6.8975 3.5118187,6.9865 3.44375,7.08125 H 3.4375 C 3.4377,7.008938 3.44498,6.941375 3.43571,6.86875 3.4065938,6.6405625 3.2768938,6.4350625 3.0875,6.30625 V 6.3 L 3.3625,6.3125 3.325,6.3875 C 3.3728063,6.394875 3.3885625,6.359125 3.41515,6.325 3.4570375,6.27125 3.5066375,6.21435 3.5625,6.175 m 3.93125,0.4625 c 0.032,0.00731 0.063937,-0.012688 0.0935,0.00287 0.057125,0.030068 0.03925,0.10513 0.00781,0.14688 C 7.5395,6.861125 7.435625,6.86975 7.35625,6.83475 7.3335,6.8246875 7.28575,6.802125 7.281625,6.7739375 7.275625,6.7326875 7.3820625,6.65575 7.4078125,6.625 7.5104375,6.50225 7.6046875,6.3586875 7.65625,6.20625 7.9936875,6.27175 8.163875,6.64275 8.0230625,6.95 7.9246875,7.1646875 7.6973125,7.3066875 7.4625,7.3124375 7.309875,7.316125 7.1605625,7.263625 7.0375,7.175 7.0004375,7.1483125 6.9335625,7.0503125 6.9546875,7.0013125 6.9648125,6.97775 6.998125,6.9649375 7.01875,6.9525 7.070625,6.921188 7.1205625,6.887438 7.16875,6.85075 7.186125,6.8375 7.211687,6.808687 7.235687,6.811188 7.266124,6.814438 7.298187,6.857938 7.325,6.872813 7.411125,6.92075 7.5161875,6.9143125 7.59375,6.853 7.6504375,6.8081875 7.6970625,6.7281875 7.663,6.65625 7.6288125,6.5840625 7.52875,6.5485 7.49375,6.6375 M 6.4375,6.21875 V 6.3625 L 6.3125,6.25 6.4375,6.21875 M 5.96875,6.58125 C 6.0167313,6.4643125 6.030375,6.3689375 6.025,6.24375 6.0923438,6.2564375 6.1659875,6.2496563 6.23125,6.264375 6.287625,6.277125 6.3993125,6.374 6.4248125,6.425 6.441125,6.4575 6.4245625,6.50425 6.4174375,6.5375 6.41075,6.5688125 6.40375,6.629375 6.3780625,6.650875 6.352375,6.672375 6.300125,6.667125 6.26875,6.6693125 6.2115,6.6733125 6.1431312,6.6863125 6.0875,6.665125 6.0453125,6.649 6.0062937,6.6068125 5.96875,6.58125 M 3.15625,6.7125 C 3.1039063,6.712625 3.05095,6.7208125 3,6.73275 2.9760313,6.7383125 2.9434938,6.7555 2.91875,6.7504375 2.8773375,6.7419375 2.8404813,6.68675 2.8,6.668125 2.6886375,6.617 2.51345,6.6634375 2.4895563,6.8 2.4728438,6.8955 2.5785,6.99275 2.65,6.9 2.6186875,6.8903125 2.5769563,6.898875 2.5535813,6.872875 2.478175,6.7889375 2.6166563,6.701125 2.6875,6.6948125 2.9496938,6.671625 2.9790875,7.0296875 2.8533438,7.18125 2.6806875,7.389375 2.351875,7.3331875 2.1979313,7.1375 2.0964813,7.0085625 2.0801875,6.85675 2.1,6.7 2.29795,6.6626875 2.480275,6.61 2.65,6.49675 2.7119375,6.4555 2.7720188,6.4085625 2.825,6.35625 2.848262,6.33325 2.879156,6.287562 2.9125,6.280062 2.936306,6.274752 2.967031,6.294687 2.9875,6.30475 3.057625,6.339188 3.1196313,6.382125 3.1749938,6.4375 c 0.019319,0.019312 0.053362,0.04575 0.056544,0.075 0.00601,0.055312 -0.061781,0.143 -0.075287,0.2 M 4.56875,6.29375 V 6.3 l -0.1875,0.19375 c -0.034925,-0.049 -0.037462,-0.1413125 -0.0375,-0.2 h 0.225 M 4.825,6.525 C 4.6911437,6.49975 4.5657812,6.5061875 4.43125,6.50625 4.4876562,6.421 4.6462562,6.2268813 4.7581062,6.3469375 4.7903812,6.3815625 4.8118062,6.4788125 4.825,6.525 M 8.33125,7.33125 H 8.325 C 8.34175,7.1986875 8.299,7.05875 8.22225,6.95 8.19325,6.908875 8.140375,6.87625 8.119,6.83125 8.1086875,6.8094375 8.1180625,6.7795625 8.1188125,6.75625 8.1205,6.7035625 8.120125,6.6519375 8.1096875,6.6 8.0879375,6.4918125 8.02325,6.4195625 7.975,6.325 8.138125,6.3460625 8.2900625,6.4375625 8.4125,6.5429375 8.453125,6.577875 8.516875,6.6285625 8.534,6.68125 c 0.016375,0.050562 0,0.123625 -0.00731,0.175 C 8.50194,7.03 8.43319,7.1889375 8.3312525,7.33125 M 3.2375,7.50625 H 3.24375 C 3.2329875,7.638 3.2109375,7.7604375 3.212525,7.89375 3.2129563,7.9303125 3.244025,8.0154375 3.2245813,8.046 3.208675,8.0710625 3.1573125,8.089 3.13125,8.101375 3.0419188,8.1436875 2.9467563,8.17925 2.85,8.2 2.4375188,8.2885 2.0076688,8.1971875 1.68125,7.92225 1.3874875,7.674875 1.1956375,7.3031875 1.1693125,6.91875 1.1590312,6.7686875 1.1882437,6.6289375 1.2,6.48125 c 0.093081,0.021875 0.184175,0.098625 0.275,0.1346875 0.027406,0.010875 0.088762,0.018562 0.10605,0.0435 0.012075,0.017437 0.00129,0.046125 4.437e-4,0.065562 -0.00256,0.058375 -0.00368,0.1166875 3.188e-4,0.175 0.00943,0.137625 0.054737,0.279125 0.1201188,0.4 C 1.9522063,7.7626875 2.5322313,7.970375 3,7.702625 3.0860813,7.653375 3.1797813,7.5881875 3.2375,7.50625 m 0.625,-0.975 C 3.8659813,6.5738125 3.913675,6.6625 3.86875,6.6875 3.8627188,6.64275 3.8119,6.557375 3.8625,6.53125 m -0.76875,2.2375 c -0.052294,0.030937 -0.020769,0.061937 0.0089,0.1 C 3.149981,8.9295 3.2187625,8.983375 3.25625,9.05 3.130775,9.05987 3.0070438,9.069562 2.88125,9.05444 2.4180063,8.998875 1.9880563,8.7279375 1.7411,8.33125 1.6587125,8.1989375 1.5629562,8.027375 1.55,7.86875 1.6761063,7.9575625 1.7807437,8.061 1.91875,8.1355625 c 0.080638,0.043625 0.1941313,0.056 0.2669688,0.1071875 0.066806,0.047 0.1174124,0.1199375 0.1830312,0.1704375 0.175825,0.135375 0.3904438,0.2210625 0.6125,0.23625 0.1097625,0.0075 0.23255,-8.125e-4 0.3375,-0.035375 C 3.3656125,8.598625 3.4020063,8.561 3.45,8.55 3.514125,8.653 3.609775,8.7439375 3.70625,8.816375 3.9127188,8.9715 4.1770437,9.0674375 4.4375,9.056 4.9838375,9.0320625 5.4921188,8.6133125 5.5306937,8.05 5.5403,7.9096875 5.51935,7.7704375 5.475,7.6375 5.4284438,7.4979375 5.3496188,7.3700625 5.2494437,7.2625 5.1248187,7.1286875 4.9587625,7.031625 4.78125,6.9883125 4.623625,6.9498125 4.4619,6.95625 4.30625,7.000875 3.8214313,7.139875 3.535825,7.6754375 3.7428875,8.14375 3.9259625,8.5578125 4.4718625,8.7459375 4.8375,8.4419375 4.9201437,8.37325 4.9884313,8.288 5.0284375,8.1875 5.0455625,8.1445 5.0487875,8.09025 5.0698438,8.0500625 5.0987312,7.995 5.1648187,7.94975 5.2036,7.9 5.222313,7.876 5.242319,7.8335 5.2699,7.819187 c 0.029456,-0.015313 0.097556,1.875e-4 0.1301,0.004 0.018981,0.00225 0.055162,-0.00494 0.068581,0.011812 0.032469,0.040625 0.016306,0.171875 0.011606,0.22125 -0.00597,0.062687 -0.0109,0.14375 -0.041219,0.2 C 5.4034062,8.32225 5.3214312,8.3781875 5.2625,8.4226875 5.0969687,8.5475625 4.9083625,8.6484375 4.70625,8.6991875 4.3933687,8.7778125 4.0742375,8.7723125 3.76875,8.6628125 3.681225,8.6314375 3.5624563,8.595875 3.4944,8.5300625 3.4478438,8.485125 3.41435,8.4138125 3.385975,8.35625 3.3023812,8.186625 3.2547688,7.989375 3.2590938,7.8 3.2625687,7.64775 3.2898375,7.4980625 3.3465563,7.35625 3.5998188,6.723125 4.3432187,6.41 4.98125,6.614625 5.4753375,6.773125 5.82785,7.2155625 5.922125,7.71875 5.9501375,7.86825 5.9519063,8.024625 5.93125,8.175 5.794725,9.1690625 4.6658062,9.7375625 3.76875,9.3331875 3.5751563,9.245875 3.405975,9.1254375 3.2562562,8.975 3.1983875,8.916875 3.1259313,8.84525 3.09375,8.76875 M 3.275,6.5625 C 3.4554813,6.857375 3.4134125,7.1975 3.2125,7.46875 H 3.20625 C 3.1162688,7.2596875 3.1277375,6.9833125 3.1893188,6.76875 3.207925,6.7039375 3.225925,6.6110625 3.275,6.5625 M 5.9875,6.65625 5.93125,6.64375 5.9375,6.625 5.9875,6.65625 M 9.05,6.63125 C 9.176,6.9339375 9.244,7.23475 9.1784375,7.5625 8.9904375,8.5026875 7.956,9.033625 7.075,8.69375 V 8.6875 C 7.182375,8.64125 7.2840625,8.57025 7.375,8.4975 7.415813,8.464813 7.463625,8.402812 7.5125,8.385 7.565437,8.36575 7.66075,8.38881 7.71875,8.38744 7.8213125,8.384875 7.928375,8.357875 8.025,8.325 8.2558125,8.246375 8.4615625,8.0878125 8.5998125,7.8875 8.65325,7.810125 8.683125,7.723375 8.7308125,7.64375 8.7924375,7.540875 8.8640625,7.448125 8.913375,7.3375 8.9818125,7.183875 9.02225,7.0229375 9.0419375,6.85625 9.0498125,6.789875 9.0285,6.691125 9.05,6.63125 M 1.675,6.675 1.63125,6.71875 1.6375,6.66875 1.675,6.675 M 1.75,6.6875 C 1.845625,6.7105 1.9528562,6.71225 2.05,6.7 L 2.0501875,6.94375 1.9464062,7.23125 1.9125,7.5 C 1.7404062,7.3786875 1.6608438,7.116625 1.6339063,6.91875 1.6277438,6.8735 1.662825,6.8188125 1.65,6.78125 V 6.775 L 1.70625,6.725 C 1.739188,6.773813 1.772812,6.8286875 1.8188437,6.866375 1.8269125,6.873 1.88515,6.9114375 1.87755,6.87425 1.8642437,6.8090625 1.7389875,6.763375 1.75,6.6875 M 1.11875,6.725 c 0,0.1774375 0.00974,0.3478125 0.062656,0.51875 0.032262,0.1041875 0.092606,0.1978125 0.1257813,0.3 0.013531,0.041688 0.00776,0.09375 0.014231,0.1375 0.01505,0.101625 0.042369,0.1996875 0.083969,0.29375 C 1.477575,8.13825 1.5958562,8.23875 1.70775,8.3705625 1.7804875,8.4561875 1.8417,8.548875 1.9193125,8.63125 2.062075,8.7826875 2.2642188,8.92625 2.4625,8.99375 V 9 C 2.2970063,9.03075 2.0963,8.99275 1.9375,8.943875 1.24035,8.7295625 0.82588125,8.047 0.91153125,7.33125 0.934675,7.1378125 0.991325,6.878625 1.11875,6.725 M 3.1375,6.7625 3.09375,7.0875 2.9879875,6.9864375 2.9783438,6.90625 2.94375,6.8 3.1375,6.7625 m 4.96875,0.125 C 8.2265625,7.007875 8.3335,7.2178125 8.2685625,7.39375 8.25575,7.4284375 8.21975,7.456125 8.19375,7.481 8.1173125,7.5540625 8.009375,7.6390625 7.90625,7.66875 7.9365,7.5610625 7.95,7.442875 7.95,7.33125 7.95,7.2786875 7.9288125,7.2065625 7.9431875,7.15625 7.9539375,7.1188125 7.998875,7.0826875 8.0208125,7.05 8.053875,7.0006875 8.068125,6.9306875 8.10625,6.8875 M 5.4625,7.775 C 5.35415,7.775 5.2439062,7.7636875 5.1375,7.7425 5.1001688,7.7350625 5.0448563,7.7314375 5.0138312,7.7079375 4.9830312,7.684625 4.9646188,7.636375 4.9399,7.60625 4.8912625,7.5469375 4.8269937,7.4956875 4.75625,7.4651875 4.7073312,7.4440625 4.6536938,7.4264375 4.6,7.4250625 4.5607375,7.424125 4.5058188,7.43725 4.46875,7.427 4.4368688,7.41825 4.4052188,7.3830625 4.38125,7.3614375 4.31195,7.298875 4.193025,7.199625 4.16875,7.10625 4.2719875,7.0633125 4.3697875,7.0306875 4.48125,7.017 4.5195375,7.01225 4.5753875,7.002625 4.6125,7.01625 4.652206,7.030875 4.686413,7.075937 4.71875,7.102375 4.780006,7.152562 4.8481875,7.196937 4.91875,7.23275 4.988912,7.268437 5.0618812,7.297062 5.1375,7.31875 5.175038,7.3295 5.229919,7.331 5.2619375,7.353688 5.2948125,7.376938 5.3180065,7.4225 5.3386815,7.4562505 5.3986,7.5540625 5.43935,7.662875 5.4625,7.775 M 2.075,7.01875 C 2.1413188,7.13525 2.2083063,7.2629375 2.34375,7.3125 2.3156,7.3590625 2.2659625,7.384 2.2429938,7.4375 2.188225,7.565 2.2606688,7.705875 2.40625,7.6875 L 2.425,7.7625 C 2.3045938,7.76 2.175625,7.7010625 2.075,7.6386875 2.0436813,7.61925 1.994025,7.593375 1.975175,7.5606875 1.9564812,7.52825 1.968725,7.4733125 1.96875,7.4375 1.9688437,7.3154375 1.994875,7.1158125 2.075,7.01875 M 4.9125,7.175 C 4.8417125,7.1376875 4.7554187,7.08925 4.70625,7.025 4.8123187,7.03344 4.90295,7.058062 4.9125,7.175 M 2.98125,7.04375 3.1,7.18125 c -0.1527812,0.058562 -0.3000562,0.194125 -0.2582562,0.375 0.0129,0.055813 0.054113,0.088312 0.077006,0.1375 -0.101275,0.03425 -0.1933,0.063688 -0.3,0.07675 C 2.5852558,7.77463 2.5278688,7.786125 2.4961873,7.77125 2.4668063,7.757375 2.4564813,7.6971875 2.4493438,7.66875 2.423275,7.5649375 2.4180313,7.454375 2.44375,7.35 2.6020063,7.3909375 2.7862,7.3336875 2.8908438,7.20625 2.9319125,7.15625 2.9444063,7.093 2.98125,7.04375 M 6.84375,7.05 6.98125,7.1875 C 6.968875,7.248125 6.9799375,7.3070625 6.9739375,7.36875 6.9654375,7.4565625 6.93325,7.5378125 6.8875,7.6125 H 6.88125 L 6.8795,7.2625 6.84375,7.05 m -0.05,0.01875 C 6.8215,7.274625 6.857375,7.46575 6.82225,7.675 6.726875,8.243875 6.269,8.7621875 5.69375,8.88125 5.7490313,8.764875 5.8320438,8.664875 5.8821187,8.54375 5.9088437,8.4790625 5.9184625,8.36925 5.9608625,8.3156875 6.0000625,8.26625 6.0670562,8.2324375 6.1122563,8.18725 6.2168,8.0826875 6.300625,7.956125 6.355,7.81875 6.3834375,7.7468125 6.4060625,7.6705 6.4169375,7.59375 6.4225625,7.5541875 6.4154375,7.4983125 6.43325,7.4625625 6.4481875,7.432625 6.4829375,7.4109375 6.50625,7.3875 6.5489375,7.3445 6.58975,7.2976875 6.627125,7.25 6.67625,7.1873125 6.71275,7.0909375 6.79375,7.06875 M 4.95625,7.1 C 5.026844,7.14125 5.048431,7.148 5.03125,7.23125 4.9755688,7.2151875 4.934525,7.160625 4.95625,7.1 M 6.6625,7.1125 C 6.63775,7.1768125 6.5808125,7.2363125 6.5356875,7.2875 6.420875,7.4179375 6.2805625,7.5298125 6.125,7.6078125 6.0738875,7.6334375 6.01965,7.6664375 5.9625,7.675 L 5.83125,7.2875 C 5.895288,7.257188 5.9699125,7.200375 6.0375,7.183875 c 0.05625,-0.01375 0.117775,0.007 0.175,0.00306 C 6.3650625,7.1765 6.515875,7.159375 6.6625,7.1125 M 5.8,7.24375 5.73125,7.125 C 5.758519,7.12725 5.806194,7.13094 5.827569,7.149625 5.8658,7.183 5.83995,7.2340625 5.8,7.24375 M 4.125,7.1375 4.325,7.375 C 4.2393,7.3749375 4.166075,7.341375 4.1171813,7.26875 4.08565,7.2219375 4.0535063,7.1588125 4.125,7.1375 M 5.90625,7.15625 5.95625,7.175 5.9125,7.19375 5.90625,7.15625 M 5.09375,7.1875 5.2,7.28125 C 5.1442187,7.2766875 5.0551187,7.2601875 5.09375,7.1875 M 4.03125,7.2 C 4.064175,7.2966875 4.1361875,7.385625 4.2375,7.4140625 4.2932188,7.42975 4.36805,7.4018125 4.40625,7.45 4.262925,7.5179375 4.1326625,7.635375 4.13125,7.80625 4.0247812,7.7841875 3.9227813,7.7229375 3.84375,7.6494375 3.819125,7.6265625 3.7805563,7.59675 3.7722313,7.5625 3.7653938,7.534375 3.787,7.499625 3.7986312,7.475 3.8345188,7.3990625 3.8867,7.311625 3.95625,7.2625 L 4.0125,7.4375 C 4.1092,7.370625 3.9413688,7.2436875 4.03125,7.2 m 3.8625,0 C 7.89475,7.3209375 7.89981,7.4356875 7.879688,7.55625 7.873128,7.595688 7.871558,7.652 7.849125,7.686125 7.82925,7.716313 7.770313,7.725125 7.7375,7.733563 7.63625,7.759626 7.4905625,7.799188 7.3875,7.768751 l 0.083687,-0.275 0.0225,-0.126625 L 7.6375,7.333 7.89375,7.2 M 7.025,7.21875 c 0.072375,0.0615 0.1703125,0.1016875 0.2625,0.1223125 0.033813,0.00762 0.1145,0.00138 0.14,0.021625 0.02025,0.016063 0.00475,0.0715 0.00194,0.093562 -0.01,0.078688 -0.034125,0.15775 -0.0635,0.23125 C 7.35713,7.7095615 7.34719,7.7499365 7.32369,7.7605615 7.2683125,7.7855 7.1974375,7.7040625 7.1643125,7.671375 7.1104375,7.618375 7.0240625,7.528875 7.0139375,7.45 7.0089375,7.411375 7.0245,7.3701875 7.025,7.33125 c 3.75e-4,-0.034438 -0.012875,-0.081 0,-0.1125 M 3.1,7.23125 C 3.120262,7.297937 3.125237,7.369875 3.144631,7.4375 3.151191,7.460375 3.170337,7.494438 3.161262,7.518187 3.148162,7.5525 3.096868,7.581375 3.06875,7.602312 3.044119,7.620625 2.996019,7.666875 2.9625063,7.654312 2.914875,7.636375 2.8931688,7.5700625 2.8866875,7.525 2.8666625,7.3856875 2.9746188,7.272125 3.1,7.23125 M 2.3875,7.35625 2.375,7.525 C 2.350938,7.525 2.304894,7.53362 2.285044,7.51762 2.2695438,7.505125 2.2792313,7.47775 2.2846812,7.4625 2.3021063,7.4136875 2.3392188,7.3745625 2.3875,7.35625 m 1.675,0.48125 0.06875,0.01875 c 0.019138,0.098625 0.0632,0.1870625 0.15,0.243125 C 4.3875812,8.167938 4.5548812,8.140875 4.6113188,8.01875 4.656325,7.9213125 4.538,7.7715 4.4625,7.8875 L 4.48125,7.89375 C 4.460725,7.9399375 4.4580625,8.0515 4.4155625,8.0810625 4.34915,8.12725 4.2418187,8.0095625 4.2157187,7.9625 4.147575,7.8395625 4.181125,7.6770625 4.2813438,7.5818125 4.4716937,7.4009375 4.7763688,7.4604375 4.9240063,7.6625 5.0285875,7.805625 5.0499375,8.0048125 4.9846875,8.16875 4.8479375,8.5123125 4.4227,8.6308125 4.10625,8.47025 4.0302625,8.4316875 3.9116813,8.3573125 3.8776438,8.275 3.8616188,8.23625 3.9180625,8.1806875 3.9371,8.15 3.994175,8.0580625 4.0479,7.9458125 4.0625,7.8375 M 6.375,7.50625 C 6.374625,7.6378125 6.3226875,7.753375 6.28125,7.875 6.1980437,7.86425 6.1165563,7.8361875 6.04375,7.7945625 6.0138312,7.7774375 5.9808437,7.761125 5.975,7.725 6.1239438,7.68425 6.2462875,7.5856875 6.375,7.50625 M 6.99375,7.51875 7.1625,7.7375 6.925,7.64375 6.99375,7.51875 m -4.6,0.11875 C 2.3400188,7.653375 2.2889438,7.6263125 2.28125,7.56875 2.3475813,7.574 2.3805875,7.566875 2.39375,7.6375 M 3.75,7.61875 3.75625,7.63125 H 3.74375 L 3.75,7.61875 M 1.36875,7.6375 1.4769562,7.7875 1.5209,7.95625 1.61875,8.2125 C 1.4992938,8.1245625 1.4269937,7.9326875 1.3914375,7.79375 1.3799437,7.748875 1.3578,7.683125 1.36875,7.6375 M 3.775,7.64375 c 0.044144,0.044125 0.0905,0.086875 0.14375,0.1199375 0.024637,0.01525 0.078675,0.031938 0.093012,0.057688 C 4.0234,7.8421875 4.005075,7.8791875 3.9991188,7.9 3.9771563,7.9765625 3.9431813,8.0503125 3.902475,8.11875 3.8900438,8.139625 3.867275,8.194125 3.8370125,8.190125 3.7945313,8.1845 3.77395,8.1025 3.762525,8.06875 3.7269063,7.9635625 3.7542688,7.87 3.7669625,7.7625 3.7714563,7.7244375 3.7601062,7.67925 3.775,7.64375 m 1.26875,0.125 0.16875,0.0375 C 5.179087,7.864875 5.130363,7.92975 5.075,7.96875 l -0.03125,-0.2 M 8.6,7.8 C 8.4135,8.19425 7.9553125,8.3375 7.55625,8.3375 7.601,8.2398125 7.7926875,8.24875 7.8875,8.2205 8.0774375,8.1639375 8.2529375,8.073125 8.4125,7.9561875 8.477875,7.90825 8.531625,7.84275 8.6,7.8 M 5.99375,7.81875 c 0.083456,0.043938 0.167625,0.08725 0.2625,0.1 -0.053606,0.1146875 -0.1693875,0.272375 -0.2875,0.325 L 5.99375,7.9625 V 7.81875 M 4.475,8.075 C 4.48885,8.031688 4.50085,7.987938 4.511688,7.94375 4.514748,7.931313 4.516698,7.902125 4.533188,7.8995 4.571563,7.89344 4.577419,7.957188 4.573663,7.98125 4.5662875,8.0285 4.5199,8.0663125 4.475,8.075 M 3.24375,8.1 3.3875,8.4625 C 3.2730188,8.4080625 3.1473438,8.2839375 3.075,8.18125 L 3.24375,8.1 m 3.4875,0.01875 0.18125,0.075 V 8.2 C 6.822813,8.247188 6.7151875,8.304125 6.6125,8.3125 L 6.73125,8.11875 m -4.4625,0.1375 C 2.460625,8.292375 2.6526625,8.289625 2.84375,8.25 2.8798813,8.2425 3.0135375,8.1809375 3.0387688,8.2145625 3.0617688,8.24525 3.0068813,8.287375 2.9875,8.3044375 2.9144438,8.368875 2.833675,8.426625 2.74375,8.465125 2.707562,8.480625 2.659194,8.508875 2.61875,8.504687 2.5783063,8.5005 2.5336875,8.469125 2.5,8.448 2.41735,8.3961875 2.3257063,8.337125 2.26875,8.25625 M 7.525,8.2875 C 7.449625,8.3968125 7.32375,8.48675 7.2125,8.5565625 6.86825,8.772625 6.484875,8.8315 6.0875,8.78125 L 6.39375,8.5551875 6.569,8.376125 6.78125,8.3136875 6.98125,8.221625 7.16875,8.262 7.525,8.2875 M 3.0875,8.26875 C 3.1849313,8.3661875 3.2856313,8.4540625 3.4,8.53125 3.3589438,8.564375 3.2886063,8.574375 3.2375,8.5836875 3.0827938,8.61175 2.8396063,8.62525 2.7,8.5375 l 0.1875,-0.099125 0.2,-0.169625 m 2.30625,0.1125 -0.025,0.05625 -0.025,-0.00625 0.05,-0.05 M 5.31875,8.475 h -0.0375 c 0.012794,-0.017375 0.02285,-0.014062 0.0375,0 m 0,0.04375 C 5.2533437,8.636125 5.1419,8.738375 5.03125,8.8125 4.9962125,8.8359375 4.9498937,8.8761875 4.90625,8.8793125 4.8565437,8.8829375 4.7892375,8.849375 4.74375,8.83125 4.7055062,8.816 4.6436937,8.80275 4.61875,8.76875 4.7586625,8.7499375 4.8997,8.690125 5.025,8.6275 5.085375,8.5973125 5.1484313,8.540375 5.2125,8.5219375 5.2448625,8.512625 5.2852813,8.51875 5.31875,8.51875 M 3.5875,8.6375 c 0.1058063,0.060188 0.2274563,0.09225 0.34375,0.125 V 8.76875 C 3.901619,8.787187 3.861631,8.83225 3.825,8.83225 3.802581,8.83225 3.779969,8.811875 3.7625,8.799812 3.71265,8.7654375 3.6022438,8.6983125 3.5875,8.6375 m 1.25,0.28125 C 4.513,9.06325 4.1894937,9.0059375 3.875,8.875 V 8.8625 L 3.99375,8.7801875 4.2,8.8 4.40625,8.7994375 4.525,8.788875 l 0.10625,0.046 z"
       id="path3731" />
  </g>
</svg>
