<?xml version="1.0" encoding="UTF-8" standalone="no"?>
<!-- Created with Inkscape (http://www.inkscape.org/) -->

<svg
   version="1.1"
   id="svg7274"
   width="10"
   height="10"
   viewBox="0 0 10 10"
   sodipodi:docname="fog-of-war-off-tmpl-cleaned++++.svg"
   inkscape:version="1.2.2 (732a01da63, 2022-12-09)"
   xmlns:inkscape="http://www.inkscape.org/namespaces/inkscape"
   xmlns:sodipodi="http://sodipodi.sourceforge.net/DTD/sodipodi-0.dtd"
   xmlns="http://www.w3.org/2000/svg"
   xmlns:svg="http://www.w3.org/2000/svg">
  <defs
     id="defs7278" />
  <sodipodi:namedview
     id="namedview7276"
     pagecolor="#ffffff"
     bordercolor="#000000"
     borderopacity="0.25"
     inkscape:showpageshadow="2"
     inkscape:pageopacity="0.0"
     inkscape:pagecheckerboard="0"
     inkscape:deskcolor="#d1d1d1"
     showgrid="false"
     inkscape:zoom="90.509668"
     inkscape:cx="4.7177281"
     inkscape:cy="4.8945047"
     inkscape:window-width="2560"
     inkscape:window-height="1476"
     inkscape:window-x="-12"
     inkscape:window-y="-12"
     inkscape:window-maximized="1"
     inkscape:current-layer="g7280" />
  <g
     inkscape:groupmode="layer"
     inkscape:label="Image"
     id="g7280">
    <path
       style="fill:none;stroke:#080808;stroke-width:0.08;stroke-dasharray:none"
       d="M 1.58125,1.7 1.56875,1.74375 C 1.5482937,1.7295437 1.5491188,1.7296063 1.53125,1.7125 1.5463125,1.7038875 1.5736875,1.6995438 1.6,1.6840375 1.6458187,1.6570438 1.6615063,1.642475 1.70625,1.600225 1.8452125,1.4690063 2.0202,1.3566812 2.2,1.2894938 2.2478688,1.2716125 2.2887563,1.2540812 2.3375,1.2401687 2.3832438,1.2271187 2.439075,1.2134937 2.4875,1.20375 2.5801688,1.1851062 2.6742938,1.175 2.76875,1.175 c 0.047219,0 0.104075,-0.00234 0.15,0.0036 C 2.941469,1.18153 2.950894,1.18504 2.966862,1.17482 2.980556,1.16606 2.990425,1.135176 3.000431,1.118745 3.03565,1.0609188 3.0842875,0.999375 3.1314938,0.95 3.2855125,0.788925 3.4814938,0.66516875 3.69375,0.59927688 4.1168875,0.46792063 4.5762125,0.54540875 4.93125,0.81170625 5.0403875,0.89356875 5.1408875,0.9937625 5.2185875,1.10625 c 0.017119,0.024775 0.037856,0.057419 0.054356,0.081219 0.00785,0.011331 0.017644,0.029369 0.033887,0.03105 0.017306,0.00179 0.0302,-0.012738 0.042106,-0.025044 0.024145,-0.024962 0.04942,-0.0557 0.076064,-0.079187 C 5.5306937,1.0210938 5.64235,0.93394375 5.76875,0.8703 6.130925,0.687925 6.5544375,0.6302375 6.95,0.74375 c 0.248875,0.0714125 0.4665625,0.20674375 0.6625,0.3794625 0.03375,0.029737 0.07,0.070656 0.10025,0.1017563 0.01575,0.016219 0.038,0.030156 0.0525,0.046625 0.015688,0.017813 0.016813,0.031325 0.0325,0.053406 0.04825,0.067888 0.1053125,0.1492688 0.144375,0.225 0.018187,0.035225 0.034438,0.091887 0.065438,0.1149812 0.024875,0.018481 0.073937,0.00392 0.1049375,0.00378 0.070437,-3.437e-4 0.1489375,0.00156 0.21875,0.016669 0.2613125,0.056588 0.501375,0.2402938 0.626375,0.477075 0.070937,0.1343688 0.1166875,0.2779063 0.123375,0.43125 10e-4,0.022725 2.5e-4,0.0418 2.5e-4,0.0625 0,0.030131 0.001,0.053544 -0.00363,0.0875 -0.00394,0.028938 -0.00519,0.037206 -0.00931,0.0625 -0.00381,0.023331 -0.00544,0.043969 -0.012875,0.075 C 9.0295,2.9895813 8.99075,3.093 8.9309375,3.1875 c -0.021125,0.033356 -0.059188,0.066131 -0.039,0.1 C 8.908625,3.315475 8.943,3.3473313 8.966,3.375 c 0.049938,0.060006 0.094813,0.1251375 0.1320625,0.19375 0.00919,0.01685 0.017688,0.035475 0.026563,0.049694 0.00469,0.00763 0.011375,0.021944 0.026188,0.021556 0.034437,-9.062e-4 0.049,-0.039006 0.075437,-0.071225 0.01675,-0.020488 0.028437,-0.027869 0.045187,-0.044837 0.014,-0.014194 0.017875,-0.04025 0.030875,-0.061438 C 9.349,3.3863563 9.3949375,3.3076375 9.4303125,3.225 9.63125,2.7558438 9.5593125,2.1830375 9.25325,1.775 9.038375,1.4884625 8.709,1.2688812 8.35,1.2205125 8.226625,1.2039 8.0985,1.1994625 7.975,1.2170563 7.88475,1.2299188 7.8120625,1.2398062 7.76875,1.26875 M 3.84375,1.55 C 3.7903438,1.5341438 3.753475,1.491975 3.69375,1.4520812 3.6113063,1.3970187 3.5111375,1.355375 3.44375,1.3 3.4670812,1.2660812 3.5005938,1.22925 3.55,1.1891312 3.612319,1.1385192 3.6825438,1.0966942 3.75625,1.0651687 c 0.036369,-0.01555 0.0736,-0.028825 0.1125,-0.0392 0.1555437,-0.0414751 0.3377938,-0.0403063 0.49375,0.00441 0.1732813,0.049687 0.3338625,0.1621562 0.4484375,0.300875 0.034844,0.042188 0.095856,0.1176063 0.11055,0.16875 0.00437,0.0152 0,0.023581 -0.00991,0.037219 C 4.9016063,1.5509625 4.8897375,1.5602313 4.8875,1.5625 4.8382625,1.5175625 4.7585,1.4724937 4.68125,1.4425688 4.5827562,1.4044125 4.481125,1.3873313 4.375,1.3875 4.328519,1.387575 4.261675,1.39614 4.21875,1.406369 4.181987,1.415129 4.182638,1.426438 4.15,1.441069 4.125719,1.451956 4.086231,1.4545 4.0625,1.456719 4.019988,1.460689 3.929275,1.486682 3.8875938,1.511732 c -0.01875,0.011263 -0.036825,0.023412 -0.03505,0.044612 0.00131,0.015625 0.013669,0.027606 0.022806,0.037313 0.018562,0.019725 0.048437,0.042219 0.068125,0.062687 0.016056,0.016681 0.035431,0.042287 0.02835,0.061075 -0.00502,0.013312 -0.015856,0.017919 -0.028175,0.024694 -0.026756,0.014706 -0.0661,0.032863 -0.09365,0.049156 -0.0691,0.040881 -0.1373875,0.087887 -0.2,0.1374749 -0.019,0.01505 -0.042987,0.026281 -0.058225,0.0395 -0.01105,0.00958 -0.016169,0.021419 -0.024738,0.031788 -0.018563,0.022438 -0.069888,0.0724 -0.09025,0.093044 -0.01465,0.01485 -0.024062,0.023881 -0.045562,0.029463 -0.024169,0.00627 -0.032406,0.00176 -0.056225,0.00271 -0.024688,9.813e-4 -0.034613,0.00286 -0.05625,0.00662 -0.014925,0.00259 -0.024356,0.00515 -0.0375,0.00822 -0.023531,0.00549 -0.068588,0.01655 -0.09375,0.023356 -0.019437,0.00526 -0.040544,0.012044 -0.05625,0.014906 -0.010775,0.00196 -0.026394,5.063e-4 -0.043188,0.00655 -0.024512,0.00882 -0.028837,0.019068 -0.056837,0.03023 C 2.9848875,2.2335938 2.9332438,2.25765 2.8875,2.2793938 2.7851,2.3280625 2.6884188,2.3902 2.6,2.461275 2.5300813,2.5174813 2.4364688,2.6126625 2.3794688,2.6748813 c -0.017144,0.018706 -0.025481,0.028075 -0.048219,0.034906 -0.019619,0.0059 -0.040537,0.00241 -0.0625,0.00687 -0.049831,0.010137 -0.07585,0.0153 -0.1125,0.027994 -0.017912,0.00621 -0.031319,0.013394 -0.05,0.0199 -0.071669,0.02495 -0.1506063,0.060619 -0.21875,0.096575 -0.023012,0.012144 -0.061137,0.03535 -0.08125,0.046687 -0.026231,0.014775 -0.03885,0.024444 -0.064306,0.00398 C 1.7292562,2.9016 1.7225375,2.8931375 1.7199063,2.8900313 1.7111313,2.8796625 1.7042,2.8704875 1.7004687,2.83125 c -0.00203,-0.021344 -0.00554,-0.041319 -0.00648,-0.0625 -0.00564,-0.1288 0.00128,-0.251775 0.041444,-0.375 C 1.7738887,2.2757563 1.8456577,2.1364375 1.9225952,2.043775 1.9478012,2.013412 1.9659822,2.007431 1.9923392,1.983694 2.0125642,1.965488 2.0149892,1.947688 2.0276082,1.933038 2.04585,1.9118562 2.0983563,1.8705125 2.125,1.8509687 2.2749437,1.7410125 2.4701625,1.656625 2.65625,1.6439062 c 0.024281,-0.00166 0.079238,-0.00647 0.1,-0.0064 0.016469,5.01e-5 0.030081,9.376e-4 0.05,9.376e-4 0.0203,0 0.028369,-0.0011 0.05,-9.125e-4 0.078137,6.75e-4 0.1745688,0.017956 0.25,0.041587 0.036806,0.011531 0.077806,0.024919 0.1125,0.039725 0.021913,0.00936 0.030506,0.016819 0.05,0.027194 0.01865,0.00993 0.0367,0.012838 0.05625,0.022981 0.077812,0.040394 0.2186938,0.1497937 0.2625,0.1934812 M 7.2,1.4 C 7.188875,1.40544 7.181687,1.411912 7.15625,1.40677 7.13175,1.4018125 7.082,1.3850563 7.05,1.3758812 6.966625,1.3519813 6.8805,1.3319125 6.79375,1.3255562 6.5115625,1.3048687 6.2455562,1.3383062 5.9875,1.4490625 5.8763187,1.4967813 5.7744813,1.5609313 5.675,1.6287875 5.6513062,1.6449437 5.6228563,1.6473375 5.6145687,1.618625 5.6077563,1.595025 5.6297375,1.5776437 5.6464,1.55625 5.6846625,1.5071375 5.7287188,1.4614688 5.775,1.4198188 5.941675,1.2698063 6.16605,1.172225 6.3875,1.1510625 6.5761875,1.1330312 6.769,1.154725 6.94375,1.2295 7.015,1.259975 7.0944375,1.3018187 7.156125,1.345925 7.198563,1.376225 7.179875,1.379106 7.213312,1.409506 7.227125,1.4220375 7.2465,1.4317375 7.25625,1.43745 7.2805,1.4516562 7.3089375,1.4691812 7.34375,1.488 7.471125,1.5569188 7.6186875,1.6459125 7.725,1.75 M 2.975,1.175 C 3.032456,1.2057 3.1019063,1.199419 3.1875,1.221088 3.279387,1.244357 3.3634438,1.292988 3.44375,1.3 M 5.3,1.225 C 5.29538,1.244262 5.29017,1.259856 5.275475,1.28125 5.256269,1.309194 5.231419,1.339619 5.212837,1.36875 5.165987,1.4422 5.091887,1.5713875 5.0812495,1.63125 5.0584245,1.630775 5.0362495,1.62692 5.0062495,1.620037 4.9659438,1.6107937 4.9207938,1.6075 4.8915875,1.57195 L 4.8875,1.5625 M 4.1625,1.44375 4.2062625,1.466325 4.25625,1.4816625 4.3684063,1.544 l 0.040431,0.043331 0.053663,0.00463 0.125,-0.010156 0.18125,0.0056 0.075,0.00576 0.05,-0.011912 M 4.9375,1.53125 4.93125,1.5875 M 4.4,1.5875 C 4.3462875,1.6229875 4.269475,1.6240063 4.18125,1.649125 4.0996563,1.67235 4.045425,1.7068625 3.98125,1.7125 M 5.60625,1.61875 5.5875,1.675 5.64375,1.65 M 5.08125,1.63125 C 5.110869,1.649644 5.149919,1.658769 5.2,1.677656 5.261913,1.701006 5.3224313,1.7275 5.38125,1.757869 5.41155,1.773507 5.427194,1.793732 5.45625,1.7964 5.479281,1.79851 5.493437,1.781275 5.512406,1.762406 5.5446312,1.7303563 5.559225,1.7057875 5.5875,1.675 M 2.80625,1.64375 C 2.79844,1.705563 2.794694,1.82685 2.80056,1.9125 2.8025,1.940906 2.8105,1.994281 2.81401,2.01875 2.81923,2.055238 2.8095,2.062563 2.793748,2.08125 l -0.05,-0.0386 -0.1,-0.038481 -0.3,-0.053106 L 2.1375,1.9642187 2.0500125,1.981225 2.00625,1.98125 M 3.25,8.075 C 3.2800938,8.1235 3.2877063,8.1841875 3.31515,8.25625 3.3337,8.305 3.374225,8.3725 3.3885688,8.41875 3.4005,8.45725 3.3807938,8.4563125 3.35625,8.48125 3.2817688,8.4211875 3.1840063,8.3424375 3.1205313,8.2753125 3.1086375,8.26275 3.1002875,8.2565 3.0880625,8.2455625 3.0528563,8.214 3.0623188,8.2090625 3.04375,8.175 3.0794063,8.149625 3.1306563,8.1303125 3.19375,8.0965 3.2100813,8.08775 3.24145,8.080625 3.2492688,8.0668125 3.2560563,8.05475 3.2525625,8.045625 3.250475,8.03125 3.2465313,8.004125 3.240025,7.9661875 3.2380563,7.9375 3.2309,7.8329375 3.2301375,7.729875 3.2464,7.625 3.25073,7.597125 3.260344,7.548188 3.264031,7.525 3.267261,7.50475 3.2636935,7.490875 3.271851,7.4625 3.277531,7.44275 3.289301,7.421187 3.296063,7.40625 3.308019,7.379812 3.336688,7.319562 3.350857,7.2875 3.367082,7.250813 3.383076,7.208188 3.393501,7.18125 3.397711,7.170375 3.407938,7.149562 3.411576,7.13125 3.419506,7.091375 3.4123011,7.099875 3.412501,7.05625 3.4129323,6.960375 3.4119323,6.852375 3.38482,6.75625 3.36765,6.695375 3.3443312,6.6349375 3.311225,6.58125 3.2960625,6.5566875 3.2816063,6.5475 3.26765,6.528875 3.2557438,6.5130625 3.2514438,6.497875 3.2393437,6.48125 3.2120813,6.4438125 3.1298625,6.3711875 3.0938438,6.3436875 3.0784313,6.331875 3.0605125,6.3205 3.0627313,6.300875 3.0642813,6.2871875 3.0760688,6.28525 3.086675,6.2794375 3.1087375,6.267375 3.1026125,6.242575 3.0980563,6.21875 3.0935125,6.194975 3.0705813,6.1372312 3.0602625,6.11875 3.0534313,6.1065187 3.0407,6.0931125 3.037825,6.075 3.035175,6.0582875 3.0402063,6.04715 3.0470312,6.03125 3.0599188,6.0012625 3.1112063,5.9079313 3.1176625,5.8750125 3.1216438,5.8547313 3.1228813,5.8426312 3.125,5.83125 3.056425,5.8170562 2.9139375,5.7744 2.8125,5.7598687 2.787175,5.7562487 2.751056,5.7566587 2.73125,5.7557787 2.701631,5.7544787 2.667531,5.7469587 2.643844,5.7539587 2.626044,5.7592187 2.61485,5.7756147 2.604713,5.7875207 2.5886813,5.80635 2.5708875,5.8293688 2.5535063,5.85 2.4673563,5.9522438 2.3645625,6.0396312 2.25,6.1087438 1.93445,6.299125 1.5499,6.345625 1.2,6.2373375 1.1223125,6.2132937 1.047625,6.1838375 0.975,6.1484812 0.9293,6.1262312 0.920825,6.1384813 0.8885625,6.1197938 0.85225625,6.0987625 0.84784375,6.0791312 0.806225,6.0498438 0.56765063,5.8819688 0.38776313,5.6384125 0.29376938,5.3625 0.27639313,5.3114938 0.26291625,5.2598438 0.2507475,5.20625 0.16850063,4.844 0.25244,4.4428125 0.4464075,4.13125 0.53729313,3.9852625 0.65203125,3.8561875 0.7875,3.7500938 0.83633125,3.71185 0.89131875,3.6760813 0.94375,3.643725 0.96094375,3.6331188 0.97829375,3.6245 0.98440625,3.6059813 0.98945625,3.5906625 0.9824,3.5761563 0.97629375,3.5625 0.96269375,3.5321 0.94406875,3.494663 0.93163125,3.4625 0.88825,3.3503188 0.850475,3.2336 0.8385625,3.1125 0.7982,2.70225 0.93036875,2.2998375 1.1991875,1.9875 1.2842813,1.888625 1.406475,1.7597937 1.53125,1.7125 M 1.5625,1.74375 C 1.54225,1.7915937 1.5015125,1.830925 1.4738188,1.875 1.4151688,1.9683375 1.3636125,2.066025 1.3238187,2.16875 1.2314875,2.407125 1.2017438,2.6902688 1.2500063,2.9375 1.270175,3.0408188 1.3005125,3.1455 1.34,3.24375 1.34969,3.267881 1.34945,3.285213 1.370156,3.290869 1.387687,3.295649 1.407106,3.272594 1.416006,3.262406 1.440318,3.234568 1.47875,3.185262 1.506493,3.1562497 1.550181,3.1105617 1.595574,3.0667437 1.6437493,3.0258372 c 0.017856,-0.015163 0.046775,-0.034944 0.060781,-0.04875 0.024862,-0.0245 0.0274,-0.041619 0.039219,-0.058337 m 1.5125,-1.1625 c 6.2e-6,0.029806 -0.00123,0.031956 0.0036,0.06875 0.00734,0.055906 0.00181,0.093531 0.017494,0.15625 C 3.292,2.0398688 3.30765,2.0862313 3.31875,2.11875 M 5.825,2.1125 C 5.779094,2.147481 5.739544,2.195806 5.6964188,2.25625 5.6498808,2.321487 5.6070128,2.4008188 5.5788688,2.475 c -0.00882,0.023238 -0.00994,0.0434 -0.018713,0.0625 -0.013262,0.028887 -0.019981,0.048575 -0.0297,0.0875 -0.011937,0.047813 -0.020331,0.095362 -0.02365,0.14375 -0.0087,0.1270625 0.00351,0.2521563 0.039594,0.375 0.031944,0.10875 0.094613,0.2303 0.1621938,0.3187188 0.018981,0.024838 0.027712,0.028494 0.046106,0.046625 0.014963,0.014756 0.020963,0.030912 0.032269,0.047063 0.0229,0.032725 0.084444,0.083681 0.1192813,0.1096062 0.080806,0.060131 0.1741938,0.1089438 0.26875,0.1404875 0.073969,0.024675 0.14575,0.035613 0.225,0.0464 0.031187,0.00424 0.041812,0.00216 0.06875,0.00179 0.018125,-2.5e-4 0.029187,0.00176 0.04375,6.625e-4 0.014062,-0.00106 0.040687,-0.00477 0.05625,-0.00686 C 6.674375,3.8340063 6.7804375,3.8051125 6.875,3.7543188 7.040875,3.665175 7.206625,3.5155313 7.2790625,3.3375 7.2945,3.2995312 7.287875,3.2830062 7.299625,3.25625 7.314375,3.2227 7.322375,3.2122938 7.33125,3.16875 7.3575625,3.0389188 7.3521875,2.9029375 7.31425,2.775 7.2978125,2.7195375 7.267625,2.6453625 7.23525,2.600275 7.2204375,2.5796563 7.212875,2.5802188 7.1971875,2.5637563 7.18525,2.551225 7.1743125,2.514875 7.1569375,2.49375 7.086625,2.4082813 6.9761875,2.3334375 6.875,2.2901688 6.8355,2.2732813 6.7818125,2.2645875 6.7503125,2.2507562 6.710125,2.2330563 6.7261875,2.20505 6.70125,2.16875 6.6685,2.121175 6.6123125,2.0777063 6.55625,2.0657375 6.4705,2.0474187 6.32825,2.0892 6.333,2.2 6.33425,2.229062 6.360687,2.258212 6.353625,2.280594 6.347315,2.300681 6.326313,2.306913 6.30625,2.317219 6.253937,2.3441 6.204775,2.377694 6.1625,2.418844 6.141456,2.439325 6.121494,2.471482 6.095081,2.468519 6.077344,2.466529 6.060175,2.427194 6.048244,2.40625 6.002607,2.32615 5.951219,2.2520563 5.8922065,2.18125 c -0.02045,-0.024544 -0.059688,-0.0619 -0.048419,-0.0875 0.014581,-0.033125 0.054687,-0.057456 0.087462,-0.082044 0.0771,-0.057831 0.1606812,-0.1089625 0.25,-0.1454375 0.2574375,-0.1051376 0.5644375,-0.1212938 0.825,-0.019838 0.037313,0.014538 0.043938,0.027087 0.075,0.042888 0.027813,0.014156 0.036875,0.0076 0.06875,0.021906 0.0485,0.021737 0.106375,0.060256 0.15,0.092713 0.097563,0.07255 0.1831875,0.155575 0.257,0.2523125 0.0165,0.0217 0.040437,0.057556 0.054,0.074731 0.012313,0.015575 0.019875,0.017663 0.036313,0.035231 0.015125,0.016087 0.016,0.039362 0.02525,0.065031 0.00863,0.023831 0.020313,0.041306 0.039688,0.041594 C 7.739375,2.47325 7.7356875,2.4503125 7.742625,2.41875 7.753875,2.3674688 7.7871875,2.3024563 7.82525,2.2625 7.88575,2.1990063 7.96675,2.1549625 8.05,2.1375188 8.077875,2.131675 8.103125,2.123275 8.1024375,2.1061563 8.1015625,2.0861375 8.0903125,2.0816875 8.068625,2.070775 7.9860625,2.0291438 7.869375,1.9934375 7.775,1.9786875 7.7114375,1.9687562 7.656125,1.9639438 7.61875,1.975 L 7.575,1.9 M 5.45,1.8125 C 5.4361375,1.8619062 5.3435313,1.95375 5.3000062,2.01875 5.2740438,2.057525 5.2470938,2.10415 5.2240375,2.14375 5.2147813,2.15965 5.205775,2.1715 5.1967688,2.1875 5.1862125,2.2062625 5.1817,2.2277813 5.172325,2.25 5.1354375,2.337425 5.0981625,2.4321563 5.07765,2.525 5.06625,2.5766 5.0691563,2.5916125 5.043725,2.5951875 5.02905,2.59725 5.0225813,2.583625 5.0207313,2.58045 5.0123063,2.56595 5.0142,2.5575938 5.0040687,2.5125 4.98185,2.41365 4.9687562,2.313975 4.96875,2.2125 c 0,-0.022569 -6.25e-5,-0.053581 6.25e-5,-0.075 8.13e-5,-0.014363 0.00327,-0.02845 -0.00562,-0.041856 C 4.9534812,2.0809938 4.934125,2.0781625 4.91875,2.0742125 4.8864562,2.065925 4.83455,2.0543938 4.8,2.0510625 c -0.029212,-0.00282 -0.044394,0.00122 -0.06875,-0.00198 -0.024113,-0.00316 -0.035475,-0.00529 -0.0625,-0.00533 -0.041294,-6.87e-5 -0.078531,-0.013381 -0.1016125,0.010019 -0.01065,0.010794 -0.010931,0.026938 -0.013694,0.039981 -0.00593,0.028 -0.017969,0.0662 -0.030394,0.09375 -0.041456,0.091963 -0.1294,0.1881 -0.210525,0.2432813 -0.03825,0.026019 -0.029081,0.034838 -0.063175,0.056163 -0.01255,0.00784 -0.0323,0.011437 -0.0431,0.013625 -0.035869,0.00726 -0.068287,0.016412 -0.1125,0.023938 -0.030794,0.00523 -0.084725,0.014137 -0.1125,0.018744 -0.012363,0.00205 -0.030188,0.00442 -0.04375,0.00984 -0.024188,0.00966 -0.035944,0.020787 -0.05625,0.029244 C 3.8406813,2.5992188 3.794075,2.6191125 3.75,2.631175 3.7083062,2.6425813 3.71405,2.6313188 3.6875,2.60625 L 3.66875,2.65 3.71875,2.64375 M 7.0875,1.90625 7.105,1.9500125 7.155,2.05625 7.2,2.24375 M 7.61875,1.975 c 0.00494,0.060512 0.034187,0.1588 0.042687,0.24375 0.00269,0.026719 0.00756,0.070463 0.00725,0.09375 -3.75e-4,0.0326 -0.007,0.039813 -0.012437,0.05 M 3.6875,2.60625 C 3.706138,2.541556 3.760206,2.4747563 3.8027438,2.425025 c 0.0185,-0.021625 0.032619,-0.029663 0.051887,-0.047488 0.019881,-0.0184 0.035038,-0.042825 0.057875,-0.064794 0.088619,-0.08525 0.210125,-0.153475 0.3249937,-0.1959875 0.064563,-0.023887 0.1320875,-0.044338 0.2,-0.056669 0.021475,-0.0039 0.047481,-0.00807 0.06875,-0.00953 C 4.528325,2.0490438 4.5439188,2.05 4.5625,2.05 m 0.175,0.00625 C 4.74387,2.1198 4.789869,2.2568188 4.771156,2.3625 4.765686,2.393413 4.752743,2.430044 4.744312,2.45625 c -0.00296,0.00921 -0.00971,0.028969 -0.00389,0.041769 0.0061,0.013431 0.015662,0.012956 0.028381,0.015988 0.015456,0.00369 0.045656,0.011588 0.06245,0.016369 0.034719,0.00988 0.1069313,0.041444 0.13125,0.05165 0.027181,0.011406 0.040237,0.011913 0.05625,0.011725 M 2.7875,2.075 C 2.7741688,2.086275 2.763425,2.0978125 2.725,2.1002188 2.6859875,2.1026563 2.6134938,2.1184938 2.575,2.1317438 2.52965,2.14735 2.4792875,2.1726125 2.4375,2.197525 2.3729125,2.236025 2.3136688,2.2909875 2.26805,2.35 2.2480063,2.3759313 2.235225,2.4100875 2.2059813,2.4222625 2.1811875,2.4325938 2.1267688,2.43995 2.1,2.4503875 2.0562125,2.4674563 2.0066813,2.4930938 1.96875,2.5229313 1.8950625,2.5809 1.8333,2.6575813 1.7964188,2.74375 1.7848875,2.7707063 1.7653562,2.8348563 1.7597438,2.8562375 1.7521563,2.88515 1.7443063,2.8908 1.7375,2.9 M 2.80625,2.08125 C 2.817819,2.08761 2.825825,2.0961 2.85625,2.099881 2.880962,2.102951 3.0168813,2.132887 3.0436313,2.14705 3.0620625,2.1568063 3.06775,2.165825 3.075,2.175 M 4.975,2.1 c 0.056963,0.00121 0.1768437,0.057662 0.21875,0.0875 m 2.925,-0.06875 c 0.01975,0.00555 0.041125,0.010825 0.075,0.012725 0.022375,0.00126 0.052062,0.00704 0.075,0.014512 C 8.335937,2.167893 8.397375,2.203631 8.45,2.2510683 8.539563,2.3318183 8.602625,2.472512 8.60625,2.5562495 8.5404375,2.550875 8.4326875,2.510575 8.3375,2.492525 8.2074375,2.46785 8.0633125,2.4572438 7.93125,2.4698125 7.890625,2.473675 7.8325,2.4782625 7.79375,2.4839188 7.7470625,2.4907375 7.73775,2.4831563 7.725,2.475 M 3.425,2.13125 C 3.42159,2.145425 3.41922,2.158775 3.404719,2.18125 3.382588,2.21555 3.339031,2.27425 3.316275,2.3125 3.260969,2.405469 3.2046563,2.5314188 3.1723438,2.63125 c -0.00671,0.020712 -0.012569,0.031 -0.018625,0.05 -0.00693,0.021737 -0.00743,0.033913 -0.010806,0.05625 -0.00427,0.028212 -0.018712,0.085775 -0.02335,0.11875 -0.00592,0.042175 -0.00991,0.083431 -0.01275,0.125 -0.0029,0.042319 -4.937e-4,0.095394 -5.625e-4,0.1375 -5e-5,0.029519 0.00523,0.044869 -0.015213,0.06615 C 3.0664123,3.210544 3.0372433,3.202906 3.0062493,3.19274 2.9176938,3.1637 2.8085688,3.1375063 2.7125,3.1375 2.674044,3.1375 2.666306,3.13009 2.63775,3.13407 2.621731,3.13631 2.613031,3.147964 2.607081,3.156551 2.591375,3.179207 2.572062,3.226901 2.557862,3.256245 2.524931,3.32432 2.502862,3.4009013 2.487518,3.474995 2.482638,3.498551 2.47443,3.541582 2.471424,3.562495 2.467444,3.590245 2.468784,3.60077 2.468754,3.612495 2.454475,3.6112438 2.4422,3.61055 2.41875,3.6007688 2.3948,3.5907813 2.3408563,3.56415 2.3125,3.5528062 2.2184688,3.5151938 2.1265875,3.4878 2.03125,3.4678875 2.0027,3.4619275 1.987931,3.4621475 1.95625,3.4567435 1.92775,3.4518835 1.918213,3.4447745 1.89375,3.4421565 1.8689,3.4394965 1.860863,3.4451665 1.83125,3.4431965 1.7246813,3.4360665 1.6066188,3.4405165 1.5,3.4504765 c -0.044475,0.00415 -0.122425,0.022756 -0.1625,0.03075 -0.018081,0.00361 -0.031869,0.00315 -0.05,0.00834 -0.017419,0.00499 -0.027856,0.012431 -0.04375,0.018513 -0.018594,0.00711 -0.048531,0.0161 -0.06875,0.023512 -0.070175,0.025737 -0.1268938,0.061756 -0.18125,0.074669 m 5.36875,-1.325 c 0.056625,-0.00764 0.09925,-0.027175 0.16875,-0.035712 0.087125,-0.0107 0.1335625,-0.00179 0.1875,-0.00179 M 3.8625,2.38125 C 3.877194,2.402069 3.900794,2.469019 3.914406,2.5124688 3.9207125,2.5326125 3.9258875,2.54075 3.93125,2.55 M 2.20625,2.4375 C 2.1954812,2.4712625 2.178075,2.5141938 2.1639688,2.575 2.1460313,2.6523438 2.15625,2.6879563 2.15625,2.7375 M 6.0875,2.475 C 6.0697312,2.557525 6.0108312,2.6167313 5.983925,2.7125 5.950125,2.832825 5.987525,3.00255 6,3.06875 5.980375,3.06785 5.9669125,3.0666938 5.94375,3.0570188 5.8765875,3.0289813 5.8146625,2.9789438 5.78125,2.96875 5.77767,2.980869 5.77458,2.991381 5.77526,3.012513 5.7759537,3.033807 5.78441,3.075357 5.787185,3.1 5.792415,3.146412 5.799622,3.197156 5.798379,3.24375 5.796709,3.306262 5.787429,3.3757937 5.778617,3.4375 c -0.00282,0.019819 -0.00744,0.031788 1.563e-4,0.048125 0.00686,0.014737 0.026169,0.019256 0.039981,0.024212 0.032238,0.011575 0.067194,0.025069 0.099994,0.035994 0.1228062,0.040906 0.2506313,0.059425 0.38125,0.071856 0.048375,0.00461 0.10275,-0.00501 0.15,-0.00518 0.022875,-8.76e-5 0.034937,0.0021 0.05625,-9.375e-4 0.023938,-0.00341 0.037,-0.00867 0.0625,-0.012387 C 6.644375,3.5881625 6.727125,3.5682563 6.8,3.5411 6.881875,3.5105938 6.968875,3.4715438 7.04375,3.4285813 7.1001875,3.3962063 7.1363125,3.3702125 7.1875,3.3299313 7.205375,3.31585 7.227625,3.2952313 7.24375,3.2846813 7.262625,3.2723062 7.2745,3.2715813 7.2875,3.26875 M 4.2625,2.48125 C 4.275462,2.49058 4.317969,2.498037 4.375,2.500119 4.3938,2.5008002 4.407806,2.5115 4.44375,2.511606 4.513406,2.5118185 4.597325,2.508336 4.6874687,2.506166 4.7050375,2.5057375 4.7144062,2.5031313 4.725,2.5 M 7.7125,2.48125 C 7.71406,2.5011 7.71412,2.516925 7.724375,2.55 c 0.00731,0.023581 0.023562,0.067419 0.031687,0.09375 0.022063,0.071188 0.038,0.1664625 0.047563,0.2375 0.00319,0.024119 0.00494,0.03945 0.00794,0.0625 0.00244,0.018394 0.00119,0.030019 0.001,0.04375 -1.9e-4,0.017537 5.6e-4,0.042575 -3.15e-4,0.0625 C 7.8105625,3.08825 7.801,3.1451563 7.8,3.18125 7.7995,3.197513 7.79869,3.207394 7.79369,3.225 7.78731,3.247019 7.78444,3.261056 7.778628,3.2875 c -0.00619,0.027744 -0.028625,0.08245 -0.023,0.1044625 0.010063,0.039219 0.030812,0.041913 0.063125,0.0348 0.037,-0.00814 0.070312,-0.021663 0.10625,-0.026756 0.047937,-0.00681 0.101,-0.00628 0.15,-0.00626 0.05725,2.5e-5 0.1140625,0.00787 0.16875,0.025181 0.1406875,0.044537 0.26625,0.131175 0.3616875,0.2435687 0.057,0.067144 0.1015,0.1430625 0.13325,0.225 0.00881,0.022787 0.019312,0.053119 0.022875,0.075 0.0035,0.021438 0.00912,0.030813 1.875e-4,0.047656 -0.0075,0.014156 -0.031125,0.028825 -0.043,0.040112 -0.031812,0.030281 -0.083187,0.072369 -0.091125,0.1122313 -0.00369,0.018844 0.00687,0.034656 0.014563,0.05 0.0215,0.043112 0.045187,0.1009937 0.054,0.15 0.00675,0.037863 -0.00306,0.054344 0.023437,0.058556 0.01575,0.0025 0.037375,-0.029394 0.0435,-0.052306 C 8.77125,4.3385688 8.7784375,4.294825 8.78125,4.2625 8.7886875,4.1776 8.7876875,4.0935 8.775,4.025 M 4.41875,2.5125 C 4.41294,2.527037 4.41014,2.540006 4.381,2.555044 4.358806,2.566494 4.305681,2.592256 4.28125,2.608475 4.220788,2.648606 4.166025,2.702106 4.1255625,2.7625 c -0.029781,0.044437 -0.054425,0.093344 -0.071394,0.14375 -0.00739,0.021981 -0.0178,0.053206 -0.02105,0.075 -0.00331,0.0222 -0.0027,0.028994 -0.00547,0.05 -0.00291,0.022094 -0.00324,0.037762 0,0.0625 0.010587,0.080675 0.020494,0.155625 0.058306,0.23125 0.012356,0.024712 0.03525,0.060006 0.047737,0.08125 0.00731,0.012437 0.012119,0.032575 0.025744,0.044756 0.01595,0.014256 0.028269,0.015713 0.046812,0.0292 0.038919,0.028306 0.090088,0.059956 0.1375,0.076019 0.041319,0.013994 0.081862,0.023087 0.125,0.025819 0.072563,0.00459 0.156325,-0.01955 0.21875,-0.049156 0.019556,-0.00928 0.03715,-0.01155 0.053406,-0.024931 0.0141,-0.011606 0.022919,-0.026581 0.034187,-0.039213 C 4.7943875,3.4471188 4.8185125,3.419975 4.834575,3.39375 4.8761,3.325975 4.8820937,3.24425 4.8692437,3.16875 4.8505875,3.059075 4.76415,2.9647688 4.65,2.9568063 4.5854,2.9523063 4.5226687,2.974725 4.4874688,3.0312563 4.4544687,3.0842438 4.4753125,3.1673125 4.54375,3.175 m 1.025,-0.63125 C 5.625013,2.573637 5.663856,2.6630688 5.699925,2.75 5.717919,2.793356 5.737987,2.8562313 5.749212,2.9 5.757372,2.931794 5.765681,2.947756 5.78125,2.96875 m 2.825,-0.4125 c 0.055813,0.039413 0.1988125,0.093063 0.2875,0.1465625 0.072375,0.043656 0.1115,0.093069 0.16875,0.1034375 M 7.1875,2.5625 C 7.18056,2.572669 7.173813,2.582088 7.166938,2.600031 7.159,2.620675 7.1463125,2.6584375 7.1355,2.68125 7.107875,2.7395 7.0595625,2.8094063 7.01875,2.856225 6.99575,2.882638 6.964688,2.912769 6.9375,2.931306 6.92769,2.937996 6.913312,2.943006 6.90375,2.951625 6.8860625,2.9675938 6.8940625,2.9852563 6.890125,3.0125 6.8845,3.0519063 6.8794375,3.0930688 6.8665,3.13125 6.8285625,3.2435813 6.7201875,3.3276063 6.6125,3.3683375 6.571,3.3840438 6.5251875,3.3932063 6.48125,3.393725 6.368,3.3950625 6.2573125,3.3572313 6.16875,3.2846 6.0948437,3.2239938 6.0389188,3.12925 6.00625,3.075 M 5.04375,2.6125 C 5.04914,2.6239 5.055606,2.632131 5.05176,2.66875 5.04836,2.701119 5.04375,2.785175 5.04375,2.825 c 0,0.1326563 0.00805,0.2583688 0.042094,0.3875 0.0115,0.043637 0.028738,0.088231 0.04075,0.13125 0.00484,0.017325 0.0075,0.033806 0.015606,0.05 0.00714,0.014269 0.0142,0.023656 0.020925,0.0375 0.015669,0.03225 0.0442,0.091238 0.060238,0.125 0.012006,0.025256 0.01305,0.041894 0.025631,0.061438 0.0129,0.020031 0.02535,0.028963 0.040563,0.051087 0.035906,0.052188 0.08065,0.114475 0.1240062,0.162475 0.030781,0.034081 0.074606,0.073625 0.1048438,0.10625 0.024731,0.026681 0.019081,0.033263 0.040431,0.053062 0.011669,0.010819 0.023494,0.013769 0.028688,0.016225 0.014712,0.00696 0.026237,0.013856 0.049975,0.031506 0.094919,0.070581 0.2034438,0.131925 0.3125,0.1766875 0.025069,0.010288 0.053612,0.025281 0.051437,0.0412 C 5.9981625,4.28015 5.9802813,4.282025 5.95,4.2910938 5.8488438,4.321375 5.744275,4.3693188 5.65,4.42325 5.6311188,4.43405 5.6043125,4.4522563 5.5875,4.461325 5.571825,4.4697875 5.552025,4.4704 5.5339375,4.4893938 5.523175,4.5007 5.5214562,4.508775 5.5161937,4.525 5.5071688,4.5528125 5.490225,4.6066812 5.4785938,4.6375 5.4470188,4.72115 5.4037125,4.8005125 5.3540312,4.875 5.2856812,4.977475 5.1969,5.066825 5.1065,5.1483063 5.081425,5.1709125 5.0654125,5.1893687 5.0584687,5.2125 c -0.00687,0.022869 -0.00443,0.032844 -0.00766,0.05625 -0.00304,0.022081 -0.011025,0.068512 -0.012756,0.09375 -0.00421,0.061525 -0.00666,0.1680188 -0.00163,0.225 0.00159,0.017919 0.00399,0.031625 -0.00895,0.047413 C 5.0172787,5.647338 5.0030537,5.652338 4.9937417,5.659344 4.9797375,5.669875 4.9657313,5.6844437 4.9529,5.7 4.9100562,5.7519375 4.8778188,5.8086562 4.8484688,5.86875 4.8287062,5.9092125 4.8167,5.9498188 4.8,5.9875 M 3.66875,2.65625 C 3.658169,2.668419 3.647281,2.680181 3.636412,2.70625 3.622024,2.740769 3.599281,2.8092188 3.590156,2.85 3.567969,2.949162 3.566375,3.05555 3.568844,3.15625 3.5693127,3.175425 3.572784,3.194131 3.574534,3.2125 3.577254,3.241163 3.582914,3.257306 3.593753,3.275 3.606659,3.2668 3.618753,3.259331 3.637516,3.24365 3.6619188,3.2232375 3.6974063,3.1926688 3.725,3.1732563 3.7865,3.1299813 3.8893,3.0688563 3.95625,3.0452688 3.9848688,3.0351875 4.000875,3.0343125 4.025,3.03125 M 2.64375,3.11875 C 2.65221,3.071881 2.718938,2.9854688 2.7818125,2.918775 c 0.06135,-0.065088 0.1358,-0.1231875 0.2119375,-0.1699562 0.026706,-0.0164 0.073506,-0.045481 0.1,-0.055375 0.023319,-0.00871 0.037144,-0.00972 0.05625,-0.012194 M 6.5375,2.95 C 6.4798125,2.98415 6.4165,2.9310938 6.4134375,2.86875 6.40975,2.7941188 6.4829375,2.7239688 6.55,2.7057938 6.6285625,2.6845125 6.7126875,2.7059313 6.77475,2.75915 6.8489375,2.822775 6.8690625,2.9098688 6.89375,2.95 M 2.325,2.71875 C 2.32218,2.731725 2.32055,2.743806 2.310125,2.762513 2.291269,2.796357 2.234112,2.8782193 2.211631,2.9187505 c -0.042281,0.076231 -0.079444,0.15585 -0.1096375,0.2375 -0.013106,0.035431 -0.025962,0.077481 -0.037437,0.1125 -0.00508,0.015494 -0.00866,0.023181 -0.012044,0.0375 -0.00544,0.023031 -0.00284,0.033956 -0.00548,0.05 C 2.04135,3.3908625 2.0295,3.4407 2.025,3.4625 M 7.81875,2.95 C 7.871187,2.94022 7.963375,2.93125 8.0375,2.93125 c 0.1275625,0 0.2679375,0.018419 0.3875,0.062619 0.020375,0.00752 0.03125,0.016163 0.05,0.026137 0.0395,0.021025 0.092313,0.035594 0.13125,0.056456 0.090125,0.04825 0.195,0.154825 0.26875,0.1860375 M 8.4625,3.03125 C 8.447812,3.059431 8.424437,3.081169 8.3875,3.109356 8.33125,3.1523 8.2669375,3.1877625 8.2,3.210275 8.12775,3.2345813 8.0406875,3.253175 7.9625,3.2497563 7.8970625,3.2468938 7.841625,3.2315438 7.80625,3.23125 M 3.1,3.1875 c 0.00557,0.010444 0.010356,0.020262 0.013056,0.05625 0.00161,0.021463 0.00843,0.063669 0.01245,0.0875 C 3.139512,3.414344 3.16355,3.495625 3.191825,3.575 3.21405,3.637381 3.261281,3.7307375 3.286262,3.7875 3.296931,3.811756 3.293122,3.826469 3.307125,3.848694 3.321162,3.870969 3.342569,3.881 3.360325,3.906275 3.406856,3.972506 3.4665688,4.0478187 3.525,4.10625 c 0.029981,0.029981 0.083994,0.075394 0.112225,0.1017875 0.01155,0.010794 0.027213,0.036744 0.040869,0.045525 0.020713,0.013319 0.027238,0.00714 0.053156,0.022094 0.030337,0.017494 0.037381,0.029812 0.0625,0.045763 0.015662,0.00994 0.028006,0.011631 0.04375,0.01825 0.031644,0.013312 0.090356,0.045094 0.125,0.059075 0.047219,0.019056 0.094031,0.035162 0.14375,0.049437 0.1602937,0.046019 0.3230312,0.062588 0.4875,0.051262 0.016637,-0.00115 0.055156,-0.00548 0.06875,-0.00571 0.014131,-2.437e-4 0.025069,1.688e-4 0.04375,-0.00489 0.0274,-0.00741 0.035644,-0.011688 0.06875,-0.01935 0.069737,-0.01615 0.158975,-0.0422 0.225,-0.0686 C 5.0223187,4.3919687 5.0439625,4.3901687 5.0625,4.3812 5.083925,4.3708312 5.0954437,4.3579 5.11875,4.3453688 5.21905,4.2914437 5.3136063,4.2213187 5.4,4.1464 5.4286625,4.12155 5.4805,4.0609625 5.5036,4.0392125 5.5244938,4.0195437 5.536625,4.0154375 5.55,4 M 3.05,3.21875 C 3.0457,3.228831 3.04315,3.236881 3.033313,3.256281 c -0.02155,0.0425 -0.06045,0.1106187 -0.081381,0.1562187 -0.024113,0.052512 -0.043944,0.1080125 -0.06235,0.1625 -0.00648,0.019169 -0.015081,0.037225 -0.0212,0.05625 -0.017519,0.054481 -0.023275,0.1121313 -0.033444,0.175 -0.004,0.024681 -0.00792,0.040294 -0.00974,0.0625 -0.00214,0.025994 -1.938e-4,0.032144 -1.938e-4,0.0625 6.3e-6,0.068181 -0.00408,0.1447188 5.625e-4,0.2125 0.010706,0.1564125 0.054675,0.3195813 0.1201188,0.4625 0.1005625,0.2196375 0.2444312,0.41975 0.4355687,0.5708438 0.065944,0.052131 0.137375,0.099244 0.2125,0.1369499 0.017937,0.00901 0.051794,0.0295 0.064287,0.034869 0.0149,0.00641 0.020231,0.00544 0.035719,0.010825 0.023294,0.0081 0.073238,0.031338 0.099994,0.040263 0.050319,0.016787 0.10745,0.033444 0.1625,0.043225 0.02125,0.00378 0.051144,0.00611 0.054475,0.026444 0.00461,0.0281 -0.0215,0.059725 -0.033794,0.086581 -0.028844,0.062981 -0.052619,0.1332563 -0.072425,0.2 C 3.8504813,5.9383 3.829,6.1569688 3.8536,6.34375 3.865487,6.434062 3.877275,6.5245 3.900944,6.6125 3.907324,6.636188 3.917825,6.667438 3.909594,6.686312 3.904934,6.697062 3.898794,6.701687 3.887206,6.708249 3.8747125,6.71525 3.8657,6.7156875 3.8517875,6.7245 3.8357188,6.7346875 3.8285563,6.74425 3.8124063,6.756 3.7811,6.77875 3.7372563,6.8081875 3.70625,6.834 3.6475875,6.88275 3.5904688,6.935375 3.5411875,6.99375 3.5209,7.0178125 3.4905375,7.0594375 3.4721,7.081125 3.4496438,7.1075625 3.43585,7.1129375 3.41875,7.11875 M 3.59375,3.275 c 1.5e-4,0.054894 0.035019,0.1622313 0.073631,0.24375 0.02645,0.05585 0.058444,0.1109875 0.0993,0.1624938 0.019025,0.023981 0.032606,0.036531 0.058319,0.043756 0.00346,0.022425 0.011731,0.035744 0.031369,0.05625 0.066419,0.069356 0.1963999,0.1585125 0.2873812,0.1923188 0.018487,0.00687 0.026919,0.011931 0.043075,0.010063 0.018569,-0.00214 0.030712,-0.030225 0.045256,-0.045862 0.038281,-0.041162 0.099206,-0.0638 0.1554188,-0.062675 0.066287,0.00133 0.1431937,0.043544 0.1821312,0.0939 0.013894,0.017969 0.016681,0.038606 0.02945,0.051362 0.013256,0.013238 0.0266,0.00997 0.044669,0.00703 0.025844,-0.00421 0.072644,-0.016 0.1,-0.0238 C 4.8246313,3.9805 4.9125937,3.942225 4.9812438,3.8934813 5.003975,3.8773375 5.018075,3.8579063 5.0385625,3.8424938 5.0537625,3.8310625 5.0674,3.824225 5.08125,3.811825 5.1478125,3.7522188 5.208375,3.6575063 5.24375,3.61875 M 1.36875,3.3 C 1.35967,3.360606 1.298537,3.4308563 1.29375,3.475 m 0.6,-0.0375 c 0.017044,-0.024775 0.053975,-0.068913 0.1,-0.098381 0.019494,-0.012481 0.033194,-0.01545 0.05,-0.020369 m 3.09375,0.075 C 5.08805,3.432969 4.9994937,3.489031 4.925,3.53125 4.896525,3.547388 4.861356,3.553431 4.853506,3.581587 c -0.0063,0.0226 0.019256,0.0427 0.037612,0.062719 C 4.94695,3.705175 4.9981125,3.7911 5.03125,3.8375 M 7.74375,3.40625 C 7.745,3.4441625 7.7529375,3.4511313 7.7875,3.4375 M 7.74375,3.44375 C 7.6956875,3.5080062 7.6723125,3.5911438 7.6160625,3.68125 7.564,3.7646813 7.4928125,3.8494938 7.425,3.91875 7.403125,3.941119 7.393625,3.960531 7.373375,3.978569 7.358125,3.992156 7.344375,3.994757 7.33125,4.002938 7.317688,4.011418 7.301812,4.025057 7.2875,4.036032 7.204625,4.099507 7.1135,4.1529383 7.01875,4.1956633 c -0.027062,0.012194 -0.062125,0.024406 -0.067563,0.048362 -0.0035,0.015631 7.5e-4,0.026925 0.00513,0.043475 C 6.967875,4.3311625 6.98675,4.3828 7.005375,4.425 7.0873125,4.6102812 7.22675,4.7762375 7.4,4.8824312 c 0.047625,0.029206 0.098562,0.056037 0.15,0.076625 0.029,0.011606 0.063063,0.025375 0.09375,0.032031 0.026562,0.00576 0.0345,0.00956 0.045937,-0.00166 C 7.701125,4.9782688 7.684625,4.9515875 7.6685,4.93825 7.64725,4.9207125 7.6145625,4.8952812 7.59375,4.8749063 7.5485,4.8305438 7.507125,4.7797375 7.4750625,4.725 7.3900625,4.579825 7.3604375,4.4251687 7.3625,4.25625 7.3630625,4.2121313 7.374125,4.2100875 7.385125,4.175 7.3901875,4.1586812 7.3895,4.1407125 7.3893125,4.13125 7.38875,4.0993563 7.385625,4.0394875 7.3805,4.00725 7.3791875,3.999125 7.3766875,3.9930063 7.375,3.9875 M 4.15,3.45 C 4.1087062,3.4839313 4.008425,3.5301688 3.95,3.5823375 3.8971875,3.6294938 3.85395,3.6910563 3.825,3.725 m 1.95,-0.23125 -0.0125,0.0125 m 0.05,0.00625 C 5.794087,3.530912 5.799931,3.525069 5.78125,3.54375 M 4.75,3.51875 c 0.033256,0.040431 0.0529,0.053569 0.09375,0.0625 M 9.28125,3.525 c 0.025438,0.031538 0.062437,0.077881 0.098812,0.13125 0.061125,0.089787 0.111,0.186775 0.1511875,0.2875 0.115625,0.2899125 0.135125,0.650075 0.041625,0.95 C 9.4844375,5.1773562 9.316125,5.4284375 9.0875,5.6241813 9.0075,5.6926937 8.918125,5.752225 8.825,5.8013688 c -0.025875,0.01365 -0.068875,0.031512 -0.071813,0.05515 -0.00206,0.016375 0.00531,0.028538 0.014375,0.043481 0.0275,0.045419 0.061063,0.096244 0.08675,0.14375 0.070437,0.1302563 0.11325,0.2680625 0.1406875,0.4125 0.00794,0.041938 0.01175,0.068313 0.019625,0.09375 0.0025,0.00819 0.00531,0.027 0.013562,0.040687 0.01875,0.031062 0.034438,0.020188 0.055625,0.065563 0.02875,0.061625 0.053875,0.1243125 0.0745,0.1875 0.109125,0.3348125 0.086938,0.7295 -0.06025,1.05 C 8.9665,8.180375 8.74875,8.4245625 8.48125,8.5910625 8.374625,8.6575 8.2549375,8.710875 8.1375,8.75 8.057,8.7768125 7.973625,8.798125 7.8875,8.8108125 7.677,8.8418125 7.45425,8.829375 7.25,8.77825 7.1995,8.7656875 7.11725,8.74525 7.075,8.7224375 7.05575,8.712 7.047375,8.7025625 7.0375,8.69375 7.0479375,8.684375 7.057625,8.6749375 7.08125,8.6608125 7.1180625,8.638875 7.1856875,8.6021875 7.225,8.577625 7.3243125,8.5156875 7.4270625,8.4388125 7.5035625,8.35 7.5251875,8.3249375 7.5488125,8.2823125 7.5594375,8.2719375 7.577375,8.2545 7.586,8.2584375 7.6125,8.2545625 7.6435,8.25 7.6925,8.243875 7.725,8.2375 7.8026875,8.2223125 7.890125,8.201125 7.9625,8.1746875 8.0475,8.143625 8.138875,8.1034375 8.21875,8.058 8.3669375,7.97375 8.49875,7.866 8.612625,7.74375 8.798875,7.543875 8.9255625,7.3029375 8.9853125,7.0375 9.00425,6.953375 9.0134375,6.866875 9.0193125,6.78125 9.025125,6.6964375 9.01875,6.6583125 9.01875,6.60625 M 2.8125,3.85625 C 2.8017,3.85261 2.792631,3.85011 2.774969,3.837131 2.7557,3.822981 2.726969,3.797762 2.70625,3.781275 2.657413,3.742412 2.60225,3.706363 2.5500063,3.6730063 c -0.023194,-0.014813 -0.045975,-0.025888 -0.043525,-0.0472 0.00234,-0.020325 0.026337,-0.023219 0.049769,-0.025269 0.030644,-0.00267 0.068406,-0.00838 0.1,-0.00623 0.069838,0.00476 0.1564688,0.024294 0.2,0.030694 M 2.475,3.61875 H 2.5 m 4.00625,0 C 6.506125,3.6750313 6.475,3.7880375 6.475,3.85 M 9.15,3.65 C 9.15406,3.69645 9.180563,3.744888 9.199062,3.8125 9.22475,3.9064563 9.24275,4.002625 9.2494375,4.1 9.2608125,4.2657438 9.228375,4.4369937 9.175,4.59375 9.1619375,4.6320687 9.14725,4.659175 9.12975,4.69375 9.1010625,4.7502437 9.0759375,4.804 9.043375,4.85625 8.935375,5.0293063 8.76625,5.1950437 8.5875,5.298225 8.512375,5.341575 8.429875,5.3785625 8.35,5.409875 8.329313,5.417995 8.314125,5.419445 8.309125,5.438312 8.304755,5.454868 8.322062,5.468468 8.3315,5.475624 8.352937,5.491849 8.388375,5.514987 8.4125,5.531249 8.4975,5.588593 8.5740625,5.6615177 8.6426875,5.737499 8.685625,5.7850688 8.696125,5.82795 8.75,5.84375 M 7.96875,4.1125 C 7.906875,4.1591687 7.835875,4.1016563 7.8319375,4.03125 7.82775,3.9562688 7.8954375,3.8835437 7.9625,3.8596813 c 0.025437,-0.00906 0.04875,-0.00965 0.075,-0.00968 0.117125,-1.437e-4 0.228625,0.080506 0.268625,0.19375 0.0175,0.049394 0.026625,0.1015 0.019687,0.15625 -0.00469,0.036525 -0.022,0.084825 -0.03025,0.11875 -0.0095,0.039056 0.00525,0.037431 0.029437,0.0625 C 8.41125,4.318525 8.54025,4.213525 8.6125,4.175 M 3.30625,3.85625 C 3.268663,3.921444 3.276537,4.10055 3.30265,4.21875 3.30879,4.246537 3.3079,4.261281 3.326894,4.275887 3.343269,4.288475 3.37165,4.287112 3.39375,4.290156 c 0.051613,0.00711 0.098119,0.011638 0.15,0.00441 C 3.569656,4.290956 3.6175,4.282191 3.637344,4.274316 3.65445,4.2675312 3.6604813,4.2618812 3.66875,4.25625 M 2.69375,4.5125 C 2.6806188,4.5074375 2.6671,4.5049063 2.6375,4.4897438 2.5990563,4.47005 2.5248563,4.43065 2.48125,4.412575 2.3957938,4.3771437 2.2914063,4.3477125 2.2,4.344 2.1761813,4.3430312 2.16565,4.3457125 2.14375,4.3428312 2.1236687,4.3401937 2.1111875,4.33775 2.09375,4.337525 2.0691125,4.3372 1.9879438,4.3405937 1.9625,4.3438688 1.9331813,4.34765 1.9220375,4.363625 1.89375,4.3678312 1.8621125,4.3725313 1.8492812,4.3699813 1.8125,4.36515 1.7410187,4.3557687 1.6520375,4.3566 1.58125,4.3728187 1.4999,4.3914625 1.4221125,4.4254375 1.35625,4.4778125 1.2661375,4.5494687 1.2008313,4.6478 1.1647187,4.75625 1.1462437,4.8117188 1.14375,4.8671 1.14375,4.925 c 0,0.035938 6.875e-4,0.050094 -1.187e-4,0.068725 -2.438e-4,0.00553 6.25e-5,0.01725 -0.00603,0.029487 -0.013069,0.026256 -0.022125,0.029406 -0.030375,0.058038 -0.0137,0.04755 -0.032137,0.1447312 -0.032225,0.2 -2e-4,0.1259 0.020194,0.2313375 0.051525,0.35 0.00572,0.021669 0.00666,0.054094 -0.00376,0.058075 -0.023404,0.00893 -0.03191,-0.00359 -0.060266,-0.023319 C 0.90701875,5.5578625 0.78714375,5.3859938 0.72721875,5.20625 0.68801875,5.0886625 0.67341875,4.9600438 0.6818125,4.8375 0.699375,4.5809875 0.83155,4.3201188 1.025,4.1518062 1.1692625,4.0262937 1.3787187,3.9154813 1.575,3.9064938 c 0.023956,-0.00109 0.040863,-0.00216 0.0625,-0.00471 0.017644,-0.00209 0.031238,-0.00178 0.05,-0.00179 0.030625,-1.25e-5 0.045175,-0.00177 0.075,0.00106 0.028331,0.00269 0.04055,0.00483 0.06875,0.00521 0.079037,0.00107 0.162575,0.0227 0.2375,0.047894 0.2414188,0.081187 0.4574688,0.2431999 0.595675,0.4583312 0.0153,0.023819 0.023862,0.04035 0.028694,0.05625 0.00285,0.00938 0.00261,0.022619 0.014,0.04375 0.020575,0.038169 0.032831,0.035331 0.052706,0.08125 0.054731,0.1264437 0.072588,0.2659812 0.088394,0.4 0.00354,0.03005 0.00113,0.047394 8.187e-4,0.075 -1.875e-4,0.01685 -0.00153,0.026581 -0.00351,0.04375 -0.00916,0.079487 -0.024344,0.1941437 -0.046481,0.275 -0.00813,0.0297 -0.0246,0.072762 -0.031825,0.1 -0.00604,0.022794 -0.0076,0.036319 -0.010975,0.05 l 0.05,0.00121 0.1,-0.027113 L 3.11875,5.421425 3.181075,5.3946437 3.1848438,5.3375 3.16875,5.225 M 4.2,3.9875 c 0.00932,0.00623 0.017825,0.013069 0.037531,0.019225 0.05365,0.016769 0.1571313,0.034081 0.2187188,0.036781 0.025894,0.00113 0.0639,0.00106 0.0875,-0.00244 0.025831,-0.00382 0.037406,-0.00924 0.05,-0.016069 m 0.95,-0.0125 0.012637,0.043762 L 5.5625,4.14375 5.55265,4.3375 5.5393062,4.4249875 5.5375,4.46875 m 1.85,-0.2875 c 0.01025,0.00892 0.021375,0.015506 0.033062,0.037756 0.00988,0.018737 0.029063,0.065175 0.042,0.087244 C 7.4976875,4.3662062 7.5445,4.421075 7.6,4.463125 7.7348125,4.5652187 7.9109375,4.5914437 8.06875,4.530844 8.111313,4.514506 8.1699375,4.470544 8.2,4.446556 8.215875,4.433881 8.249563,4.412856 8.263438,4.392662 8.276625,4.373393 8.281438,4.354156 8.2875,4.343749 M 6.01875,4.25625 c 0.018325,0.00184 0.034088,0.00284 0.0625,0.00709 0.037675,0.00564 0.085163,0.019025 0.125,0.027763 0.070563,0.015481 0.146625,0.026763 0.21875,0.027625 0.026187,3.125e-4 0.045562,0.00108 0.06875,9.625e-4 0.017313,-8.13e-5 0.02675,-0.00121 0.04375,-0.00357 C 6.613875,4.30555 6.7216875,4.292075 6.8,4.2735313 c 0.028313,-0.00669 0.067687,-0.020456 0.09375,-0.026638 0.019875,-0.0047 0.034063,-0.00639 0.05,-0.00939 m -3.6125,0.05625 c 7.438e-4,0.034863 0.011369,0.072513 0.036131,0.125 0.045119,0.095656 0.1195563,0.2268625 0.1952126,0.299725 0.020081,0.019344 0.035837,0.024256 0.054537,0.040869 0.020869,0.018538 0.030556,0.040044 0.057875,0.060975 C 3.7642375,4.8886875 3.86705,4.941525 3.975,4.9723312 c 0.05885,0.016787 0.1818125,0.040125 0.2375,0.040119 0.032887,0 0.042944,6.88e-5 0.067919,-0.013131 0.021319,-0.011256 0.0308,-0.039238 0.05735,-0.061069 C 4.4345375,4.858675 4.5347625,4.7642687 4.6116875,4.6625 4.6569063,4.6026875 4.6926563,4.5388812 4.70625,4.5 m 1.7875,-0.175 c 0.00237,0.054663 0.042937,0.173375 0.071562,0.24375 0.01125,0.027581 0.02775,0.06035 0.038812,0.0875 0.010063,0.024906 0.00794,0.041006 0.020437,0.061944 C 6.6394375,4.743 6.651,4.7465 6.66875,4.775025 6.74225,4.89325 6.8459375,5.0212938 6.95,5.1181937 c 0.05125,0.047713 0.139125,0.1112375 0.193625,0.1479938 0.028875,0.019425 0.023062,0.031675 0.05175,0.048281 0.055187,0.031956 0.052062,0.0153 0.098375,0.034756 0.063562,0.026713 0.143875,0.060625 0.2125,0.081863 0.048688,0.015081 0.127375,0.031781 0.175,0.041288 0.017187,0.00343 0.028437,0.00331 0.04,0.017106 0.012375,0.014825 0.00987,0.033187 0.01,0.048019 1.875e-4,0.023525 0.00587,0.096919 0.00625,0.125 3.125e-4,0.02775 -0.00744,0.047381 0.00644,0.064981 0.00838,0.010669 0.025687,0.0106 0.037312,0.012888 0.029562,0.00582 0.081875,0.019844 0.1125,0.030538 0.102625,0.035825 0.20275,0.09305 0.2875,0.161975 0.135123,0.1098737 0.2444355,0.254505 0.3074355,0.4171175 0.019875,0.05125 0.03425,0.1025 0.045063,0.15625 0.00363,0.018063 0.010313,0.052938 0.012563,0.06875 0.00362,0.026187 -0.00169,0.036437 -0.00881,0.05 L 8.496375,6.5985625 8.43125,6.5365 8.25625,6.4089375 8.05,6.3209375 7.99375,6.3080625 7.94375,6.3125 c 0.004,0.011687 0.00619,0.022938 0.018625,0.04375 0.010625,0.01775 0.034813,0.048563 0.048,0.06875 0.03175,0.048875 0.055687,0.1003125 0.068188,0.15625 0.014125,0.063 0.016,0.1555625 0.01,0.21875 -0.00219,0.023062 -0.00506,0.037125 0.00537,0.054625 0.00913,0.015312 0.033375,0.029562 0.049813,0.0455 0.06075,0.058813 0.114375,0.142 0.1365,0.224875 C 8.293808,7.175813 8.303371,7.2564375 8.300808,7.30625 8.299368,7.334875 8.303438,7.346312 8.300183,7.375 8.296933,7.404125 8.284683,7.419437 8.264871,7.44375 8.209,7.5123125 8.1138125,7.581125 8.0375,7.62925 8.0080625,7.6478125 7.961,7.6758125 7.93125,7.68825 7.9070625,7.698375 7.894625,7.6988125 7.88125,7.7 7.881375,7.6879375 7.88075,7.6768125 7.884,7.65625 7.8885,7.6275 7.90075,7.570875 7.9054375,7.5375 7.918375,7.445625 7.9286875,7.35575 7.9198125,7.2625 7.916125,7.2240625 7.931375,7.1976875 7.9030625,7.1825625 7.8893125,7.17525 7.8713125,7.1863125 7.8625,7.191625 7.846,7.2016875 7.8244375,7.2193125 7.80625,7.2309375 7.7570625,7.26225 7.705125,7.287625 7.65,7.30625 7.608812,7.320125 7.561312,7.329937 7.51875,7.33575 7.497687,7.33863 7.483063,7.34256 7.4625,7.34256 7.439,7.34256 7.42675,7.33819 7.4,7.33744 7.279875,7.333875 7.1555625,7.2876875 7.05625,7.22175 7.0169375,7.1956875 6.9854375,7.1673125 6.9499375,7.137 6.8939375,7.08925 6.8824375,7.0656875 6.85625,7.025 6.9035,6.9861875 7.0104375,6.9373125 7.08125,6.8881875 7.115875,6.86425 7.1545,6.8336875 7.1875,6.809 7.203875,6.79675 7.2259375,6.7880625 7.2398125,6.776 7.2556875,6.762125 7.2595625,6.7490625 7.275625,6.73125 7.3368125,6.663625 7.4115625,6.58875 7.4660625,6.5125 c 0.061562,-0.086125 0.1185,-0.192 0.159,-0.2875 0.00887,-0.020869 0.016437,-0.0305 0.0245,-0.05 0.0075,-0.018119 0.00856,-0.035644 0.013937,-0.05625 0.02,-0.076988 0.043188,-0.1636 0.054437,-0.24375 0.004,-0.028619 0.00537,-0.058763 0.00813,-0.0875 0.00219,-0.022931 0.00456,-0.036131 0.00519,-0.05 M 3.7875,4.33125 C 3.7874063,4.342706 3.7876875,4.353525 3.78485,4.375013 3.78199,4.396663 3.77983,4.432619 3.77676,4.45625 3.76862,4.518938 3.754429,4.5968375 3.739835,4.65625 3.734465,4.678125 3.735655,4.693881 3.724916,4.711669 3.7134813,4.7306 3.6956563,4.7341375 3.675,4.738725 3.6462375,4.7451188 3.634275,4.7511063 3.625,4.75625 M 2.15,4.35 c 0.00321,0.031331 0.043513,0.095288 0.062937,0.14375 0.015019,0.037456 0.00511,0.035306 0.018119,0.06875 0.00628,0.016144 0.044831,0.063338 0.054275,0.08125 0.0197,0.037381 0.014387,0.049425 0.027169,0.075 C 2.329606,4.700881 2.329544,4.701706 2.34375,4.68125 L 2.30625,4.6625 M 1.91875,4.375 c 0.00743,0.00917 0.013375,0.017681 0.031369,0.02685 0.015875,0.00809 0.044362,0.018631 0.062381,0.028056 0.041875,0.021894 0.1181063,0.0799 0.15,0.1010938 0.030719,0.020406 0.043169,0.022231 0.0625,0.02525 m 6.04375,-0.1625 0.05,-0.0125 m -3.25,0.0125 c -0.00978,0.039675 -0.032006,0.112125 -0.067956,0.175 C 4.947525,4.6619125 4.8753625,4.7417688 4.79375,4.81065 4.7022437,4.8878813 4.5886437,4.9423813 4.475,4.975 4.440025,4.9850375 4.3756313,4.9991125 4.3437625,5.0025187 4.3164312,5.0054375 4.3097687,4.9987625 4.3,4.99375 M 8.71875,4.43125 C 8.7175,4.4598437 8.714625,4.4881937 8.7025,4.525 8.692375,4.5559 8.665125,4.596375 8.6458125,4.625 8.5968125,4.6977437 8.5370625,4.7647375 8.46875,4.8199688 8.3754375,4.8954063 8.2645625,4.9561437 8.15,4.9900625 8.054,5.0184687 7.9329375,5.0286938 7.8375,5.0250687 7.785375,5.0230875 7.7474375,5.0113 7.7,4.98125 m -3.65625,-0.4 C 3.9906375,4.6192875 3.9352125,4.6528312 3.875,4.6785812 3.81765,4.7031062 3.7674438,4.7147813 3.7375,4.725 M 2.34375,4.68125 c 0.092569,0.1004937 0.1858438,0.1985125 0.3,0.2749938 0.074281,0.049762 0.1327438,0.096137 0.2,0.1062562 M 6.45,6.4 C 6.46575,6.3704375 6.4680625,6.312625 6.4606875,6.25 6.4585,6.2309562 6.452625,6.2127188 6.4626875,6.1944062 6.47725,6.1678875 6.5038125,6.1631 6.53125,6.1456562 6.5824375,6.1131063 6.626625,6.0751 6.6685,6.03125 6.7065,5.9914375 6.7624375,5.8914312 6.779375,5.8500125 6.7888125,5.8268875 6.79725,5.817425 6.80625,5.80625 6.8385,5.833994 6.858375,5.88865 6.880437,5.975 c 0.005,0.019369 0.011375,0.035631 0.0185,0.05625 0.00775,0.022731 0.00669,0.03225 0.00738,0.05625 0.00188,0.063444 0.018687,0.1638125 0.018687,0.23125 0,0.032563 0.00256,0.07 -0.00131,0.0875 C 6.918944,6.428063 6.914634,6.4335 6.893444,6.452438 6.8065,6.529625 6.6741875,6.5994375 6.5625,6.6375 6.5323125,6.64775 6.48575,6.66325 6.45625,6.6686875 6.4424375,6.67125 6.433,6.67525 6.4225625,6.668 6.4101875,6.6594375 6.415375,6.6368125 6.418125,6.625 6.4261875,6.5900625 6.4456875,6.5119375 6.4508125,6.475 6.455125,6.444125 6.46375,6.430625 6.4498125,6.4079375 6.439375,6.390875 6.417875,6.38325 6.40625,6.373625 6.3870625,6.35775 6.339,6.3163125 6.3188125,6.2981875 c -0.016,-0.014375 -0.032875,-0.0385 -0.050625,-0.048 C 6.2445563,6.2374938 6.2380938,6.24375 6.20625,6.24375 6.16765,6.24375 6.0993938,6.2356812 6.0625,6.2297125 6.0413813,6.2262937 6.0193937,6.2266313 6,6.2194125 5.9851,6.2138625 5.9746,6.207225 5.9625,6.2022375 5.9434937,6.1944 5.9142562,6.183375 5.89375,6.1733812 5.7838563,6.119825 5.6825812,6.027625 5.6175625,5.925 5.603825,5.9033125 5.5905,5.8885813 5.5784313,5.86875 5.5689125,5.8531062 5.5675312,5.8415813 5.5619437,5.825 5.5531875,5.7989938 5.5360625,5.7590688 5.52715,5.73125 5.501325,5.65065 5.4935875,5.5508375 5.49375,5.46875 5.4938,5.44325 5.49566,5.4313 5.50181,5.40985 5.50724,5.390925 5.50518,5.37835 5.50681,5.35625 5.5124,5.280581 5.556791,5.1853188 5.594685,5.11875 5.617616,5.078469 5.654991,5.020369 5.685091,4.9883313 5.697903,4.9746933 5.714553,4.9678503 5.72816,4.9536623 5.743266,4.9379063 5.746223,4.9243563 5.763173,4.9073183 5.820479,4.8497243 5.9168917,4.794462 5.993748,4.7625745 c 0.1307875,-0.054269 0.2590625,-0.068881 0.4,-0.068825 0.043188,1.87e-5 0.149125,0.018356 0.18125,0.024975 0.02125,0.00439 0.028313,0.00509 0.0375,0.00627 m -4.3,-0.00625 c 0.015731,0.054625 0.041362,0.1016062 0.053594,0.15625 0.03535,0.1579687 0.0229,0.324025 -0.040231,0.475 -0.014869,0.035556 -0.02995,0.040769 -0.044713,0.064119 -0.014519,0.022963 -0.010069,0.039137 -0.027369,0.067131 -0.064569,0.1044812 -0.182375,0.2009437 -0.2912813,0.2597563 -0.044537,0.02405 -0.067762,0.016819 -0.098937,0.030856 -0.026475,0.011925 -0.034725,0.024513 -0.069813,0.034312 -0.044944,0.012556 -0.1564062,0.028481 -0.2,0.030738 -0.022544,0.00117 -0.033169,-0.00524 -0.05625,-0.00801 -0.024244,-0.0029 -0.035356,0.00152 -0.0625,-0.00222 -0.018206,-0.00251 -0.038375,-0.00548 -0.05625,-0.00926 C 1.371225,5.8073875 1.2848,5.793175 1.2514875,5.7643625 1.2271625,5.7433245 1.2543675,5.6893125 1.2703625,5.65625 1.3040875,5.586556 1.3429125,5.5189563 1.38845,5.45625 1.409763,5.4269 1.443394,5.402819 1.441206,5.369094 1.440016,5.350707 1.420569,5.342757 1.406237,5.335669 1.3679688,5.316725 1.325525,5.292525 1.29375,5.26225 1.2570375,5.2272625 1.2248938,5.1890062 1.2016187,5.14375 1.1903875,5.1219 1.1772062,5.0877062 1.1684375,5.0687813 1.1577875,5.0458 1.1507687,5.0399437 1.14375,5.03125 M 1.625,4.9875 C 1.5633,4.9554438 1.579175,4.8736375 1.6313437,4.8339375 1.724775,4.7628437 1.8709125,4.8492562 1.9095312,4.94375 c 0.014263,0.034906 0.022706,0.075544 0.021069,0.1125 -0.00608,0.1369375 -0.1040938,0.260475 -0.23685,0.3014125 -0.029181,0.009 -0.070631,0.016438 -0.1,0.01725 -0.019688,5.437e-4 -0.030375,0.00193 -0.05,-3.12e-5 C 1.5265063,5.3731563 1.5161875,5.3693188 1.5,5.3663625 1.479775,5.3626688 1.4626187,5.3626063 1.45,5.3625 M 5.73125,4.95625 c 0.012112,0.00698 0.023231,0.01335 0.05,0.018219 0.0776,0.014125 0.1986375,0.046575 0.275,0.076806 0.040906,0.016194 0.087,0.036219 0.124975,0.056612 0.025094,0.013481 0.035781,0.036119 0.053119,0.044594 0.023219,0.011356 0.042156,0.00377 0.071906,0.00377 0.097,0 0.2015625,0.016556 0.2875,0.075181 0.053937,0.0368 0.097937,0.08315 0.13425,0.1373188 0.038,0.056631 0.044688,0.099756 0.072,0.14375 C 6.855,5.4759258 6.960625,5.4106445 7.04375,5.375007 7.071625,5.363038 7.118687,5.345113 7.14375,5.335107 7.1655,5.3264 7.1723125,5.3193375 7.18125,5.3125 M 6.225,5.15625 C 6.1890062,5.1837938 6.1298375,5.1916875 6.062525,5.2565 5.999,5.3176687 5.9541563,5.4038313 5.949375,5.4875 5.9481,5.5098313 5.94995,5.5306375 5.95505,5.55625 5.9673,5.617775 5.99585,5.6868188 6.0438438,5.7300938 6.0992437,5.7800375 6.1795688,5.801875 6.25,5.779 6.304125,5.7614188 6.3620625,5.7180062 6.365,5.65625 6.3674375,5.6058625 6.3315625,5.5527 6.275,5.56875 M 4.31875,6.275 c 0,0.042062 0.010413,0.1396875 0.025744,0.20625 0.00457,0.019875 0.00156,0.036875 0.017112,0.049812 0.013187,0.011 0.056306,0.00656 0.069644,0.00644 0.021831,-3.125e-4 0.067506,-0.00619 0.09375,-0.00625 0.100475,-1.875e-4 0.2271062,0.00812 0.325,0.0275 0.026606,0.00525 0.042613,0.016563 0.055494,-0.00113 C 4.9138125,6.5461875 4.9014,6.5215 4.8961875,6.5125 4.8853312,6.49375 4.8028563,6.3676875 4.791725,6.35 4.7806937,6.3324375 4.7726375,6.318 4.749975,6.309 4.7322875,6.3019375 4.7094125,6.3015 4.6875,6.2960625 4.6120625,6.277375 4.5357,6.26875 4.45625,6.26875 4.42955,6.26875 4.386625,6.2678125 4.3625,6.2705 4.3507687,6.2718125 4.3296625,6.27825 4.318925,6.2649375 4.3068062,6.2499437 4.3125125,6.2343187 4.3125,6.2125 4.3124687,6.1476437 4.3167,6.0648625 4.3267188,6 4.353575,5.826025 4.4328938,5.6532875 4.5249062,5.50625 4.5432875,5.476875 4.5382312,5.4680437 4.5553312,5.4461875 4.5699625,5.4274937 4.5950625,5.4205062 4.625,5.4104188 4.7169875,5.3794312 4.8081437,5.3417687 4.89375,5.2951937 4.9233063,5.2791125 4.9742,5.2444375 5,5.2299062 5.0236562,5.2165875 5.0362812,5.2154562 5.05,5.2125 M 2.00625,5.4 C 1.9827687,5.3847687 1.974575,5.3740875 1.9753688,5.34375 1.9772875,5.2699 2.0507813,5.2412375 2.1125,5.2520562 c 0.059706,0.010463 0.120675,0.071188 0.1426813,0.1166625 0.00944,0.0195 0.013894,0.028025 0.019819,0.037531 M 7.23125,5.3375 C 7.2313125,5.34572 7.22969,5.3512 7.23313,5.375031 7.2366875,5.3996 7.2485,5.446875 7.253625,5.475 7.2670625,5.5496188 7.28225,5.6372375 7.272375,5.7125 7.2685,5.741775 7.2655625,5.7723 7.2620625,5.79375 7.2585,5.8154437 7.2579375,5.8282188 7.25525,5.85 7.2504375,5.8891562 7.2403125,5.926625 7.229125,5.9625 7.2236875,5.9799875 7.2200625,5.9959 7.21275,6.0124687 7.2048125,6.0303187 7.19575,6.03995 7.1875,6.05 7.1575,6.032425 7.0949375,6.0055437 7.0375,5.9801625 7.023375,5.9739125 7.014625,5.9677563 7,5.9668687 6.9778125,5.965525 6.96575,5.9802625 6.95,5.9933437 6.92975,6.0101563 6.9170625,6.0150687 6.90625,6.01875 m -3.25,-0.6625 c 0,0.057075 0.00192,0.1546125 -0.00578,0.2375 -0.014344,0.1542938 -0.053194,0.3233875 -0.1039751,0.46875 -0.013644,0.039056 -0.021187,0.045906 -0.010912,0.072538 0.00422,0.010956 0.037469,0.026831 0.055425,0.046556 0.025812,0.028344 0.057919,0.072531 0.07965,0.1059063 0.054037,0.082938 0.098162,0.1695 0.1312687,0.2625 0.018175,0.051063 0.039981,0.1201875 0.041825,0.1625 m -2.3,-1.33125 c 3.063e-4,0.0371 0.00558,0.065481 0.025075,0.1125 0.017894,0.043162 0.046406,0.089506 0.075675,0.125 0.011719,0.014212 0.02025,0.028525 0.033344,0.042037 0.012681,0.013088 0.026725,0.0191 0.040906,0.027988 0.07165,0.044919 0.1149188,0.06035 0.1375,0.079975 m 1.3375,-0.3625 c 0,0.082019 -0.00492,0.1851063 -0.023775,0.28125 C 3.1576813,5.750175 3.1487438,5.7957312 3.125,5.83125 m 2.3875,-0.4125 c 0.040212,0 0.1137938,-0.00386 0.19375,0.00899 0.081394,0.013081 0.1748188,0.052906 0.2375,0.066013 m 1.7875,-0.0125 0.05,0.00622 L 7.95,5.488563 8.16875,5.461182 8.24375,5.445469 8.3,5.4375 m -4.28125,0.025 c 0.063625,0 0.2562437,0.010919 0.35625,-3.125e-4 C 4.407312,5.4585575 4.471831,5.4462565 4.5,5.4443065 4.52605,5.4425125 4.5375312,5.44375 4.55,5.44375 M 6.8,5.5125 c 1.25e-4,0.039081 0.00906,0.173225 0.0065,0.23125 -0.00119,0.027487 -2.5e-4,0.042156 -2.5e-4,0.0625 M 2.75625,5.5375 C 2.74656,5.549294 2.737506,5.560613 2.726631,5.581263 2.7036063,5.6249688 2.6604313,5.7113313 2.65,5.7375 M 5.03125,5.64375 c 0.00549,0.010144 0.010606,0.019169 0.015069,0.043763 0.00773,0.042656 0.021763,0.1131875 0.035094,0.1562375 0.015081,0.048725 0.033706,0.1012625 0.052512,0.15 0.01165,0.030194 0.033706,0.073756 0.048463,0.099975 0.011963,0.02125 0.019156,0.026456 0.033944,0.045562 0.011719,0.015131 0.0157,0.030487 0.020925,0.041963 0.00701,0.015381 0.019737,0.033425 0.0315,0.05 0.040975,0.05775 0.099775,0.121375 0.1499938,0.1685 0.019456,0.01825 0.035737,0.023437 0.054631,0.03725 0.020094,0.014625 0.028581,0.033313 0.05165,0.051125 0.073356,0.05675 0.1694125,0.1049375 0.2562187,0.139375 0.036219,0.014375 0.072387,0.036937 0.1054187,0.029187 C 5.9024688,6.653 5.926,6.6046875 5.93925,6.58125 5.9594687,6.5454375 5.9742437,6.5088125 5.9845125,6.46875 6.0089062,6.3735625 6,6.28575 6,6.225 M 1.675,5.66875 C 1.6207812,5.7229625 1.5565188,5.771875 1.54375,5.825 M 1.13125,5.69375 c 0.038787,0.038431 0.038212,0.047881 0.1,0.05625 m 5.775,0.2125 C 7.0173125,5.908175 7.07875,5.8799687 7.1375,5.8441375 7.158125,5.8315562 7.1921875,5.8135625 7.2125,5.8059438 7.23025,5.7992812 7.243,5.7972125 7.25625,5.79375 M 5.575,5.86875 C 5.56065,5.87641 5.548144,5.879706 5.525,5.881787 5.475875,5.8862 5.3987375,5.9169 5.35625,5.9485063 5.3257625,5.9711813 5.3017875,5.9947938 5.281925,6.025 5.251637,6.071062 5.253269,6.089087 5.234262,6.124006 L 5.225,6.1375 M 7.1875,6.05625 C 7.172625,6.102806 7.11525,6.2126 7.0611875,6.28125 7.0408125,6.307062 7.0088125,6.347062 6.9869375,6.368062 6.9645625,6.389625 6.950625,6.3935 6.9375,6.4 M 2.6125,6.9125 C 2.5576063,6.936375 2.513525,6.883125 2.5126188,6.83125 2.5118313,6.785875 2.5371188,6.73975 2.5750938,6.7128125 2.6636063,6.6500625 2.7779563,6.67 2.85625,6.738625 2.876519,6.756437 2.900744,6.77675 2.912594,6.795563 c 0.0081,0.012812 0.00959,0.023375 0.0144,0.035687 0.00786,0.020125 0.022925,0.0745 0.026581,0.1 0.00476,0.03325 0.00449,0.060812 -2.25e-4,0.0875 C 2.94919,7.042313 2.94536,7.0565 2.938044,7.08125 2.9030688,7.1995 2.782675,7.290125 2.66875,7.32475 2.6236625,7.3384375 2.578725,7.3448125 2.53125,7.3436875 2.5087563,7.343125 2.4753375,7.3355 2.45625,7.333125 2.44175,7.3313125 2.4308875,7.3336875 2.4125,7.327 2.3838688,7.316625 2.3531,7.2989375 2.325,7.2833125 2.2356938,7.233875 2.1537938,7.13625 2.112475,7.04375 2.0986188,7.01275 2.0877938,7.0088125 2.079175,6.98125 2.0721375,6.9586875 2.0756313,6.939375 2.072275,6.91875 2.0663563,6.882375 2.06395,6.7444375 2.0708938,6.712625 2.0804063,6.6690625 2.1103375,6.675875 2.15,6.66925 2.2328375,6.6554375 2.314375,6.6355 2.39375,6.60375 2.5078375,6.558125 2.615525,6.5 2.7125,6.4236875 2.762106,6.3846245 2.8188,6.3299375 2.8625,6.287625 2.880513,6.270125 2.892513,6.26475 2.908825,6.248938 2.921275,6.236869 2.925419,6.218069 2.932869,6.206244 2.9645,6.1560687 3.0014,6.1070063 3.025,6.0875 M 0.9,6.13125 c 0.002887,0.01245 0.003188,0.025163 0.017525,0.05 0.0093,0.016106 0.0306,0.04095 0.0452187,0.05625 0.040675,0.042562 0.12365,0.11725 0.161425,0.1536875 C 1.1421,6.4085 1.1570625,6.432 1.1631937,6.45625 c 0.00909,0.035938 0.00338,0.060437 -0.00333,0.10625 -0.00893,0.061 -0.017075,0.07425 -0.021225,0.11875 -0.00279,0.029875 0.00504,0.04325 0.00511,0.075 1.875e-4,0.098688 0.00162,0.2378125 0.021556,0.3375 0.046856,0.2343125 0.153625,0.4645625 0.3039437,0.65 0.0305,0.037625 0.040694,0.052125 0.051544,0.0875 0.00937,0.0305 0.00146,0.037187 0.00711,0.06875 0.00833,0.046562 0.036506,0.122625 0.054613,0.16875 0.024906,0.063438 0.051137,0.12225 0.081594,0.18125 0.01775,0.034375 0.040775,0.071875 0.062087,0.10625 0.085975,0.1386875 0.19975,0.2625625 0.3238,0.3679375 0.1116,0.09475 0.257375,0.179375 0.3875,0.2391875 0.039563,0.018188 0.036494,0.032375 0.069313,0.045375 0.013919,0.0055 0.035012,0.00525 0.043187,0.00644 0.027044,0.00369 0.044544,0.00731 0.0875,0.018375 0.146925,0.03775 0.3161938,0.076375 0.46875,0.058375 0.036669,-0.00431 0.090419,-0.00744 0.125,-0.0125 0.021881,-0.00312 0.034775,-0.010187 0.05625,-0.00931 0.017344,6.875e-4 0.031487,0.00744 0.04375,0.0155 C 3.3554313,9.1015625 3.3932375,9.1375 3.41875,9.157 3.4886063,9.21025 3.561175,9.256625 3.6375,9.3 3.8359187,9.4126875 4.0653625,9.4775625 4.29375,9.4931875 4.6043813,9.5144375 4.9335687,9.4389375 5.2,9.28 5.3000937,9.2203125 5.3947313,9.1521875 5.48125,9.0739375 5.518331,9.0403745 5.568087,8.9834375 5.6005563,8.95025 c 0.015375,-0.015688 0.0328,-0.03275 0.055694,-0.039688 0.025619,-0.00769 0.036469,-0.00237 0.0625,-0.00844 C 5.74735,8.8955625 5.7731687,8.886 5.8,8.8770625 5.8520938,8.8596875 5.9042437,8.8400625 5.95625,8.816875 5.9925,8.8006875 6.017725,8.802125 6.0431938,8.787625 6.0682,8.7733125 6.0728563,8.7594375 6.100025,8.742875 6.196975,8.683875 6.316375,8.60025 6.4,8.5186875 6.43925,8.480375 6.487875,8.4275 6.522375,8.3875 6.540125,8.366875 6.54675,8.3555625 6.56875,8.3468125 6.594375,8.3365625 6.615375,8.341625 6.65,8.3334375 c 0.038437,-0.00913 0.0745,-0.02175 0.1125,-0.036125 0.041187,-0.0155 0.094187,-0.037313 0.13125,-0.059062 0.023813,-0.013938 0.029562,-0.027563 0.051813,-0.037125 0.0145,-0.00619 0.03075,-0.00212 0.041937,-8.125e-4 0.018937,0.00225 0.053375,0.01225 0.075,0.017625 0.1043125,0.02625 0.2061875,0.0355 0.3125,0.045625 0.033,0.00312 0.088687,0.0055 0.11875,0.00519 0.025125,-3.125e-4 0.037437,-0.00325 0.05,-0.00625 M 3.53125,6.14375 C 3.511025,6.169988 3.491062,6.206213 3.456006,6.24375 3.430462,6.271125 3.414875,6.296937 3.387406,6.2975 3.3676813,6.297875 3.3555313,6.2898125 3.3375,6.2880625 3.2792875,6.2825 3.1550563,6.28125 3.1125,6.28125 M 4.7,6.1625 C 4.7210437,6.23555 4.7414812,6.25625 4.75,6.3 M 7.65,6.175 7.6875,6.1910125 7.75625,6.2113187 7.875,6.2770625 7.94375,6.31875 M 6.275,6.25 C 6.3109375,6.2238438 6.382875,6.215025 6.45,6.19375 m -3.525,0.0625 c 0.053725,0.020875 0.083381,0.039 0.125,0.0375 M 5.53125,6.25625 C 5.5739688,6.3000625 5.5663875,6.3643125 5.5186625,6.4025 5.4983813,6.41875 5.490125,6.423875 5.48125,6.43125 M 3.3875,6.3125 C 3.3794375,6.3288125 3.374725,6.33775 3.35625,6.36875 M 1.175,6.45 C 1.18635,6.45431 1.198012,6.45356 1.23125,6.47025 1.254938,6.482125 1.298563,6.509188 1.325,6.523562 1.398075,6.563187 1.4846125,6.5995 1.5625,6.6248745 c 0.017956,0.00587 0.033075,0.013562 0.05,0.019625 0.021719,0.00775 0.031544,0.005 0.05625,0.00931 0.0744,0.013125 0.16655,0.030062 0.24375,0.033437 0.071544,0.00313 0.1122,-0.020312 0.1625,0.0065 M 3.2625,6.5375 C 3.23815,6.567125 3.2073125,6.63925 3.1814938,6.70625 3.175775,6.721125 3.1698188,6.7338125 3.164375,6.75 3.157915,6.76925 3.156585,6.785312 3.152119,6.80625 3.136656,6.878687 3.119006,6.9893125 3.11875,7.0625 3.1186438,7.091812 3.11497,7.098063 3.1144,7.125 3.11405,7.141625 3.11794,7.154375 3.12025,7.16875 3.12268,7.183937 3.12352,7.197312 3.12397,7.2125 c 4.937e-4,0.016875 0.00127,0.027 0.00367,0.04375 0.00651,0.0455 0.030537,0.1571875 0.045325,0.2 0.00567,0.016438 0.00786,0.029625 0.022525,0.0365 0.00975,0.00456 0.020163,6.25e-4 0.029362,-0.00294 0.015481,-0.006 0.023337,-0.010875 0.0314,-0.014813 m 1.1,-0.9375 -0.043763,0.015313 -0.1187375,0.029312 -0.225,0.084688 -0.05,0.014438 m 1,-0.1125 c 0.01625,0.00581 0.031575,0.014 0.05625,0.022813 0.039319,0.014062 0.113775,0.040875 0.15625,0.060375 C 5.2640063,6.712875 5.3949937,6.7976875 5.5,6.9000625 5.5437125,6.94275 5.6022188,7.0059375 5.640175,7.05 5.6582438,7.071 5.6750062,7.09025 5.7,7.0988125 c 0.019894,0.00681 0.03445,0.006 0.05,0.00775 0.019181,0.00219 0.0696,0.01475 0.09375,0.019687 0.024362,0.00494 0.0729,0.012938 0.09375,0.017125 0.017462,0.0035 0.03285,0.012938 0.05625,0.016188 0.030706,0.00425 0.038844,0.00288 0.075,0.00294 0.0235,6.25e-5 0.045763,-9.375e-4 0.06875,0.00181 0.08205,0.00962 0.168625,-0.00219 0.25,-0.0135 C 6.462625,7.140375 6.568375,7.11475 6.6375,7.0984375 6.66,7.093125 6.666625,7.097625 6.6875,7.0915 6.705625,7.08625 6.7204375,7.0741875 6.73125,7.068625 6.759563,7.054125 6.786,7.050187 6.80625,7.04375 6.825625,7.100937 6.848875,7.2278125 6.856687,7.3125 c 0.003,0.031625 0.00581,0.061187 0.00581,0.09375 0,0.019812 0,0.031375 0,0.05 0,0.021813 5.625e-4,0.043312 -6.25e-5,0.06875 -5e-4,0.020062 -0.00619,0.064437 -0.00619,0.08125 6.25e-5,0.0115 -0.003,0.031 0.01,0.041875 0.0165,0.013812 0.029937,0.015125 0.0525,0.02675 0.039375,0.020375 0.094125,0.043812 0.1375,0.058438 0.059437,0.020125 0.1175625,0.040687 0.18125,0.050562 0.023563,0.00369 0.048438,0.00844 0.06875,0.010063 0.01325,0.00113 0.03275,0.00469 0.046312,-0.00938 C 7.3664375,7.770125 7.36625,7.7510625 7.374125,7.73125 7.3895625,7.692875 7.4086875,7.6418125 7.4205625,7.6 7.4446875,7.5151875 7.4546875,7.411625 7.4625,7.35 M 7.525,6.625 C 7.5725,6.5996875 7.643,6.63925 7.64625,6.70625 7.6495,6.773 7.5956875,6.833875 7.5375,6.8625 7.48275,6.8895 7.4195,6.888625 7.3625,6.8673125 7.2968125,6.8428125 7.27325,6.8135625 7.24375,6.78125 M 8.55,6.63125 C 8.55306,6.647875 8.55469,6.662438 8.55731,6.6875 8.56031,6.717 8.55831,6.773625 8.55444,6.80625 8.5430625,6.902625 8.5275,6.99825 8.4925,7.0875 8.467875,7.1501875 8.4365625,7.2110625 8.4011875,7.26875 8.3885625,7.2893125 8.3675625,7.321 8.353375,7.337125 8.335125,7.357875 8.32375,7.36225 8.3125,7.36875 M 1.6125,6.65 C 1.60667,6.681438 1.60865,6.714375 1.601787,6.775 c -0.00174,0.015437 -0.00122,0.027625 8.625e-4,0.04375 0.0026,0.02 0.00356,0.034063 0.0036,0.05625 1.25e-4,0.077063 0.016481,0.15675 0.0384,0.23125 0.029575,0.1005625 0.079756,0.2006875 0.13875,0.2875 0.022181,0.032625 0.059487,0.080563 0.085444,0.106125 0.026619,0.02625 0.03995,0.03175 0.062406,0.037625 0.00339,-0.014187 0.00514,-0.027062 0.00985,-0.0625 0.00506,-0.038062 0.00448,-0.1085 0.0106,-0.15 0.010731,-0.072875 0.030838,-0.142875 0.054569,-0.2125 0.00781,-0.022937 0.026281,-0.069438 0.0362,-0.087375 C 2.0538813,7.0045 2.0612313,7.0001875 2.06875,6.99375 M 5.9,6.65625 C 5.948831,6.688625 6.0290312,6.692375 6.11875,6.701062 6.191469,6.708122 6.2798125,6.7014995 6.35,6.690062 6.376875,6.685692 6.394375,6.679812 6.4125,6.66875 M 2.49375,9.0125 C 2.482688,9.02044 2.473987,9.029875 2.44375,9.031125 2.412681,9.032375 2.33125,9.03175 2.29375,9.03125 2.1732625,9.0298125 2.0455437,9.0065625 1.93125,8.970875 1.604325,8.868875 1.3007125,8.6598125 1.1151562,8.3625 0.910075,8.033875 0.82716875,7.640125 0.8964,7.25625 0.92053125,7.1225 0.95885625,6.99825 1.0144125,6.875 1.0308063,6.838625 1.0714,6.7529375 1.0896812,6.725625 1.1044,6.7036875 1.1164062,6.7004375 1.13125,6.69375 M 2.925,6.78125 C 2.9808625,6.7655 3.1080688,6.74375 3.1625,6.74375 m 4.925,0.1125 C 8.061188,6.899063 8.059688,6.943125 8.022187,7.00625 7.9761875,7.0835625 7.9375,7.1188125 7.9,7.175 M 5.2375,7.8 C 5.197638,7.775563 5.1234938,7.764437 5.05625,7.752937 5.040956,7.750307 5.022488,7.753312 5.007406,7.744437 4.9862562,7.732 4.98425,7.7185625 4.9696188,7.69375 4.9233938,7.6154375 4.8499125,7.5446875 4.76875,7.502 4.6888,7.4599375 4.61195,7.456125 4.525,7.45625 4.491775,7.4563125 4.452125,7.4661875 4.4349625,7.4524375 4.4138125,7.4355 4.3995937,7.4136875 4.375,7.3919375 4.3096875,7.33425 4.2299438,7.2470625 4.1758125,7.175 4.1607,7.154875 4.1397437,7.1271875 4.146925,7.106875 4.1519125,7.092875 4.1624875,7.0871875 4.1751,7.08 4.194169,7.069125 4.222338,7.058187 4.24375,7.050313 4.3519062,7.010688 4.46945,6.993563 4.58125,6.99375 c 0.045138,6.25e-5 0.044856,0.0045 0.08125,0.011187 0.02445,0.0045 0.038813,-5.625e-4 0.06875,0.00238 0.039438,0.00387 0.08625,0.018875 0.125,0.032312 0.085356,0.029687 0.1635812,0.070125 0.2375,0.1238125 0.031994,0.02325 0.072525,0.053562 0.099656,0.080875 0.019394,0.0195 0.029444,0.0505 0.041362,0.062437 0.019562,0.019625 0.030025,0.016563 0.049831,0.037813 0.036531,0.039187 0.1011438,0.145 0.1259688,0.1991875 0.029262,0.063875 0.051931,0.131875 0.066544,0.2 0.00391,0.018187 0.00969,0.040188 -6.937e-4,0.0525 -0.00947,0.011188 -0.02265,0.00956 -0.032675,0.00988 C 5.4247625,7.8066875 5.3110062,7.79575 5.2875,7.7943125 5.272119,7.793375 5.259663,7.7911925 5.245638,7.8001825 5.231713,7.8091225 5.225576,7.8305575 5.217157,7.8437455 5.196163,7.8765585 5.134444,7.9476205 5.1080382,7.974308 5.0926942,7.989808 5.0672632,7.998683 5.0532132,8.01437 5.0349437,8.0348125 5.0400438,8.04375 5.0347813,8.075 5.02985,8.10425 5.0206188,8.139375 5.0103438,8.16875 4.9654875,8.2970625 4.8629063,8.4138125 4.74375,8.4793125 4.4445312,8.64375 4.0914625,8.5758125 3.8706063,8.3125 3.8471875,8.2845625 3.8433125,8.2674375 3.8284063,8.2455625 3.8158125,8.227 3.8043438,8.2154375 3.7908375,8.19375 3.7483312,8.1255 3.7245188,8.0349375 3.7054375,7.95625 3.6990438,7.929875 3.6941375,7.8991875 3.6937313,7.875 c -4e-4,-0.024 -0.00534,-0.035375 -0.00461,-0.0625 0.00149,-0.055875 0.012125,-0.1333125 0.027087,-0.18125 0.00677,-0.021687 0.013519,-0.032125 0.021294,-0.04375 0.050575,0.041187 0.099913,0.1023125 0.18125,0.15575 0.025269,0.016625 0.055025,0.031813 0.081237,0.045875 0.013169,0.00706 0.028806,0.0155 0.034663,0.03025 C 4.046475,7.8493125 4.0272625,7.886 4.0178688,7.91875 3.99885,7.9850625 3.9648125,8.0575 3.929475,8.11875 3.9140875,8.1454375 3.8836313,8.1915625 3.866,8.212125 3.8519,8.2285625 3.8459375,8.2313125 3.8375,8.2375 M 2.95625,7.0125 C 3.0128938,7.047 3.052325,7.1024375 3.1,7.11875 M 4.675,7.0125 4.696212,7.055688 4.76875,7.116375 l 0.2125,0.12575 0.1375,0.0495 L 5.181219,7.308313 5.21875,7.3125 M 6.8125,7.04375 C 6.8308125,7.0330625 6.83475,7.0315625 6.85625,7.025 M 6.6875,7.1 C 6.68481,7.112938 6.68438,7.126375 6.671062,7.15 6.658062,7.173 6.630625,7.208625 6.613187,7.23125 6.565187,7.293625 6.493437,7.3698125 6.4376245,7.4205625 6.4173125,7.439 6.4106875,7.454625 6.391375,7.4723125 6.373,7.489125 6.353125,7.4933125 6.33125,7.5081875 6.2949375,7.532875 6.251125,7.5643125 6.2125,7.5875 6.1313813,7.63625 6.0086375,7.6865 5.95,7.7125 5.9135375,7.64925 5.9051688,7.54125 5.8699313,7.45 5.855975,7.413875 5.83185,7.358625 5.8174063,7.325 5.8100063,7.30775 5.8106163,7.2995 5.8028433,7.284125 5.7951433,7.268812 5.7801433,7.255437 5.7726123,7.243625 5.731625,7.1794375 5.7094687,7.1359375 5.7,7.1125 M 3.7375,7.58125 C 3.7546375,7.525 3.7948938,7.4185625 3.8555938,7.3375 3.9090562,7.266125 4.0141562,7.1666875 4.0875,7.128375 4.1064813,7.1185 4.1206063,7.1160625 4.1375,7.1125 m 1.84375,0.05 C 5.97584,7.178313 5.970937,7.191438 5.949725,7.207563 5.917919,7.231813 5.8404188,7.259688 5.8125,7.26875 m -3.875,0.275 C 1.94154,7.557312 1.94469,7.57 1.958713,7.585687 1.97465,7.603562 2.009451,7.627437 2.03125,7.642875 2.094063,7.687188 2.1650188,7.722688 2.2375,7.747875 2.285475,7.7645 2.3382875,7.779313 2.3875,7.78875 2.413206,7.79362 2.42815,7.79162 2.45,7.79387 2.475894,7.7965 2.482394,7.80218 2.5125,7.805182 2.594225,7.813372 2.7029625,7.792057 2.78125,7.770307 2.819231,7.759807 2.87315,7.740682 2.9062375,7.724745 2.9287125,7.713875 2.9390563,7.7035 2.95,7.69375 2.9190563,7.65575 2.8919938,7.64025 2.8680625,7.56875 2.8462563,7.5035625 2.8589688,7.4493125 2.8851,7.3875 2.92495,7.2931875 3.039825,7.2141875 3.11875,7.2125 m -0.7,0.125 c -8.625e-4,0.037 -0.015488,0.068562 -0.018506,0.1375 -0.00283,0.064688 0.00374,0.1316875 0.021181,0.19375 0.00581,0.020688 0.016587,0.050063 0.020537,0.06875 0.00453,0.021438 0.00606,0.034438 0.00804,0.05 M 4.43125,7.4625 C 4.3885062,7.4916875 4.3169687,7.5133125 4.2564937,7.5750625 4.21755,7.614875 4.1879688,7.66675 4.1693125,7.71875 4.1618325,7.739625 4.1569315,7.766438 4.1563375,7.7875 4.1558562,7.804563 4.1556063,7.813875 4.1553813,7.83125 4.1550938,7.853313 4.1547688,7.86575 4.1594813,7.8875 4.1923187,8.039125 4.367,8.185875 4.51875,8.0868125 4.561575,8.058875 4.5943687,8.019875 4.596275,7.96875 4.5984937,7.909375 4.546025,7.853625 4.4875,7.88125 M 6.4,7.4875 c -6.25e-4,0.076125 -0.016125,0.163125 -0.042,0.25 -0.012625,0.042438 -0.028562,0.084812 -0.046437,0.125 -0.0085,0.019063 -0.021375,0.033563 -0.0305,0.048188 -0.00931,0.014875 -0.00931,0.0275 -0.018875,0.045562 -0.050981,0.096 -0.1368937,0.1904375 -0.2184375,0.2628125 -0.017681,0.015688 -0.0395,0.035 -0.056244,0.044625 -0.00995,0.00569 -0.026062,0.00794 -0.040269,0.021063 -0.017131,0.015875 -0.01795,0.027625 -0.02455,0.05275 C 5.909075,8.389375 5.8892937,8.461 5.86875,8.5125 5.83425,8.599 5.7935375,8.683375 5.7434187,8.7625 5.726975,8.7884375 5.6934813,8.8331875 5.6806562,8.85625 5.6703688,8.87475 5.6671375,8.884 5.6625,8.89375 M 3.19375,7.5 C 3.179769,7.553562 3.132687,7.584875 3.06875,7.632 3.04815,7.647125 3.014306,7.670063 2.993762,7.680375 2.9748813,7.6899375 2.9630125,7.69175 2.95,7.69375 M 6.85625,7.65 C 6.832375,7.694 6.8294375,7.765 6.807,7.85 6.7895625,7.9158125 6.7628125,7.981625 6.7375625,8.04375 6.730875,8.0603125 6.7275,8.0723125 6.719875,8.0875 6.710745,8.105813 6.700312,8.119938 6.690188,8.1375 6.671375,8.170125 6.614688,8.25875 6.599438,8.2875 6.589063,8.307125 6.586063,8.319188 6.581251,8.33125 M 7.88125,7.7 7.8375,7.7283125 7.7125,7.7679375 7.5,7.8010625 7.40625,7.802625 7.35625,7.7875 M 5.95,7.7125 V 7.722937 C 5.9500375,7.761312 5.95682,7.767187 5.96175,7.8 5.96501,7.82175 5.9625313,7.823563 5.9625,7.85 5.9624188,7.921313 5.97004,8.0420625 5.95985,8.11875 5.95599,8.147813 5.948681,8.198875 5.945538,8.225 5.942318,8.25175 5.943778,8.25925 5.943748,8.26875 M 5.0125,7.75625 C 5.0130563,7.782375 5.0408563,7.891 5.04375,7.95 5.0451125,7.97775 5.0477937,7.988125 5.05,8 M 5.975,7.79375 C 5.98417,7.79744 5.992319,7.79938 6.012531,7.8095 6.0344,7.820375 6.07445,7.842625 6.1,7.8535625 6.1590562,7.8788125 6.2237438,7.8941875 6.26875,7.9 M 5.4875,7.80625 C 5.500263,7.858062 5.510731,7.9821875 5.500312,8.075 5.494242,8.129063 5.481981,8.1996875 5.467781,8.25 5.458471,8.283 5.436525,8.314562 5.424868,8.34375 5.415528,8.367125 5.415548,8.380187 5.412387,8.39375 5.408147,8.411937 5.383649,8.462812 5.369543,8.4875 5.345693,8.529312 5.317643,8.568437 5.287474,8.60625 5.197175,8.7195 5.0832937,8.8185625 4.95625,8.888375 4.9245125,8.90575 4.8981437,8.908 4.875,8.91975 4.8557188,8.9295625 4.8471,8.9399375 4.83125,8.9483125 4.8147562,8.957 4.7768687,8.97025 4.75625,8.9770625 4.6519437,9.011375 4.5248562,9.0346875 4.4125,9.0374375 4.2956938,9.04025 4.1640375,9.0149375 4.05625,8.9791875 4.0044375,8.9619375 3.9442688,8.9396875 3.8937563,8.914 3.87345,8.9036875 3.859725,8.8990625 3.8534125,8.880625 3.8455725,8.857688 3.8916185,8.82675 3.9186375,8.805437 c 0.01935,-0.01525 0.037787,-0.042188 0.0567,-0.047187 0.013825,-0.00369 0.020212,-0.00256 0.037162,-9.375e-4 0.039981,0.00381 0.1350562,0.020188 0.18125,0.023375 0.096981,0.00662 0.2123687,-0.00956 0.30625,-0.011875 0.031263,-7.5e-4 0.049119,0.00388 0.075,-0.00344 C 4.601,8.758 4.6041188,8.752625 4.63125,8.7459375 4.6761688,8.7349375 4.7416312,8.717375 4.7875,8.7020625 4.8954625,8.666125 5.002525,8.6215625 5.1,8.562125 5.158125,8.526625 5.2145187,8.4885625 5.26875,8.4476875 5.2948375,8.428 5.3326125,8.39425 5.35625,8.3765 5.3813938,8.357625 5.3961062,8.3563125 5.4125,8.35 M 4.04375,7.81875 C 4.0831562,7.8204375 4.1084625,7.833875 4.15,7.8375 M 1.53125,7.84375 c 0.012037,0.00312 0.023287,0.00437 0.043762,0.020437 0.027656,0.02175 0.086519,0.077813 0.1187375,0.10325 0.098087,0.077375 0.2048187,0.1396875 0.31875,0.1896875 0.044269,0.019437 0.1198813,0.042937 0.1625,0.056375 0.021275,0.00669 0.038112,0.013875 0.054538,0.031438 0.019569,0.020875 0.018037,0.030625 0.039887,0.055063 0.048138,0.05375 0.1238375,0.1140625 0.186825,0.153625 0.038863,0.024375 0.089706,0.055562 0.13125,0.071813 0.026075,0.01025 0.0388,0.01575 0.061937,0.013562 0.0188,-0.00175 0.049156,-0.027062 0.075563,-0.038125 0.076419,-0.032 0.1537688,-0.07625 0.21875,-0.12875 C 2.9991063,8.327375 3.0411625,8.2825 3.075,8.24375 M 6.73125,8.1 c 0.028313,0.011812 0.136625,0.054438 0.174875,0.073 0.017562,0.00863 0.023,0.014313 0.031375,0.02075 m -4.7,0.05 C 2.247975,8.24069 2.256531,8.23644 2.281263,8.23856 c 0.021825,0.00188 0.073325,0.0125 0.099988,0.015875 0.079587,0.010188 0.1635563,0.013 0.24375,0.0075 C 2.7557063,8.253 2.95995,8.195625 3.04375,8.175 m 0.3625,0.275 c 8.875e-4,0.00644 0.00122,0.01275 0.003,0.01975 l 0.00317,0.011625 c 0.020219,0.056188 0.032081,0.05 0.067038,0.077875 0.025625,0.020437 0.032956,0.037562 0.064288,0.051 0.029913,0.012812 0.030875,0.00413 0.0625,0.016875 0.021512,0.00875 0.052294,0.02225 0.075,0.03175 0.051038,0.021437 0.1030813,0.039438 0.15625,0.055375 0.021681,0.0065 0.054806,0.01525 0.074988,0.021 0.022619,0.0065 0.032862,0.013687 0.043762,0.021 M 3.36875,8.4875 3.40625,8.5 M 2.6625,8.54375 C 2.67198,8.55194 2.680156,8.561188 2.700031,8.57 c 0.027525,0.01225 0.1028937,0.0305 0.1374687,0.0375 0.095763,0.019438 0.1897688,0.031313 0.2875,0.01925 0.104725,-0.012812 0.2572562,-0.034062 0.3,-0.083 m 0.125,0.075 0.01875,0.04375 c 0.018537,-0.018562 0.018112,-0.018125 0.0375,-0.0375 m -0.0375,0.04375 0.15,0.1334375 0.075,0.051125 0.05,0.015438 M 6.05,8.7875 c 0.012119,0.00881 0.022613,0.016938 0.05,0.022312 0.0246,0.00488 0.072025,0.011313 0.1,0.014125 0.080125,0.008 0.1631875,0.01225 0.24375,0.00675 C 6.5635625,8.8225 6.6853125,8.801625 6.8,8.76875 6.8481875,8.7549375 6.9463125,8.71625 6.9875,8.703875 7.00825,8.697625 7.0213125,8.6968125 7.0375,8.69375 M 4.5875,8.775 4.619025,8.80825 4.66875,8.8311875 4.8249687,8.8885 4.8625,8.9125 M 3.08125,8.80625 c 0.06585,0.085375 0.1831188,0.1915625 0.2,0.25625"
       id="path7401" />
  </g>
</svg>
