<?xml version="1.0" encoding="UTF-8" standalone="no"?>
<svg
   height="10"
   viewBox="0 0 10 10"
   width="10"
   version="1.1"
   id="svg49"
   sodipodi:docname="fog-of-war-off-alt.svg"
   inkscape:version="1.2.2 (732a01da63, 2022-12-09)"
   xmlns:inkscape="http://www.inkscape.org/namespaces/inkscape"
   xmlns:sodipodi="http://sodipodi.sourceforge.net/DTD/sodipodi-0.dtd"
   xmlns="http://www.w3.org/2000/svg"
   xmlns:svg="http://www.w3.org/2000/svg"
   xmlns:rdf="http://www.w3.org/1999/02/22-rdf-syntax-ns#"
   xmlns:cc="http://creativecommons.org/ns#"
   xmlns:dc="http://purl.org/dc/elements/1.1/">
  <metadata
     id="metadata55">
    <rdf:RDF>
      <cc:Work
         rdf:about="">
        <dc:format>image/svg+xml</dc:format>
        <dc:type
           rdf:resource="http://purl.org/dc/dcmitype/StillImage" />
      </cc:Work>
    </rdf:RDF>
  </metadata>
  <defs
     id="defs53">
    <filter
       style="color-interpolation-filters:sRGB"
       inkscape:label="Diffuse Light"
       id="filter930"
       x="-0.17356606"
       y="-0.16614492"
       width="1.3470117"
       height="1.3322898">
      <feGaussianBlur
         in="SourceGraphic"
         stdDeviation="5"
         result="blur"
         id="feGaussianBlur920" />
      <feDiffuseLighting
         diffuseConstant="1"
         surfaceScale="10"
         lighting-color="#ffffff"
         result="diffuse"
         id="feDiffuseLighting924">
        <feDistantLight
           elevation="150"
           azimuth="0"
           id="feDistantLight922" />
      </feDiffuseLighting>
      <feComposite
         in="diffuse"
         in2="diffuse"
         operator="arithmetic"
         k1="1"
         result="composite1"
         id="feComposite926"
         k2="0"
         k3="0"
         k4="0" />
      <feComposite
         in="composite1"
         in2="SourceGraphic"
         k1="0.376471"
         operator="arithmetic"
         k3="1"
         result="composite2"
         id="feComposite928"
         k2="0"
         k4="0" />
    </filter>
  </defs>
  <sodipodi:namedview
     pagecolor="#ffffff"
     bordercolor="#666666"
     borderopacity="1"
     objecttolerance="10"
     gridtolerance="10"
     guidetolerance="10"
     inkscape:pageopacity="0"
     inkscape:pageshadow="2"
     inkscape:window-width="2560"
     inkscape:window-height="1476"
     id="namedview51"
     showgrid="false"
     inkscape:zoom="11.313709"
     inkscape:cx="31.46625"
     inkscape:cy="9.0156111"
     inkscape:window-x="-12"
     inkscape:window-y="-12"
     inkscape:window-maximized="1"
     inkscape:current-layer="svg49"
     inkscape:document-rotation="0"
     inkscape:snap-bbox="false"
     inkscape:bbox-paths="false"
     inkscape:showpageshadow="2"
     inkscape:pagecheckerboard="0"
     inkscape:deskcolor="#d1d1d1">
    <inkscape:grid
       type="xygrid"
       id="grid2022" />
  </sodipodi:namedview>
  <path
     sodipodi:type="spiral"
     style="fill:none;fill-opacity:1;fill-rule:evenodd;stroke:#000000;stroke-width:1.1419;stroke-dasharray:none;stroke-opacity:1"
     id="path1132"
     sodipodi:cx="83.667068"
     sodipodi:cy="39.378685"
     sodipodi:expansion="1"
     sodipodi:revolution="3.6112528"
     sodipodi:radius="19.117819"
     sodipodi:argument="-17.802359"
     sodipodi:t0="0"
     d="m 83.667068,39.378685 c 0.398147,0.689609 -0.733147,0.876922 -1.146175,0.661745 -1.119279,-0.583115 -0.902145,-2.158722 -0.177314,-2.954096 1.296552,-1.422736 3.56609,-1.021987 4.762015,0.307116 1.755068,1.950513 1.150909,4.994548 -0.791546,6.569936 -2.588985,2.099744 -6.430753,1.284028 -8.377856,-1.275976 -2.45023,-3.221504 -1.419388,-7.870716 1.760407,-10.185777 3.851157,-2.803848 9.312806,-1.556057 11.993696,2.244837 3.159337,4.479222 1.693551,10.756226 -2.729267,13.801617 -5.106317,3.516024 -12.200533,1.831593 -15.609537,-3.213697 -3.873527,-5.73278 -1.97002,-13.645463 3.698128,-17.417458 6.358805,-4.231608 15.090845,-2.108725 19.225377,4.182558 4.590114,6.984517 2.247638,16.53657 -4.666988,21.033298 -7.609995,4.948941 -17.982557,2.38671 -22.841218,-5.151418 -5.308017,-8.235296 -2.525907,-19.428751 5.635849,-24.649139 3.715572,-2.376538 8.232029,-3.355273 12.600957,-2.77796"
     inkscape:spray-origin="#path832"
     transform="matrix(-0.08018219,-0.0352125,0.0352125,-0.08018219,13.422021,10.69871)" />
  <path
     sodipodi:type="spiral"
     style="fill:none;fill-opacity:1;fill-rule:evenodd;stroke:#000000;stroke-width:1.1419;stroke-dasharray:none;stroke-opacity:1"
     id="path1150"
     sodipodi:cx="89.190857"
     sodipodi:cy="80.060783"
     sodipodi:expansion="1"
     sodipodi:revolution="3.6112528"
     sodipodi:radius="19.117819"
     sodipodi:argument="-17.802359"
     sodipodi:t0="0"
     d="m 89.190857,80.060783 c 0.398146,0.689609 -0.733148,0.876922 -1.146175,0.661745 -1.119279,-0.583115 -0.902146,-2.158722 -0.177315,-2.954095 1.296552,-1.422736 3.566091,-1.021988 4.762016,0.307115 1.755068,1.950513 1.150908,4.994549 -0.791546,6.569936 -2.588986,2.099745 -6.430754,1.284029 -8.377856,-1.275976 -2.45023,-3.221504 -1.419389,-7.870715 1.760406,-10.185776 3.851157,-2.803849 9.312806,-1.556057 11.993697,2.244836 3.159336,4.479223 1.69355,10.756227 -2.729267,13.801617 -5.106318,3.516025 -12.200533,1.831594 -15.609537,-3.213697 -3.873527,-5.73278 -1.97002,-13.645462 3.698127,-17.417457 6.358805,-4.231608 15.090846,-2.108725 19.225373,4.182558 4.59012,6.984516 2.24764,16.53657 -4.666983,21.033297 -7.609995,4.948942 -17.982557,2.386711 -22.841218,-5.151418 -5.308017,-8.235296 -2.525907,-19.428751 5.635848,-24.649138 3.715572,-2.376539 8.232029,-3.355274 12.600958,-2.777961"
     inkscape:spray-origin="#path832"
     transform="matrix(-0.0795825,-0.03654764,0.03654764,-0.0795825,11.912395,16.923827)" />
  <path
     sodipodi:type="spiral"
     style="fill:none;fill-opacity:1;fill-rule:evenodd;stroke:#000000;stroke-width:1.1419;stroke-dasharray:none;stroke-opacity:1"
     id="path1152"
     sodipodi:cx="72.216782"
     sodipodi:cy="72.085846"
     sodipodi:expansion="1"
     sodipodi:revolution="3.6112528"
     sodipodi:radius="19.117819"
     sodipodi:argument="-17.802359"
     sodipodi:t0="0"
     d="m 72.216782,72.085846 c 0.398146,0.689609 -0.733148,0.876922 -1.146176,0.661745 -1.119279,-0.583116 -0.902145,-2.158722 -0.177314,-2.954096 1.296552,-1.422736 3.56609,-1.021987 4.762015,0.307116 1.755068,1.950513 1.150909,4.994548 -0.791545,6.569936 -2.588986,2.099744 -6.430754,1.284028 -8.377857,-1.275976 -2.45023,-3.221504 -1.419388,-7.870716 1.760407,-10.185777 3.851157,-2.803848 9.312806,-1.556057 11.993696,2.244837 3.159337,4.479222 1.693551,10.756226 -2.729267,13.801617 -5.106317,3.516024 -12.200533,1.831593 -15.609537,-3.213697 -3.873527,-5.73278 -1.97002,-13.645463 3.698128,-17.417458 6.358805,-4.231608 15.090846,-2.108725 19.225377,4.182558 4.590114,6.984517 2.247638,16.53657 -4.666988,21.033298 -7.609995,4.948941 -17.982556,2.38671 -22.841218,-5.151418 -5.308017,-8.235296 -2.525907,-19.428751 5.635849,-24.649139 3.715572,-2.376538 8.232029,-3.355273 12.600957,-2.777961"
     inkscape:spray-origin="#path832"
     transform="matrix(-0.06989623,-0.05276008,0.05276008,-0.06989623,7.6605178,16.107466)" />
  <path
     sodipodi:type="spiral"
     style="fill:none;fill-opacity:1;fill-rule:evenodd;stroke:#000000;stroke-width:1.1419;stroke-dasharray:none;stroke-opacity:1"
     id="path1184"
     sodipodi:cx="8.894907"
     sodipodi:cy="86.773643"
     sodipodi:expansion="1"
     sodipodi:revolution="3.6112528"
     sodipodi:radius="19.117819"
     sodipodi:argument="-17.802359"
     sodipodi:t0="0"
     d="M 8.894907,86.773643 C 9.2930531,87.463252 8.1617593,87.650565 7.7487317,87.435388 6.6294526,86.852273 6.8465862,85.276666 7.571417,84.481293 c 1.2965523,-1.422736 3.566091,-1.021988 4.762016,0.307116 1.755068,1.950512 1.150908,4.994548 -0.791546,6.569936 C 8.9529011,93.458089 5.1111334,92.642373 3.1640307,90.082368 0.71380076,86.860864 1.7446426,82.211653 4.9244371,79.896592 8.7755943,77.092743 14.237243,78.340535 16.918134,82.141429 20.07747,86.620651 18.611684,92.897655 14.188867,95.943046 9.0825491,99.45907 1.9883336,97.774639 -1.4206703,92.729348 -5.2941972,86.996569 -3.3906904,79.083886 2.2774572,75.311891 8.6362621,71.080283 17.368303,73.203166 21.502835,79.494449 c 4.590114,6.984516 2.247638,16.53657 -4.666988,21.033301 -7.6099952,4.94894 -17.9825571,2.38671 -22.8412183,-5.151422 C -11.313388,87.141032 -8.5312783,75.947578 -0.36952278,70.72719 3.3460495,68.350651 7.8625066,67.371917 12.231435,67.949229"
     inkscape:spray-origin="#path832"
     transform="matrix(0.05358899,-0.0692627,0.0692627,0.05358899,-4.038838,3.472085)" />
  <path
     sodipodi:type="spiral"
     style="fill:none;fill-opacity:1;fill-rule:evenodd;stroke:#000000;stroke-width:1.1419;stroke-dasharray:none;stroke-opacity:1"
     id="path1252"
     sodipodi:cx="41.149033"
     sodipodi:cy="80.321175"
     sodipodi:expansion="1"
     sodipodi:revolution="3.6112528"
     sodipodi:radius="19.117819"
     sodipodi:argument="-17.802359"
     sodipodi:t0="0"
     d="m 41.149033,80.321175 c 0.398146,0.689608 -0.733148,0.876921 -1.146176,0.661745 -1.119279,-0.583116 -0.902145,-2.158723 -0.177314,-2.954096 1.296552,-1.422736 3.56609,-1.021988 4.762015,0.307116 1.755068,1.950512 1.150909,4.994548 -0.791545,6.569936 -2.588986,2.099744 -6.430754,1.284028 -8.377857,-1.275976 -2.45023,-3.221505 -1.419388,-7.870716 1.760407,-10.185777 3.851157,-2.803849 9.312806,-1.556057 11.993696,2.244837 3.159337,4.479222 1.693551,10.756226 -2.729267,13.801617 -5.106317,3.516024 -12.200533,1.831593 -15.609537,-3.213698 -3.873527,-5.732779 -1.97002,-13.645462 3.698128,-17.417457 6.358805,-4.231608 15.090846,-2.108725 19.225377,4.182558 4.590114,6.984516 2.247638,16.53657 -4.666988,21.033298 -7.609995,4.948941 -17.982556,2.38671 -22.841218,-5.151419 -5.308017,-8.235296 -2.525907,-19.42875 5.635849,-24.649138 3.715572,-2.376539 8.232029,-3.355273 12.600957,-2.777961"
     inkscape:spray-origin="#path832"
     transform="matrix(-0.0553156,-0.06789174,0.06789174,-0.0553156,0.3573986,13.099068)" />
  <path
     sodipodi:type="spiral"
     style="fill:none;fill-opacity:1;fill-rule:evenodd;stroke:#000000;stroke-width:1.1419;stroke-dasharray:none;stroke-opacity:1"
     id="path1272"
     sodipodi:cx="23.254847"
     sodipodi:cy="19.838737"
     sodipodi:expansion="1"
     sodipodi:revolution="3.6112528"
     sodipodi:radius="19.117819"
     sodipodi:argument="-17.802359"
     sodipodi:t0="0"
     d="m 23.254847,19.838737 c 0.398146,0.689609 -0.733148,0.876922 -1.146176,0.661745 -1.119279,-0.583115 -0.902145,-2.158722 -0.177314,-2.954095 1.296552,-1.422736 3.56609,-1.021988 4.762015,0.307116 1.755068,1.950512 1.150909,4.994548 -0.791545,6.569936 -2.588986,2.099744 -6.430754,1.284028 -8.377857,-1.275977 -2.45023,-3.221504 -1.419388,-7.870715 1.760407,-10.185776 3.851157,-2.803849 9.312806,-1.556057 11.993696,2.244837 3.159337,4.479222 1.693551,10.756226 -2.729267,13.801617 C 23.442489,32.524164 16.348273,30.839733 12.939269,25.794442 9.0657424,20.061663 10.969249,12.14898 16.637397,8.3769849 22.996202,4.145377 31.728243,6.2682598 35.862774,12.559543 40.452888,19.544059 38.110412,29.096113 31.195786,33.592841 23.585791,38.541782 13.213229,35.979551 8.3545683,28.441422 3.0465513,20.206126 5.8286612,9.0126716 13.990417,3.7922839 17.705989,1.4157453 22.222446,0.43701054 26.591374,1.014323"
     inkscape:spray-origin="#path832"
     transform="matrix(0.04757244,0.07352527,-0.07352527,0.04757244,2.7881477,0.42773861)" />
  <path
     sodipodi:type="spiral"
     style="fill:none;fill-opacity:1;fill-rule:evenodd;stroke:#000000;stroke-width:1.1419;stroke-dasharray:none;stroke-opacity:1"
     id="path1290"
     sodipodi:cx="75.750221"
     sodipodi:cy="11.307398"
     sodipodi:expansion="1"
     sodipodi:revolution="3.6112528"
     sodipodi:radius="19.117819"
     sodipodi:argument="-17.802359"
     sodipodi:t0="0"
     d="m 75.750221,11.307398 c 0.398146,0.689609 -0.733147,0.876921 -1.146175,0.661745 -1.119279,-0.583116 -0.902146,-2.1587225 -0.177315,-2.9540957 1.296553,-1.422736 3.566091,-1.0219878 4.762016,0.3071156 1.755068,1.9505131 1.150908,4.9945481 -0.791546,6.5699361 -2.588986,2.099744 -6.430753,1.284028 -8.377856,-1.275976 -2.45023,-3.221505 -1.419388,-7.8707158 1.760406,-10.1857767 3.851158,-2.8038489 9.312807,-1.5560573 11.993697,2.2448367 3.159337,4.479222 1.693551,10.756226 -2.729267,13.801617 -5.106318,3.516024 -12.200533,1.831593 -15.609537,-3.213697 -3.873527,-5.73278 -1.97002,-13.645463 3.698127,-17.4174577 6.358805,-4.231608 15.090846,-2.1087251 19.225378,4.1825577 4.590114,6.984516 2.247638,16.53657 -4.666988,21.033298 -7.609995,4.948941 -17.982557,2.38671 -22.841218,-5.151418 -5.308017,-8.235296 -2.525907,-19.42875107 5.635848,-24.6491387 3.715573,-2.3765387 8.23203,-3.3552734 12.600958,-2.7779609"
     inkscape:spray-origin="#path832"
     transform="matrix(-0.06957598,0.05318161,-0.05318161,-0.06957598,13.533146,-0.31302288)" />
  <path
     sodipodi:type="spiral"
     style="fill:none;fill-opacity:1;fill-rule:evenodd;stroke:#000000;stroke-width:1.1419;stroke-dasharray:none;stroke-opacity:1"
     id="path1318"
     sodipodi:cx="45.68169"
     sodipodi:cy="5.6516132"
     sodipodi:expansion="1"
     sodipodi:revolution="3.6112528"
     sodipodi:radius="19.117819"
     sodipodi:argument="-17.802359"
     sodipodi:t0="0"
     d="M 45.68169,5.6516132 C 46.079836,6.3412221 44.948543,6.5285349 44.535515,6.3133582 43.416236,5.7302427 43.633369,4.1546359 44.3582,3.3592627 45.654753,1.9365267 47.924291,2.3372749 49.120216,3.6663783 50.875284,5.616891 50.271124,8.6609265 48.32867,10.236314 45.739684,12.336058 41.897917,11.520343 39.950814,8.9603382 37.500584,5.7388338 38.531426,1.0896226 41.71122,-1.2254383 45.562378,-4.0292872 51.024027,-2.7814956 53.704917,1.0193983 56.864253,5.4986204 55.398468,11.775625 50.97565,14.821015 45.869332,18.337039 38.775117,16.652609 35.366113,11.607318 31.492586,5.8745383 33.396093,-2.0381446 39.06424,-5.8101393 45.423045,-10.041747 54.155086,-7.9188644 58.289618,-1.6275816 62.879732,5.3569348 60.537256,14.908988 53.62263,19.405716 46.012635,24.354657 35.640073,21.792426 30.781412,14.254298 25.473395,6.019002 28.255505,-5.1744527 36.41726,-10.39484 c 3.715573,-2.376539 8.23203,-3.355274 12.600958,-2.777961"
     inkscape:spray-origin="#path832"
     transform="matrix(-0.0471473,-0.07379862,0.07379862,-0.0471473,5.7635179,5.5120832)" />
  <path
     sodipodi:type="spiral"
     style="fill:none;fill-opacity:1;fill-rule:evenodd;stroke:#000000;stroke-width:1.1419;stroke-dasharray:none;stroke-opacity:1"
     id="path1396"
     sodipodi:cx="94.785103"
     sodipodi:cy="93.926743"
     sodipodi:expansion="1"
     sodipodi:revolution="3.6112528"
     sodipodi:radius="19.117819"
     sodipodi:argument="-17.802359"
     sodipodi:t0="0"
     d="m 94.785103,93.926743 c 0.398146,0.689608 -0.733148,0.876921 -1.146175,0.661745 -1.11928,-0.583116 -0.902146,-2.158723 -0.177315,-2.954096 1.296552,-1.422736 3.566091,-1.021988 4.762016,0.307116 1.755068,1.950512 1.150908,4.994548 -0.791546,6.569936 -2.588986,2.099746 -6.430754,1.284028 -8.377856,-1.275977 -2.45023,-3.221504 -1.419389,-7.870715 1.760406,-10.185776 3.851157,-2.803849 9.312807,-1.556057 11.993697,2.244837 3.15934,4.479222 1.69355,10.756222 -2.72927,13.801612 -5.106315,3.51603 -12.200531,1.8316 -15.609534,-3.213693 -3.873527,-5.732779 -1.970021,-13.645462 3.698127,-17.417457 6.358805,-4.231608 15.090847,-2.108725 19.225377,4.182558 4.59011,6.984516 2.24764,16.536572 -4.66699,21.033302 -7.609992,4.94894 -17.982554,2.38671 -22.841215,-5.15142 -5.308017,-8.235299 -2.525908,-19.428753 5.635848,-24.649141 3.715572,-2.376539 8.232029,-3.355273 12.600957,-2.777961"
     inkscape:spray-origin="#path832"
     transform="matrix(0.04733932,-0.0736756,0.0736756,0.04733932,-5.5549525,8.4051231)" />
  <path
     sodipodi:type="spiral"
     style="fill:none;fill-opacity:1;fill-rule:evenodd;stroke:#000000;stroke-width:1.1419;stroke-dasharray:none;stroke-opacity:1"
     id="path1442"
     sodipodi:cx="72.216782"
     sodipodi:cy="72.085846"
     sodipodi:expansion="1"
     sodipodi:revolution="3.6112528"
     sodipodi:radius="19.117819"
     sodipodi:argument="-17.802359"
     sodipodi:t0="0"
     d="m 72.216782,72.085846 c 0.398146,0.689609 -0.733148,0.876922 -1.146176,0.661745 -1.119279,-0.583116 -0.902145,-2.158722 -0.177314,-2.954096 1.296552,-1.422736 3.56609,-1.021987 4.762015,0.307116 1.755068,1.950513 1.150909,4.994548 -0.791545,6.569936 -2.588986,2.099744 -6.430754,1.284028 -8.377857,-1.275976 -2.45023,-3.221504 -1.419388,-7.870716 1.760407,-10.185777 3.851157,-2.803848 9.312806,-1.556057 11.993696,2.244837 3.159337,4.479222 1.693551,10.756226 -2.729267,13.801617 -5.106317,3.516024 -12.200533,1.831593 -15.609537,-3.213697 -3.873527,-5.73278 -1.97002,-13.645463 3.698128,-17.417458 6.358805,-4.231608 15.090846,-2.108725 19.225377,4.182558 4.590114,6.984517 2.247638,16.53657 -4.666988,21.033298 -7.609995,4.948941 -17.982556,2.38671 -22.841218,-5.151418 -5.308017,-8.235296 -2.525907,-19.428751 5.635849,-24.649139 3.715572,-2.376538 8.232029,-3.355273 12.600957,-2.777961"
     inkscape:spray-origin="#path832"
     transform="matrix(0.07941716,0.03690555,-0.03690555,0.07941716,-1.2981884,-3.4013812)" />
  <path
     sodipodi:type="spiral"
     style="fill:none;fill-opacity:1;fill-rule:evenodd;stroke:#000000;stroke-width:1.1419;stroke-dasharray:none;stroke-opacity:1"
     id="path1504"
     sodipodi:cx="17.928093"
     sodipodi:cy="7.9680262"
     sodipodi:expansion="1"
     sodipodi:revolution="3.6112528"
     sodipodi:radius="19.117819"
     sodipodi:argument="-17.802359"
     sodipodi:t0="0"
     d="M 17.928093,7.9680262 C 18.326239,8.657635 17.194945,8.8449478 16.781918,8.6297711 15.662639,8.0466557 15.879772,6.4710488 16.604603,5.6756757 c 1.296552,-1.4227361 3.566091,-1.0219879 4.762016,0.3071155 1.755068,1.9505127 1.150908,4.9945478 -0.791546,6.5699358 -2.588986,2.099744 -6.430754,1.284029 -8.377856,-1.275976 C 9.7469867,8.0552467 10.777829,3.4060355 13.957623,1.0909746 17.80878,-1.7128743 23.270429,-0.46508269 25.95132,3.3358113 29.110656,7.8150333 27.64487,14.092037 23.222053,17.137428 18.115735,20.653452 11.02152,18.969022 7.6125157,13.923731 3.7389888,8.1909512 5.6424955,0.2782683 11.310643,-3.4937264 17.669448,-7.7253344 26.401489,-5.6024515 30.536021,0.68883133 35.126135,7.6733477 32.783659,17.225401 25.869033,21.722129 18.259038,26.67107 7.8864759,24.108839 3.0278146,16.570711 -2.2802023,8.3354149 0.50190761,-2.8580398 8.6636632,-8.0784274 12.379235,-10.454966 16.895693,-11.433701 21.264621,-10.856388"
     inkscape:spray-origin="#path832"
     transform="matrix(-0.04311932,-0.07622222,0.07622222,-0.04311932,4.6782616,9.6094173)" />
  <path
     sodipodi:type="spiral"
     style="fill:none;fill-opacity:1;fill-rule:evenodd;stroke:#000000;stroke-width:1.1419;stroke-dasharray:none;stroke-opacity:1"
     id="path1518"
     sodipodi:cx="19.3396"
     sodipodi:cy="67.642296"
     sodipodi:expansion="1"
     sodipodi:revolution="3.6112528"
     sodipodi:radius="19.117819"
     sodipodi:argument="-17.802359"
     sodipodi:t0="0"
     d="m 19.3396,67.642296 c 0.398146,0.689609 -0.733148,0.876921 -1.146176,0.661745 -1.119279,-0.583116 -0.902145,-2.158723 -0.177314,-2.954096 1.296552,-1.422736 3.56609,-1.021988 4.762015,0.307116 1.755068,1.950513 1.150909,4.994548 -0.791545,6.569936 -2.588986,2.099744 -6.430754,1.284028 -8.377857,-1.275976 -2.45023,-3.221505 -1.419388,-7.870716 1.760407,-10.185777 3.851157,-2.803849 9.312806,-1.556057 11.993696,2.244837 3.159337,4.479222 1.693551,10.756226 -2.729267,13.801617 C 19.527242,80.327722 12.433026,78.643291 9.0240223,73.598001 5.1504954,67.865221 7.0540022,59.952538 12.72215,56.180543 c 6.358805,-4.231608 15.090846,-2.108725 19.225377,4.182558 4.590114,6.984516 2.247638,16.53657 -4.666988,21.033298 C 19.670544,86.34534 9.2979825,83.783109 4.4393213,76.244981 -0.86869566,68.009685 1.9134143,56.81623 10.07517,51.595842 c 3.715572,-2.376538 8.232029,-3.355273 12.600957,-2.777961"
     inkscape:spray-origin="#path832"
     transform="matrix(0.05884653,0.06485517,-0.06485517,0.05884653,9.7072711,-2.9731349)" />
  <path
     sodipodi:type="spiral"
     style="fill:none;fill-opacity:1;fill-rule:evenodd;stroke:#000000;stroke-width:1.1419;stroke-dasharray:none;stroke-opacity:1"
     id="path1524"
     sodipodi:cx="19.3396"
     sodipodi:cy="67.642296"
     sodipodi:expansion="1"
     sodipodi:revolution="3.6112528"
     sodipodi:radius="19.117819"
     sodipodi:argument="-17.802359"
     sodipodi:t0="0"
     d="m 19.3396,67.642296 c 0.398146,0.689609 -0.733148,0.876921 -1.146176,0.661745 -1.119279,-0.583116 -0.902145,-2.158723 -0.177314,-2.954096 1.296552,-1.422736 3.56609,-1.021988 4.762015,0.307116 1.755068,1.950513 1.150909,4.994548 -0.791545,6.569936 -2.588986,2.099744 -6.430754,1.284028 -8.377857,-1.275976 -2.45023,-3.221505 -1.419388,-7.870716 1.760407,-10.185777 3.851157,-2.803849 9.312806,-1.556057 11.993696,2.244837 3.159337,4.479222 1.693551,10.756226 -2.729267,13.801617 C 19.527242,80.327722 12.433026,78.643291 9.0240223,73.598001 5.1504954,67.865221 7.0540022,59.952538 12.72215,56.180543 c 6.358805,-4.231608 15.090846,-2.108725 19.225377,4.182558 4.590114,6.984516 2.247638,16.53657 -4.666988,21.033298 C 19.670544,86.34534 9.2979825,83.783109 4.4393213,76.244981 -0.86869566,68.009685 1.9134143,56.81623 10.07517,51.595842 c 3.715572,-2.376538 8.232029,-3.355273 12.600957,-2.777961"
     inkscape:spray-origin="#path832"
     transform="matrix(0.08399674,-0.02477199,0.02477199,0.08399674,2.9343674,-0.9327098)" />
  <path
     sodipodi:type="spiral"
     style="fill:none;fill-opacity:1;fill-rule:evenodd;stroke:#000000;stroke-width:1.1419;stroke-dasharray:none;stroke-opacity:1"
     id="path1526"
     sodipodi:cx="19.3396"
     sodipodi:cy="67.642296"
     sodipodi:expansion="1"
     sodipodi:revolution="3.6112528"
     sodipodi:radius="19.117819"
     sodipodi:argument="-17.802359"
     sodipodi:t0="0"
     d="m 19.3396,67.642296 c 0.398146,0.689609 -0.733148,0.876921 -1.146176,0.661745 -1.119279,-0.583116 -0.902145,-2.158723 -0.177314,-2.954096 1.296552,-1.422736 3.56609,-1.021988 4.762015,0.307116 1.755068,1.950513 1.150909,4.994548 -0.791545,6.569936 -2.588986,2.099744 -6.430754,1.284028 -8.377857,-1.275976 -2.45023,-3.221505 -1.419388,-7.870716 1.760407,-10.185777 3.851157,-2.803849 9.312806,-1.556057 11.993696,2.244837 3.159337,4.479222 1.693551,10.756226 -2.729267,13.801617 C 19.527242,80.327722 12.433026,78.643291 9.0240223,73.598001 5.1504954,67.865221 7.0540022,59.952538 12.72215,56.180543 c 6.358805,-4.231608 15.090846,-2.108725 19.225377,4.182558 4.590114,6.984516 2.247638,16.53657 -4.666988,21.033298 C 19.670544,86.34534 9.2979825,83.783109 4.4393213,76.244981 -0.86869566,68.009685 1.9134143,56.81623 10.07517,51.595842 c 3.715572,-2.376538 8.232029,-3.355273 12.600957,-2.777961"
     inkscape:spray-origin="#path832"
     transform="matrix(0.08757325,-1.600245e-4,1.600245e-4,0.08757325,2.4952568,-1.8710502)" />
</svg>
