<?xml version="1.0" encoding="UTF-8"?>
<svg width="10" height="10" version="1.1" viewBox="0 0 10 10" xmlns="http://www.w3.org/2000/svg">
 <path d="m1.49 1.77c0.0528-0.0584 0.71-0.589 1.07-0.575 0.508 0.144 0.606-0.465 1.06-0.565 0.615-0.251 1.36 0.0335 1.69 0.592 0.472-0.503 1.28-0.702 1.91-0.369 0.494 0.0909 0.564 0.808 1 0.822 0.733 0.0414 1.11 1 0.674 1.57 0.0748 0.208 0.313 0.615 0.441 0.168 0.519-0.795 0.0161-2-0.92-2.17-0.213-0.0355-0.444-0.0446-0.648 0.0372m-3.92 0.281c-0.261-0.121-0.554-0.31-0.142-0.459 0.43-0.23 1.01-0.0307 1.22 0.409-0.231-0.0263-0.781-0.237-1.07 0.0563 0.304 0.239-0.346 0.406-0.478 0.569-0.479 0.00526-0.782 0.44-1.17 0.604-0.248 0.104-0.64 0.353-0.51-0.151 0.0624-0.721 0.942-1.17 1.57-0.833 0.121 0.0448 0.222 0.133 0.319 0.216m3.61-0.562c-0.446-0.113-0.963-0.126-1.37 0.131-0.477 0.3 0.1-0.342 0.313-0.326 0.422-0.16 0.883-0.00233 1.2 0.282 0.135 0.074 0.27 0.154 0.381 0.262m-4.85-0.567c0.16 0.0292 0.476 0.0864 0.633 0.129m1.79-0.0867c-0.131 0.137-0.175 0.569-0.412 0.338m-0.725-0.119c0.148 0.034 0.241 0.196 0.405 0.14 0.108-0.0101 0.221 0.0221 0.327-0.00222m0.0437-0.05-0.00625 0.0562m-0.531 0c-0.138 0.0474-0.28 0.0784-0.419 0.125m1.62-0.0938c-0.0243 0.0732-0.0329 0.0615 0.0375 0.0312m-0.562-0.0188c0.179 0.0219 0.392 0.303 0.506 0.0438m-2.78-0.0312c-0.00424 0.276 0.0752 0.518-0.24 0.347-0.187-0.0535-0.371-0.0346-0.56-0.00921m1.24 6.09c0.111 0.197 0.219 0.581-0.0763 0.252-0.318-0.199 0.267-0.234 0.0598-0.546 0.0255-0.435 0.385-0.903 0.0059-1.3-0.306-0.131-0.0872-0.516-0.178-0.665-0.544-0.282-0.769 0.518-1.32 0.469-0.732 0.105-1.45-0.485-1.51-1.22-0.07-0.585 0.259-1.17 0.757-1.46-0.322-0.622-0.113-1.43 0.512-1.84-0.275 0.419-0.388 1.04-0.127 1.53 0.125-0.109 0.258-0.247 0.374-0.372m1.51-1.16c0.00282 0.123 0.0161 0.247 0.0625 0.362m2.51-0.00625c-0.527 0.455-0.367 1.41 0.279 1.67 0.581 0.285 1.36-0.249 1.23-0.907-0.0801-0.444-0.583-0.706-0.926-0.788-0.0493 0.212-0.351 0.578-0.476 0.151-0.242-0.327 0.505-0.476 0.764-0.455 0.436 0.0222 0.805 0.338 1.01 0.692-0.00613-0.287 0.703-0.379 0.137-0.479-0.096-0.0536-0.244 0.039-0.274-0.0934m-2.12-0.0875c-0.213 0.199-0.303 0.591-0.429 0.768-0.0219-0.311-0.0307-0.666-0.454-0.527-0.0653 0.394-0.804 0.583-0.899 0.629m3.42-0.777c0.0541 0.108 0.0905 0.218 0.112 0.338m0.419-0.269c0.0111 0.128 0.074 0.26 0.0375 0.388m-3.09-0.312c-0.358 0.00889-0.72 0.232-0.89 0.581-0.167 0.255-0.183 0.872 0.166 0.471 0.0585-0.0311 0.118-0.067 0.186-0.0706m0.712-0.975c0.103 0.278-0.148 0.521 0.281 0.538m-2.23-0.519c-0.382 0.0893-0.668 0.37-0.959 0.606-0.0482 0.0656-0.0492 0.151-0.091 0.219m1.07-0.819c0.0825 0.0473 0.202 0.0182 0.269 0.0938m1.9-0.075c0.0787 0.00966 0.152 0.0464 0.219 0.0875m2.92-0.0688c0.312-0.0746 0.734 0.622 0.219 0.374-0.202-0.0571-0.413-0.00225-0.612-0.0175m-4.33-0.352c-0.313 0.264-0.185 0.87-0.388 1.07-0.403-0.274-0.5 0.228-0.587 0.408-0.442-0.223-0.983-0.214-1.42 0.00549m5.37-1.32c0.117-0.03 0.235-0.0516 0.356-0.0375m-2.86 0.137c0.032 0.0526 0.0399 0.115 0.0688 0.169m-1.73-0.14c-0.0358 0.0956-0.056 0.224-0.0422 0.327m3.93-0.262c-0.192 0.253 0.0152 0.722-0.312 0.538 0.033 0.274-0.0928 0.617 0.331 0.58 0.424 0.0957 0.849-0.071 1.18-0.324m-3.02-0.788c0.15 0.0397 0.309 0.0341 0.462 0.0188m2.99-0.0188c0.173 0.286 0.0178 0.73 0.106 0.946 0.404-0.148 0.897 0.162 0.943 0.583-0.299 0.0941 0.0503 0.669 0.0234 0.189 0.00195-0.0582 2.36e-4 -0.117-0.0102-0.174m-4.36-1.51c-0.345 0.156-0.53 0.621-0.259 0.939 0.312 0.392 1.03-0.14 0.57-0.473-0.13-0.103-0.387 0.108-0.186 0.197m1.02-0.631c0.132 0.101 0.14 0.287 0.212 0.425m2.82-0.412c0.157 0.076 0.308 0.161 0.456 0.25m-1.88-0.244c-0.266 0.282-0.304 0.862-0.79 0.825-0.179-0.0232-0.31-0.161-0.391-0.312m-0.962-0.462c-0.0387 0.481 0.0984 0.997 0.475 1.32 0.164 0.203 0.777 0.326 0.204 0.447-0.321 0.182-0.397 0.639-0.672 0.885 0.0514 0.317-0.123 0.455-0.251 0.719m-2.16-2.87c0.0978-0.2 0.292-0.375 0.506-0.438m3.39 0.269c-0.421-0.173 0.352-0.436 0.356 0m-4.57-0.231c-0.133 0.232-0.27 0.471-0.3 0.744m5.79-0.512c0.387-0.0806 0.761 0.0689 1.06 0.312m-0.412-0.231c-0.149 0.191-0.428 0.252-0.656 0.2m-4.73-0.102c0.0578 0.635 0.56 1.28 1.21 1.36 0.475 0.0809 0.951-0.132 1.26-0.488m-2.5-0.781c-0.46 0.689-0.198 1.72 0.544 2.1 0.256 0.0998 0.549 0.12 0.311 0.442-0.238 0.347 0.234 0.89-0.198 1.08-0.115 0.0764-0.178 0.207-0.288 0.285m0.175-3.84c0.056 0.388 0.332 0.668 0.786 0.725 0.409 0.0517 0.691-0.145 0.864-0.382m-3.88-0.319c-0.0232 0.0591-0.05 0.117-0.075 0.175m0.6-0.0375c0.0384-0.0507 0.085-0.104 0.15-0.119m3.09 0.075c-0.277 0.175-0.365 0.156-0.106 0.444m2.77-0.456c-0.119 0.399-0.595 0.677-0.846 0.906 0.0306 0.304 0.542 0.783 0.712 0.651-0.335-0.219-0.302-0.614-0.294-0.951m-3.22-0.538c-0.123 0.0746-0.246 0.149-0.325 0.275m5.46-0.2c0.539 0.599 0.433 1.6-0.194 2.1-0.252 0.133-0.436 0.262-0.185 0.519 0.0802 0.401 0.347 0.739 0.325 1.16 0.0117 0.977-1.05 1.75-1.98 1.47-0.494-0.0803 0.289-0.327 0.362-0.524 0.806-0.079 1.47-0.83 1.41-1.65m-6.21-2.75c-0.289-0.176-0.491-0.332 0.0438-0.231m-0.381-0.00625h0.025m4.01 0c-0.00334 0.078-0.029 0.153-0.0312 0.231m2.65-0.251c0.308 0.69-0.086 1.6-0.799 1.82 0.0444 0.128 0.326 0.283 0.426 0.424m-0.781-1.73c-0.41-0.0782 0.278-0.502 0.337-0.0687 0.0472 0.153-0.0919 0.488 0.168 0.225 0.043-0.036 0.0923-0.0627 0.139-0.0941m-5.31-0.319c-0.0925 0.315-7.98e-5 0.57 0.362 0.4m-0.975 0.256c-0.372-0.231-0.829-0.193-1.23-0.0998-0.425 0.251-0.391 0.854-0.34 1.28-0.558-0.28-0.577-1.16-0.0978-1.54 0.534-0.495 1.49-0.223 1.73 0.442 0.232 0.257-0.0631 0.811 0.0717 0.938 0.112-0.0622 0.365-0.0621 0.35-0.22l-0.0124-0.0865m2.37-1.21c0.04 0.148 0.00361 0.307-0.00625 0.456m1.85-0.288c0.137 0.385 0.694 0.549 0.935 0.166m-2.3-0.0914c0.308 0.0807 0.619 0.0812 0.925-0.0187m-3.61 0.0562c0.0775 0.425 0.703 0.948 1.08 0.582 0.118-0.108 0.234-0.226 0.296-0.376m1.79-0.175c0.112 0.575 0.605 1.06 1.19 1.15 0.00174 0.384 0.561 0.333 0.718 0.703 0.184 0.261 0.189 0.585-0.0952 0.268-0.0879-0.0663-0.469-0.246-0.294-0.0188-0.0137 0.384 0.53 0.789 0.148 1.12-0.277 0.273-0.306 0.0734-0.236-0.212 0.0108-0.368-0.475 0.224-0.703-0.0289-0.306-0.0895-0.473-0.347-0.0853-0.454 0.352-0.255 0.58-0.675 0.596-1.11m-3.94-1.41c-0.0352 0.132 0.0247 0.406-0.162 0.425m-1.48-0.406c9.59e-4 0.0595 0.239 0.5 0.156 0.312m-0.388-0.288c0.101 0.0583 0.198 0.135 0.306 0.181m2.84-0.162c-0.0837 0.333-0.426 0.609-0.769 0.6m4.42-0.562c-0.083 0.414-0.629 0.705-1.02 0.55m-1.25 1.42c-0.0738-0.292 0.306-0.329 0.356-0.594 0.266 0.347 0.0744 0.917-0.392 0.841 0.203-0.522-0.566-0.319-0.742-0.648-0.407-0.447-0.0729-1.23 0.517-1.29 0.141-0.026 0.283-0.0123 0.423 0.0172m-5.47 0.306c0.0615 0.121 0.126 0.251 0.262 0.304-0.149 0.257-0.223 0.613 0.287 0.49 0.506-0.0523 0.855-0.644 0.635-1.12 0.158 0.142 0.314 0.286 0.516 0.355m-1.22-0.075c-0.121-0.393 0.574 0.00109 0.235 0.255-0.0951 0.13-0.264 0.149-0.41 0.12m4.28-0.406c0.396 0.136 0.911 0.237 1.12 0.524 0.102-0.0734 0.223-0.11 0.332-0.168m-0.956-0.156c-0.498 0.0609-0.176 0.952 0.14 0.5 0.00474-0.0476-0.0365-0.106-0.09-0.0875m-1.96 0.706c-0.126 0.378 0.491 0.296 0.577 0.238-0.0815-0.42-0.814-0.0265-0.557-0.578 0.054-0.424 0.351-0.586 0.711-0.722m-3.04 0.188c-0.13-0.213 0.262-0.174 0.269 0.00625m4.96-0.0687c0.0651 0.276 0.11 0.847-0.281 0.656l-0.0438 0.0254m-3.25-0.662c0.0581 0.388-0.285 0.768 0.0879 1.06 0.0453 0.0942 0.0862 0.193 0.0996 0.298m-2.3-1.33c0.00918 0.183 0.153 0.32 0.312 0.388m1.34-0.362c-0.00401 0.142-0.00623 0.294-0.0688 0.425m2.39-0.412c0.15-0.0148 0.291 0.0318 0.431 0.075m1.79-0.0125c0.191 0.0246 0.381-0.0116 0.569-0.0438m-4.28 0.025c0.178 0.013 0.355-5.44e-4 0.531-0.0188m2.25 0.0688c0.00363 0.0979 0.00881 0.196 0.00625 0.294m-4.05-0.269c-0.0468 0.06-0.0725 0.133-0.106 0.2m2.38-0.0938c0.0711 0.458 0.389 0.905 0.855 1.01 0.107-0.115 0.123-0.282 0.113-0.432m-4.32-0.556c-0.0458 0.0494-0.11 0.0888-0.131 0.156m-0.412-0.131c0.0195 0.0431 0.172 0.0843 0.205 0.103m5.67 0.166c0.0389-0.0956 0.16-0.137 0.25-0.169m-1.68 0.075c-0.165 0.0211-0.298 0.107-0.35 0.269m1.96-0.0812c-0.0557 0.128-0.128 0.268-0.25 0.344m-4.32 0.512c-0.342-0.182 0.396-0.387 0.341 0.0188 0.0169 0.633-0.977 0.449-0.887-0.117 0.123-0.305 0.78-0.25 0.915-0.679l0.0431-0.0479m-2.12 0.0438c0.423 0.296 0.134 0.807 0.342 1.22 0.29 0.405 0.335 0.941 0.717 1.29 0.347 0.338 0.847 0.521 1.33 0.428 0.393 0.312 0.91 0.512 1.42 0.397 0.483-0.0307 0.744-0.504 1.17-0.617 0.457-0.142 0.743-0.73 1.26-0.614 0.133 0.0174 0.269 0.0448 0.403 0.0278m-4.01-2.12c-0.0749 0.211-0.251 0.13-0.419 0.138m4.54-0.106c0.106 0.0319 0.2 0.0844 0.294 0.144m-1.67-0.0688c0.0551-0.0287 0.117-0.0375 0.175-0.0562m-3.52 0.0625c0.0378 0.0257 0.0834 0.025 0.125 0.0375m2.48-0.0375c0.0611 0.0583 0.0124 0.144-0.05 0.175m-4.31 0.0188c0.28 0.16 0.577 0.252 0.9 0.244m1.19-0.156c-0.138 0.221-0.258 0.845-0.00625 0.937m1.1-0.938c-0.15 0.0357-0.291 0.0966-0.438 0.144m0.973-0.152c0.451 0.0554 0.651 0.625 1.1 0.63 0.364 0.116 0.982-0.374 0.869 0.273-0.11 0.429 0.748 0.507 0.594-0.0293l0.00646-0.0531m0.0625-0.725c0.359 0.0546-0.153 0.444-0.281 0.156m1.31-0.15c0.028 0.257-0.0461 0.557-0.238 0.738m-6.7-0.719c-0.0704 0.278 0.116 0.873 0.329 0.825 0.00709-0.164 0.0313-0.344 0.128-0.481m3.83-0.338c0.16 0.0578 0.351 0.0676 0.512 0.0125m-3.92 2.34c-0.754 0.123-1.52-0.497-1.6-1.25-0.0494-0.361 0.00945-0.78 0.241-1.07m1.79 0.0875c0.0778-0.0194 0.157-0.0339 0.238-0.0375m4.92 0.112c-0.0403 0.119-0.107 0.223-0.188 0.319m-2.66 0.625c-0.319-0.0812-0.523-0.386-0.862-0.408-0.608-0.408 0.404-0.516 0.662-0.266 0.207 0.0926 0.721 0.766 0.208 0.675-0.268 0.276-0.341 0.817-0.851 0.768-0.473 0.00509-0.835-0.549-0.657-0.981 0.332 0.197 0.372 0.351 0.1 0.65m-0.881-1.22c0.0437 0.0411 0.0958 0.0708 0.144 0.106m1.58-0.106c0.118 0.162 0.348 0.263 0.544 0.3m1.47-0.212c-0.139 0.294-0.812 0.928-0.844 0.287-0.0283-0.102-0.103-0.177-0.144-0.274m-1.96 0.469c0.0601-0.198 0.201-0.396 0.4-0.469m1.84 0.05c-0.0255 0.071-0.11 0.0791-0.169 0.106m-3.88 0.275c0.154 0.296 1.07 0.398 0.931 0.025-0.0492-0.161 0.0902-0.339 0.251-0.356m-0.7 0.125c-0.0407 0.153-0.00652 0.302 0.0313 0.45m1.98-0.325c-0.594 0.0884-0.0496 1.05 0.157 0.464-0.0137-0.0385-0.0617-0.0667-0.101-0.0449m1.91-0.394c0.0487 0.484-0.48 0.671-0.558 1.09-0.0433 0.115-0.123 0.209-0.179 0.317m-2.47-1.39c-0.0448 0.094-0.148 0.162-0.244 0.194m3.91-0.0438c-0.0475 0.246-0.141 0.47-0.275 0.681m1.3-0.631c-0.153 0.0798-0.355 0.121-0.525 0.0875m-1.42-0.153c0.0269 0.184 0.0423 0.505 0.0211 0.689m-0.959-0.598c0.0147 0.081 0.0568 0.252 0.0648 0.334m0.909-0.265c0.0952 0.043 0.187 0.0968 0.294 0.106m-0.781-0.0938c0.155 0.738-0.644 1.4-1.35 1.2-0.304 0.0309-0.356-0.296-0.0402-0.235 0.482 0.0746 0.941-0.128 1.31-0.419m-1.42-0.523c0.0356 0.00512 0.122 0.00469 0.157 0.0109m-2.62 0.00625c0.368 0.252 0.741 0.472 1.12 0.695 0.159-0.0719 0.315-0.155 0.426-0.295m3.66-0.144c0.0671 0.0339 0.146 0.0469 0.206 0.0938m-4.7 0.05c0.271 0.0408 0.543 0.0158 0.806-0.0688m0.323 0.267c0.0665 0.218 0.419 0.221 0.589 0.314m-1.29-0.212c0.225 0.117 0.538 0.119 0.762 0m0.125 0.075c0.015 0.0217 0.0195 0.0976 0.0562 0.00625m-0.0375 0.0438c0.0881 0.0694 0.162 0.171 0.275 0.2m2.21-0.0813c0.324 0.108 0.676 0.00983 0.988-0.0938m-2.45 0.0812c0.0682 0.081 0.193 0.0753 0.275 0.138m-1.78-0.106c0.0636 0.0874 0.157 0.155 0.2 0.256" fill="none" stroke="#080808" stroke-width=".08"/>
</svg>
