<?xml version="1.0" encoding="UTF-8" standalone="no"?>
<svg
   width="10"
   height="10"
   version="1.1"
   viewBox="0 0 10 10"
   id="svg2460"
   sodipodi:docname="koedem-off.svg"
   inkscape:version="1.2.2 (732a01da63, 2022-12-09)"
   xmlns:inkscape="http://www.inkscape.org/namespaces/inkscape"
   xmlns:sodipodi="http://sodipodi.sourceforge.net/DTD/sodipodi-0.dtd"
   xmlns="http://www.w3.org/2000/svg"
   xmlns:svg="http://www.w3.org/2000/svg"
   xmlns:rdf="http://www.w3.org/1999/02/22-rdf-syntax-ns#"
   xmlns:cc="http://creativecommons.org/ns#"
   xmlns:dc="http://purl.org/dc/elements/1.1/">
  <defs
     id="defs2464" />
  <sodipodi:namedview
     id="namedview2462"
     pagecolor="#ffffff"
     bordercolor="#000000"
     borderopacity="0.25"
     inkscape:showpageshadow="2"
     inkscape:pageopacity="0.0"
     inkscape:pagecheckerboard="0"
     inkscape:deskcolor="#d1d1d1"
     showgrid="false"
     inkscape:zoom="16"
     inkscape:cx="2.375"
     inkscape:cy="14.5625"
     inkscape:window-width="2560"
     inkscape:window-height="1476"
     inkscape:window-x="-12"
     inkscape:window-y="-12"
     inkscape:window-maximized="1"
     inkscape:current-layer="OUTLINE" />
  <metadata
     id="metadata2442">
    <rdf:RDF>
      <cc:Work
         rdf:about="">
        <dc:format>image/svg+xml</dc:format>
        <dc:type
           rdf:resource="http://purl.org/dc/dcmitype/StillImage" />
      </cc:Work>
    </rdf:RDF>
  </metadata>
  <g
     id="OUTLINE">
    <path
       id="rect4039"
       style="fill:none;stroke:#000000;stroke-width:0.1;stroke-linejoin:round;stroke-dasharray:none;stroke-opacity:1;fill-opacity:1"
       d="M -0.9606352 3.1369123 C -1.0313148 3.0321205 -1.1522502 2.9632207 -1.2886988 2.9632207 L -3.8997484 2.9641876 C -4.1180663 2.9641876 -4.2926332 3.1395921 -4.2926332 3.35791 L -4.2924899 8.0690957 C -4.2924899 8.2191892 -4.2107983 8.3490043 -4.0879351 8.4155824 C -4.1025821 8.3426381 -4.0991449 8.2648728 -4.0690725 8.190441 L -2.3038102 3.8221837 C -2.2220269 3.619763 -1.9916778 3.5222576 -1.789257 3.6040409 L -0.89419506 3.9668337 L -0.89399982 3.3577969 C -0.89399982 3.2759277 -0.91822744 3.1997873 -0.9606352 3.1369123 z "
       transform="rotate(-60)" />
    <path
       id="path4041"
       style="display:inline;fill:none;fill-rule:evenodd;stroke:#000000;stroke-width:0.1;stroke-dasharray:none;stroke-opacity:1;fill-opacity:1"
       d="M 2.109375 3.8242188 L 2.0175781 3.9824219 L 1.8027344 3.8671875 L 1.65625 4.1210938 L 1.8632812 4.25 L 1.7207031 4.4960938 L 1.9746094 4.6425781 L 2.1132812 4.4042969 L 2.3945312 4.5800781 C 2.3864313 4.5815848 2.3772493 4.5840375 2.3691406 4.5859375 C 1.9899659 4.6753733 1.6618248 4.941748 1.7265625 5.3164062 C 1.7916304 5.6921951 2.2786753 5.9740004 2.7617188 5.7871094 C 3.0353931 5.6811613 3.2900906 5.5919736 3.5097656 5.7304688 L 3.3535156 6.1152344 L 3.6699219 6.296875 L 3.8203125 6.0351562 L 3.1855469 5.2226562 C 3.0668894 5.3178736 2.8485109 5.442554 2.6269531 5.4667969 C 2.4100766 5.4905035 2.1672592 5.3886303 2.1347656 5.2421875 C 2.1022721 5.0957447 2.2754596 4.9251852 2.4902344 4.9199219 C 2.6929737 4.914942 2.8824642 4.9658529 3.03125 5.0234375 L 2.3613281 4.1660156 L 2.2753906 4.1210938 L 2.296875 4.0839844 L 2.1582031 3.90625 C 2.1381542 3.8805886 2.1221711 3.8525824 2.109375 3.8242188 z " />
    <path
       id="rect4033"
       style="fill:none;stroke:#000000;stroke-width:0.1;stroke-linejoin:round;stroke-dasharray:none;stroke-opacity:1;fill-opacity:1"
       d="M 2.5212126 4.0790342 C 2.4583375 4.0366265 2.3820767 4.0129438 2.3002075 4.0129438 L -0.30887272 4.011876 C -0.52719055 4.011876 -0.70424037 4.1885717 -0.70424037 4.4068895 L -0.70458508 9.118346 C -0.70458508 9.2664379 -0.62131149 9.3933552 -0.50114154 9.4607063 C -0.51487456 9.3888097 -0.50916254 9.3128008 -0.47958911 9.239604 L 1.285434 4.8708309 C 1.3672173 4.6684102 1.5975618 4.5714192 1.7999825 4.6532025 L 2.6945823 5.0150575 L 2.6948843 4.4055699 C 2.6948843 4.2691213 2.6260044 4.1497138 2.5212126 4.0790342 z "
       transform="rotate(-38)" />
    <path
       id="path4035"
       style="display:inline;fill:none;fill-rule:evenodd;stroke:#000000;stroke-width:0.1;stroke-dasharray:none;stroke-opacity:1;fill-opacity:1"
       d="M 3.6972656 2.8769531 L 3.4667969 3.0566406 L 3.6113281 3.2539062 L 3.3847656 3.4296875 L 3.5664062 3.6621094 L 3.7832031 3.4902344 L 3.9785156 3.7597656 C 3.970443 3.7581256 3.9613563 3.7571327 3.953125 3.7558594 C 3.5680571 3.6967414 3.16431 3.8217311 3.0839844 4.1933594 C 3.0035413 4.5661596 3.3493069 5.0099091 3.8671875 5.0175781 C 4.1606229 5.021865 4.4302333 5.0353915 4.5820312 5.2460938 L 4.2929688 5.5429688 L 4.5175781 5.8300781 L 4.7558594 5.6445312 L 4.4726562 4.6523438 C 4.327188 4.6963946 4.0765527 4.730644 3.8613281 4.6699219 C 3.6513631 4.6106588 3.4655035 4.4252954 3.4902344 4.2773438 C 3.5149653 4.1293921 3.7383457 4.0357521 3.9394531 4.1113281 C 4.1292815 4.1826532 4.2859659 4.3010352 4.4023438 4.4101562 L 4.1015625 3.3632812 L 4.0410156 3.2910156 L 4.0742188 3.265625 L 4.0117188 3.046875 C 4.0025084 3.0147548 3.9991195 2.9830543 3.9980469 2.9511719 L 3.8535156 3.0644531 L 3.6972656 2.8769531 z " />
    <path
       id="rect4027"
       style="fill:none;stroke:#000000;stroke-width:0.1;stroke-linejoin:round;stroke-dasharray:none;stroke-opacity:1;fill-opacity:1"
       d="M 6.1020965 3.6474816 C 6.0763969 3.6422493 6.0499808 3.6409672 6.0226911 3.6409672 L 3.4120351 3.6400889 C 3.1937173 3.6400889 3.0164791 3.8163059 3.0164791 4.0346237 L 3.0165495 8.7464689 C 3.0165495 8.8958586 3.0984689 9.0245493 3.2203837 9.0914061 C 3.2057586 9.0184865 3.2122688 8.9404723 3.2423293 8.8660697 L 5.0064236 4.4995757 C 5.0882069 4.2971549 5.3177037 4.1993635 5.5201245 4.2811468 L 6.4158425 4.6436452 L 6.4158868 4.0341074 C 6.4158868 3.8430793 6.2819935 3.6841075 6.1020965 3.6474816 z "
       transform="rotate(-15.999999)" />
    <path
       id="path4029"
       style="display:inline;fill:none;fill-rule:evenodd;stroke:#000000;stroke-width:0.1;stroke-dasharray:none;stroke-opacity:1;fill-opacity:1"
       d="M 5.8242188 2.6699219 L 5.5429688 2.75 L 5.6015625 2.9863281 L 5.328125 3.0664062 L 5.4082031 3.3476562 L 5.6757812 3.2714844 L 5.7539062 3.59375 C 5.7470363 3.5892053 5.7395759 3.5843448 5.7324219 3.5800781 C 5.397539 3.381016 4.9754097 3.3456791 4.7617188 3.6601562 C 4.5474798 3.975676 4.7023898 4.5156848 5.1796875 4.7167969 C 5.4501501 4.8306944 5.6959985 4.9450414 5.7578125 5.1972656 L 5.3789062 5.3632812 L 5.4785156 5.7148438 L 5.7695312 5.6308594 L 5.8789062 4.6054688 C 5.7275313 4.5918245 5.4815056 4.5295128 5.3046875 4.3925781 C 5.1322117 4.2589762 5.0290681 4.0185392 5.1074219 3.890625 C 5.1857756 3.762711 5.4277858 3.7588879 5.5859375 3.9042969 C 5.7361122 4.0423551 5.8372908 4.2120797 5.9042969 4.3574219 L 6.0175781 3.2714844 L 5.9882812 3.1816406 L 6.0292969 3.1699219 L 6.0527344 2.9453125 C 6.0561337 2.9129704 6.0637438 2.8808192 6.0742188 2.8515625 L 5.8984375 2.9023438 L 5.8242188 2.6699219 z " />
    <rect
       style="fill:none;stroke:#000000;stroke-width:0.1;stroke-linejoin:round;stroke-dasharray:none;stroke-opacity:1;fill-opacity:1"
       id="rect4021"
       width="3.398855"
       height="5.4994631"
       x="6.327713"
       y="1.9014429"
       ry="0.3940759"
       transform="rotate(6.0000012)" />
    <path
       id="path4023"
       style="display:inline;fill:none;fill-rule:evenodd;stroke:#000000;stroke-width:0.1;stroke-dasharray:none;stroke-opacity:1;fill-opacity:1"
       d="M 7.5829517,3.2425784 7.8744404,3.2732154 7.8564874,3.516919 8.140399,3.546759 8.109762,3.8382475 7.8349814,3.8093665 7.8136224,4.1407523 q 0.00896,-0.00855 0.018422,-0.016669 C 8.1270856,3.8699111 8.5362594,3.761172 8.80157,4.0337918 9.0674913,4.3073318 9.0087749,4.8659813 8.5735033,5.1469047 8.3269275,5.3060373 8.1047459,5.4610731 8.0876692,5.7201993 L 8.4903923,5.8183434 8.4520964,6.1827041 6.41337,5.9684253 6.4516658,5.6040647 6.8659939,5.5917963 C 6.9031658,5.3347819 6.7180731,5.1369399 6.5099711,4.9300186 6.1427659,4.5647515 6.2014823,4.006102 6.5183174,3.7938122 6.8342538,3.5822839 7.2119554,3.7736899 7.4478836,4.0837067 q 0.00755,0.00995 0.014554,0.020135 l 0.048006,-0.3285852 -0.2751475,-0.028919 0.030637,-0.2914884 0.283907,0.02984 z M 7.1910918,4.3297688 C 7.33856,4.6402372 7.3262442,4.9839976 7.3106744,5.132134 7.2213878,5.1227496 6.9003607,4.9394584 6.7477052,4.6776373 6.6378364,4.4891528 6.6316721,4.2259837 6.7522381,4.1367356 6.8728039,4.0474875 7.0989267,4.1357028 7.1910918,4.3297688 Z m 0.8406058,0.088351 C 7.8229019,4.6911436 7.763477,5.0299526 7.7479072,5.178089 7.8371935,5.1874734 8.1893141,5.0749329 8.3930693,4.850572 8.5397253,4.6890495 8.6004707,4.4329128 8.5010953,4.3205479 8.4017199,4.2081831 8.1621973,4.2474571 8.0316976,4.4181198 Z" />
  </g>
</svg>
