<?xml version="1.0" encoding="UTF-8" standalone="no"?>
<svg
   viewBox="0 0 100 100"
   x="0px"
   y="0px"
   version="1.1"
   id="svg8"
   sodipodi:docname="regicide.svg"
   inkscape:version="1.2.2 (732a01da63, 2022-12-09)"
   xmlns:inkscape="http://www.inkscape.org/namespaces/inkscape"
   xmlns:sodipodi="http://sodipodi.sourceforge.net/DTD/sodipodi-0.dtd"
   xmlns="http://www.w3.org/2000/svg"
   xmlns:svg="http://www.w3.org/2000/svg"
   xmlns:rdf="http://www.w3.org/1999/02/22-rdf-syntax-ns#"
   xmlns:cc="http://creativecommons.org/ns#"
   xmlns:dc="http://purl.org/dc/elements/1.1/">
  <defs
     id="defs370" />
  <sodipodi:namedview
     id="namedview368"
     pagecolor="#ffffff"
     bordercolor="#000000"
     borderopacity="0.25"
     inkscape:showpageshadow="2"
     inkscape:pageopacity="0.0"
     inkscape:pagecheckerboard="0"
     inkscape:deskcolor="#d1d1d1"
     showgrid="false"
     inkscape:zoom="1.18"
     inkscape:cx="7.6271186"
     inkscape:cy="77.966102"
     inkscape:window-width="2560"
     inkscape:window-height="1476"
     inkscape:window-x="-12"
     inkscape:window-y="-12"
     inkscape:window-maximized="1"
     inkscape:current-layer="svg8" />
  <metadata
     id="metadata12">
    <rdf:RDF>
      <cc:Work
         rdf:about="">
        <dc:format>image/svg+xml</dc:format>
        <dc:type
           rdf:resource="http://purl.org/dc/dcmitype/StillImage" />
      </cc:Work>
    </rdf:RDF>
  </metadata>
  <path
     id="path"
     style="display:inline;fill:#808080;fill-rule:evenodd;stroke:#000000;stroke-width:0.5;stroke-dasharray:none;stroke-opacity:1"
     d="m 36.407595,23.944964 6.700492,-1.027336 1.030394,5.557022 6.526211,-1.000615 1.027336,6.700492 -6.316398,0.968446 1.469277,7.538474 q 0.150509,-0.243883 0.314161,-0.481123 c 5.106533,-7.419279 13.620685,-12.255871 21.157387,-7.716328 7.555759,4.556538 9.52469,17.398302 1.43843,26.239929 -4.580807,5.008511 -8.639996,9.782048 -7.499476,15.67894 l 9.585411,-0.170795 1.284171,8.375615 -46.864528,7.185386 -1.28417,-8.375615 9.19627,-2.708859 C 33.493972,74.74088 28.191084,71.402761 22.320139,67.996739 11.959742,61.983399 9.9908105,49.141634 15.830959,42.531203 c 5.82452,-6.588118 15.398182,-4.525662 22.497334,1.023078 q 0.227341,0.178157 0.443875,0.364898 l -0.856757,-7.632387 -6.324858,0.969743 -1.027337,-6.700491 6.526212,-1.000615 z m -2.377871,26.62243 c 5.12299,6.078598 6.867283,13.84074 7.389383,17.245978 -2.052449,0.314687 -10.310639,-1.89924 -15.263838,-6.859137 -3.565176,-3.57078 -5.249344,-9.421553 -3.076718,-12.126392 2.172626,-2.704839 7.749225,-2.060101 10.951173,1.739551 z m 19.323137,-2.962671 c -3.066502,7.334231 -2.405116,15.262407 -1.883016,18.667645 2.052448,-0.314687 9.267996,-4.901085 12.507671,-11.117134 2.331595,-4.474887 2.185495,-10.561481 -0.697705,-12.491148 -2.8832,-1.929668 -8.010468,0.356214 -9.92695,4.940637 z" />
  <g
     id="g1385"
     transform="translate(-104.26829,-38.351555)">
    <path
       id="rect541"
       style="stroke-width:0.1"
       d="m -87.714201,53.982062 2.8464,-4.850123 2.84641,4.850123 V 91.98512 h -5.69281 z"
       sodipodi:nodetypes="cccccc" />
    <rect
       style="fill:#000000;fill-opacity:1;stroke:none;stroke-width:0.1"
       id="rect1302"
       width="19.775021"
       height="4.9437551"
       x="-94.75531"
       y="90.494583"
       ry="0.71504235" />
    <rect
       style="fill:#000000;fill-opacity:1;stroke:none;stroke-width:0.113211"
       id="rect1330"
       width="3.9699852"
       height="13.281104"
       x="-86.852791"
       y="91.084946"
       ry="0.81269646" />
    <rect
       style="fill:#000000;fill-opacity:1;stroke:none;stroke-width:0.0702868"
       id="rect1330-2"
       width="3.5205529"
       height="5.7727699"
       x="102.11104"
       y="81.981415"
       ry="0.35324693"
       transform="rotate(90)" />
  </g>
  <path
     id="rect541-8"
     style="stroke:#ffffff;stroke-width:1;stroke-linecap:butt;stroke-linejoin:round;stroke-dasharray:none;stroke-opacity:1"
     d="m 84.230842,3.0956813 c -0.16924,0.01262 -0.32906,0.106547 -0.41992,0.265625 l -2.0918,3.6601559 c -0.14538,0.254524 -0.05726,0.57532 0.19727,0.720703 l 0.71289,0.408203 -4.95703,8.6777368 -9.34766,-5.339845 c -0.51521,-0.294284 -1.16665,-0.114818 -1.46094,0.400391 l -2.61132,4.56836 c -0.29429,0.515208 -0.11482,1.166652 0.40039,1.460937 l 8.22656,4.699219 -27.125,47.488281 0.09961,8.423828 7.30469,-4.193359 27.125,-47.488281 8.22851,4.699219 c 0.51521,0.294285 1.16665,0.11677 1.46094,-0.398438 l 2.60937,-4.570312 c 0.29429,-0.515208 0.11678,-1.166652 -0.39843,-1.460938 l -9.34766,-5.339843 4.95703,-8.677735 0.71289,0.406249 c 0.25453,0.145384 0.57728,0.05726 0.72266,-0.197265 l 2.08984,-3.6582048 c 0.14539,-0.254524 0.05726,-0.577272 -0.19726,-0.722656 l -6.58985,-3.7636719 c -0.09544,-0.05452 -0.19924,-0.07593 -0.30078,-0.068359 z" />
</svg>
