<?xml version="1.0" encoding="UTF-8" standalone="no"?>
<svg
   height="100"
   width="100"
   version="1.1"
   id="svg4"
   sodipodi:docname="exit+++.svg"
   inkscape:version="1.2.2 (732a01da63, 2022-12-09)"
   xmlns:inkscape="http://www.inkscape.org/namespaces/inkscape"
   xmlns:sodipodi="http://sodipodi.sourceforge.net/DTD/sodipodi-0.dtd"
   xmlns="http://www.w3.org/2000/svg"
   xmlns:svg="http://www.w3.org/2000/svg"
   xmlns:rdf="http://www.w3.org/1999/02/22-rdf-syntax-ns#"
   xmlns:cc="http://creativecommons.org/ns#"
   xmlns:dc="http://purl.org/dc/elements/1.1/">
  <metadata
     id="metadata10">
    <rdf:RDF>
      <cc:Work
         rdf:about="">
        <dc:format>image/svg+xml</dc:format>
        <dc:type
           rdf:resource="http://purl.org/dc/dcmitype/StillImage" />
      </cc:Work>
    </rdf:RDF>
  </metadata>
  <defs
     id="defs8" />
  <sodipodi:namedview
     pagecolor="#1c3a0c"
     bordercolor="#666666"
     borderopacity="1"
     objecttolerance="10"
     gridtolerance="10"
     guidetolerance="10"
     inkscape:pageopacity="0"
     inkscape:pageshadow="2"
     inkscape:window-width="2560"
     inkscape:window-height="1476"
     id="namedview6"
     showgrid="false"
     inkscape:zoom="8"
     inkscape:cx="28.625"
     inkscape:cy="37.75"
     inkscape:window-x="-12"
     inkscape:window-y="-12"
     inkscape:window-maximized="1"
     inkscape:current-layer="svg4"
     inkscape:document-rotation="0"
     inkscape:showpageshadow="2"
     inkscape:pagecheckerboard="false"
     inkscape:deskcolor="#d1d1d1"
     shape-rendering="auto" />
  <path
     id="path358"
     style="fill:#ffffff;stroke-width:0.106367"
     d="m 77.695312,11.904297 c 5.719528,0 10.400391,4.680863 10.400391,10.400391 v 55.390624 c 0,5.719529 -4.680863,10.400391 -10.400391,10.400391 H 22.304688 c -5.719529,0 -10.400391,-4.680862 -10.400391,-10.400391 V 22.304688 c 0,-5.719528 4.680862,-10.400391 10.400391,-10.400391 z M 30.279297,15.9375 30.226567,59.050781 h -3.558593 l -8.328125,12.980469 10.953125,0.06055 -0.1309,8.052734 -4.36914,5.283203 h 31.21097 l 3.328777,-4.396599 5.59961,-0.002 -3.026043,4.443474 4.912112,-0.0039 4.763671,-5.361327 -0.08008,-30.394531 -2.845703,-0.002 c -4.157364,-0.0017 -3.312265,0.485813 -6.958984,-4.015626 L 59.179686,42.5878 c 0,0 -2.364268,4.664261 -3.628907,6.951171 -1.100229,1.882338 -1.225978,2.497752 -0.591797,4.31836 0.710877,2.040808 9.339076,22.796389 9.892578,23.888672 0.372535,0.735123 0.512199,0.694698 -2.46289,0.705078 -3.238256,0.01127 -2.059369,1.675219 -8.44336,-11.921875 -2.993941,-6.376715 -5.479397,-11.008561 -5.523437,-11.056641 -0.08953,-0.09772 -1.341907,5.546906 -1.759766,8.183594 -0.83456,5.26615 0.51743,4.744734 -12.205078,4.708984 -10.348092,0 -10.186168,0.319209 -9.2806,-1.304687 0.194687,-0.34912 0.764186,-1.182238 1.391699,-1.976563 0.77228,-0.977562 1.154736,-1.526767 1.459214,-1.701172 l 0.44922,-0.257721 6.009766,-0.05273 c 7.870186,-0.06965 6.796691,1.562352 7.65625,-6.56836 0.771622,-7.29886 0.749446,-6.768564 1.181641,-7.814453 0.400643,-0.96952 2.662121,-5.459774 3.855469,-7.65625 1.400637,-2.577984 1.471769,-2.490234 -2.001954,-2.490234 -1.424333,0 -2.670701,0.03237 -2.769531,0.07031 -0.177962,0.06829 -2.688883,3.773864 -4.408203,6.50586 -1.361635,2.163631 -2.145741,2.693556 -3.427734,2.318359 -2.335048,-0.68339 -2.093851,-2.062396 1.302734,-7.449219 0.845254,-1.340521 1.944141,-3.08462 2.441406,-3.876953 1.315732,-2.09645 0.223432,-1.869963 9.146485,-1.908203 12.039972,-0.0516 11.634674,-0.231132 17.035156,7.53125 0.76132,1.067972 2.257812,3.191406 2.257812,3.191406 h 4.746094 V 15.992188 Z"
     sodipodi:nodetypes="sssssssssccccccccccccccccccsccscscsscccsscscsssssccccc" />
  <circle
     style="opacity:1;fill:#ffffff;stroke:none;stroke-width:8.54714;stroke-linecap:round;stroke-linejoin:round;stroke-dashoffset:6.24"
     id="path436"
     cx="58.4375"
     cy="25.8125"
     r="5.6875" />
</svg>
