<?xml version="1.0" encoding="UTF-8" standalone="no"?>
<svg
   height="100"
   width="100"
   version="1.1"
   id="svg4"
   sodipodi:docname="exit.svg"
   inkscape:version="1.2.2 (732a01da63, 2022-12-09)"
   xmlns:inkscape="http://www.inkscape.org/namespaces/inkscape"
   xmlns:sodipodi="http://sodipodi.sourceforge.net/DTD/sodipodi-0.dtd"
   xmlns="http://www.w3.org/2000/svg"
   xmlns:svg="http://www.w3.org/2000/svg"
   xmlns:rdf="http://www.w3.org/1999/02/22-rdf-syntax-ns#"
   xmlns:cc="http://creativecommons.org/ns#"
   xmlns:dc="http://purl.org/dc/elements/1.1/">
  <metadata
     id="metadata10">
    <rdf:RDF>
      <cc:Work
         rdf:about="">
        <dc:format>image/svg+xml</dc:format>
        <dc:type
           rdf:resource="http://purl.org/dc/dcmitype/StillImage" />
      </cc:Work>
    </rdf:RDF>
  </metadata>
  <defs
     id="defs8" />
  <sodipodi:namedview
     pagecolor="#1c3a0c"
     bordercolor="#666666"
     borderopacity="1"
     objecttolerance="10"
     gridtolerance="10"
     guidetolerance="10"
     inkscape:pageopacity="0"
     inkscape:pageshadow="2"
     inkscape:window-width="2560"
     inkscape:window-height="1476"
     id="namedview6"
     showgrid="false"
     inkscape:zoom="22.627417"
     inkscape:cx="58.424698"
     inkscape:cy="28.328465"
     inkscape:window-x="-12"
     inkscape:window-y="-12"
     inkscape:window-maximized="1"
     inkscape:current-layer="svg4"
     inkscape:document-rotation="0"
     inkscape:showpageshadow="2"
     inkscape:pagecheckerboard="false"
     inkscape:deskcolor="#d1d1d1"
     shape-rendering="auto" />
  <path
     style="fill:#000000;stroke-width:0.106367"
     d="M 17.060301,88.196656 C 14.473331,87.813512 12.76919,86.25631 11.989408,83.563008 L 11.744427,82.716861 V 49.849347 c 0,-31.554923 0.0078,-32.895124 0.195097,-33.558901 0.622528,-2.206108 2.322139,-3.763812 4.72047,-4.326343 1.294294,-0.303576 65.966035,-0.302779 67.041958,8.54e-4 2.215094,0.625064 3.76151,2.312362 4.326339,4.720469 0.303571,1.294294 0.302772,65.966029 -7.76e-4,67.041952 -0.606103,2.147883 -2.14603,3.611926 -4.506295,4.284257 l -0.829685,0.236353 -32.548417,0.01396 c -17.901627,0.0077 -32.788861,-0.02171 -33.082743,-0.06521 z m 23.44435,-2.722901 c 0.02256,-0.02086 -1.030466,-1.317353 -2.340083,-2.881044 -1.309615,-1.563699 -2.468357,-2.953273 -2.574981,-3.087938 l -0.193864,-0.24485 2.799863,7.76e-4 2.799866,7.75e-4 2.704585,3.083534 2.704592,3.08355 H 60.805431 75.206224 L 74.574903,84.657392 C 74.227684,84.233253 73.075842,82.83342 72.015258,81.546649 l -1.928335,-2.339577 -0.0046,-3.13834 c -0.0031,-1.726093 -0.03195,-3.987952 -0.06498,-5.026359 l -0.06002,-1.888021 h 4.851506 c 2.668327,0 4.851505,-0.02683 4.851505,-0.05963 0,-0.0328 -1.423738,-2.067069 -3.163865,-4.520616 l -3.16388,-4.46099 H 71.17831 69.02407 l -0.02683,-21.087333 -0.02683,-21.087327 -6.541597,0.02027 c -3.597875,0.01114 -12.704251,0.02311 -20.236389,0.02658 l -13.694797,0.0063 v 12.498197 12.498164 h 2.373366 2.373365 l 0.272822,-0.29251 c 0.150051,-0.160881 0.333507,-0.412174 0.407679,-0.558428 0.07417,-0.146256 0.784227,-1.199293 1.577903,-2.340083 5.400487,-7.76239 4.993904,-7.58263 17.033888,-7.531034 8.923062,0.03824 7.831863,-0.189267 9.147596,1.907185 0.497266,0.792334 1.595684,2.537399 2.440939,3.877922 3.396588,5.386828 3.637786,6.766069 1.302736,7.44946 -1.281995,0.375197 -2.06579,-0.155046 -3.427426,-2.31868 -1.719322,-2.731998 -4.230694,-6.438628 -4.408656,-6.50692 -0.09883,-0.03794 -1.345058,-0.06895 -2.769393,-0.06895 -3.473726,0 -3.402411,-0.08868 -2.001772,2.489307 1.193349,2.196478 3.454658,6.687892 3.855302,7.657413 0.432195,1.04589 0.409825,0.890812 1.181448,8.18968 0.85956,8.13072 -0.214145,7.122125 7.656049,7.191772 l 6.009751,0.05318 0.44983,0.257658 c 0.304478,0.174405 0.818487,0.724315 1.590768,1.701878 0.627514,0.794325 1.363846,1.683545 1.636284,1.97606 1.286617,1.381369 2.099234,1.271596 -9.657409,1.304596 -12.72252,0.03575 -11.369275,0.557805 -12.203836,-4.70835 -0.417859,-2.636691 -1.670984,-8.907258 -1.760519,-8.809537 -0.04404,0.04808 -2.529678,5.304734 -5.523622,11.681455 -6.383997,13.597108 -5.205718,11.933474 -8.443977,11.922207 -2.975092,-0.01038 -2.835171,0.0297 -2.462636,-0.705424 0.553503,-1.092284 9.181382,-22.471897 9.892259,-24.512707 0.634182,-1.82061 0.509433,-2.811711 -0.590797,-4.69405 -0.35474,-0.606913 -1.316516,-2.419286 -2.137275,-4.027496 l -1.492292,-2.924015 -2.518107,3.108297 c -3.646723,4.501443 -2.801573,4.013768 -6.958941,4.015479 l -2.845327,0.0012 -0.0088,11.035613 c -0.0048,6.069591 -0.02265,13.133517 -0.03963,15.697622 l -0.03085,4.661996 2.658899,3.247462 2.658901,3.247462 3.363889,-0.07677 c 1.850139,-0.04226 3.382359,-0.09389 3.404923,-0.114776 z m 0.303207,-54.090859 c -3.767818,-0.410915 -5.81201,-4.889962 -3.713521,-8.136728 2.127894,-3.292271 7.199669,-3.100133 9.030024,0.342091 2.065455,3.884363 -0.928077,8.273238 -5.316503,7.794637 z"
     id="path358" />
  <rect
     style="fill:none;stroke:#ffffff;stroke-width:4.978;stroke-linecap:round;stroke-linejoin:round;stroke-dasharray:none;stroke-opacity:1;fill-opacity:1"
     id="rect335"
     width="71.215179"
     height="71.215187"
     x="14.392408"
     y="14.392405"
     ry="7.9127998" />
</svg>
