<?xml version="1.0" encoding="UTF-8" standalone="no"?>
<svg
   height="100"
   width="100"
   version="1.1"
   id="svg4"
   sodipodi:docname="exit++.svg"
   inkscape:version="1.2.2 (732a01da63, 2022-12-09)"
   xmlns:inkscape="http://www.inkscape.org/namespaces/inkscape"
   xmlns:sodipodi="http://sodipodi.sourceforge.net/DTD/sodipodi-0.dtd"
   xmlns="http://www.w3.org/2000/svg"
   xmlns:svg="http://www.w3.org/2000/svg"
   xmlns:rdf="http://www.w3.org/1999/02/22-rdf-syntax-ns#"
   xmlns:cc="http://creativecommons.org/ns#"
   xmlns:dc="http://purl.org/dc/elements/1.1/">
  <metadata
     id="metadata10">
    <rdf:RDF>
      <cc:Work
         rdf:about="">
        <dc:format>image/svg+xml</dc:format>
        <dc:type
           rdf:resource="http://purl.org/dc/dcmitype/StillImage" />
      </cc:Work>
    </rdf:RDF>
  </metadata>
  <defs
     id="defs8" />
  <sodipodi:namedview
     pagecolor="#1c3a0c"
     bordercolor="#666666"
     borderopacity="1"
     objecttolerance="10"
     gridtolerance="10"
     guidetolerance="10"
     inkscape:pageopacity="0"
     inkscape:pageshadow="2"
     inkscape:window-width="2560"
     inkscape:window-height="1476"
     id="namedview6"
     showgrid="false"
     inkscape:zoom="1"
     inkscape:cx="33"
     inkscape:cy="169"
     inkscape:window-x="-12"
     inkscape:window-y="-12"
     inkscape:window-maximized="1"
     inkscape:current-layer="svg4"
     inkscape:document-rotation="0"
     inkscape:showpageshadow="2"
     inkscape:pagecheckerboard="false"
     inkscape:deskcolor="#d1d1d1"
     shape-rendering="auto" />
  <path
     id="path358"
     style="fill:#ffffff;stroke-width:0.106367"
     d="m 77.695312,11.904297 c 5.719528,0 10.400391,4.680863 10.400391,10.400391 v 55.390624 c 0,5.719529 -4.680863,10.400391 -10.400391,10.400391 H 22.304688 c -5.719529,0 -10.400391,-4.680862 -10.400391,-10.400391 V 22.304688 c 0,-5.719528 4.680862,-10.400391 10.400391,-10.400391 z M 31.029297,17.9375 30.976567,60.113281 h -4.308593 l -6.328125,8.980469 9.703125,0.06055 -0.1309,10.052734 -5.11914,6.220703 h 28.802769 l 5.408203,-6.166015 5.59961,-0.002 -5.105469,6.21289 6.765625,0.191406 5.318359,-6.49414 -0.08008,-31.394531 -2.845703,-0.002 c -4.157364,-0.0017 -3.312265,0.485813 -6.958984,-4.015626 L 59.179686,40.6503 c 0,0 -2.364268,4.664261 -3.628907,6.951171 -1.100229,1.882338 -1.225978,2.872752 -0.591797,4.69336 0.710877,2.040808 9.339076,23.421389 9.892578,24.513672 0.372535,0.735123 0.512199,0.694698 -2.46289,0.705078 -3.238256,0.01127 -2.059369,1.675219 -8.44336,-11.921875 -2.993941,-6.376715 -5.479397,-11.633561 -5.523437,-11.681641 -0.08953,-0.09772 -1.341907,6.171906 -1.759766,8.808594 -0.83456,5.26615 0.51743,4.744734 -12.205078,4.708984 -11.756631,-0.033 -10.942865,0.07668 -9.65625,-1.304687 0.272438,-0.292515 1.007253,-1.182238 1.634766,-1.976563 0.77228,-0.977562 1.287319,-1.526767 1.591797,-1.701172 l 0.44922,-0.257721 6.009766,-0.05273 c 7.870186,-0.06965 6.796691,0.937352 7.65625,-7.19336 0.771622,-7.29886 0.749446,-7.143564 1.181641,-8.189453 0.400643,-0.96952 2.662121,-5.459774 3.855469,-7.65625 1.400637,-2.577984 1.471769,-2.490234 -2.001954,-2.490234 -1.424333,0 -2.670701,0.03237 -2.769531,0.07031 -0.177962,0.06829 -2.688883,3.773864 -4.408203,6.50586 -1.361635,2.163631 -2.145741,2.693556 -3.427734,2.318359 -2.335048,-0.68339 -2.093851,-2.062396 1.302734,-7.449219 0.845254,-1.340521 1.944141,-3.08462 2.441406,-3.876953 1.315732,-2.09645 0.223432,-1.869963 9.146485,-1.908203 12.039972,-0.0516 11.634674,-0.231132 17.035156,7.53125 0.76132,1.067972 2.257812,3.191406 2.257812,3.191406 h 4.746094 V 17.992188 Z m 27.25,2.955078 c 1.762723,-0.06678 3.563007,0.707382 4.626953,2.353516 2.098487,3.246763 0.05297,7.725804 -3.714844,8.136718 -4.388421,0.478601 -7.381859,-3.910562 -5.316406,-7.794921 0.915177,-1.721111 2.641574,-2.628534 4.404297,-2.695313 z"
     sodipodi:nodetypes="sssssssssccccccccccccccccccsccscscsscccsscscssssscccccsssss" />
</svg>
