<?xml version="1.0" encoding="UTF-8" standalone="no"?>
<svg
   height="100"
   width="100"
   version="1.1"
   id="svg4"
   sodipodi:docname="exit+++++.svg"
   inkscape:version="1.2.2 (732a01da63, 2022-12-09)"
   xmlns:inkscape="http://www.inkscape.org/namespaces/inkscape"
   xmlns:sodipodi="http://sodipodi.sourceforge.net/DTD/sodipodi-0.dtd"
   xmlns="http://www.w3.org/2000/svg"
   xmlns:svg="http://www.w3.org/2000/svg"
   xmlns:rdf="http://www.w3.org/1999/02/22-rdf-syntax-ns#"
   xmlns:cc="http://creativecommons.org/ns#"
   xmlns:dc="http://purl.org/dc/elements/1.1/">
  <metadata
     id="metadata10">
    <rdf:RDF>
      <cc:Work
         rdf:about="">
        <dc:format>image/svg+xml</dc:format>
        <dc:type
           rdf:resource="http://purl.org/dc/dcmitype/StillImage" />
      </cc:Work>
    </rdf:RDF>
  </metadata>
  <defs
     id="defs8" />
  <sodipodi:namedview
     pagecolor="#1c3a0c"
     bordercolor="#666666"
     borderopacity="1"
     objecttolerance="10"
     gridtolerance="10"
     guidetolerance="10"
     inkscape:pageopacity="0"
     inkscape:pageshadow="2"
     inkscape:window-width="2560"
     inkscape:window-height="1476"
     id="namedview6"
     showgrid="false"
     inkscape:zoom="11.313709"
     inkscape:cx="66.379649"
     inkscape:cy="48.260038"
     inkscape:window-x="-12"
     inkscape:window-y="-12"
     inkscape:window-maximized="1"
     inkscape:current-layer="svg4"
     inkscape:document-rotation="0"
     inkscape:showpageshadow="2"
     inkscape:pagecheckerboard="false"
     inkscape:deskcolor="#d1d1d1"
     shape-rendering="auto" />
  <path
     id="path358"
     style="display:inline;fill:#ffffff;stroke-width:0.106367;stroke:none"
     d="m 71.544922,49.712891 v -4.78711 h -4.789063 c 0,0 -1.496493,-2.123435 -2.257812,-3.191406 -5.400477,-7.762374 -4.995196,-7.58285 -17.035156,-7.53125 -8.923044,0.03824 -7.830754,-0.188245 -9.146485,1.908203 -0.497264,0.792332 -1.596153,2.536434 -2.441406,3.876953 -3.396582,5.386818 -3.63778,6.76583 -1.302734,7.449219 1.281991,0.375197 2.0661,-0.154731 3.427734,-2.318359 1.719318,-2.731994 4.230241,-6.43757 4.408203,-6.50586 0.09883,-0.03794 1.3452,-0.07031 2.769531,-0.07031 3.47372,0 3.402589,-0.08775 2.001954,2.490234 -1.193347,2.196474 -3.454827,6.686731 -3.855469,7.65625 -0.432195,1.045888 -0.41002,0.515601 -1.181641,7.814453 -0.859558,8.130704 0.213928,6.49871 -7.65625,6.56836 l -6.009766,0.05273 -0.449218,0.257812 c -0.304478,0.174405 -0.686705,0.723611 -1.458985,1.701172 -0.627512,0.794325 -1.197891,1.627443 -1.392578,1.976563 -0.905567,1.623894 -1.066831,1.304687 9.28125,1.304687 12.722496,0.03575 11.370519,0.557161 12.205078,-4.708984 0.417859,-2.636685 1.670236,-8.281314 1.759766,-8.183594 0.04404,0.04808 2.529499,4.679932 5.523437,11.056641 6.383985,13.59708 5.205107,11.933145 8.44336,11.921875 2.975086,-0.01038 2.835425,0.03004 2.46289,-0.705078 -0.553501,-1.092282 -9.181701,-21.847866 -9.892578,-23.888672 -0.63418,-1.820606 -0.508431,-2.436023 0.591797,-4.31836 1.264638,-2.286907 3.628907,-6.951171 3.628907,-6.951171 l 2.517578,3.107421 c 3.646715,4.501435 2.801624,4.013926 6.958984,4.015626 z"
     sodipodi:nodetypes="ccccsscsscsssscccsscsssccsccccc" />
  <path
     id="path6480"
     style="fill:#ffffff;stroke-width:0.106367;fill-opacity:0.67000002;stroke:none"
     d="m 22.304688,11.904297 c -5.719524,0 -10.400391,4.680868 -10.400391,10.400391 v 55.390624 c 0,5.719524 4.680867,10.400391 10.400391,10.400391 h 55.390624 c 5.719523,0 10.400391,-4.680867 10.400391,-10.400391 V 22.304688 c 0,-5.719523 -4.680868,-10.400391 -10.400391,-10.400391 z m 7.974609,4.740234 41.222656,0.05469 0.08008,59.408203 -4.888672,7.111328 -41.377642,-0.04102 4.907052,-7.033203 0.02037,-4.052734 -11.9033,-0.06055 8.328125,-12.980469 h 3.558593 z"
     sodipodi:nodetypes="sssssssssccccccccccc" />
  <circle
     style="opacity:1;fill:#ffffff;stroke:none;stroke-width:8.54714;stroke-linecap:round;stroke-linejoin:round;stroke-dashoffset:6.24"
     id="path436"
     cx="58.4375"
     cy="25.8125"
     r="5.6875" />
</svg>
